<svg xmlns="http://www.w3.org/2000/svg" width="36" height="36" viewBox="0 0 36 36">
  <g id="Group_641" data-name="Group 641" transform="translate(0 -0.297)">
    <circle id="Ellipse_58" data-name="Ellipse 58" cx="18" cy="18" r="18" transform="translate(0 0.297)" fill="#fff"/>
    <path id="Ellipse_58_-_Outline" data-name="Ellipse 58 - Outline" d="M18,2A16,16,0,0,0,6.686,29.314,16,16,0,0,0,29.314,6.686,15.9,15.9,0,0,0,18,2m0-2A18,18,0,1,1,0,18,18,18,0,0,1,18,0Z" transform="translate(0 0.297)" fill="#39b154"/>
    <path id="Path_135" data-name="Path 135" d="M12.4,22.358,8.328,18.287a1.807,1.807,0,1,0-2.556,2.556L11.13,26.2a1.805,1.805,0,0,0,2.556,0L26.551,13.337a1.807,1.807,0,1,0-2.556-2.556Z" transform="translate(1.839 -0.194)" fill="#39b154"/>
  </g>
</svg>
