<?xml version="1.0" encoding="UTF-8" standalone="no"?>
<!-- Generator: Adobe Illustrator 22.0.1, SVG Export Plug-In . SVG Version: 6.00 Build 0)  -->

<svg
   version="1.1"
   id="Layer_1"
   x="0px"
   y="0px"
   viewBox="0 0 433.79999 302.45499"
   xml:space="preserve"
   width="433.79999"
   height="302.45499"
   xmlns="http://www.w3.org/2000/svg"
   xmlns:svg="http://www.w3.org/2000/svg"><defs
   id="defs746" />
<style
   type="text/css"
   id="style1">
	.st0{fill:#EAE2F0;}
	.st1{fill:#E1F4FD;}
	.st2{fill:#FFFFFF;}
	.st3{font-family:'Gantari-Bold';}
	.st4{font-size:30px;}
	.st5{fill:none;}
	.st6{font-family:'Gantari-Regular';}
	.st7{font-size:14px;}
	.st8{font-family:'Gantari-SemiBold';}
	.st9{fill:#782B90;}
	.st10{font-size:24px;}
	.st11{font-size:16px;}
	.st12{font-family:'Gantari-Medium';}
	.st13{font-family:'AlbertSans-MediumItalic';}
	.st14{font-size:16.8941px;}
	.st15{fill:url(#SVGID_1_);}
	.st16{fill:url(#SVGID_2_);}
	.st17{fill:url(#SVGID_3_);}
	.st18{fill:url(#SVGID_4_);}
	.st19{fill:#231F20;}
	.st20{font-family:'Gantari-BoldItalic';}
	.st21{fill:#10101A;}
	.st22{fill:#00AEEF;}
	.st23{font-size:11.4192px;}
	.st24{clip-path:url(#SVGID_6_);fill:#FFFFFF;}
	.st25{clip-path:url(#SVGID_6_);}
	.st26{fill:#020202;}
	.st27{fill:#EAEBF6;}
	.st28{clip-path:url(#SVGID_8_);}
	.st29{fill:#23A9E1;}
	.st30{font-size:18px;}
	.st31{fill:#BCBEC0;}
	.st32{font-size:12px;}
	.st33{font-size:13px;}
	.st34{fill:#FFFFFF;stroke:#000000;stroke-width:0.7148;stroke-miterlimit:10;}
	.st35{fill:#FFFFFF;stroke:#000000;stroke-width:0.6955;stroke-miterlimit:10;}
	.st36{fill:#010101;}
	.st37{fill:#FFFFFF;stroke:#000000;stroke-width:0.9307;stroke-miterlimit:10;}
	.st38{fill-rule:evenodd;clip-rule:evenodd;fill:#FFFFFF;stroke:#000000;stroke-miterlimit:10;}
	.st39{fill-rule:evenodd;clip-rule:evenodd;fill:#782B90;}
	.st40{fill:#FFFFFF;stroke:#000000;stroke-width:0.71;stroke-miterlimit:10;}
	.st41{fill:#FFFFFF;stroke:#000000;stroke-miterlimit:10;}
	.st42{fill:#FFFFFF;stroke:#000000;stroke-width:0.6956;stroke-miterlimit:10;}
	.st43{fill:none;stroke:#000000;stroke-miterlimit:10;}
	.st44{fill:#FFFFFF;stroke:#000000;stroke-width:1.2628;stroke-miterlimit:10;}
	.st45{fill:#FFFFFF;stroke:#000000;stroke-linecap:round;stroke-linejoin:round;stroke-miterlimit:10;}
	.st46{fill:none;stroke:#782B90;stroke-width:2;stroke-miterlimit:10;}
	.st47{fill:#FFFFFF;stroke:#000000;stroke-linejoin:round;stroke-miterlimit:10;}
	.st48{fill:#F7F6FB;}
	.st49{fill:#FFFFFF;stroke:#000000;stroke-width:0.2236;stroke-miterlimit:10;}
	.st50{fill:#FFFFFF;stroke:#000000;stroke-width:0.4473;stroke-miterlimit:10;}
</style>





























































































<g
   id="g748"
   transform="translate(-109.7,-1767.145)"><path
     class="st1"
     d="m 541.6,2069.6 h -430 v -268.4 c 0,-5.2 4.2,-9.5 9.5,-9.5 h 411.1 c 5.2,0 9.5,4.2 9.5,9.5 v 268.4 z"
     id="path162" /><path
     class="st2"
     d="m 443.8,2069.6 c 18.1,-24.1 28.9,-54 28.9,-86.5 0,-79.4 -64.4,-143.8 -143.8,-143.8 -79.4,0 -143.8,64.4 -143.8,143.8 0,32.5 10.8,62.4 28.9,86.5 z"
     id="path163" /><path
     d="M 543.5,1808.3 H 109.7 v -9 c 0,-5.2 4.2,-9.5 9.5,-9.5 H 534 c 5.2,0 9.5,4.2 9.5,9.5 z"
     id="path164" /><g
     id="g166">
	<circle
   class="st2"
   cx="128.3"
   cy="1799.6"
   r="4"
   id="circle164" />
	<circle
   class="st2"
   cx="141.39999"
   cy="1799.6"
   r="4"
   id="circle165" />
	<circle
   class="st2"
   cx="154.39999"
   cy="1799.6"
   r="4"
   id="circle166" />
</g><text
     transform="translate(172.1578,1802.499)"
     class="st2 st6 st23"
     id="text166">www.serkels.fr</text><g
     id="g454">
	<circle
   class="st40"
   cx="420.79999"
   cy="1796.5"
   r="29"
   id="circle452" />
	<path
   class="st41"
   d="m 407.7,1800.5 v -6.5 c 0,-1 0.8,-1.7 1.7,-1.7 v 0 h 23.7 c 1,0 1.7,0.8 1.7,1.7 v 18.4 c 0,1 -0.8,1.7 -1.7,1.7 h -23.7 c -1,0 -1.7,-0.8 -1.7,-1.7 v -4.2"
   id="path452" />
	<path
   class="st41"
   d="m 419.8,1804.4 -1.9,4.9 h 6.6 l -1.7,-5 c 1.7,-0.9 2.3,-2.9 1.5,-4.6 -0.9,-1.7 -2.9,-2.3 -4.6,-1.5 -1.7,0.9 -2.3,2.9 -1.5,4.6 0.4,0.8 0.9,1.3 1.6,1.6 z"
   id="path453" />
	<path
   class="st9"
   d="m 431.9,1792.3 h -3.3 v -2.7 c 0,-2.1 -0.8,-4 -2.2,-5.5 -2.7,-2.9 -7.1,-3 -10,-0.4 -0.1,0.1 -0.2,0.2 -0.4,0.4 -1.4,1.5 -2.2,3.5 -2.2,5.5 v 2.7 h -3.3 v -2.7 c 0,-2.9 1.1,-5.7 3.1,-7.8 3.9,-4.2 10.5,-4.4 14.6,-0.5 0.2,0.2 0.3,0.3 0.5,0.5 2,2.1 3.1,4.9 3.1,7.8 v 2.7 z"
   id="path454" />
</g><g
     id="g456">
	<circle
   class="st40"
   cx="495.10001"
   cy="1796.5"
   r="29"
   id="circle454" />
	<path
   class="st41"
   d="m 497.3,1779.9 c 3.3,-0.9 6.8,0.5 8.5,1.4 l -1.2,6.3 c -1.2,-1.3 -2.9,-1.9 -5.2,-1.9 -2.3,0 -4.1,0.9 -5.5,2.7 -0.8,1 -1.4,2.3 -1.7,3.8 h 11.5 l -0.7,3.5 h -11.2 c 0,0.3 0,0.8 0,1.3 0,0.5 0,1.1 0,1.7 h 10.6 l -0.7,3.5 h -9.5 c 0.3,1.6 0.9,2.9 1.6,3.8 1.4,1.8 3.2,2.7 5.4,2.7 2.7,0 4.8,-0.9 6.4,-2.7 v 7 c -1.8,1 -3.9,1.5 -6.3,1.5 -4.1,0 -7.4,-1.5 -10,-4.6 -1.8,-2.1 -3,-4.6 -3.5,-7.7 h -3.1 l 0.7,-3.5 h 2 c 0,-0.4 0,-0.8 0,-1.2 0,-0.7 0,-1.3 0,-1.8 h -2.7 l 0.7,-3.5 h 2.5 c 0.6,-3 1.7,-5.5 3.5,-7.6"
   id="path455" />
	<path
   class="st9"
   d="m 480.2,1821.3 c 0.8,0.5 1.5,0.9 2.9,1.9 l 27.4,-51 c -1.4,-1 -2.1,-1.5 -2.9,-1.8 z"
   id="path456" />
</g><g
     id="g460">
	<path
   class="st41"
   d="m 289.5,1841.4 c 1.7,-0.7 3.5,-0.9 5.3,-0.8 1.8,0.2 3.5,0.7 5.1,1.6 2,1.1 3.6,2.9 4.4,5 0.5,1.2 0.8,2.6 0.9,3.9 0,1.6 -0.3,3.1 -0.9,4.6 -1,2.5 -4.1,7 -4.8,10.7 -1.4,0 -10.7,-0.1 -10.7,-0.1 -0.5,-1.6 -0.9,-4.6 -1.9,-5.9 v 0 c -1.1,-1.2 -2,-2.5 -2.8,-3.9 -0.8,-1.6 -1.2,-3.4 -1.2,-5.2 0,-1.9 0.5,-3.8 1.5,-5.5 v 0 0"
   id="path457" />
	<g
   id="g459">
		<g
   id="g458">
			<path
   class="st41"
   d="m 290.4,1868.4 c 0,6.6 1.8,6.8 2.6,6.9 0.4,0.1 0.7,0.4 1.4,0.4 0.7,0 0.8,-0.2 1.2,-0.3 0.5,-0.1 2.7,-0.3 2.7,-7 z"
   id="path458" />
		</g>
	</g>
	<path
   class="st9"
   d="m 293.7,1834.1 c 0,-0.7 0.6,-1.3 1.3,-1.3 v 0 h 0.1 c 0.7,0.1 1.2,0.6 1.2,1.3 v 0 c 0,0 0,0 0,0.1 l -0.1,2.8 v 0 c 0,0 0,0.1 0,0.1 -0.1,0.7 -0.6,1.2 -1.3,1.2 v 0 h -0.1 c -0.7,-0.1 -1.2,-0.6 -1.2,-1.3 v 0 c 0,0 0,0 0,-0.1 z m -14.2,4.9 c -0.5,-0.5 -0.6,-1.3 -0.1,-1.9 0.5,-0.5 1.3,-0.6 1.9,-0.1 l 2.1,2 c 0.3,0.2 0.4,0.6 0.4,0.9 0,0.3 -0.1,0.7 -0.3,0.9 -0.2,0.3 -0.6,0.4 -0.9,0.4 -0.3,0 -0.7,-0.1 -0.9,-0.3 z m -3.5,14.5 c -0.7,0 -1.3,-0.6 -1.3,-1.3 0,-0.7 0.6,-1.3 1.3,-1.3 l 2.9,-0.1 c 0.7,0 1.3,0.6 1.3,1.3 v 0 0 0 c 0,0.7 -0.6,1.3 -1.3,1.3 h -0.1 z m 35.9,-4.1 v 0 c 0.7,0 1.4,0.5 1.4,1.2 v 0 c 0,0 0,0 0,0 0,0.7 -0.5,1.3 -1.2,1.4 l -2.9,0.3 c -0.7,0.1 -1.4,-0.5 -1.4,-1.2 -0.1,-0.7 0.5,-1.4 1.2,-1.4 v 0 c 0.9,-0.1 1.9,-0.2 2.9,-0.3 z m -5.7,-11.4 c 0.4,-0.6 1.2,-0.8 1.8,-0.4 0,0 0,0 0,0 v 0 c 0.3,0.2 0.5,0.5 0.6,0.8 0.1,0.3 0,0.7 -0.2,1 l -1.6,2.4 c -0.4,0.6 -1.2,0.8 -1.8,0.4 -0.6,-0.4 -0.8,-1.2 -0.4,-1.8 z"
   id="path459" />
	<path
   class="st9"
   d="m 289.7,1852.3 c 0.5,0.2 1,0.5 1.4,0.8 0.3,0.3 0.6,0.6 0.9,0.9 0.9,-1.4 1.8,-2.8 2.9,-4.1 0.9,-1.2 2,-2.2 3.1,-3.2 l 0.2,-0.1 h 2.8 l -0.6,0.6 c -1.5,1.7 -2.9,3.5 -4.2,5.4 -1.5,2.2 -2.9,4.4 -4.1,6.7 -0.6,-1.4 -1.5,-2.7 -2.5,-3.9 -0.8,-1 -1.7,-1.8 -2.7,-2.5 z"
   id="path460" />
</g><g
     id="g464">
	<path
   class="st9"
   d="m 419.6,1867.1 -0.9,1.7 5.3,-1.6 -1.5,-5.3 -1,1.8 c -2.7,-1.3 -5.9,-1 -8,2.3 2.2,-1 4.2,-0.6 6.1,1.1 z"
   id="path461" />
	<path
   class="st9"
   d="m 404,1888.6 0.9,-1.7 -5.3,1.6 1.5,5.3 1,-1.8 c 2.7,1.3 5.9,1 8,-2.3 -2.2,1 -4.2,0.5 -6.1,-1.1 z"
   id="path462" />
	<path
   class="st41"
   d="m 413.9,1886.2 v 5.2 c 0,0.3 0.1,0.6 0.4,0.8 0.2,0.2 0.5,0.4 0.8,0.4 h 14.1 c 0.3,0 0.6,-0.1 0.8,-0.4 0.2,-0.2 0.4,-0.5 0.4,-0.8 v -3.8 0 -16.2 c 0,-0.3 -0.1,-0.6 -0.4,-0.8 -0.2,-0.2 -0.5,-0.4 -0.8,-0.4 h -8.4 c 0,0 -0.1,0 -0.1,0 -0.1,0 -0.3,0.1 -0.4,0.1 v 0 c 0,0 0,0 0,0 l -6.2,6.3 c -0.1,0.1 -0.2,0.2 -0.2,0.4 0,0 0,0.1 0,0.1 v 3.7 m 0,-3.3 h 5.6 c 0.4,0 0.7,-0.2 1,-0.4 0.2,-0.2 0.4,-0.6 0.4,-1 v -6"
   id="path463" />
	<path
   class="st41"
   d="m 394.1,1878.1 v 5.2 c 0,0.3 0.1,0.6 0.4,0.8 0.2,0.2 0.5,0.4 0.8,0.4 h 14.1 c 0.3,0 0.6,-0.1 0.8,-0.4 0.2,-0.2 0.4,-0.5 0.4,-0.8 v -3.8 0 -16.2 c 0,-0.3 -0.1,-0.6 -0.4,-0.8 -0.2,-0.2 -0.5,-0.4 -0.8,-0.4 H 401 c 0,0 -0.1,0 -0.1,0 -0.1,0 -0.3,0.1 -0.4,0.1 v 0 c 0,0 0,0 0,0 l -6.2,6.3 c -0.1,0.1 -0.2,0.2 -0.2,0.4 0,0 0,0.1 0,0.1 v 3.7 m 0,-3.3 h 5.6 c 0.4,0 0.7,-0.2 1,-0.4 0.2,-0.2 0.4,-0.6 0.4,-1 v -6"
   id="path464" />
</g><g
     id="g466">
	<path
   class="st41"
   d="m 464.6,1920.8 v 14.5 c 0,1.3 -1.1,2.3 -2.3,2.3 h -23 c -1.3,0 -2.3,-1.1 -2.3,-2.3 v -15.8 c 0,-1.3 1.1,-2.3 2.3,-2.3 l 11.5,-12.9 11.5,12.9 c 1.3,0 2.3,1.1 2.3,2.3"
   id="path465" />
	<rect
   x="445.79999"
   y="1923.7"
   class="st9"
   width="10"
   height="13.9"
   id="rect465" />
	<path
   class="st41"
   d="m 437.6,1913 -6,6 c -0.6,0.6 -0.6,1.5 0,2.1 l 1.4,1.4 c 0.6,0.6 1.5,0.6 2.1,0 l 15.6,-15.6 15.6,15.6 c 0.6,0.6 1.5,0.6 2.1,0 l 1.4,-1.4 c 0.6,-0.6 0.6,-1.5 0,-2.1 l -17.9,-17.9 c -0.3,-0.3 -0.7,-0.4 -1.1,-0.4 -0.4,0 -0.8,0.1 -1.1,0.4 l -2.5,2.5"
   id="path466" />
</g><g
     id="g469">
	<g
   id="g467">
		<circle
   class="st41"
   cx="298.29999"
   cy="1991.7"
   r="14.2"
   id="circle466" />
	</g>
	<g
   id="g468">
		<path
   class="st41"
   d="m 294.9,1984.2 c 0.3,5.4 0.2,10.5 0.1,15.8 0,0 0.7,-0.5 1.8,-1.4 3.1,-2.5 6.2,-4.9 8.7,-7.1 -1.5,-1 -5.2,-3.9 -6.6,-4.9"
   id="path467" />
	</g>
</g><g
     id="g470">
	<path
   class="st41"
   d="m 354.8,1907 h 24.9 -26.8 c -1.8,-0.1 -3.1,-1.6 -3.3,-3.3 0,-0.7 0,-4.6 4.8,-4.4 4.6,0.1 25.2,0 25.2,0 l -4.5,-20.3 h -19.8 c -1.7,0 -2.7,1.1 -2.7,2 l -2.3,14.9"
   id="path469" />
	<line
   class="st41"
   x1="353"
   y1="1901.8"
   x2="378.5"
   y2="1901.8"
   id="line469" />
	<line
   class="st41"
   x1="353"
   y1="1904.1"
   x2="378.5"
   y2="1904.1"
   id="line470" />
	<path
   class="st9"
   d="m 361.1,1902 h 4.1 v 9 l -2,-2.9 -2,2.9 z"
   id="path470" />
</g><g
     id="g477">
	<path
   class="st9"
   d="m 239.7,2002.9 c 0,-0.8 -0.6,-1.4 -1.4,-1.4 h -8 c -0.8,0 -1.4,0.6 -1.4,1.4 0,0.8 0.6,1.4 1.4,1.4 h 8 c 0.8,0 1.4,-0.6 1.4,-1.4 z"
   id="path471" />
	<path
   class="st9"
   d="m 239.7,2009.6 c 0,-0.8 -0.6,-1.4 -1.4,-1.4 h -5.4 c -0.8,0 -1.4,0.6 -1.4,1.4 0,0.8 0.6,1.4 1.4,1.4 h 5.4 c 0.8,-0.1 1.4,-0.7 1.4,-1.4 z"
   id="path472" />
	<path
   class="st9"
   d="m 238.3,1997.7 c 0.8,0 1.4,-0.6 1.4,-1.4 0,-0.8 -0.6,-1.4 -1.4,-1.4 h -10.1 c -0.8,0 -1.4,0.6 -1.4,1.4 0,0.8 0.6,1.4 1.4,1.4 z"
   id="path473" />
	<path
   class="st41"
   d="m 249,1995 c -0.8,-0.2 -1.8,-0.4 -2.8,-0.5 v -1.2 h -3.1 v 21 c -4.6,-0.3 -11.6,3 -11.6,7.6 0,3.7 5.7,3.7 9.3,1.7 3.5,-1.9 5.4,-4.4 5.4,-6.7 0,-1 0,-2.1 0,-2.2 v -4.3 -8.1 -2.8 c 5.4,0.3 6.1,1.8 5.6,8.8 3,-3.9 3.8,-7.4 2.3,-9.9"
   id="path474" />
	<path
   class="st9"
   d="m 267.1,2001.4 c -1.4,0.2 -2.6,-0.2 -3.7,-1.1 -1.1,-0.9 -1.8,-2 -2,-3.4 h -0.2 c 0.2,1.3 -0.2,2.6 -1.1,3.7 -0.9,1.1 -2,1.8 -3.4,2 v 0.2 c 1.4,-0.2 2.6,0.2 3.7,1.1 1.1,0.9 1.8,2 2,3.4 h 0.2 c -0.2,-1.4 0.2,-2.6 1.1,-3.7 0.9,-1.1 2,-1.8 3.4,-2 z"
   id="path475" />
	<path
   class="st9"
   d="M 258.1,2008.7 H 258 c -0.1,1.1 -0.5,1.9 -1.4,2.7 -0.8,0.7 -1.8,1.1 -2.9,1 v 0.1 c 1.1,0.1 1.9,0.5 2.7,1.4 0.7,0.8 1.1,1.8 1,2.9 h 0.1 c 0.1,-1.1 0.5,-1.9 1.4,-2.7 0.8,-0.7 1.8,-1.1 2.9,-1 v -0.1 c -1.1,-0.1 -1.9,-0.5 -2.7,-1.4 -0.8,-0.8 -1.1,-1.8 -1,-2.9 z"
   id="path476" />
	<path
   class="st9"
   d="m 252,2017.2 v 0 c -0.1,0.8 -0.4,1.5 -1,2.1 -0.6,0.6 -1.3,0.9 -2.1,0.9 v 0.1 c 0.8,0 1.5,0.3 2.1,0.9 0.6,0.6 0.9,1.3 0.9,2.1 h 0.1 c 0,-0.8 0.3,-1.5 0.9,-2.1 0.6,-0.6 1.3,-0.9 2.1,-0.9 v -0.1 c -0.8,0 -1.5,-0.3 -2.1,-0.9 -0.6,-0.6 -0.9,-1.3 -0.9,-2.1 z"
   id="path477" />
</g><g
     id="g480">
	<path
   class="st41"
   d="m 357.1,1935.3 v 6.6 c 0,1.6 1.3,2.9 2.9,2.9 h 3.4 v 5.1 l 5.2,-5.1 h 17.5 c 1.6,0 2.9,-1.3 2.9,-2.9 v -13.8 c 0,-1.6 -1.3,-2.9 -2.9,-2.9 H 360 c -1.6,0 -2.9,1.3 -2.9,2.9"
   id="path478" />
	<g
   id="g479">
		<rect
   x="360.70001"
   y="1929.3"
   class="st22"
   width="8.1999998"
   height="11.6"
   id="rect478" />
		<rect
   x="377.20001"
   y="1929.3"
   class="st9"
   width="8.1999998"
   height="11.6"
   id="rect479" />
	</g>
</g><g
     id="g481">
	<g
   id="Group_601_2_">
		<path
   id="Path_94_7_"
   class="st44"
   d="m 230.4,1868.3 c -1.7,3 -3.2,5.7 -3.7,6.2 -1.3,1.7 -1.9,3.7 -1.9,5.8 -0.2,4.5 3.2,8.3 7.6,8.7 4.2,-0.1 7.6,-3.4 7.9,-7.6 0.5,2 2.5,3.2 4.5,2.7 1.3,-0.3 2.4,-1.4 2.7,-2.7 0.3,4.2 3.7,7.5 7.9,7.6 4.5,-0.4 7.8,-4.2 7.6,-8.7 0,-2.1 -0.6,-4.1 -1.9,-5.8 -1,-1.3 -7.9,-13.9 -8.8,-14.7 -0.8,-0.7 -1.8,-1.1 -2.9,-1.1 -1.7,0.1 -3,1.3 -3.3,2.9 0,0.3 0,0.8 0,1.2 -1.5,0.5 -3,0.5 -4.5,0 0,-0.4 0,-0.9 0,-1.2 -0.2,-1.6 -1.6,-2.9 -3.3,-2.9 -1.1,0 -2.1,0.4 -2.9,1.1 -0.2,0.2 -1,1.4 -2,3.1 m 9.1,17.2 c -0.1,-0.7 0.5,-1.4 1.2,-1.5 0.7,-0.1 1.4,0.5 1.5,1.2 0,0.1 0,0.1 0,0.2 0,0.3 -0.3,1.5 -1.4,1.5 -1.1,0 -1.3,-1 -1.3,-1.4 z m 5.1,1.3 c -0.5,-4.3 2.8,-7.9 7,-8.3 4.3,-0.5 8.1,2.6 8.6,6.8 0,0.3 0,0.6 0,0.9 m -38.3,0.9 c -0.5,-4.3 2.6,-8.1 6.8,-8.6 4.2,-0.5 8.1,2.6 8.6,6.8 0,0.3 0.1,1.2 0.1,1.5" />
	</g>
	<path
   class="st9"
   d="m 255.9,1884.9 c -2.3,0.3 -4.3,-1.4 -4.5,-3.6 -0.3,-2.3 1.4,-4.3 3.6,-4.5 2.3,-0.3 4.3,1.4 4.5,3.6 0,0.2 0,0.3 0,0.5 0.2,2 -1.5,3.9 -3.6,4 z"
   id="path480" />
	<path
   class="st9"
   d="m 233,1884.9 c -2.9,0.3 -5.5,-2.5 -4.2,-5.8 0.2,-0.6 0.7,-1.2 1.2,-1.5 2.9,-2 6.3,-0.1 6.6,2.8 0,0.2 0,0.3 0,0.5 0.2,2 -1.4,3.9 -3.6,4 z"
   id="path481" />
</g><g
     id="g486">
	<path
   class="st45"
   d="m 203.9,1912.9 c 0,0 3,-4.4 6.7,-2.3 5.7,3.2 0.3,6.7 0.3,6.7 0,0 1.5,-0.8 2.7,-3 2.4,0 3.7,1.9 4.5,3.4 1.1,2.1 0.6,5.2 -0.6,6.2 -0.3,0.3 1,-0.8 1.4,-0.6 1.3,0.5 2.9,1.7 2.9,5.5 0,2.8 -2.9,5.4 -5.4,4.5 -0.6,-0.2 1.6,0.3 1.8,1 1.1,3.3 -1.6,6.6 -4.4,7.6 -0.6,0.2 -1.8,-3.3 -4.4,-4.2 0.1,0.1 3.3,1.8 4.1,5 1.1,4.2 -9.1,8.2 -9.3,1.9 -0.1,-4.4 -0.2,-28.6 -0.2,-28.6"
   id="path482" />
	<path
   class="st46"
   d="m 209.6,1921.3 c 0,0 3.5,1.8 3.7,5.9 0.3,4.6 -1.3,6.6 -1.3,6.6"
   id="path483" />
	<path
   class="st45"
   d="m 194.2,1914.3 c -2.4,0 -3.7,1.9 -4.5,3.4 -1.1,2.1 0.1,5.5 0.4,6.2 0.2,0.4 -0.4,-0.9 -0.8,-0.8 -1.3,0.5 -3.4,1.9 -3.4,5.6 0,2.8 3.1,5 5.4,4.2 0.6,-0.2 -1.2,0.2 -1.8,1.3 -1.9,3 1.6,6.6 4.4,7.6 0.6,0.2 1.8,-3.3 4.4,-4.2 -0.1,0.1 -3.3,1.8 -4.1,5 -1.1,4.2 9.1,8.2 9.3,1.9 0.1,-4.4 0.2,-31.5 0.2,-31.5"
   id="path484" />
	<path
   class="st45"
   d="m 203.9,1912.9 c 0,0 -3,-4.4 -6.7,-2.3"
   id="path485" />
	<path
   class="st46"
   d="m 198.2,1921.3 c 0,0 -3.5,1.8 -3.7,5.9 -0.3,4.6 1.3,6.6 1.3,6.6"
   id="path486" />
</g><path
     class="st41"
     d="m 293.5,1931.2 c 2.3,0 4.3,0.5 5.9,1.4 l -1.2,6.1 c -1.2,-1.3 -2.8,-1.9 -5,-1.9 -2.2,0 -4,0.9 -5.4,2.6 -0.8,1 -1.3,2.2 -1.6,3.7 h 11.2 l -0.7,3.4 h -10.9 c 0,0.3 0,0.8 0,1.3 0,0.5 0,1.1 0,1.6 h 10.4 l -0.7,3.4 h -9.3 c 0.3,1.6 0.9,2.8 1.6,3.7 1.4,1.7 3.1,2.6 5.3,2.6 2.6,0 4.7,-0.9 6.2,-2.6 v 6.8 c -1.8,1 -3.8,1.4 -6.2,1.4 -4,0 -7.2,-1.5 -9.8,-4.4 -1.7,-2 -2.9,-4.5 -3.4,-7.5 h -3 l 0.7,-3.4 h 2 c 0,-0.4 0,-0.7 0,-1.1 0,-0.7 0,-1.3 0,-1.8 h -2.7 l 0.7,-3.4 h 2.4 c 0.6,-2.9 1.7,-5.4 3.4,-7.4"
     id="path487" /><g
     id="g490">
	<path
   class="st9"
   d="m 416.3,2011.4 c -0.6,0 -1.1,0.7 -1.1,1.6 0,0.9 0.5,1.6 1.1,1.6 h 13.5 c 0.6,0 1.1,-0.7 1.1,-1.6 0,-0.9 -0.5,-1.6 -1.1,-1.6 z"
   id="path488" />
	<path
   class="st41"
   d="m 431.5,1995.1 c -1.5,-5 -4.4,-7.3 -8.6,-7.6 l -0.1,1.3 c -0.9,-1 -2,-1.8 -3.2,-2.3 -0.1,0.7 -0.1,1.5 0,2.2 0.2,0.1 0.4,0.4 0.4,0.7 0,0.5 -0.4,0.5 -0.8,0.8 -1,0.7 -1.8,2.5 -4.4,5.3 -1.3,1.5 0.7,3.8 2,2.5 l 1.3,-1.3 c 2.1,0.3 4.5,0.4 4.9,-2.7 3.2,5.9 -6.5,7.4 -7.2,13.7 -0.1,0.5 -0.1,1.1 -0.1,1.7 h 14.1 c 0.3,-2.9 1.2,-4.4 1.7,-7.2"
   id="path489" />
	<path
   class="st41"
   d="m 431.8,2022.2 c 0.3,-2.2 -1.3,-3.9 -2.2,-5.6 h -12.8 c -0.9,1.7 -2.7,3.3 -2.4,5.6 z"
   id="path490" />
</g><g
     id="g498">
	<path
   class="st9"
   d="m 355.2,1976.2 c 1.3,-0.7 2.8,-1.2 4.4,-1.3 l -4.1,-10.2 c -0.1,-0.4 -0.3,-0.6 -0.6,-0.8 -0.3,-0.1 -0.6,-0.2 -0.9,-0.1 -0.9,0.5 -0.9,1.1 -0.7,1.9 z"
   id="path491" />
	<path
   class="st9"
   d="m 358,1981.6 c 0.6,-0.6 1.6,-0.7 2.2,-0.7 -0.3,-2.3 -0.2,-3.1 -0.3,-5.3 -1.6,0 -3,0.5 -4.4,1.3 z"
   id="path492" />
	<path
   class="st9"
   d="m 360.4,1982.3 c -0.2,0 -0.3,0 -0.5,0 -0.4,0 -0.7,0.2 -1,0.4 -0.7,0.5 -1.3,1.4 -1.4,2.3 -0.4,3.2 3.7,3.8 4.7,6.4 0.5,-1.2 1.2,-2.9 1.2,-4.7 0,-1.9 -0.9,-4.1 -3,-4.4 z"
   id="path493" />
	<path
   class="st41"
   d="m 331.3,1985.3 c -0.1,9 7.8,18.9 17.4,17.5 5.1,-0.7 9.7,-4.1 12.3,-8.4 -0.2,0 -0.4,-0.1 -0.6,-0.2 -0.7,-0.3 -1.1,-0.8 -1.4,-1.4 -0.2,-0.4 -0.9,-1 -1.5,-1.5 -1.9,-1.4 -3.7,-2.8 -3.3,-6.1 0.1,-0.7 0.3,-1.4 0.6,-2 l -2.4,-4.5 c -0.1,-0.3 -0.2,-0.5 -0.3,-0.8 0,-0.1 -0.1,-0.1 -0.1,-0.2 -0.7,0.4 -1.4,0.8 -2.3,1 -4.4,1.4 -7.4,-0.6 -3.9,-5.1 2.4,-3.1 -2.9,-5.9 -7.5,-2.8 -1.4,1 -2.8,2.4 -3.9,4"
   id="path494" />
	<path
   class="st41"
   d="m 336.8,1978 c 1,-0.8 2.5,-0.7 3.4,0.4 0.8,1 0.7,2.5 -0.4,3.4 -1,0.8 -2.5,0.7 -3.4,-0.4 -0.8,-1 -0.7,-2.5 0.4,-3.4 z"
   id="path495" />
	<path
   class="st41"
   d="m 339.6,1990.8 c -1.2,1 -3,0.8 -4,-0.5 -1,-1.2 -0.8,-3 0.5,-4 1.2,-1 3,-0.8 4,0.5 0.9,1.2 0.7,3 -0.5,4 z"
   id="path496" />
	<path
   class="st41"
   d="m 346.7,1998 c -1.4,1.1 -3.5,0.9 -4.6,-0.5 -1.1,-1.4 -0.9,-3.5 0.5,-4.6 1.4,-1.1 3.5,-0.9 4.6,0.5 1.1,1.4 0.9,3.5 -0.5,4.6 z"
   id="path497" />
	<path
   class="st41"
   d="m 354.8,1995.2 c -1.2,0.9 -2.9,0.7 -3.8,-0.4 -2.2,-2.8 2,-6.1 4.2,-3.4 1,1.2 0.8,2.9 -0.4,3.8 z"
   id="path498" />
</g><g
     id="g500">
	<path
   class="st9"
   d="m 405.9,2034.1 c -0.6,-1.6 -2.4,-1.4 -4.5,-1.1 -0.4,0.1 -0.9,0.1 -1.3,0.2 -1.9,0.2 -3.7,0.1 -5.4,-0.4 0,1.4 0,2.7 -0.1,3.6 -0.2,3 -0.9,6.4 -2.3,9.4 1.7,0.8 3.5,2.1 3.4,4 -1.5,-0.9 -3.1,-1.7 -4.6,-1.8 v 0 c -1.2,2.1 -2.9,3.8 -4.9,4.9 0.8,0.6 1.6,1 2.6,1.3 6.2,1.7 11.6,-3.9 14.3,-8.9 1.4,-2.5 3.9,-8.5 2.8,-11.2 z m -3.8,7.4 c -0.2,0.1 -0.5,0.2 -0.9,0.2 -1,0.1 -2.4,-0.1 -3.5,-0.6 -0.9,-0.4 -1.5,-0.8 -1.9,-1.7 1.6,-1.3 3.9,-1 5.4,0.2 0.4,0.4 1.5,1.4 0.9,1.9 z"
   id="path499" />
	<path
   class="st41"
   d="m 370.9,2046.7 c 2.6,3.8 5.7,5.8 9.3,5.6 6.8,-0.4 10.3,-7.8 11.3,-13.6 0.5,-2.9 1,-9.7 -1,-12.1 -1.1,-1.4 -2.8,-0.6 -4.8,0.3 -0.4,0.2 -0.8,0.4 -1.3,0.6 -3.3,1.5 -6.6,1.8 -10.1,0.9 -1.6,-0.4 -3.3,-0.9 -4.9,-1 -0.9,-0.1 -1.6,0.1 -2.1,0.6 -1.6,1.6 -0.5,8.7 0.1,10.7 m 15.3,-3.9 c 2.3,-2.7 6.6,-1 6.3,0 -0.1,0.3 -0.4,0.5 -1,0.8 -1.2,0.6 -8.6,2.9 -5.3,-0.8 z m -12.2,2.2 c -0.6,-0.2 -1,-0.4 -1.1,-0.6 -0.5,-0.9 3.5,-3.3 6.2,-1.1 4,3 -3.7,2.1 -5.1,1.7 z m 13.1,8.4 c -1.8,2.5 -4.3,2.6 -6.7,0.8 -1,-0.7 -1.6,-1.7 -1.9,-2.9 3.5,1.8 6.7,1.6 9.7,-0.8 -0.1,1.1 -0.5,2 -1.1,2.9 z"
   id="path500" />
</g><g
     id="g507">
	<g
   id="g502">
		<path
   class="st41"
   d="m 192.3,1970.9 h -10 c -1.8,0 -3.2,1.4 -3.2,3.2 v 20.7 l 6.4,-6.4 h 14.3 c 1.8,0 3.2,-1.4 3.2,-3.2 v 0 -11.1 c 0,-1.8 -1.4,-3.2 -3.2,-3.2"
   id="path501" />
		<path
   class="st9"
   d="m 207.7,1977.3 h -1.6 v 12.7 c 0,0.9 -0.7,1.6 -1.6,1.6 h -19.1 v 1.6 c 0,1.8 1.4,3.2 3.2,3.2 h 15.9 l 6.4,6.4 v -22.3 c 0,-1.8 -1.5,-3.2 -3.2,-3.2 z"
   id="path502" />
	</g>
	<g
   id="g506">
		<g
   id="g503">
			<path
   class="st9"
   d="M 198.5,1982.6 H 184 c -0.4,0 -0.8,0.4 -0.8,0.8 0,0.4 0.4,0.8 0.8,0.8 h 14.5 c 0.4,0 0.8,-0.4 0.8,-0.8 0,-0.4 -0.4,-0.8 -0.8,-0.8 z"
   id="path503" />
		</g>
		<g
   id="g504">
			<path
   class="st9"
   d="M 198.5,1978.8 H 184 c -0.4,0 -0.8,0.4 -0.8,0.8 0,0.4 0.4,0.8 0.8,0.8 h 14.5 c 0.4,0 0.8,-0.4 0.8,-0.8 0,-0.4 -0.4,-0.8 -0.8,-0.8 z"
   id="path504" />
		</g>
		<g
   id="g505">
			<path
   class="st9"
   d="M 192.6,1975 H 184 c -0.4,0 -0.8,0.4 -0.8,0.8 0,0.4 0.4,0.8 0.8,0.8 h 8.6 c 0.4,0 0.8,-0.4 0.8,-0.8 0,-0.4 -0.3,-0.8 -0.8,-0.8 z"
   id="path505" />
		</g>
	</g>
</g><g
     id="g508">
	<path
   class="st41"
   d="m 407.1,1949.8 c -1,3.8 -1.4,6.4 -1.4,7.8 0,0.9 0.3,1.6 0.8,2.2 0.5,0.5 1.2,0.8 2,0.8 0.9,0 2,-0.4 3.4,-1.2 1.3,-0.8 3.3,-2.4 6.1,-5 0.2,-0.2 0.2,-0.4 0.1,-0.7 -0.1,-0.2 -0.4,-0.3 -0.6,-0.2 -2.5,1.2 -5.3,2.4 -5.9,2.5 0,0 0,0 -0.1,-0.1 -0.1,-0.1 -0.1,-0.2 -0.1,-0.4 0,-1.4 1.1,-5.7 3.2,-12.8 1.8,-5.9 2,-7.2 2,-7.6 0,-0.6 -0.2,-1.2 -0.7,-1.5 -0.4,-0.4 -1,-0.5 -1.8,-0.5 -1.3,0 -2.7,0.5 -4.5,1.5 -1.7,1 -3.6,2.6 -5.6,4.8 -0.2,0.2 -0.2,0.4 0,0.6 0.1,0.2 0.4,0.3 0.6,0.2 0.7,-0.3 4.3,-1.8 4.8,-2.1 0.4,-0.3 0.8,-0.4 1.1,-0.4 0,0 0,0 0,0 0,0 0,0.1 0,0.1 0,0.3 -0.1,0.7 -0.2,1.1 -0.2,0.5 -1.2,3.6 -1.3,4.2"
   id="path507" />
	<path
   class="st9"
   d="m 419.5,1921.7 c -0.7,-0.7 -1.6,-1.1 -2.7,-1.1 -1.3,0 -2.5,0.5 -3.5,1.6 -0.9,1 -1.4,2.3 -1.4,3.7 0,1.2 0.4,2.1 1,2.8 0.7,0.7 1.6,1.1 2.6,1.1 1.3,0 2.4,-0.6 3.4,-1.7 1,-1.1 1.5,-2.4 1.5,-3.8 0.2,-1 -0.2,-1.9 -0.9,-2.6 z"
   id="path508" />
</g><g
     id="g511">
	<path
   class="st9"
   d="m 336.3,2024.9 c 2.3,0 4.1,-1.8 4.1,-4.1 0,-2.3 -1.8,-4.1 -4.1,-4.1 -2.3,0 -4.1,1.8 -4.1,4.1 -0.1,2.2 1.8,4.1 4.1,4.1 z"
   id="path509" />
	<path
   class="st9"
   d="m 337.6,2046.2 c -1.7,-1.3 -3.1,-2.2 -4.1,-3.3 -2.2,-2.7 -0.3,-5.3 -0.2,-8.3 0,-0.3 0,-0.7 0,-1 l -12.8,12.8 c 0.6,0 1.1,0 1.7,-0.1 2.4,-0.2 4.1,-1.3 6.6,-0.2 2.1,1 3.1,3 5,5.2 0.9,1 1.1,1.2 2.4,0.8 1.8,-0.6 2.6,-1.9 2.8,-3.5 0.2,-1.5 -0.3,-1.6 -1.4,-2.4 z"
   id="path510" />
	<path
   class="st41"
   d="m 311.5,2042.9 c 1.7,1.4 3.6,2.3 5.6,2.9 l 15.7,-15.7 c -0.8,-2.7 -2.5,-5.3 -5,-7.3 -6.1,-4.9 -14.6,-4.4 -19.1,1.2 -2.8,3.5 -3.4,8.1 -1.9,12.3"
   id="path511" />
</g><g
     id="g515">
	<path
   class="st9"
   d="m 203.7,2039 c 1.1,-1.4 2,-3.4 1.6,-5.2 -0.2,-1.3 -1,-2.4 -2,-3.7 -0.8,-1.2 -1.2,-2 -0.8,-4.6 -3.7,7 3,4.9 1.2,13.5 z"
   id="path512" />
	<path
   class="st9"
   d="m 206,2030.7 c 0.4,0.7 0.7,1.5 1,2.3 0.8,2.8 0.3,5.2 -0.8,9 3.1,-3.4 4.3,-7.5 1.9,-11.7 -1.6,-2.9 -2.7,-4 -2.8,-6.4 0,-1.3 0.2,-2.6 0.5,-3.9 -0.7,0.8 -1.2,1.8 -1.5,2.8 v 0 c -0.2,0.7 -0.4,1.4 -0.4,2.1 -0.1,2.3 1,3.9 2.1,5.8 z"
   id="path513" />
	<g
   id="g514">
		<path
   class="st47"
   d="m 195.3,2054 c 0,0 0.2,0.3 0.2,0.3 0.9,1.5 1.8,2.7 3,3.7 4.2,3.7 9.6,3.7 13.8,-0.1 1.2,-1.1 2.2,-2.2 3.1,-3.7 0,0 0.2,-0.3 0.2,-0.3 0.1,-0.2 0.2,-0.4 0.4,-0.6 3.9,0 6.4,-2 7.5,-4.3 0.5,-1 0.8,-2.2 0.7,-3.4 -0.1,-1.1 -0.6,-2.1 -1.5,-2.8 -1,-0.7 -2.4,-0.9 -4.2,-0.3 0,-0.6 -0.1,-1.2 -0.1,-1.8 0,0 0,-0.1 0,-0.1 0,-0.2 0,-0.3 -0.1,-0.5 0,-0.1 -0.1,-0.2 -0.1,-0.3 -0.5,-1 -1.9,-1.8 -3.9,-2.4 -1,-0.3 -1.9,-0.5 -2.9,-0.6 -0.1,0.5 -0.3,1 -0.4,1.5 1,0.1 1.9,0.3 2.8,0.6 1.6,0.5 2.6,1 2.8,1.5 v 0.3 c -0.1,0.6 -1.2,1.1 -2.9,1.6 -2.7,0.7 -5.4,1 -8.2,1 -2.8,0 -5.5,-0.3 -8.2,-1 -1.7,-0.5 -2.8,-1.1 -2.9,-1.6 l 0.1,-0.3 c 0.3,-0.5 1.3,-1 2.8,-1.5 1.5,-0.4 3.1,-0.7 4.6,-0.8 0.1,-0.5 0.1,-1.1 0.1,-1.6 -1.8,0.1 -3.6,0.4 -5.3,0.9 -1.9,0.5 -3.2,1.3 -3.8,2.2 -0.1,0.1 -0.2,0.2 -0.2,0.4 -0.1,0.2 -0.1,0.4 -0.1,0.6 v 0.1 c -0.2,1.1 -0.2,2.1 -0.2,3.2 0,1.3 0.2,2.5 0.4,3.7 m 25.2,0 c 0.2,-1 0.3,-2.1 0.4,-3.2 v 0 c 1.5,-0.6 2.5,-0.5 3.2,-0.1 0.5,0.4 0.8,0.9 0.8,1.5 0.1,0.8 -0.1,1.7 -0.5,2.4 -0.8,1.6 -2.5,3 -5,3.3 0.4,-1.2 0.8,-2.5 1.1,-3.9 z"
   id="path514" />
	</g>
</g><g
     id="g520">
	<path
   id="messenger_5_"
   class="st41"
   d="m 313.2,1940 c 0,4.5 2.2,8.7 5.9,11.4 l -0.2,8.9 6.3,-6.1 c 1.5,0.4 2.3,0.5 3.9,0.5 8.7,0 15.8,-6.5 15.8,-14.6 0,-8.1 -7.1,-14.6 -15.8,-14.6 -4.7,0 -8.9,1.9 -11.8,4.9" />
	<g
   id="g519">
		<g
   id="g516">
			<path
   class="st9"
   d="m 337.6,1944.7 h -16.1 c -0.7,0 -1.2,0.5 -1.2,1.2 0,0.7 0.5,1.2 1.2,1.2 h 16.1 c 0.7,0 1.2,-0.5 1.2,-1.2 0,-0.7 -0.5,-1.2 -1.2,-1.2 z"
   id="path515" />
		</g>
		<g
   id="g517">
			<path
   class="st9"
   d="m 337.6,1939 h -16.1 c -0.7,0 -1.2,0.5 -1.2,1.2 0,0.7 0.5,1.2 1.2,1.2 h 16.1 c 0.7,0 1.2,-0.5 1.2,-1.2 0,-0.7 -0.5,-1.2 -1.2,-1.2 z"
   id="path516" />
		</g>
		<g
   id="g518">
			<path
   class="st9"
   d="m 328.9,1933.3 h -7.3 c -0.7,0 -1.2,0.5 -1.2,1.2 0,0.7 0.5,1.2 1.2,1.2 h 7.3 c 0.7,0 1.2,-0.5 1.2,-1.2 0,-0.7 -0.6,-1.2 -1.2,-1.2 z"
   id="path517" />
		</g>
	</g>
</g><g
     id="g522">
	<path
   class="st9"
   d="m 245.9,1959.8 v 0 c -2.9,0 -5.2,2.3 -5.2,5.2 0,2.9 2.3,5.2 5.2,5.2 2.9,0 5.2,-2.3 5.2,-5.2 0.1,-2.8 -2.3,-5.2 -5.2,-5.2 z"
   id="path520" />
	<path
   class="st41"
   d="m 227.2,1967.2 v 5.7 c 0,2.4 1.9,4.3 4.3,4.3 h 27.4 c 2.4,0 4.3,-1.9 4.3,-4.3 v -13.7 c 0,-2.4 -1.9,-4.3 -4.3,-4.3 h -2.4 l -1.4,-3.4 c -0.4,-0.9 -0.8,-1.8 -1.8,-1.8 h -12.8 c -1,0 -1.4,0.9 -1.8,1.8 l -1.5,3.4 h -5.7 c -2.4,0 -4.3,1.9 -4.3,4.3 m 18.7,14.5 c -4.8,0 -8.7,-3.9 -8.7,-8.7 0,-4.8 3.9,-8.7 8.7,-8.7 4.8,0 8.7,3.9 8.7,8.7 0,4.8 -3.9,8.7 -8.7,8.7 z"
   id="path521" />
	<path
   class="st9"
   d="m 259.5,1961.1 c -1,0 -1.9,-0.8 -1.9,-1.9 0,-1 0.8,-1.9 1.9,-1.9 1,0 1.9,0.8 1.9,1.9 0,1 -0.8,1.9 -1.9,1.9 z"
   id="path522" />
</g><g
     id="g525">
	<path
   class="st9"
   d="m 238.5,1923.8 v 6.6 c 0,0.5 0.2,1.1 0.6,1.4 0.4,0.4 0.9,0.6 1.4,0.6 h 30 c 1.1,0 1.9,-0.9 1.9,-2 v -16.6 c -1.9,1.3 -3.8,2.4 -5.8,3.3 -2.6,1.2 -5.1,2.2 -7.9,2.8 -0.1,0 0.1,0 0,0 v 0 2.6 c 0,0.4 -0.1,0.7 -0.4,1 -0.2,0.3 -1.3,0.4 -1.6,0.4 h -3.2 c -0.7,0 -1.3,-0.6 -1.3,-1.4 v -2.7 H 252 c -2.8,-0.6 -4.9,-1.6 -7.5,-2.8 -2.1,-1 -4.1,-2.1 -6,-3.5 v 4.1"
   id="path523" />
	<path
   class="st41"
   d="m 240.7,1908.8 h -1.1 c -1.1,0 -2,0.9 -2,2 v 2.9 c 2.3,1.6 4.7,2.9 7.2,4.1 2.6,1.1 4.4,2 7.1,2.6 v -2.7 c 0,-0.4 0.1,-0.7 0.4,-1 0.3,-0.3 0.6,-0.4 1,-0.4 h 4.5 c 0.8,0 1.5,0.6 1.5,1.4 v 2.8 c 2.8,-0.6 4.5,-1.5 7.1,-2.7 2.5,-1.1 4.8,-2.4 7,-3.9 v -3.1 c 0,-0.5 -0.2,-1 -0.6,-1.4 -0.4,-0.4 -0.9,-0.6 -1.4,-0.6 H 263 v -4.1 c 0,0 0,0 0,0 0,-0.8 -0.7,-1.4 -1.4,-1.4 h -12 c -0.8,0 -1.4,0.6 -1.4,1.4 v 4.1 h -2.3 m 14,-0.1 h -8.7 v -2.6 c 0,0 0,-0.1 0,-0.1 0,0 0.1,-0.1 0.1,-0.1 h 8.3 v 0 c 0,0 0.1,0 0.1,0.1 0,0 0.1,0.1 0.1,0.1 v 2.6 z"
   id="path524" />
	<path
   class="st41"
   d="m 256.8,1919.1 h -2.6 c 0,0 -0.1,0 -0.1,0 0,0 0,0 0,0.1 v 2.8 c 0,0 0,0 0,0.1 0,0 0.1,0 0.1,0 h 2.6 c 0,0 0.1,0 0.1,0 0,0 0,0 0,-0.1 v -2.8 c 0,0 0,0 0,-0.1 z"
   id="path525" />
</g><g
     id="g540">
	<path
   class="st9"
   d="m 287,2052.3 c 0.3,-0.3 0.3,-0.8 0.1,-1.2 -0.4,-0.9 -1.2,-2.6 -2,-4.4 -0.6,-1.2 -1.1,-2.5 -1.6,-3.4 -0.8,-2 -2.3,-1.3 -3.9,-1.6 h -1.7 l -1.9,2.8 5.2,0.1 1.3,2.8 c 0.3,1.1 0.5,1.4 1.2,2.9 -0.7,0 -1.1,0 -1.8,0 -6.2,-0.3 -9.3,0.1 -16.4,-0.1 -0.5,0 -0.9,0 -1.3,0 -2.5,0 -3.2,0 -3.2,0 l 2.8,-6 h 4.9 l -1.1,-2.5 h -3.1 c -1.4,0.3 -2.8,-0.4 -3.8,1.7 -0.4,1.1 -1,2.5 -1.6,3.9 -0.4,1 -0.9,2.1 -1.2,3 -0.6,1.5 -0.2,2.7 1.3,2.7 1.1,0 2.6,0 4.3,0 0.6,0 1.1,0 1.7,0 6.6,-0.2 12.4,-0.2 18.7,-0.1 0.7,0 1.4,0 2,0 0.5,0.1 0.8,-0.3 1.1,-0.6 z"
   id="path539" />
	<path
   class="st41"
   d="m 280.7,2030.4 c 0,-0.1 0.1,-0.1 0.1,-0.2 l 0.2,-0.4 v 0 c 0.5,-1.1 0.8,-2.4 0.8,-3.8 0,-5 -4,-9 -9,-9 -5,0 -9,4 -9,9 0,1.3 0.3,2.5 0.7,3.6 v 0 l 0.1,0.2 c 0.1,0.2 0.2,0.4 0.3,0.6 l 7.8,15.6 4.8,-9.4 m -4.7,-6.2 c -2.4,0 -4.3,-1.9 -4.3,-4.3 0,-2.4 1.9,-4.3 4.3,-4.3 2.4,0 4.3,1.9 4.3,4.3 0,2.4 -1.9,4.3 -4.3,4.3 z"
   id="path540" />
</g><g
     id="g639">
	<path
   class="st9"
   d="m 357.1,1853 c -0.1,0.1 -0.3,0.1 -0.4,0 l -12.7,-5 v 8 c 1.6,4 7.3,7.1 13.1,7.2 6.1,0.1 12.3,-3.1 14.2,-7.4 l -0.2,-8.4 z"
   id="path634" />
	<path
   class="st41"
   d="m 352.8,1835.1 2.6,-1 c 0.9,-0.4 2,-0.4 2.9,0 l 3.9,1.5 19,7.2 c 0.5,0.2 0.5,0.9 0,1.1 L 357,1853 c -0.1,0.1 -0.3,0.1 -0.4,0 l -24.2,-9.1 c -0.5,-0.2 -0.5,-0.9 0,-1.1 l 12.8,-4.8"
   id="path635" />
	<path
   class="st9"
   d="m 339.3,1858.2 -1.4,8.5 c 0,0.1 0.7,0.3 1.1,0 0.5,0.3 1.1,0.2 1.3,0 0.2,0.2 0.8,0.4 1.2,0 0.4,0.3 1.2,0.1 1.1,-0.1 l -1.1,-8.3 c 0,-0.1 -2.2,-0.2 -2.2,-0.1 z"
   id="path636" />
	<g
   id="g638">
		<path
   class="st43"
   d="m 340.6,1858.2 c 0,0.2 -0.1,0.3 -0.3,0.3 -0.2,0 -0.3,-0.1 -0.3,-0.3 v -12.2 0 c 0,-0.1 0.1,-0.3 0.2,-0.3 l 14.4,-5"
   id="path637" />
		<path
   class="st41"
   d="m 340.3,1860.2 c 1.3,0 2.4,-1 2.4,-2.2 0,-1.2 -1.1,-2.2 -2.4,-2.2 -1.3,0 -2.4,1 -2.4,2.2 0,1.2 1.1,2.2 2.4,2.2 z"
   id="path638" />
	</g>
</g><g
     id="g649">
	<path
   class="st41"
   d="m 319.5,1890.6 -12.3,5.6 10,22 5.4,-4.5 6.9,-1 z"
   id="path646" />
	<path
   class="st41"
   d="m 310.4,1890.9 12.3,5.6 -10,22 -5.4,-4.6 -7,-1 c 0.1,-0.1 10.1,-22 10.1,-22 z"
   id="path647" />
	<path
   class="st41"
   d="m 308.7,1880.3 c 1,-0.5 1.6,-2.4 2.7,-2.7 1.1,-0.3 2.4,1.2 3.5,1.2 1.1,0 2.5,-1.5 3.5,-1.2 1.1,0.3 1.7,2.2 2.7,2.7 1,0.5 2.8,-0.3 3.7,0.5 0.9,0.7 0.6,2.7 1.3,3.6 0.7,0.9 2.6,1 3.2,2.1 0.5,1 -0.6,2.7 -0.4,3.8 0.3,1.1 2,2.1 2,3.3 0,1.2 -1.7,2.2 -1.9,3.3 -0.3,1.1 0.9,2.8 0.4,3.8 -0.5,1.1 -2.5,1.2 -3.2,2.1 -0.7,0.9 -0.4,2.9 -1.3,3.6 -0.9,0.7 -2.7,0 -3.7,0.5 -1,0.5 -1.6,2.4 -2.7,2.7 -1.1,0.3 -2.4,-1.2 -3.5,-1.2 -1.1,0 -2.5,1.5 -3.5,1.2 -1.1,-0.3 -1.7,-2.2 -2.7,-2.7 -1,-0.5 -2.8,0.3 -3.7,-0.5 -0.9,-0.7 -0.6,-2.7 -1.3,-3.6 -0.7,-0.9 -2.6,-1 -3.2,-2.1 -0.5,-1 0.6,-2.7 0.4,-3.8 -0.3,-1.1 -2,-2.1 -2,-3.3 0,-1.2 1.7,-2.2 1.9,-3.3 0.3,-1.1 -0.9,-2.8 -0.4,-3.8 0.5,-1.1 2.5,-1.2 3.2,-2.1"
   id="path648" />
	<path
   class="st9"
   d="m 315,1887.7 c -3.2,0 -5.8,2.6 -5.8,5.8 0,3.2 2.6,5.8 5.8,5.8 3.2,0 5.8,-2.6 5.8,-5.8 0,-3.2 -2.6,-5.8 -5.8,-5.8 z m 0,8.5 c -1.5,0 -2.6,-1.2 -2.6,-2.6 0,-1.5 1.2,-2.6 2.6,-2.6 1.5,0 2.6,1.2 2.6,2.6 0,1.4 -1.2,2.6 -2.6,2.6 z m 0,-13.2 c -5.8,0 -10.5,4.7 -10.5,10.5 0,5.8 4.7,10.5 10.5,10.5 5.8,0 10.5,-4.7 10.5,-10.5 0,-5.8 -4.7,-10.5 -10.5,-10.5 z m 0,19.3 c -4.9,0 -8.8,-3.9 -8.8,-8.8 0,-4.9 3.9,-8.8 8.8,-8.8 4.9,0 8.8,3.9 8.8,8.8 0,4.9 -4,8.8 -8.8,8.8 z"
   id="path649" />
</g><g
     id="g674">
	<path
   class="st38"
   d="M 448.2,1961.8 H 445 c -0.6,0 -1.2,0.5 -1.2,1.1 v 13.2 10.4 5.3 c 0,0.6 0.5,1.1 1.2,1.1 h 33.6 c 0.6,0 1.2,-0.5 1.2,-1.1 V 1963 c 0,-0.6 -0.5,-1.1 -1.2,-1.1 h -20.7"
   id="path667" />
	<polygon
   class="st39"
   points="476.1,1971.4 447.3,1971.4 447.3,1965.1 476.1,1965.1 "
   id="polygon667" />
	<polygon
   class="st9"
   points="453.2,1985.6 460.5,1985.6 460.5,1978.8 460.5,1976.5 453.2,1976.5 "
   id="polygon668" />
	<polygon
   class="st9"
   points="471.9,1976.5 476.2,1976.5 476.2,1986.9 476.2,1987.8 471.9,1987.8 "
   id="polygon669" />
	<line
   class="st38"
   x1="475.70001"
   y1="1973.7"
   x2="447.39999"
   y2="1973.7"
   id="line669" />
	<line
   class="st38"
   x1="450.89999"
   y1="1982.7"
   x2="447.39999"
   y2="1982.7"
   id="line670" />
	<line
   class="st38"
   x1="470.29999"
   y1="1982.7"
   x2="462.29999"
   y2="1982.7"
   id="line671" />
	<line
   class="st38"
   x1="450.89999"
   y1="1977.8"
   x2="447.39999"
   y2="1977.8"
   id="line672" />
	<line
   class="st38"
   x1="470.29999"
   y1="1977.8"
   x2="462.29999"
   y2="1977.8"
   id="line673" />
	<line
   class="st38"
   x1="470.29999"
   y1="1987.8"
   x2="447.39999"
   y2="1987.8"
   id="line674" />
</g><g
     id="g744">
	<g
   id="g743">
		<path
   class="st41"
   d="m 446.4,2029.1 c -0.4,1.7 -1.1,4.9 -1.6,6.4 h 8.7 c -1.3,-4 -2.2,-8.6 -2.6,-13.5 0.3,-0.2 0.6,-0.6 0.7,-0.9 0.2,-0.3 0.3,-0.7 0.3,-1.1 0,-0.7 -0.3,-1.4 -0.8,-1.9 -0.5,-0.5 -1.1,-0.8 -1.9,-0.8 -0.7,0 -1.4,0.3 -1.9,0.8 -0.5,0.5 -0.8,1.1 -0.8,1.9 0,0.7 0.3,1.4 0.8,1.9 v 0 c -0.1,0.8 -0.1,1.6 -0.2,2.4"
   id="path741" />
		<path
   class="st9"
   d="M 454.3,2037.7 H 444 c -0.4,1 -0.7,2 -1.1,2.9 h 12.6 c -0.4,-0.9 -0.8,-1.9 -1.2,-2.9 z"
   id="path742" />
		<path
   class="st41"
   d="m 455.6,2043.1 h -13 c -1,2.2 -5.8,8.3 -5.9,8.9 0,0.3 0,0.7 0.2,1 h 5.3 c 0.3,-1.9 1,-3.6 2.2,-4.8 4.2,-4.1 11.8,-1.2 11.7,4.8 h 5.4 c 0.2,-0.3 0.2,-0.6 0.2,-0.9 0.1,-0.6 -5,-6.8 -6.1,-9 z"
   id="path743" />
	</g>
</g><g
     id="g746">
	<g
   id="g745">
		<path
   class="st41"
   d="m 383.9,1985 v 23.5 h 16.4 V 1985 Z m 10,4 c 0,-0.7 0.6,-1.2 1.2,-1.2 0.7,0 1.2,0.6 1.2,1.2 v 15.4 c 0,0.7 -0.6,1.2 -1.2,1.2 -0.7,0 -1.2,-0.6 -1.2,-1.2 z m -6.1,0 c 0,-0.7 0.6,-1.2 1.2,-1.2 0.7,0 1.2,0.6 1.2,1.2 v 15.4 c 0,0.7 -0.6,1.2 -1.2,1.2 -0.7,0 -1.2,-0.6 -1.2,-1.2 z"
   id="path744" />
		<path
   class="st9"
   d="m 404.5,1974.1 h -24.7 c -0.5,0 -0.9,0.4 -0.9,0.9 v 2.2 c 0,0.5 0.4,0.9 0.9,0.9 h 1.1 v 2.9 c 0,0.5 0.4,0.9 0.9,0.9 h 18.5 2.1 c 0.5,0 0.9,-0.4 0.9,-0.9 v -2.9 h 1.1 c 0.5,0 0.9,-0.4 0.9,-0.9 v -2.2 c 0.1,-0.5 -0.3,-0.9 -0.8,-0.9 z"
   id="path745" />
	</g>
</g></g>
</svg>
