<?xml version="1.0" encoding="UTF-8" standalone="no"?>
<!-- Generator: Adobe Illustrator 22.0.1, SVG Export Plug-In . SVG Version: 6.00 Build 0)  -->

<svg
   version="1.1"
   id="Layer_1"
   x="0px"
   y="0px"
   viewBox="0 0 258.44202 358.11984"
   xml:space="preserve"
   width="258.44202"
   height="358.11984"
   xmlns:xlink="http://www.w3.org/1999/xlink"
   xmlns="http://www.w3.org/2000/svg"
   xmlns:svg="http://www.w3.org/2000/svg"><defs
   id="defs746" />
<style
   type="text/css"
   id="style1">
	.st0{fill:#EAE2F0;}
	.st1{fill:#E1F4FD;}
	.st2{fill:#FFFFFF;}
	.st3{font-family:'Gantari-Bold';}
	.st4{font-size:30px;}
	.st5{fill:none;}
	.st6{font-family:'Gantari-Regular';}
	.st7{font-size:14px;}
	.st8{font-family:'Gantari-SemiBold';}
	.st9{fill:#782B90;}
	.st10{font-size:24px;}
	.st11{font-size:16px;}
	.st12{font-family:'Gantari-Medium';}
	.st13{font-family:'AlbertSans-MediumItalic';}
	.st14{font-size:16.8941px;}
	.st15{fill:url(#SVGID_1_);}
	.st16{fill:url(#SVGID_2_);}
	.st17{fill:url(#SVGID_3_);}
	.st18{fill:url(#SVGID_4_);}
	.st19{fill:#231F20;}
	.st20{font-family:'Gantari-BoldItalic';}
	.st21{fill:#10101A;}
	.st22{fill:#00AEEF;}
	.st23{font-size:11.4192px;}
	.st24{clip-path:url(#SVGID_6_);fill:#FFFFFF;}
	.st25{clip-path:url(#SVGID_6_);}
	.st26{fill:#020202;}
	.st27{fill:#EAEBF6;}
	.st28{clip-path:url(#SVGID_8_);}
	.st29{fill:#23A9E1;}
	.st30{font-size:18px;}
	.st31{fill:#BCBEC0;}
	.st32{font-size:12px;}
	.st33{font-size:13px;}
	.st34{fill:#FFFFFF;stroke:#000000;stroke-width:0.7148;stroke-miterlimit:10;}
	.st35{fill:#FFFFFF;stroke:#000000;stroke-width:0.6955;stroke-miterlimit:10;}
	.st36{fill:#010101;}
	.st37{fill:#FFFFFF;stroke:#000000;stroke-width:0.9307;stroke-miterlimit:10;}
	.st38{fill-rule:evenodd;clip-rule:evenodd;fill:#FFFFFF;stroke:#000000;stroke-miterlimit:10;}
	.st39{fill-rule:evenodd;clip-rule:evenodd;fill:#782B90;}
	.st40{fill:#FFFFFF;stroke:#000000;stroke-width:0.71;stroke-miterlimit:10;}
	.st41{fill:#FFFFFF;stroke:#000000;stroke-miterlimit:10;}
	.st42{fill:#FFFFFF;stroke:#000000;stroke-width:0.6956;stroke-miterlimit:10;}
	.st43{fill:none;stroke:#000000;stroke-miterlimit:10;}
	.st44{fill:#FFFFFF;stroke:#000000;stroke-width:1.2628;stroke-miterlimit:10;}
	.st45{fill:#FFFFFF;stroke:#000000;stroke-linecap:round;stroke-linejoin:round;stroke-miterlimit:10;}
	.st46{fill:none;stroke:#782B90;stroke-width:2;stroke-miterlimit:10;}
	.st47{fill:#FFFFFF;stroke:#000000;stroke-linejoin:round;stroke-miterlimit:10;}
	.st48{fill:#F7F6FB;}
	.st49{fill:#FFFFFF;stroke:#000000;stroke-width:0.2236;stroke-miterlimit:10;}
	.st50{fill:#FFFFFF;stroke:#000000;stroke-width:0.4473;stroke-miterlimit:10;}
</style>














































































<g
   id="g749"
   transform="translate(-196.68419,-2205.1001)"><circle
     class="st1"
     cx="322.70001"
     cy="2331.1001"
     r="126"
     id="circle1" /><circle
     class="st2"
     cx="334.10001"
     cy="2286.3999"
     r="49.799999"
     id="circle168" /><circle
     class="st2"
     cx="257.29999"
     cy="2318.3"
     r="45.099998"
     id="circle169" /><circle
     class="st2"
     cx="393.29999"
     cy="2314.8"
     r="43.5"
     id="circle170" /><g
     id="g315">
	<g
   id="g242">
		<defs
   id="defs170"><polygon
     id="SVGID_5_"
     points="368.2,2456.6 362.4,2511.1 352.8,2560.5 186.5,2555.5 202.6,2340 344.5,2347.4 360.4,2413.8 " /></defs>
		<clipPath
   id="SVGID_6_">
			<use
   xlink:href="#SVGID_5_"
   style="overflow:visible"
   id="use170" />
		</clipPath>
		<path
   class="st24"
   d="m 234,2426.7 -4.4,1.9 -0.5,51.5 29.2,4.9 17.8,-18 c 0,0 0.1,-5.2 -1.5,-9 -1.6,-3.9 -3.8,-13.7 -6.6,-20 -2.8,-6.3 -9.2,-8.7 -9.2,-8.7 0,0 -0.4,5.2 -7.8,6 -7.4,0.6 -17,-8.6 -17,-8.6 z"
   clip-path="url(#SVGID_6_)"
   id="path170" />
		<g
   class="st25"
   clip-path="url(#SVGID_6_)"
   id="g241">
			<path
   class="st26"
   d="m 405.8,2403.6 c 3.8,-1.6 2.5,-4.7 4.8,-7.4 1.4,-1.6 3.6,-2.5 4.7,-4.3 2.2,-3.3 -1.4,-5 -1.2,-7.4 0.1,-1.8 1.8,-2.7 1.4,-4.7 -0.7,-3 -3.8,-2.9 -5.8,-4.5 -1.7,-1.3 -2.3,-3.6 -4.1,-4.7 -3.4,-2.1 -5.6,0.4 -8.7,0.1 -3.1,-0.3 -5.4,-2.8 -8.8,-1.9 -2.2,0.6 -3.3,2.3 -4.3,4.1 -2,0.4 -3.7,0.7 -5,2.5 -0.7,0.9 -0.9,2 -0.8,3.2 0.3,1.8 1.7,3.1 3.1,4.1 -0.4,1.2 -0.8,2.3 -1,3.5 -0.3,1.7 0.1,4.4 -0.9,5.8 -0.9,1.1 -2.4,1.5 -3.3,2.6 l -0.1,0.2 c -0.2,0.8 1,2.1 1.3,2.9 0.2,0.7 0.2,1.6 0.3,2.4 0.3,2.2 0.6,5.1 1.6,7.2 1.3,2.8 3.8,1.6 6.1,2.4 1.1,0.4 1.9,1.4 2.3,2.4 l 0.1,0.2 c 0.7,2.2 1.9,6.6 0.8,8.7 0,0 0,0 0,0 -0.1,0.4 -0.1,0.7 -0.1,1.1 l 0.2,0.1 c 0.1,-0.1 0.1,-0.2 0.2,-0.2 1.1,-1.7 0.7,-5.2 0.3,-7.1 -0.9,-4.3 -2,-5.8 -6.4,-6.3 -0.7,-0.1 -1.6,-0.1 -2.2,-0.6 -1.5,-1.1 -2.4,-9.3 -2.8,-11.5 -0.3,-0.3 -0.6,-0.6 -0.8,-0.9 -0.1,-0.2 -0.2,-0.4 -0.1,-0.7 0.1,-0.5 2.9,-2 3.5,-3 0.8,-1.5 0.5,-4.1 0.7,-5.7 0.1,-1 0.5,-2 0.8,-3 1.6,0.6 2.9,0.5 4.6,0.5 1.4,1 2.6,2.6 4.4,2.9 0.8,0.1 1.7,0 2.5,0.1 2,0.4 1.7,3.6 2.7,5.2 1.8,2.6 3.8,0.3 6.1,0.7 0.5,0.1 0.9,0.3 1.1,0.8 0.5,0.8 0.3,2 0.1,2.9 -0.8,3.5 -3.2,3 -5.5,4.5 -0.3,0.2 -0.2,0.3 -0.3,0.6 1.2,0.2 3.6,-1.4 4.7,-2 0.1,0.7 0.2,1.4 0.5,2.1 0.5,1.2 1.5,1.7 2.7,2.2 -0.7,3.2 0,8.3 1.7,11.2 0.3,0.4 0.5,0.7 1,0.9 0.1,-0.7 -0.8,-2.1 -1.1,-2.8 -1.2,-3.2 -1.4,-6.3 -1,-9.4 z"
   id="path171" />
			<path
   class="st27"
   d="m 433,2379.9 c -0.2,0.4 -0.2,0.7 -0.3,1.1 -0.2,3.2 0,6.4 0,9.6 v 21.7 c -3.2,0 -24.2,-0.4 -25.8,0.4 0,0 -0.1,0 -0.1,0.1 0.3,0.7 1.2,2.1 1.1,2.8 0.7,0.1 2.4,0.1 2.8,0.6 0,0 0,0 0.1,0.1 0.5,-0.4 0.8,-0.4 1.4,-0.3 1.2,0 3.2,-0.1 4.1,0.7 1.9,-0.3 4.1,0.2 5.7,1.3 0.4,0.3 1,0.7 1,1.2 0,0 0,0.1 0,0.1 0,0 0.1,0 0.1,0.1 1.4,1 2.8,1.9 4.1,3.1 5.5,5.3 9.1,14.7 12.1,21.7 2.1,0.3 5.5,4 6.8,5.7 1.1,1.4 2.1,3.2 2.7,4.9 3.3,-0.2 6.7,0 10,0 2.4,-16.8 1.5,-26.3 -3.9,-42.5 -2.3,0.2 -4.7,0.1 -7,0.1 -4.4,0 -8.8,-0.1 -13.2,0 0,-10.2 0,-20.4 0.1,-30.6 z"
   id="path172" />
			<path
   class="st26"
   d="m 341.8,2390.8 c 2,-3.9 3.5,-8.1 2.1,-12.5 -1.1,-3.5 -3.9,-5.9 -7.2,-7.5 -3.5,-1.8 -8,-2.3 -11.8,-1 -1,0.3 -1.9,0.8 -2.9,1.1 -3.9,1.2 -6.1,1.5 -8.1,5.5 -1.2,2.5 -1.8,5.6 -1.7,8.3 l 0.2,0.2 0.6,-0.1 c 0.5,0.7 -0.4,3.9 -0.4,4.8 -0.5,5.7 0.2,12.9 5.1,16.6 -0.4,2.2 -0.8,5.2 -2.1,7.1 -0.2,0.1 -0.3,0.2 -0.6,0.2 l -0.4,0.2 c -0.1,0.3 0,0.4 0.1,0.7 0.6,1 1.1,2.1 1.8,3 1.7,2.3 4.7,3.6 7.4,4.2 3.5,0.8 7.4,0.6 10.5,-1.4 2.1,-1.3 2.7,-3.1 4,-5.1 0.2,0 0.3,-0.1 0.5,-0.1 l 0.1,-0.3 c -0.2,-0.3 -0.2,-0.3 -0.6,-0.3 -0.7,-0.2 -1.4,-0.4 -2.1,-0.7 -0.5,-0.3 -0.6,-0.6 -0.7,-1.1 -0.5,-3.2 -1.1,-8.6 0.1,-11.7 0.2,-0.6 0.6,-1.1 0.9,-1.6 2,-0.5 3.8,-1.2 4.9,-3 0.7,-1.1 1,-2.6 0.7,-3.9 0,-0.7 -0.2,-1.1 -0.4,-1.6 z"
   id="path173" />
			<path
   class="st2"
   d="m 334.9,2399.4 c -1.1,1.3 -4.2,3.7 -5.2,5 -0.5,0.6 1.4,0.3 0.9,0.8 -0.7,0.8 -1.6,1.4 -2.7,1.8 -2.7,1 -7.1,1.2 -9.5,-0.3 -0.4,1.5 -1.3,5.3 -2.2,6.6 -0.5,0.7 -0.8,0.8 -1.5,1 0.6,1 1.1,2.1 1.8,3 1.7,2.3 4.7,3.6 7.4,4.2 3.5,0.8 7.4,0.6 10.5,-1.4 2.1,-1.3 2.7,-3.1 4,-5.1 -1,-0.5 -2.1,-0.8 -3.1,-1.1 -1,-3.8 -0.8,-10.5 -0.4,-14.5 z"
   id="path174" />
			<path
   class="st2"
   d="m 320.9,2376.8 c -0.5,0.6 -2.8,1.5 -3.1,2.2 -1.1,2.7 -1.2,4.2 -3.7,5.3 -0.2,1.5 -0.5,3 -0.7,4.5 -0.5,4.7 -0.3,10.4 2.4,14.4 1.4,2 3.4,3.3 5.8,3.7 3.5,0.6 7,-0.9 9.8,-2.8 2.2,-1.6 3.5,-3.4 4.6,-5.9 0.9,0 1.6,0 2.5,-0.4 0.1,0 0.2,-0.1 0.3,-0.1 0.1,0 0.2,-0.1 0.2,-0.1 0.1,0 0.2,-0.1 0.2,-0.1 0.1,-0.1 0.2,-0.1 0.2,-0.2 0.1,-0.1 0.1,-0.1 0.2,-0.2 0.1,-0.1 0.1,-0.1 0.2,-0.2 0.1,-0.1 0.1,-0.1 0.2,-0.2 0.1,-0.1 0.1,-0.1 0.2,-0.2 0.1,-0.1 0.1,-0.1 0.2,-0.2 0.1,-0.1 0.1,-0.1 0.2,-0.2 0.1,-0.1 0.1,-0.1 0.2,-0.2 0.1,-0.1 0.1,-0.2 0.2,-0.2 0,-0.1 0.1,-0.2 0.1,-0.2 0,-0.1 0.1,-0.2 0.1,-0.2 0,-0.1 0.1,-0.2 0.1,-0.3 0,-0.1 0.1,-0.2 0.1,-0.3 0.4,-0.9 0.4,-2 -0.1,-3 -0.3,-0.6 -0.8,-1.1 -1.5,-1.3 -1.2,-0.4 -2.3,0.2 -3.4,0.7 -1.5,-1.1 -2,-8.9 -3.5,-9.9 -5.5,-3.7 -9.2,2.6 -12,-4.4 z"
   id="path175" />
			<path
   class="st26"
   d="m 339.7,2393 c -0.2,0 -0.4,0 -0.6,0 -0.5,0.1 -1,0.5 -1.2,0.9 -0.3,0.6 -0.3,1.2 -0.1,1.9 0.3,-0.1 0.4,-0.2 0.6,-0.5 0,-0.4 0,-0.7 0.2,-1.1 0.2,-0.2 0.3,-0.4 0.6,-0.5 0,0 0.2,-0.1 0.3,-0.1 0.2,-0.1 0.2,-0.2 0.2,-0.6 z"
   id="path176" />
			<path
   class="st26"
   d="m 316.4,2384.9 c -0.1,0 -0.2,0 -0.3,0 -0.4,0 -0.7,0.2 -0.9,0.5 0,0.1 0,0.2 0.1,0.3 0.1,0.1 2.2,0 2.8,0.3 0,0 0.1,0 0.1,0 0.4,0.2 0.5,0.3 0.9,0.4 l 0.2,-0.2 -0.2,-0.4 c -0.9,-0.6 -1.6,-0.7 -2.7,-0.9 z"
   id="path177" />
			<path
   class="st26"
   d="m 328.2,2390.2 c -0.1,0 -0.2,0.1 -0.4,0.1 -0.4,0.2 -1,0.5 -1.1,1 -0.2,0.7 0.3,1.2 0.6,1.8 0.1,0 0.3,-0.1 0.4,-0.1 0.4,-0.2 0.7,-0.5 0.9,-0.9 0.2,-0.8 -0.1,-1.3 -0.4,-1.9 z"
   id="path178" />
			<path
   class="st26"
   d="m 316.5,2388 c -0.3,0.1 -0.5,0.2 -0.7,0.4 -0.3,0.3 -0.5,0.7 -0.5,1.1 0,0.6 0.2,1.1 0.6,1.6 0.3,-0.1 0.5,-0.2 0.8,-0.3 0.3,-0.3 0.6,-0.8 0.6,-1.2 -0.1,-0.8 -0.4,-1.2 -0.8,-1.6 z"
   id="path179" />
			<path
   class="st26"
   d="m 328.4,2386.7 c -0.8,-0.1 -1.7,-0.1 -2.5,0 -0.4,0 -0.6,0.1 -0.8,0.4 l 0.1,0.2 c 1.1,0.3 2.3,0 3.5,0.2 0,0 0.1,0 0.1,0 0.7,0.2 1.3,0.8 2,1.1 l -0.1,-0.1 h 0.2 c 0.1,-0.3 0.1,-0.3 0,-0.6 -0.6,-0.6 -1.6,-0.9 -2.5,-1.2 z"
   id="path180" />
			<path
   class="st26"
   d="m 320.9,2398 c -0.9,-0.1 -1.8,-0.3 -2.7,-0.1 -0.2,0.2 -0.2,0.3 -0.2,0.5 0,0.8 0.5,2 1.1,2.5 1.1,1 2.5,1 3.9,0.9 0.4,-0.1 0.7,-0.3 1.1,-0.5 1.2,-0.7 1.5,-1.7 1.8,-2.9 -1.6,-0.3 -3.3,-0.3 -5,-0.4 z"
   id="path181" />
			<path
   class="st2"
   d="m 319.2,2398.5 c -0.2,0 -0.2,0 -0.4,0.1 0,0.3 0,0.5 0.1,0.7 0.3,0.7 0.8,1.2 1.5,1.5 1.1,0.4 2.3,0.3 3.3,-0.1 0.3,-0.2 0.8,-0.6 1,-0.9 0.2,-0.3 0.1,-0.4 0.1,-0.7 -1,-0.7 -4.2,-0.5 -5.6,-0.6 z"
   id="path182" />
			<path
   class="st26"
   d="m 252.1,2385.2 h -2.2 c -6.1,0.1 -9.7,1.2 -14,5.6 -3,3.2 -5.2,7.1 -8,10.5 -1,1.2 -3.6,3.5 -4.2,4.7 -0.5,0.4 -1,0.9 -1.5,1.3 -1,0.7 -5.4,3.1 -5.8,3.5 0.1,0.9 1.2,2 1.9,2.6 0.6,0.5 1.3,1.1 2,1.3 l 0.2,-0.1 c 1.1,-0.9 2.4,-1.4 3.4,-2.3 1,-0.8 1.6,-2.1 2.7,-2.8 -0.8,0.9 -3.9,5.9 -3.8,6.9 0,0.1 0,0.2 0,0.3 1.1,1.9 10.2,5.4 12.5,6.1 1,0.3 2.1,0.6 3.1,0.7 -0.3,0.3 -0.7,0.8 -0.8,1.3 0,0.1 0,0.1 0,0.2 0.1,0.1 0.3,0.2 0.4,0.3 -0.6,0.4 -1.6,0.8 -2,1.4 v 0.3 c -0.2,0.1 -0.3,0.1 -0.4,0.3 0.1,1.1 2.5,2.8 3.4,3.5 3.2,2.5 7.9,5.1 12,4.7 2.7,-0.3 4.5,-1.6 6.1,-3.7 0.5,-0.7 1.1,-1.7 1.7,-2.3 -0.8,-0.6 -1.9,-0.8 -2.8,-1.5 -0.6,-0.5 -0.9,-1.1 -1,-1.9 -0.1,-1.1 0,-3.2 0.7,-4.1 3.9,0.1 9.1,-1.5 12.6,-3.3 0,-1.7 0.1,-3.3 0.2,-5 0.4,1.4 0.6,3.1 1.3,4.5 l 0.3,-0.1 c 0.1,-0.1 0.2,-0.2 0.2,-0.4 0.8,-2.3 -2.7,-15.8 -3.5,-18.2 -0.3,-0.9 -0.6,-1.8 -1,-2.6 -0.4,-0.9 -0.8,-1.7 -1.3,-2.5 -3.2,-6 -6.3,-7.6 -12.4,-9.2 z"
   id="path183" />
			<path
   class="st2"
   d="m 242.2,2412.5 c -0.7,0.9 -1.6,6.1 -2,7.5 -0.5,1.8 -1.2,3.4 -2.1,5 -0.6,0.4 -1.6,0.8 -2,1.4 v 0.3 c 0.2,0.6 1.1,1.4 1.6,1.9 3.1,3 8.5,6.1 12.9,6 3.7,-0.1 5.1,-2.6 7.4,-5 0,0 0,0 0.1,-0.1 -0.7,-0.2 -1.4,-0.4 -2,-0.8 -1,-0.7 -1.6,-1.9 -1.7,-3 -0.1,-1.1 0.1,-3.1 0.8,-4 -2.9,-0.3 -5.5,-1.5 -7.8,-3.2 -1.5,-1.1 -5,-4.3 -5.2,-6 z"
   id="path184" />
			<path
   class="st2"
   d="m 257.9,2391.6 c -0.5,-0.1 -0.9,-0.2 -1.5,0 -0.5,0.4 -0.6,1 -0.9,1.6 -2,4.5 -8,7 -12.4,8.7 -0.2,0.3 -0.2,1 -0.2,1.3 -0.1,0.4 -0.3,0.7 -0.6,0.9 -0.7,0.4 -2.4,-0.5 -3.2,-0.7 -0.7,-0.1 -1.4,-0.1 -2,0.3 -0.7,0.5 -1.1,1.6 -1.3,2.4 -0.2,1.1 0.2,2.2 0.8,3.1 1.5,1.9 3.8,2.6 6,2.9 0,0.2 0,0.1 0.1,0.3 0.7,1.5 4.1,5 5.6,5.7 0.1,0.1 0.2,0.2 0.3,0.3 2.1,1.7 6.1,2.7 8.7,2.4 1.3,-0.2 2.7,-0.7 3.6,-1.8 1,-1.2 1.5,-2.9 1.9,-4.4 1.5,-4.7 2.1,-8.9 1.6,-13.9 -1.1,0.1 -2.2,0.3 -3.3,0.1 v -0.2 c 1.1,-0.6 2.1,-0.6 3.3,-0.6 -0.2,-1 -0.5,-2 -0.8,-3 -1.2,-3 -2.9,-4 -5.7,-5.4 z"
   id="path185" />
			<path
   class="st26"
   d="m 262.6,2403.2 c -0.4,0.1 -0.7,0.1 -1,0.5 -0.2,0.3 -0.3,0.6 -0.3,0.9 0.1,0.5 0.4,0.7 0.8,1 0.2,0 0.4,-0.1 0.6,-0.2 0.3,-0.2 0.4,-0.5 0.5,-0.8 0,-0.6 -0.3,-1 -0.6,-1.4 z"
   id="path186" />
			<path
   class="st26"
   d="m 253.5,2404.7 c -0.2,0 -0.4,0 -0.6,0 -0.3,0.1 -0.7,0.4 -0.8,0.7 -0.1,0.3 -0.1,0.6 0,0.9 0.1,0.4 0.5,0.5 0.8,0.6 0.2,0.1 0.3,0 0.5,0 0.1,-0.1 0.2,-0.2 0.3,-0.4 0.1,-0.7 0.1,-1.2 -0.2,-1.8 z"
   id="path187" />
			<path
   class="st26"
   d="m 255.2,2402.1 0.1,-0.2 c -0.3,-0.3 -0.5,-0.4 -1,-0.5 -1.6,-0.2 -3.4,-0.1 -4.8,0.8 -0.2,0.2 -0.2,0.2 -0.3,0.4 0.4,0.2 0.8,0 1.2,-0.1"
   id="path188" />
			<path
   class="st26"
   d="m 260.9,2412.6 c -0.8,-0.2 -5.4,0 -6.6,0 -0.3,0.4 -0.2,1 -0.1,1.4 0.1,0.6 0.4,1.1 0.9,1.5 0,0 0,0.1 0.1,0.1 0.3,0.4 1.1,0.8 1.5,0.9 0.8,0.2 1.6,-0.2 2.2,-0.6 1.2,-0.9 1.7,-1.9 2,-3.3 z"
   id="path189" />
			<path
   class="st2"
   d="m 260.2,2413.2 c -1.7,-0.2 -3.4,0.3 -5.3,0 l -0.2,0.2 c 0,0.1 0,0.2 0,0.3 0.1,0.5 0.5,1.1 0.9,1.4 0,0 0,0 0,0 0.2,0.3 0.5,0.6 0.9,0.7 0.4,0.2 1.1,0 1.5,-0.1 1.1,-0.6 1.7,-1.4 2.2,-2.5 z"
   id="path190" />
			<path
   class="st26"
   d="m 231,2427.6 c -0.7,-0.4 -1.4,-0.2 -2.2,0 -0.9,0.2 -3.6,1 -4.1,1.8 -0.1,0.1 -0.1,0.1 -0.1,0.2 -1.7,-0.4 -3.5,0.4 -4.9,1.3 -3.5,2.2 -5.6,6.6 -6.9,10.4 -0.3,0.7 -0.7,1.6 -0.8,2.4 0,0.2 0,0.3 0.1,0.5 -0.2,-0.1 -0.3,-0.3 -0.6,-0.2 -0.8,0.2 -1.7,1.8 -2,2.4 -0.7,1.3 -3.5,7.2 -3.3,8.5 -1,1.5 -1.4,4.2 -1.8,6 -2.9,11.4 -6.7,33.7 -4.7,45 0.8,4.4 3.3,7.6 6.9,10 3.1,2.1 7.2,3.9 10.9,3.9 -0.1,2.4 -0.1,20.7 0.5,21.6 h 57.9 c -1.5,-13.1 -2.5,-26.2 -3.9,-39.3 1,-0.5 1.9,-1 2.7,-1.7 -0.4,-2.7 -0.9,-5.3 -1.4,-8 1.4,-0.7 2.8,-1.4 4,-2.4 2.1,-1.8 2.4,-3.7 2.7,-6.3 -0.2,-0.4 -0.2,-0.4 -0.7,-0.5 -1.1,-1.4 -1.6,-3.3 -2.1,-5 0.2,-0.4 0.1,-0.6 0.1,-1 -0.9,-2.7 -0.3,-6.1 0.1,-8.8 l 0.1,-0.9 -1.2,-1.3 c 0.1,-0.4 0.1,-0.7 0.2,-1.1 0.2,-1.9 -0.1,-3.8 -0.6,-5.6 -1,-3.9 -3.2,-7.3 -4.4,-11.1 -0.4,-1.3 -0.9,-4.2 -1.6,-5 h -0.1 c -0.8,2.7 4.6,13 5.5,16.3 0.5,1.9 0.6,3.8 0.6,5.8 l -9.5,-11.9 c -2,-2.6 -4,-5.2 -6.2,-7.7 -0.4,-0.4 -0.9,-1 -1.4,-1.1 -0.7,0.3 -1.2,0.7 -1.8,1.1 -5.6,4.5 -11,9.4 -16.5,14.1 -1.3,1.1 -2.6,2.2 -3.9,3.3 -1.3,1 -2.7,2 -3.8,3.3 -0.3,0.4 -0.5,0.6 -0.4,1.1 0.3,0.2 0.3,0.2 0.7,0.3 0.5,0 0.8,-0.2 1.2,-0.5 1.9,-1.4 3.7,-3.2 5.5,-4.8 l 13.9,-11.8 c 1.5,-1.3 3,-2.8 4.6,-4 0.4,-0.3 0.8,-0.6 1.4,-0.6 0.3,0.3 0.3,0.3 0.4,0.7 -0.2,0.4 -0.4,0.7 -0.8,1.1 -3,2.8 -6.5,5.5 -9.7,8.1 -3,2.5 -5.9,5.2 -8.9,7.7 -1.6,1.3 -5.2,3.8 -6.3,5.2 -0.3,0.3 -0.3,0.3 -0.2,0.8 0.8,1.4 6.4,8.1 7.6,8.8 -3.6,-0.1 -7.3,-0.2 -10.9,-0.5 -0.2,-0.3 -0.2,-0.7 -0.2,-1 0.1,-2.4 0.5,-4.8 0.6,-7.2 0.4,-5.2 0.6,-10.3 0.8,-15.5 0.2,-6.3 0.1,-12.7 -0.2,-19 -0.3,-1.6 -1.1,-6.9 -0.9,-7.9 z"
   id="path191" />
			<path
   class="st2"
   d="m 220.2,2497.9 c -0.8,0.1 -1.6,0.1 -2.4,0.2 0,0.1 -0.1,0.2 -0.2,0.3 -0.3,0.8 -0.3,3.7 0,4.5 1,-1.3 2.5,-3.5 2.6,-5 z"
   id="path192" />
			<path
   class="st22"
   d="m 256.3,2488.1 c -1.8,-0.2 -4.3,0.4 -6.1,0.9 0,0 0,0.1 0,0.1 0,0.7 4,5.7 4.8,6.4 0.1,0.5 0.5,0.8 0.9,1.1 0.7,-0.9 3.2,-2.8 4.2,-3.3 -0.4,-0.2 -0.9,-0.6 -1.1,-1 -0.5,-0.7 -0.4,-1.3 -0.4,-2 -0.6,-0.3 -1.2,-0.7 -1.7,-1.1 -0.3,-0.3 -0.6,-0.6 -0.6,-1.1 z"
   id="path193" />
			<path
   class="st2"
   d="m 279.3,2483.3 c -1.1,-1.4 -1.6,-3.3 -2.1,-5 -4.5,4.6 -10.1,9.8 -17,9.8 -1.1,0 -2.3,0 -3.4,-0.3 0.1,0.7 0.8,1.2 1.4,1.6 1.4,0.9 3.4,1.2 5.1,1.1 0.5,0 1.2,-0.2 1.7,-0.1 0.3,0 0.4,0.1 0.5,0.3 -0.5,0.5 -2.1,0.4 -2.8,0.4 -0.9,0 -2.7,-0.5 -3.5,0 0,0.5 0.1,0.7 0.4,1 1.2,1.4 3.2,2.3 5,2.4 3.3,0.1 10.4,-3.1 12.7,-5.4 1.6,-1.5 1.9,-3.4 1.9,-5.5 0.1,-0.1 0.1,-0.2 0.1,-0.3 z"
   id="path194" />
			<path
   class="st2"
   d="m 269.5,2473.1 c -3.8,0.1 -8.5,2.6 -11.6,4.7 -1,0.7 -2,1.7 -3.2,2.2 -2.2,0.9 -5.1,0.9 -7.4,1.2 0,0.1 -0.1,0.2 -0.1,0.3 -0.1,0.5 0.8,6.7 1.1,7.2 3.2,-0.9 6.8,-1.5 10.2,-1.3 0.6,0 1.3,0.1 1.9,0.1 6.1,0 11.3,-4.5 15.4,-8.6 -2.2,0.2 -10.5,0.3 -12.2,-0.8 0.2,-1 5.5,-2.8 5.9,-4.7 -0.1,-0.2 0,-0.3 0,-0.3 z"
   id="path195" />
			<path
   class="st2"
   d="m 249.4,2489.1 c -0.5,0 -0.7,0 -1.1,0.3 -0.4,0.7 -0.5,1.8 -0.3,2.6 -1.9,0.6 -3.9,1 -5.9,1.5 -3.7,0.8 -7.5,1.7 -11.3,2.4 -2,0.4 -4.3,0.6 -6.2,1.2 0,0 -0.1,0.1 -0.1,0.1 -0.3,0.3 -1.8,4.1 -1.8,4.6 2.4,0.6 5,0.8 7.4,1.1 3.8,0.5 7.7,0.9 11.5,1.1 3.9,0.2 7.7,0.3 11.6,0.2 6.3,-0.1 15.3,-0.5 20.8,-4 -0.2,-2.5 -0.7,-5 -1.2,-7.5 -2,0.9 -4.1,2 -6.3,2.3 -2.1,0.3 -4.3,0 -6,-1.3 -1.1,0.8 -4,2.7 -4.4,3.8 -1.1,-0.5 -6.2,-7.2 -6.7,-8.4 z"
   id="path196" />
			<path
   class="st22"
   d="m 260.8,2447.6 c -1.7,0.9 -4.1,3.3 -5.6,4.6 l -13,11.1 c -1.1,1 -7.2,5.6 -7.6,6.4 0.2,0.5 7.1,8.7 7.7,9.1 0.8,0.1 3.5,0 4,0.5 0.3,0.4 0.3,0.9 0.7,1.2 2.2,-0.2 5,-0.3 7.1,-1.1 1.6,-0.6 3.1,-2 4.5,-2.9 2.1,-1.3 9.1,-4.9 11.3,-3.8 0.2,0.3 0.2,0.4 0.1,0.7 -0.5,1.7 -3.6,3.4 -5.1,4.3 2.6,0.4 10,1.5 12,-0.1 0.1,-0.1 0.3,-0.2 0.4,-0.3 -0.9,-2.7 -0.3,-6.1 0.1,-8.8 -2.1,-2.5 -4.1,-5.2 -6.2,-7.8 -3.4,-4.2 -6.9,-8.3 -10.1,-12.5 -0.2,-0.3 -0.2,-0.4 -0.3,-0.6 z"
   id="path197" />
			<path
   class="st2"
   d="m 224.7,2429.5 c -1.7,-0.4 -3.5,0.4 -4.9,1.3 -3.5,2.2 -5.6,6.6 -6.9,10.4 -0.3,0.7 -0.7,1.6 -0.8,2.4 0,0.2 0,0.3 0.1,0.5 -0.1,0.1 -0.2,0.2 -0.3,0.4 -0.8,1.4 -1.1,3.4 -1.5,4.9 -1.1,4.1 -2,8.3 -2.8,12.5 -0.8,4.2 -1.5,8.4 -2,12.6 -0.3,2.5 -0.6,5.1 -0.7,7.6 -0.1,3 -0.1,5.9 0.8,8.7 0.7,2.2 1.9,4.2 3.9,5.3 2.1,1.1 4.4,1.5 6.7,1.4 3.3,0 6.7,-0.8 10,-1.4 4,-0.8 8,-1.6 12,-2.5 2.6,-0.6 5.6,-1.1 8.1,-1.9 0.3,-0.1 0.7,-0.2 0.8,-0.6 0.6,-1.5 -0.4,-9.7 -1.2,-11.2 -0.1,-0.2 -0.2,-0.4 -0.5,-0.4 -1,-0.2 -2.2,-0.1 -3.2,-0.2 l -7.1,-0.4 -8.3,-0.4 c -1.7,-0.1 -3.4,-0.3 -5.1,-0.2 -1.2,0.1 -2.5,0.4 -3.6,0.8 -1.5,0.6 -2.8,1.6 -3.9,2.8 -0.4,0.4 -0.7,1 -1.2,1.3 l -0.2,-0.2 c 0,-0.1 0,-0.1 0,-0.2 0,-0.7 1.2,-1.8 1.7,-2.3 3.6,-3.3 7.8,-3 12.4,-2.8 -0.4,-1.1 0.3,-5.1 0.4,-6.6 0.4,-5.3 0.5,-10.6 0.4,-15.9 -0.1,-4.3 -0.4,-8.6 -0.9,-12.9 -0.5,-1.8 -2.3,-11.7 -2.2,-12.8 z"
   id="path198" />
			<path
   class="st22"
   d="m 271.9,2502.1 c -11,4.3 -28.9,3 -40.8,1.6 -2.9,-0.3 -5.8,-0.6 -8.6,-1.3 -0.7,0.6 -1.2,1.6 -1.8,2.3 -0.9,1.2 -1.8,2.3 -2.9,3.3 -0.1,0.1 -0.1,0.1 -0.2,0.3 -0.3,0.7 -0.4,10.3 -0.2,11.5 -0.1,2.4 -0.1,20.7 0.5,21.6 h 57.9 c -1.4,-13.1 -2.4,-26.2 -3.9,-39.3 z"
   id="path199" />
			<path
   class="st26"
   d="m 233.9,2505.3 c -0.1,0 -0.3,-0.1 -0.4,-0.1 0,0 -0.3,0.1 -0.3,0.1 -0.2,0.3 -1,2.9 -1.6,3.9 -2.2,3.7 -5.4,5.1 -9.4,6.1 v 0.3 l 0.2,0.2 c 1.6,0.1 3.8,-0.9 5.2,-1.7 0.2,-0.1 0.4,-0.2 0.6,-0.4 0.2,-0.1 0.4,-0.3 0.6,-0.4 0.2,-0.1 0.4,-0.3 0.5,-0.4 0.2,-0.1 0.3,-0.3 0.5,-0.5 0.2,-0.2 0.3,-0.3 0.5,-0.5 0.2,-0.2 0.3,-0.3 0.5,-0.5 0.2,-0.2 0.3,-0.3 0.4,-0.5 0.1,-0.2 0.3,-0.4 0.4,-0.6 0.1,-0.2 0.3,-0.4 0.4,-0.6 0.1,-0.2 0.2,-0.4 0.4,-0.6 0.1,-0.2 0.2,-0.4 0.3,-0.6 0.1,-0.2 0.2,-0.4 0.3,-0.6 0.1,-0.2 0.2,-0.4 0.3,-0.6 0.1,-0.2 0.2,-0.4 0.2,-0.6 0.1,-0.2 0.1,-0.4 0.2,-0.7 0.1,-0.3 0.1,-0.5 0.2,-0.7 z"
   id="path200" />
			<path
   class="st26"
   d="m 254.9,2508.1 c -0.2,0 -0.5,0 -0.7,0 0,0.1 -0.1,0.2 -0.1,0.2 -0.2,1 -0.2,2.2 -0.3,3.2 l -0.5,7.9 -0.8,12 c -0.1,2.1 -0.4,4.2 -0.5,6.3 0,0.6 -0.1,1 0.2,1.5 h 0.2 c 0.8,-1 1.8,-27.2 2.5,-31.1 z"
   id="path201" />
			<path
   class="st26"
   d="m 386.2,2383.4 c -1.7,0 -3,0 -4.6,-0.5 -0.3,1 -0.7,2 -0.8,3 -0.2,1.7 0.1,4.3 -0.7,5.7 -0.6,1 -3.3,2.5 -3.5,3 -0.1,0.3 0,0.5 0.1,0.7 0.2,0.3 0.5,0.6 0.8,0.9 0.4,2.2 1.2,10.4 2.8,11.5 0.6,0.4 1.4,0.5 2.2,0.6 4.4,0.5 5.6,2 6.4,6.3 0.4,1.9 0.9,5.3 -0.3,7.1 -0.1,0.1 -0.1,0.2 -0.2,0.2 l -0.2,-0.1 c 0,-0.4 0,-0.7 0.1,-1.1 -1.1,0.1 -2.4,1 -3.4,1.5 -4.3,2 -8.1,3.4 -11.2,7.3 -1.1,1.4 -2,3 -2.6,4.6 -1.3,3.8 -1.9,12.2 -2.3,16.5 -0.1,1.4 -0.1,3.4 -0.7,4.6 0.1,0.5 0.1,0.9 0.1,1.4 -0.5,4.7 -1.3,9.3 -2,14 -0.2,1.4 -0.2,3.2 -0.6,4.6 l -0.1,0.4 c -0.9,6.9 -1.6,13.9 -2,20.8 -0.2,3.1 -0.7,6.5 -0.4,9.7 0,1.6 -0.1,3.1 -0.2,4.6 1.7,0.1 3.2,-0.1 4.9,-0.5 0.1,0.3 0.1,0.4 0,0.7 -0.1,1.8 0,3.8 0.1,5.6 0.1,2.9 0.2,5.9 0.3,8.8 0,1.3 0.3,2.8 0.1,4 0.1,0.5 0.2,0.8 0.1,1.3 0.4,1.2 0.5,9 0.5,10.7 h 23.6 0.7 35 l -1.4,-21.6 c -0.1,-1.7 -0.8,-6.7 -0.5,-8.1 l 0.3,-0.2 c 5.8,-0.8 11.9,-2.1 17.4,-4.3 4.8,-1.9 10.2,-4.7 12.3,-9.7 3.8,-9.1 -3.9,-33.9 -7.7,-43 -0.6,-1.7 -1.6,-3.4 -2.7,-4.9 -1.3,-1.7 -4.7,-5.4 -6.8,-5.7 -3,-6.9 -6.6,-16.3 -12.1,-21.7 -1.3,-1.2 -2.6,-2.1 -4.1,-3.1 0,0 -0.1,0 -0.1,-0.1 0,0 0,-0.1 0,-0.1 -0.1,-0.5 -0.7,-0.9 -1,-1.2 -1.5,-1.1 -3.8,-1.6 -5.7,-1.3 -0.9,-0.8 -3,-0.6 -4.1,-0.7 -0.6,-0.1 -0.9,-0.1 -1.4,0.3 0,0 0,0 -0.1,-0.1 -0.5,-0.5 -2.2,-0.5 -2.8,-0.6 -0.5,-0.1 -0.7,-0.4 -1,-0.9 -1.7,-2.9 -2.4,-8 -1.7,-11.2 -1.2,-0.5 -2.1,-0.9 -2.7,-2.2 -0.3,-0.6 -0.4,-1.4 -0.5,-2.1 -1.1,0.6 -3.5,2.2 -4.7,2 0.1,-0.3 0,-0.5 0.3,-0.6 2.3,-1.5 4.7,-1.1 5.5,-4.5 0.2,-0.8 0.3,-2.1 -0.1,-2.9 -0.3,-0.4 -0.7,-0.7 -1.1,-0.8 -2.3,-0.5 -4.4,1.8 -6.1,-0.7 -1,-1.5 -0.7,-4.8 -2.7,-5.2 -0.8,-0.2 -1.7,0 -2.5,-0.1 -1.6,0 -2.8,-1.6 -4.2,-2.6 z"
   id="path202" />
			<path
   class="st2"
   d="m 421,2480.1 c -0.7,0 -1.4,0 -2,0.2 0.3,0.7 0.5,1.5 0.7,2.2 z"
   id="path203" />
			<path
   class="st2"
   d="m 425.3,2471.5 c -2.9,0.4 -6,0.3 -8.9,0.2 l 2.5,8.6 c 0.6,-0.2 1.4,-0.2 2,-0.2 0.6,-1 1.1,-2.1 1.6,-3.1 0.9,-1.9 1.9,-3.7 2.8,-5.5 z"
   id="path204" />
			<path
   class="st2"
   d="m 425.9,2465.4 c -1.2,0.1 -10.2,0.2 -10.7,0.5 -0.1,0 -0.1,0.1 -0.2,0.2 0.4,1.9 0.9,3.8 1.4,5.6 2.9,0.1 6,0.2 8.9,-0.2 0.7,-1.1 1.3,-2.4 1.7,-3.7 -0.3,-0.8 -0.7,-1.6 -1.1,-2.4 z"
   id="path205" />
			<path
   class="st2"
   d="m 421.5,2456.7 c -2.3,0.4 -5.7,0.2 -8.1,0.1 0.5,2.8 0.9,6.5 1.7,9.2 0.1,-0.1 0.1,-0.1 0.2,-0.2 0.4,-0.2 9.5,-0.4 10.7,-0.5 -1.5,-2.8 -3,-5.7 -4.5,-8.6 z"
   id="path206" />
			<path
   class="st2"
   d="m 415.4,2495.1 c -1.2,1.4 -2.5,2.7 -3.7,4.2 0.7,2.4 1.9,4.6 3.4,6.7 0.8,1.1 4.2,5.2 5.3,5.3 l 0.3,-0.3 c 1.6,-2.5 3.1,-5.1 4.6,-7.7 -3.8,-2.1 -7.3,-4.8 -9.9,-8.2 z"
   id="path207" />
			<path
   class="st2"
   d="m 373,2451.7 c -0.3,2.9 -0.7,5.8 -1.1,8.6 l -0.6,4.8 c -0.3,3.2 -0.7,6.4 -1.1,9.5 3.9,0.8 7.7,1.8 11.6,2.5 10.4,2 21.1,3.3 31.8,3.4 -1.1,-2.9 -2,-5.8 -2.8,-8.8 -0.7,-2 -1.1,-4.1 -1.5,-6.2 -0.5,-3 -1,-6 -1.3,-9.1 -9.8,-0.1 -20.8,-1.8 -30.4,-3.7 -1.5,-0.3 -3.3,-0.4 -4.6,-1 z"
   id="path208" />
			<path
   class="st2"
   d="m 409.2,2465.5 c -11.4,-0.1 -26.2,-2.5 -37.3,-5.2 l -0.6,4.8 c 0,0.2 0,0.6 0.2,0.8 0.7,0.5 3.5,0.9 4.5,1.1 4.3,0.9 8.6,1.8 13,2.4 4.4,0.6 8.7,1.2 13.1,1.7 2.8,0.3 5.7,0.6 8.6,0.7 -0.7,-2.1 -1.1,-4.2 -1.5,-6.3 z"
   id="path209" />
			<path
   class="st2"
   d="m 373,2451.7 c -0.3,2.9 -0.7,5.8 -1.1,8.6 11.1,2.7 25.9,5.1 37.3,5.2 -0.5,-3 -1,-6 -1.3,-9.1 -9.8,-0.1 -20.8,-1.8 -30.4,-3.7 -1.4,-0.3 -3.2,-0.4 -4.5,-1 z"
   id="path210" />
			<path
   class="st2"
   d="m 370.2,2474.6 c -0.6,6.1 -1.4,12.1 -2.1,18.2 -0.4,3.7 -0.9,7.4 -0.9,11.1 11.6,3.3 30.1,5.8 41.2,-0.3 1.1,-0.6 2.2,-1.3 3.1,-2.2 -0.3,-1.1 -1.3,-3.4 -0.9,-4.5 l 0.2,-0.1 c 0.5,0.4 0.6,0.8 0.8,1.5 0.9,-1 3,-2.6 3.2,-4 -0.1,-0.4 -0.4,-0.7 -0.5,-1 -0.1,-0.4 1.1,-2.5 1.4,-2.9 0.4,-0.7 0.8,-1.5 1.2,-2.3 -1.3,-2.5 -2.3,-5 -3.3,-7.7 -10.6,-0.1 -21.3,-1.3 -31.8,-3.4 -3.9,-0.6 -7.7,-1.6 -11.6,-2.4 z"
   id="path211" />
			<path
   class="st26"
   d="m 382.3,2491.7 -0.3,0.1 -0.1,0.3 c 0.1,0.1 0.1,0.2 0.2,0.3 0.5,0.6 1.4,1.2 2,1.7 3.2,2.4 6.7,4.1 10.7,4.7 6.2,0.9 11.8,-1 16.7,-4.6 0.2,-0.2 0.2,-0.2 0.3,-0.5 l -0.2,-0.2 c -1,0.2 -2.4,1.5 -3.3,2 -2.9,1.7 -6,2.6 -9.4,2.8 -6.5,0.5 -11.9,-2.4 -16.6,-6.6 z"
   id="path212" />
			<path
   class="st2"
   d="m 423,2419.1 c -1.2,-0.5 -2.2,-0.7 -3.5,-0.2 -2,0.8 -3.2,3.1 -3.9,5 -3.9,9.6 -3.5,22.8 -2.3,33 2.4,0.1 5.8,0.3 8.1,-0.1 -0.6,-1.2 -4.3,-7.9 -4.3,-8.6 l 0.2,-0.2 c 0.1,0.1 0.2,0.1 0.2,0.2 0.7,0.8 1.4,2.6 1.9,3.6 1.8,3.4 3.6,6.8 5.4,10.3 1,2 2.1,3.9 3,5.9 0.2,0.4 0.3,0.7 0.3,1.1 l -0.6,-0.3 c -0.1,0 -0.2,0.1 -0.3,0.1 -0.4,0.4 -0.7,1.5 -1,2.1 l -11.5,22.2 c 0.8,1.3 1.6,2.4 2.7,3.5 2.1,2.2 7.5,6.8 10.6,6.8 1.5,-1 17.1,-23.3 19.1,-26.4 0.7,-1.2 1.4,-2.3 1.9,-3.6 0.6,-1.4 0.7,-2.8 0.5,-4.3 -0.5,-2.8 -1.8,-5.6 -2.9,-8.2 -2.4,-5.7 -5.1,-11.3 -7.5,-17.1 -3,-6.9 -6.6,-16.3 -12.1,-21.7 -1.1,-1.2 -2.5,-2 -4,-3.1 0,0.1 0,0 0,0 z"
   id="path213" />
			<path
   class="st26"
   d="m 432,2469.2 c -0.1,0 -0.3,0 -0.4,0 -1,0 -2.6,0.3 -3.2,1.1 -0.2,0.3 -0.3,0.5 -0.2,0.8 l 0.2,0.1 c 0.5,-0.4 1.1,-0.8 1.7,-1.1 1.3,-0.4 2.8,-0.3 4,0.3 0.2,0.1 0.2,0.1 0.5,0 l 0.1,-0.3 c -0.7,-0.7 -1.9,-0.8 -2.7,-0.9 z"
   id="path214" />
			<path
   class="st9"
   d="m 411.9,2502.2 c -0.7,0.5 -1.4,1 -2.2,1.5 -11.7,6.9 -29.7,4.2 -42.1,1 0.1,1.8 0,3.8 0.2,5.6 0.1,0.3 0.1,0.4 0,0.7 -0.1,1.8 0,3.8 0.1,5.6 0.1,2.9 0.2,5.9 0.3,8.8 0,1.3 0.3,2.8 0.1,4 0.1,0.5 0.2,0.8 0.1,1.3 0.4,1.2 0.5,9 0.5,10.7 h 23.6 0.7 35 l -1.4,-21.6 c -0.1,-1.7 -0.8,-6.7 -0.5,-8.1 l 0.3,-0.2 -0.3,-0.1 c -0.5,-1.8 -0.5,-6 -0.6,-8 -1.5,2.9 -3.3,5.7 -5.1,8.4 0.7,0.5 2,1.2 2.2,2.1 -0.1,0 -0.2,0 -0.2,0 -0.6,-0.1 -1.6,-0.9 -2.1,-1.3 -3.6,-2.9 -6.2,-6.3 -8.6,-10.4 z"
   id="path215" />
			<path
   class="st26"
   d="m 393.3,2541.4 c -2.4,-5.6 -4.6,-11.2 -6.9,-16.8 -0.6,-1.5 -1.8,-5.2 -2.7,-6.3 l -0.3,-0.1 -0.2,0.2 c 0.5,2.5 2.2,5.6 3.1,8 2.1,5 4,10.1 6.2,15 z"
   id="path216" />
			<path
   class="st2"
   d="m 386.2,2383.4 c -1.7,0 -3,0 -4.6,-0.5 -0.3,1 -0.7,2 -0.8,3 -0.2,1.7 0.1,4.3 -0.7,5.7 -0.6,1 -3.3,2.5 -3.5,3 -0.1,0.3 0,0.5 0.1,0.7 0.2,0.3 0.5,0.6 0.8,0.9 0.4,2.2 1.2,10.4 2.8,11.5 0.6,0.4 1.4,0.5 2.2,0.6 4.4,0.5 5.6,2 6.4,6.3 0.4,1.9 0.9,5.3 -0.3,7.1 -0.1,0.1 -0.1,0.2 -0.2,0.2 l -0.2,-0.1 c 0,-0.4 0,-0.7 0.1,-1.1 -1.1,0.1 -2.4,1 -3.4,1.5 -4.3,2 -8.1,3.4 -11.2,7.3 -1.1,1.4 -2,3 -2.6,4.6 -1.3,3.8 -1.9,12.2 -2.3,16.5 -0.1,1.4 -0.1,3.4 -0.7,4.6 0.1,0.5 0.1,0.9 0.1,1.4 -0.5,4.7 -1.3,9.3 -2,14 -0.2,1.4 -0.2,3.2 -0.6,4.6 l -0.1,0.4 c -0.9,6.9 -1.6,13.9 -2,20.8 -0.2,3.1 -0.7,6.5 -0.4,9.7 0,1.6 -0.1,3.1 -0.2,4.6 1.7,0.1 3.2,-0.1 4.9,-0.5 -0.2,-1.8 -0.1,-3.8 -0.2,-5.6 -0.4,-0.1 -0.6,-0.2 -0.9,-0.5 -0.2,-0.6 -0.2,-1.3 -0.2,-1.9 0.3,-4.2 0.8,-8.5 1.3,-12.7 1.3,-11.6 2.6,-23.2 4.1,-34.8 l 1.6,-13.3 c 0.2,-1.9 0.4,-4.8 0.8,-6.5 0.1,-0.2 0.1,-0.2 0.3,-0.4 l 0.2,0.1 c 0.2,0.9 -1.7,15 -1.9,17 1.3,0.6 3.2,0.8 4.6,1.1 9.6,2 20.6,3.7 30.4,3.7 -0.8,-10.4 -0.3,-21.2 2.7,-31.2 1,-3.4 2.3,-6.9 5.6,-8.7 -0.9,-0.8 -3,-0.6 -4.1,-0.7 -0.6,-0.1 -0.9,-0.1 -1.4,0.3 0,0 0,0 -0.1,-0.1 -0.5,-0.5 -2.2,-0.5 -2.8,-0.6 -0.5,-0.1 -0.7,-0.4 -1,-0.9 -1.7,-2.9 -2.4,-8 -1.7,-11.2 -1.2,-0.5 -2.1,-0.9 -2.7,-2.2 -0.3,-0.6 -0.4,-1.4 -0.5,-2.1 -1.1,0.6 -3.5,2.2 -4.7,2 0.1,-0.3 0,-0.5 0.3,-0.6 2.3,-1.5 4.7,-1.1 5.5,-4.5 0.2,-0.8 0.3,-2.1 -0.1,-2.9 -0.3,-0.4 -0.7,-0.7 -1.1,-0.8 -2.3,-0.5 -4.4,1.8 -6.1,-0.7 -1,-1.5 -0.7,-4.8 -2.7,-5.2 -0.8,-0.2 -1.7,0 -2.5,-0.1 -1.7,-0.2 -2.9,-1.8 -4.3,-2.8 z"
   id="path217" />
			<path
   class="st26"
   d="m 400.8,2394.5 c -0.5,0 -1,0 -1.4,0.3 -0.7,0.3 -1.2,1.1 -1.5,1.9 -0.2,0.5 -0.3,1.2 -0.1,1.7 h 0.3 l 0.2,-0.3 c 0.1,-0.8 0.2,-1.7 0.7,-2.4 0.2,-0.3 0.6,-0.5 1,-0.5 0.6,0 0.7,0.1 1.2,0.5 h -0.1 l 0.3,-0.2 v 0.2 l 0.2,-0.4 c -0.2,-0.3 -0.5,-0.5 -0.8,-0.8 z"
   id="path218" />
			<path
   class="st26"
   d="m 384.4,2386.9 c -0.5,0 -1.2,0 -1.7,0.2 -0.4,0.1 -0.5,0.1 -0.7,0.5 l 0.1,0.2 c 1.5,-0.1 2.6,-0.2 4.1,0.3 0.4,0.3 0.9,0.7 1.4,0.7 v -0.3 c -0.9,-1.1 -1.8,-1.4 -3.2,-1.6 z"
   id="path219" />
			<path
   class="st26"
   d="m 383.5,2389.8 c -0.3,0.1 -0.6,0.2 -0.8,0.4 -0.4,0.4 -0.5,0.9 -0.5,1.4 0,0.6 0.2,1 0.7,1.4 0.2,-0.1 0.4,-0.2 0.6,-0.4 0.4,-0.4 0.7,-1 0.7,-1.6 -0.1,-0.5 -0.3,-0.8 -0.7,-1.2 z"
   id="path220" />
			<path
   class="st26"
   d="m 383,2399.1 c -1.1,0 -4.8,-0.3 -5.6,0.4 l 0.2,0.1 c 1.2,0.6 3.5,0.1 4.8,0.1 -0.3,0.5 -0.7,0.9 -1,1.3 -0.2,0.1 -0.3,0.2 -0.5,0.4 -0.8,0.6 -1.9,0.5 -2.6,1 v 0.3 c 0,0 0.1,0 0.1,0.1 0.4,0.2 1.4,-0.1 1.8,-0.2 1,-0.3 2.3,-1.5 2.8,-2.5 0.2,-0.4 0.2,-0.6 0,-1 z"
   id="path221" />
			<path
   class="st26"
   d="m 412.2,2415.9 c -0.6,-0.1 -0.9,-0.1 -1.4,0.3 -4.6,4.2 -8.3,9 -14.9,10.1 -1.5,0.3 -3.9,0.4 -5.3,-0.2 -0.8,-0.4 -1.7,-1.1 -2.4,-1.6 l -0.3,0.1 v 0.1 c 0.1,0.2 0.2,0.4 0.3,0.6 1.2,1.3 3.2,1.8 5,1.9 8.3,0.4 13.5,-6.3 19,-11.3 z"
   id="path222" />
			<path
   class="st26"
   d="m 315.1,2413.5 c -2.4,-0.2 -5.2,0.8 -7.6,1.3 l -0.2,-0.4 c -1.1,-0.2 -5.7,0.6 -6.7,1.2 -0.2,0.1 -0.2,0.2 -0.3,0.5 0,0 0,0.1 0,0.1 -1.4,0.5 -2.8,0.8 -4.1,1.5 -3.3,1.8 -5.5,5.8 -7.1,9.1 -4.2,8.7 -6.6,18.2 -8.9,27.4 -0.7,3 -1.3,6 -1.9,9 -0.3,1.4 -0.4,3 -0.8,4.3 l -0.1,0.9 c -0.4,2.7 -1,6.2 -0.1,8.8 0,0.4 0.1,0.6 -0.1,1 0.6,1.6 1,3.6 2.1,5 0.4,0.1 0.4,0.1 0.7,0.5 -0.2,2.6 -0.5,4.5 -2.7,6.3 -1.2,1 -2.6,1.7 -4,2.4 0.5,2.7 1,5.3 1.4,8 -0.9,0.7 -1.8,1.2 -2.7,1.7 1.4,13.1 2.5,26.2 3.9,39.3 h 17.5 0.6 34 0.6 40.4 c 0,-1.7 -0.1,-9.4 -0.5,-10.7 0.1,-0.5 0.1,-0.8 -0.1,-1.3 0.2,-1.3 0,-2.8 -0.1,-4 -0.1,-2.9 -0.2,-5.9 -0.3,-8.8 -0.1,-1.8 -0.3,-3.8 -0.1,-5.6 0.1,-0.3 0,-0.5 0,-0.7 -1.7,0.4 -3.2,0.5 -4.9,0.5 0.1,-1.6 0.2,-3.1 0.2,-4.6 -0.4,-3.1 0.1,-6.5 0.4,-9.7 0.4,-7 1.1,-13.9 2,-20.8 l 0.1,-0.4 c 0.4,-1.3 0.4,-3.2 0.6,-4.6 0.7,-4.6 1.6,-9.3 2,-14 0,-0.5 0,-0.9 -0.1,-1.4 -2.4,-8.8 -6.3,-28.6 -12.3,-34.6 -0.4,-0.4 -0.9,-0.8 -1.3,-1.1 -0.5,-0.3 -1,-0.7 -1.5,-0.9 -1.9,-1 -11.7,-5 -13.6,-4.9 -0.5,0 -0.6,0.3 -0.9,0.7 0.4,0.1 0.4,0 0.6,0.3 l -0.1,0.3 c -0.2,0.1 -0.3,0.1 -0.5,0.1 -1.3,2 -1.9,3.7 -4,5.1 -3.1,2 -7,2.2 -10.5,1.4 -2.7,-0.6 -5.7,-1.9 -7.4,-4.2 -0.7,-0.9 -1.2,-2 -1.8,-3 -0.1,-0.3 -0.2,-0.4 -0.1,-0.7 z"
   id="path223" />
			<path
   class="st2"
   d="m 329.2,2471.4 c -1.2,0.2 -3.4,0.4 -4.4,1.1 -0.3,0.2 -0.5,0.5 -0.5,0.9 -0.1,1.1 0.9,2.1 1.6,2.9 l 1.6,1.7 c 0.7,-2.1 1.3,-4.4 1.7,-6.6 z"
   id="path224" />
			<path
   class="st2"
   d="m 328.1,2427.4 c -0.5,0 -1,-0.1 -1.5,0.1 l 0.1,0.2 c 3.6,3 7.2,6.1 10.9,9 1.4,1.1 2.8,2.3 4.3,3.1 l 1.7,0.3 c -5.1,-4.4 -10.4,-8.5 -15.5,-12.7 z"
   id="path225" />
			<path
   class="st2"
   d="m 334.2,2470.7 c -1.4,0.3 -2.8,0.5 -4.2,0.6 l -1.9,7.3 c 0.5,0.6 1,1.1 1.5,1.7 0.6,0.6 1.1,1.1 1.7,1.6 1.1,-3.8 2,-7.5 2.9,-11.2 z"
   id="path226" />
			<path
   class="st2"
   d="m 357.2,2500.7 c -0.6,1.8 0.6,4.5 -0.4,6.1 -0.7,1.1 -2.2,1.4 -3.3,1.7 0,3.2 -0.6,6.3 -0.7,9.5 0.4,-0.7 0.8,-1.4 1.3,-2.1 2.4,-3.7 4.5,-7.7 6.4,-11.7 -1.1,-1.2 -2.2,-2.3 -3.3,-3.5 z"
   id="path227" />
			<path
   class="st2"
   d="m 343.8,2440.8 c -0.3,-0.1 -0.3,-0.1 -0.5,0 -1.4,4.5 -2.6,9.7 -3.6,14.2 l 1.9,-0.6 1.9,-0.8 c 1.1,-4.2 1.9,-8.6 2.9,-12.8 -0.8,0.1 -1.7,0.1 -2.6,0 z"
   id="path228" />
			<path
   class="st2"
   d="m 339.3,2468.4 c -1.4,0.5 -2.8,1.4 -4.2,2 -0.9,3.1 -2.5,8.6 -2.8,11.6 1.2,0.1 2.5,0.2 3.8,0.2 1.2,-4.5 2.1,-9.2 3.2,-13.8 z"
   id="path229" />
			<path
   class="st2"
   d="m 367.9,2511 c -1.2,0.3 -2.4,0.4 -3.6,0.5 -0.2,6.4 0.8,12.4 4.1,17.9 0.2,-1.3 0,-2.8 -0.1,-4 -0.1,-2.9 -0.2,-5.9 -0.3,-8.8 -0.1,-1.8 -0.3,-3.7 -0.1,-5.6 z"
   id="path230" />
			<path
   class="st2"
   d="m 339.4,2439 c -0.8,0.9 -2.9,10.6 -3.5,12.4 -0.5,1.6 -1,3.2 -1.6,4.7 0.9,-0.1 1.8,-0.3 2.7,-0.5 l 1.9,-0.4 c 1.1,-4.9 2.4,-9.7 3.6,-14.6 -1.3,-0.3 -2,-0.8 -3.1,-1.6 z"
   id="path231" />
			<path
   class="st9"
   d="m 306.1,2454.7 c -0.7,2.8 -1.4,5.6 -2.4,8.3 3.8,-0.5 7.5,-1.1 11.3,-2 0.2,-2.1 0.9,-4.3 1.4,-6.3 -2.4,0 -4.8,-0.1 -7.2,0 -0.5,0 -2.6,0.3 -2.9,0.1 -0.1,0 -0.1,-0.1 -0.2,-0.1 z"
   id="path232" />
			<path
   class="st2"
   d="m 320.7,2439.3 c -2.4,0 -4.8,0 -7.2,0.1 -1.7,0.1 -3.4,0.3 -5.1,0.4 -0.6,5 -1.3,9.9 -2.4,14.8 0.1,0.1 0.1,0.1 0.2,0.2 0.3,0.1 2.4,-0.1 2.9,-0.1 2.4,-0.1 4.8,0 7.2,0 1.8,-5 2.9,-10.3 4.4,-15.4 z"
   id="path233" />
			<path
   class="st9"
   d="m 365.5,2475.6 c -2.9,0 -5.6,0 -8.4,0.9 v 23 c 1.8,2.3 4.1,4.4 6.1,6.6 -0.4,-3.1 0.1,-6.5 0.4,-9.7 0.3,-6.9 1,-13.9 1.9,-20.8 z"
   id="path234" />
			<path
   class="st2"
   d="m 335.3,2449.6 c -1.5,0.3 -7,5.4 -8.3,6.8 -1.4,1.5 -2.8,3.3 -4.5,4.3 -0.6,0.4 -1.4,0.5 -2.1,0.6 0.4,1.8 1,3.6 1.5,5.4 0.6,1.8 1.2,3.5 1.9,5.2 3.1,-0.7 6.3,-1.1 9.4,-1.7 0.3,-0.1 0.5,-0.1 0.8,-0.2 0.3,-0.1 0.5,-0.2 0.8,-0.2 0.3,-0.1 0.5,-0.2 0.8,-0.3 0.3,-0.1 0.5,-0.2 0.8,-0.3 0.3,-0.1 0.5,-0.2 0.8,-0.3 0.3,-0.1 0.5,-0.3 0.7,-0.4 0.2,-0.1 0.5,-0.3 0.7,-0.4 0.2,-0.1 0.5,-0.3 0.7,-0.5 0.2,-0.2 0.5,-0.3 0.7,-0.5 0.2,-0.2 0.4,-0.3 0.7,-0.5 0.2,-0.2 0.4,-0.4 0.6,-0.6 0.2,-0.2 0.4,-0.4 0.6,-0.6 0.2,-0.2 0.4,-0.4 0.6,-0.6 0.2,-0.2 0.4,-0.4 0.5,-0.6 0.2,-0.2 0.3,-0.4 0.5,-0.7 0.2,-0.2 0.3,-0.5 0.5,-0.7 -1.6,0.5 -2.9,1.9 -4.6,2.5 0,-0.3 -0.1,-0.4 0.1,-0.6 1,-1.2 3.3,-1.6 4.4,-3.2 0.3,-0.4 0.3,-0.7 0.2,-1.1 l -0.3,-0.1 c -1.2,0.5 -2.3,1.2 -3.4,1.8 -0.4,0.2 -0.9,0.4 -1.3,0.3 0,-0.1 0,-0.2 0,-0.3 0.3,-0.5 3.8,-1.8 4.7,-2.8 0.4,-0.4 0.8,-0.9 0.8,-1.5 -1.2,-0.4 -4,1.4 -5.3,1.7 -0.3,0.1 -0.3,0 -0.5,-0.1 0.7,-1 3.9,-1.6 5.1,-2.7 0.5,-0.4 0.9,-0.9 0.9,-1.6 -0.1,-0.4 -0.2,-0.6 -0.5,-0.8 -0.7,-0.1 -3,1.1 -3.8,1.3 -3.1,0.9 -6.3,1.4 -9.5,1.7 1.2,-1.9 3.2,-3.2 4.1,-5.4 0.3,-0.8 0.5,-1.5 0.2,-2.3 z"
   id="path235" />
			<path
   class="st2"
   d="m 325.2,2427.4 h -0.2 0.2 c -0.2,0.1 -0.2,0.1 -0.4,0.2 -0.6,1.4 -1,2.9 -1.4,4.4 -0.9,3.1 -1.7,6.2 -2.6,9.3 -1.8,6.5 -3.8,13 -5.2,19.5 1.1,-0.3 2,-0.7 3.1,-1 0.4,-0.1 0.7,-0.2 1.1,0 0.1,0.2 0.2,0.4 0.3,0.6 0.1,0.2 0.4,0.2 0.6,0.2 1.5,0 3.2,-2.1 4.1,-3.1 2.2,-2.4 4.6,-4.4 7.1,-6.4 0.7,-0.6 1.5,-1.4 2.2,-1.8 0.4,-0.2 1.1,-0.3 1.6,-0.4 l -0.3,-0.1 0.3,0.1 c 0.9,-1.7 2.3,-8.1 2.9,-10.4 -4.5,-3.7 -9,-7.3 -13.4,-11.1 z"
   id="path236" />
			<path
   class="st2"
   d="m 284.1,2485 c -1.4,-0.3 -2.8,-0.6 -4.2,-1.2 -0.2,2.6 -0.5,4.5 -2.7,6.3 -1.2,1 -2.6,1.7 -4,2.4 0.5,2.7 1,5.3 1.4,8 -0.9,0.7 -1.8,1.2 -2.7,1.7 1.4,13.1 2.5,26.2 3.9,39.3 h 17.5 l 1.9,-34.2 c -0.7,-0.3 -1.8,-0.6 -2.3,-1.2 -0.5,-0.6 -0.3,-1.4 -0.2,-2.2 -2.3,-0.5 -4.4,-1.1 -6.1,-2.8 -0.1,-0.1 -0.2,-0.2 -0.4,-0.4 -0.1,-0.1 -0.2,-0.3 -0.3,-0.4 -0.1,-0.1 -0.2,-0.3 -0.3,-0.4 -0.1,-0.1 -0.2,-0.3 -0.3,-0.4 -0.1,-0.2 -0.2,-0.3 -0.2,-0.5 0,-0.2 -0.1,-0.3 -0.2,-0.5 -0.1,-0.2 -0.1,-0.3 -0.2,-0.5 -0.1,-0.2 -0.1,-0.3 -0.2,-0.5 -0.7,-2.8 -0.4,-9.5 -0.4,-12.5 z"
   id="path237" />
			<path
   class="st9"
   d="m 300.3,2416.2 c -1.4,0.5 -2.8,0.8 -4.1,1.5 -3.3,1.8 -5.5,5.8 -7.1,9.1 -4.2,8.7 -6.6,18.2 -8.9,27.4 -0.7,3 -1.3,6 -1.9,9 -0.3,1.4 -0.4,3 -0.8,4.3 l -0.1,0.9 c -0.4,2.7 -1,6.2 -0.1,8.8 0,0.4 0.1,0.6 -0.1,1 0.6,1.6 1,3.6 2.1,5 0.4,0.1 0.4,0.1 0.7,0.5 1.3,0.6 2.7,0.9 4.2,1.2 2.7,0.3 5.4,0.3 8.2,-0.2 4.1,-0.7 8.2,-2.2 12.1,-3.6 6.6,-2.4 13.1,-4.9 19.5,-7.6 -1.9,-3 -3.8,-9.6 -4.5,-13.1 -2,0.7 -4,1.2 -6.1,1.7 -2.1,0.5 -4.1,0.8 -6.2,1.1 -2.1,0.3 -4.3,0.4 -6.4,0.6 -3.6,0.2 -7.1,-0.3 -10.4,1.7 -2.4,1.4 -2.4,2.7 -4.1,4.4 h -0.2 c 0.2,-1.1 0.8,-2.1 1.5,-3 2.2,-2.5 5.3,-3.3 8.5,-3.6 v -20.4 c 0,-2.4 -0.4,-6.9 0.1,-9 h 0.4 l -0.3,-0.1 -0.1,0.2 0.4,-0.2 c 0.5,1.9 0.2,6.5 0.2,8.7 v 20.9 c 0.2,-0.5 0.3,-1 0.5,-1.4 3.9,-11.9 5.4,-27.1 4.2,-39.5 -0.3,-1.9 -0.3,-4.7 -1.2,-6.3 z"
   id="path238" />
			<path
   class="st2"
   d="m 362.5,2507.1 c -0.5,-0.3 -1,-0.6 -1.1,-1.2 -0.1,-0.4 0.1,-0.8 -0.2,-1 H 361 c -1.9,3.5 -3.8,6.9 -5.8,10.4 -0.8,1.3 -2.2,3.1 -2.6,4.6 -0.3,1 -0.2,2 -0.3,3.1 l -0.6,7.2 c -0.1,0.8 0,2.9 -0.7,3.3 -0.3,-1.3 1.4,-22.5 1.8,-24.7 -13.8,3.2 -30.5,3.7 -44.5,1.4 -2,2.9 -4.1,5 -7.3,6.6 -0.7,0.4 -1.6,0.8 -2.4,1 -0.2,0 -0.3,0 -0.5,0 l -0.1,-0.3 c 0.3,-0.4 1.4,-0.7 1.9,-0.9 3.1,-1.4 5.9,-3.4 7.6,-6.5 -3.8,-0.7 -7.9,-1.3 -11.6,-2.5 -0.4,4.1 -0.5,8.2 -0.7,12.2 -0.3,7.2 -0.6,14.6 -1.2,21.8 h 34 0.6 40.4 c 0,-1.7 -0.1,-9.4 -0.5,-10.7 -2.6,-2.2 -4.7,-11.6 -4.9,-14.9 -0.1,-0.9 0.3,-3.9 -0.2,-4.4 -0.4,0 -0.7,0 -1,-0.3 -0.2,-1.5 0.1,-2.8 0.1,-4.2 z"
   id="path239" />
			<path
   class="st26"
   d="m 328.6,2541.4 c 0.3,-2.9 3,-24.8 2.6,-25.3 -0.3,0.4 -0.4,0.9 -0.5,1.3 -0.4,2.1 -0.5,4.5 -0.8,6.6 l -1.9,17.4 z"
   id="path240" />
			<path
   class="st9"
   d="m 315.1,2413.5 c -2.4,-0.2 -5.2,0.8 -7.6,1.3 0.3,2.1 0.7,4.2 1,6.3 0.7,6.1 0.6,12.7 0,18.8 1.7,-0.1 3.4,-0.3 5.1,-0.4 2.4,-0.1 4.8,-0.1 7.2,-0.1 0.4,-1.5 2.9,-11.8 3.6,-12.2 0.8,-0.5 4.5,-0.5 5.6,-0.5 2.7,1.3 8.4,6.4 11,8.6 2.1,1.7 4.3,3.3 6.4,5.1 -1.1,4.3 -2,8.6 -2.9,13 0.5,0.4 1,0.8 1.1,1.5 0.1,0.6 -0.6,1.4 -0.7,2 -0.1,0.4 0.4,0.9 0.4,1.3 0,1 -0.9,0.7 -0.5,2.3 0.1,0.3 0.1,0.7 0,1 -0.5,0.9 -0.9,0.9 -0.7,2.1 0.1,0.3 -0.1,0.6 -0.3,0.8 -0.8,1.3 -2.4,2.7 -3.7,3.6 l -2.2,9.5 c -0.4,1.8 -0.7,3.7 -1.4,5.4 -1.7,0 -3.5,0 -5.2,-0.3 -2.5,-2 -5.9,-5.4 -7.6,-8.1 -6.1,2.5 -12.2,5 -18.4,7.2 -3.7,1.3 -7.6,2.7 -11.5,3.5 -0.2,6.8 -0.4,13.6 -0.5,20.4 2.8,1.8 6.4,2.3 9.6,2.9 15.9,3.2 33.2,3.3 49.1,-0.2 1.6,-0.4 3.2,-0.7 4.5,-1.7 0.3,-6.3 0,-13.2 0,-19.6 l 0.2,-34.9 c 0,-3.7 0.1,-7.5 0.2,-11.2 0,-1 -0.2,-2.3 0,-3.3 0,-0.2 0.1,-0.3 0.2,-0.4 l 0.3,-0.1 c 0.3,0.3 0.3,0.7 0.3,1.2 0,12.5 -0.4,25 -0.4,37.6 1.7,-0.4 6.8,-1.3 8.3,-0.7 0.1,0 0.1,0.1 0.2,0.2 0.4,-1.3 0.4,-3.2 0.6,-4.6 0.7,-4.6 1.6,-9.3 2,-14 0,-0.5 0,-0.9 -0.1,-1.4 -2.4,-8.8 -6.3,-28.6 -12.3,-34.6 -0.4,-0.4 -0.9,-0.8 -1.3,-1.1 -0.5,-0.3 -1,-0.7 -1.5,-0.9 -1.9,-1 -11.7,-5 -13.6,-4.9 -0.5,0 -0.6,0.3 -0.9,0.7 0.4,0.1 0.4,0 0.6,0.3 l -0.1,0.3 c -0.2,0.1 -0.3,0.1 -0.5,0.1 -1.3,2 -1.9,3.7 -4,5.1 -3.1,2 -7,2.2 -10.5,1.4 -2.7,-0.6 -5.7,-1.9 -7.4,-4.2 -0.7,-0.9 -1.2,-2 -1.8,-3 -0.1,-0.3 -0.2,-0.4 -0.1,-0.7 z"
   id="path241" />
		</g>
	</g>
	<g
   id="g314">
		<defs
   id="defs242"><polygon
     id="SVGID_7_"
     points="366.3,2470.6 360.1,2528.4 356.8,2578.4 461.2,2588.5 477.3,2373 342.2,2364.7 358.2,2431.1 " /></defs>
		<clipPath
   id="SVGID_8_">
			<use
   xlink:href="#SVGID_7_"
   style="overflow:visible"
   id="use242" />
		</clipPath>
		<g
   class="st28"
   clip-path="url(#SVGID_8_)"
   id="g313">
			<path
   class="st27"
   d="m 249.5,2378.3 c -0.5,0.2 -1.3,0.4 -1.6,0.9 -0.4,1.2 -0.1,3.2 -0.1,4.5 0,2.1 0.3,17.8 -0.1,18.7 h 2.2 c -0.1,-0.2 -0.3,-0.4 -0.3,-0.6 -0.3,-1.6 -0.1,-3.9 -0.1,-5.6 0,-4.2 0,-8.3 0,-12.5 0,-1.6 0.3,-3.7 0,-5.4 z"
   id="path242" />
			<path
   class="st26"
   d="m 403.5,2420.9 c 3.8,-1.6 2.5,-4.7 4.8,-7.4 1.4,-1.6 3.6,-2.5 4.7,-4.3 2.2,-3.3 -1.4,-5 -1.2,-7.4 0.1,-1.8 1.8,-2.7 1.4,-4.7 -0.7,-3 -3.8,-2.9 -5.8,-4.5 -1.7,-1.3 -2.3,-3.6 -4.1,-4.7 -3.4,-2.1 -5.6,0.4 -8.7,0.1 -3.1,-0.3 -5.4,-2.8 -8.8,-1.9 -2.2,0.6 -3.3,2.3 -4.3,4.1 -2,0.4 -3.7,0.7 -5,2.5 -0.7,0.9 -0.9,2 -0.8,3.2 0.3,1.8 1.7,3.1 3.1,4.1 -0.4,1.2 -0.8,2.3 -1,3.5 -0.3,1.7 0.1,4.4 -0.9,5.8 -0.9,1.1 -2.4,1.5 -3.3,2.6 l -0.1,0.2 c -0.2,0.8 1,2.1 1.3,2.9 0.2,0.7 0.2,1.6 0.3,2.4 0.3,2.2 0.6,5.1 1.6,7.2 1.3,2.8 3.8,1.6 6.1,2.4 1.1,0.4 1.9,1.4 2.3,2.4 l 0.1,0.2 c 0.7,2.2 1.9,6.6 0.8,8.7 0,0 0,0 0,0 -0.1,0.4 -0.1,0.7 -0.1,1.1 l 0.2,0.1 c 0.1,-0.1 0.1,-0.2 0.2,-0.2 1.1,-1.7 0.7,-5.2 0.3,-7.1 -0.9,-4.3 -2,-5.8 -6.4,-6.3 -0.7,-0.1 -1.6,-0.1 -2.2,-0.6 -1.5,-1.1 -2.4,-9.3 -2.8,-11.5 -0.3,-0.3 -0.6,-0.6 -0.8,-0.9 -0.1,-0.2 -0.2,-0.4 -0.1,-0.7 0.1,-0.5 2.9,-2 3.5,-3 0.8,-1.5 0.5,-4.1 0.7,-5.7 0.1,-1 0.5,-2 0.8,-3 1.6,0.6 2.9,0.5 4.6,0.5 1.4,1 2.6,2.6 4.4,2.9 0.8,0.1 1.7,0 2.5,0.1 2,0.4 1.7,3.6 2.7,5.2 1.8,2.6 3.8,0.3 6.1,0.7 0.5,0.1 0.9,0.3 1.1,0.8 0.5,0.8 0.3,2 0.1,2.9 -0.8,3.5 -3.2,3 -5.5,4.5 -0.3,0.2 -0.2,0.3 -0.3,0.6 1.2,0.2 3.6,-1.4 4.7,-2 0.1,0.7 0.2,1.4 0.5,2.1 0.5,1.2 1.5,1.7 2.7,2.2 -0.7,3.2 0,8.3 1.7,11.2 0.3,0.4 0.5,0.7 1,0.9 0.1,-0.7 -0.8,-2.1 -1.1,-2.8 -1.1,-3.2 -1.3,-6.3 -1,-9.4 z"
   id="path243" />
			<path
   class="st27"
   d="m 221.4,2423.2 c -0.2,0 -0.3,0 -0.5,-0.1 -0.3,-0.1 -0.4,-0.6 -0.4,-0.9 -0.2,-1.7 -0.1,-3.6 0,-5.3 0,-3.6 0,-7.1 0.1,-10.7 0,-1.3 0.3,-3.3 -0.1,-4.5 -0.6,0.4 -1.4,1.1 -1.5,1.8 -0.4,1 -0.3,15.8 -0.2,17.6 0,0.4 0,0.8 0.2,1.1 0,0 0,0.1 0,0.1 -4.5,0 -9,-0.1 -13.4,-0.1 -0.3,0.3 -0.7,0.5 -0.7,1 0,0.1 0,0.1 0,0.2 -0.9,0.6 -1.6,2.8 -2.1,3.8 -3.2,7.1 -5.8,14.1 -7.2,21.7 -0.3,1.5 -0.5,3.1 -0.7,4.6 -0.2,1.6 -0.4,3.1 -0.5,4.7 -0.1,1.6 -0.2,3.1 -0.2,4.7 0,1.6 0,3.1 0,4.7 0,1.1 -0.1,3.3 0.5,4.3 2,0 7.6,-0.3 9.2,0.2 -0.2,-1.3 2.6,-7.2 3.3,-8.5 0.4,-0.6 1.2,-2.3 2,-2.4 0.2,0 0.4,0.1 0.6,0.2 0,-0.2 -0.1,-0.3 -0.1,-0.5 0.1,-0.8 0.5,-1.7 0.8,-2.4 1.4,-3.8 3.4,-8.1 6.9,-10.4 1.4,-0.9 3.3,-1.7 4.9,-1.3 0,-0.1 0,-0.1 0.1,-0.2 0.5,-0.8 3.2,-1.6 4.1,-1.8 0.8,-0.2 1.4,-0.4 2.2,0 l 0.1,-0.3 c 1.4,-0.2 3,-0.3 4.4,-0.3 0.1,-0.2 0.2,-0.2 0.4,-0.3 v -0.3 c 0.4,-0.6 1.4,-1 2,-1.4 -0.2,-0.1 -0.3,-0.2 -0.4,-0.3 0,-0.1 0,-0.1 0,-0.2 0,-0.5 0.4,-1 0.8,-1.3 -1.1,-0.1 -2.1,-0.4 -3.1,-0.7 -2.4,-0.7 -11.5,-4.2 -12.5,-6.1 0,-0.1 0,-0.2 0,-0.3 0,-1 3,-6 3.8,-6.9 -1.1,0.7 -1.7,2 -2.7,2.8 -1.1,0.9 -2.3,1.5 -3.4,2.3 l -0.2,0.1 c -0.7,-0.2 -1.4,-0.8 -2,-1.3 -0.7,-0.6 -1.8,-1.6 -1.9,-2.6 0.4,-0.4 4.8,-2.8 5.8,-3.5 0.6,-0.2 1.1,-0.6 1.6,-1 z"
   id="path244" />
			<path
   class="st26"
   d="m 339.6,2408.1 c 2,-3.9 3.5,-8.1 2.1,-12.5 -1.1,-3.5 -3.9,-5.9 -7.2,-7.5 -3.5,-1.8 -8,-2.3 -11.8,-1 -1,0.3 -1.9,0.8 -2.9,1.1 -3.9,1.2 -6.1,1.5 -8.1,5.5 -1.2,2.5 -1.8,5.6 -1.7,8.3 l 0.2,0.2 0.6,-0.1 c 0.5,0.7 -0.4,3.9 -0.4,4.8 -0.5,5.7 0.2,12.9 5.1,16.6 -0.4,2.2 -0.8,5.2 -2.1,7.1 -0.2,0.1 -0.3,0.2 -0.6,0.2 l -0.4,0.2 c -0.1,0.3 0,0.4 0.1,0.7 0.6,1 1.1,2.1 1.8,3 1.7,2.3 4.7,3.6 7.4,4.2 3.5,0.8 7.4,0.6 10.5,-1.4 2.1,-1.3 2.7,-3.1 4,-5.1 0.2,0 0.3,-0.1 0.5,-0.1 l 0.1,-0.3 c -0.2,-0.3 -0.2,-0.3 -0.6,-0.3 -0.7,-0.2 -1.4,-0.4 -2.1,-0.7 -0.5,-0.3 -0.6,-0.6 -0.7,-1.1 -0.5,-3.2 -1.1,-8.6 0.1,-11.7 0.2,-0.6 0.6,-1.1 0.9,-1.6 2,-0.5 3.8,-1.2 4.9,-3 0.7,-1.1 1,-2.6 0.7,-3.9 -0.1,-0.7 -0.3,-1.2 -0.4,-1.6 z"
   id="path245" />
			<path
   class="st2"
   d="m 332.5,2419.3 c -2.3,2.8 -5.9,5.9 -9.3,7.2 -2.7,1 -4.8,0.7 -7.4,-0.4 -0.4,1.5 -0.8,3.2 -1.7,4.6 -0.5,0.7 -0.8,0.8 -1.5,1 0.6,1 1.1,2.1 1.8,3 1.7,2.3 4.7,3.6 7.4,4.2 3.5,0.8 7.4,0.6 10.5,-1.4 2.1,-1.3 2.7,-3.1 4,-5.1 -1,-0.5 -2.1,-0.8 -3.1,-1.1 -1.1,-3.9 -1.1,-8 -0.7,-12 z"
   id="path246" />
			<path
   class="st2"
   d="m 318.7,2394.1 c -0.5,0.6 -0.6,2.1 -0.9,2.8 -1.1,2.7 -3.4,3.6 -5.9,4.7 -0.2,1.5 -0.5,3 -0.7,4.5 -0.5,4.7 -0.3,10.4 2.4,14.4 1.4,2 3.4,3.3 5.8,3.7 3.5,0.6 7,-0.9 9.8,-2.8 2.2,-1.6 3.5,-3.4 4.6,-5.9 0.9,0 1.6,0 2.5,-0.4 0.1,0 0.2,-0.1 0.3,-0.1 0.1,0 0.2,-0.1 0.2,-0.1 0.1,0 0.2,-0.1 0.2,-0.1 0.1,-0.1 0.2,-0.1 0.2,-0.2 0.1,-0.1 0.1,-0.1 0.2,-0.2 0.1,-0.1 0.1,-0.1 0.2,-0.2 0.1,-0.1 0.1,-0.1 0.2,-0.2 0.1,-0.1 0.1,-0.1 0.2,-0.2 0.1,-0.1 0.1,-0.1 0.2,-0.2 0.1,-0.1 0.1,-0.1 0.2,-0.2 0.1,-0.1 0.1,-0.1 0.2,-0.2 0.1,-0.1 0.1,-0.2 0.2,-0.2 0,-0.1 0.1,-0.2 0.1,-0.2 0,-0.1 0.1,-0.2 0.1,-0.2 0,-0.1 0.1,-0.2 0.1,-0.3 0,-0.1 0.1,-0.2 0.1,-0.3 0.4,-0.9 0.4,-2 -0.1,-3 -0.3,-0.6 -0.8,-1.1 -1.5,-1.3 -1.2,-0.4 -2.3,0.2 -3.4,0.7 -1.5,-1.1 -2.6,-2.6 -4.2,-3.7 -5.4,-3.7 -8.6,-3.6 -11.3,-10.6 z"
   id="path247" />
			<path
   class="st26"
   d="m 337.5,2410.3 c -0.2,0 -0.4,0 -0.6,0 -0.5,0.1 -1,0.5 -1.2,0.9 -0.3,0.6 -0.3,1.2 -0.1,1.9 0.3,-0.1 0.4,-0.2 0.6,-0.5 0,-0.4 0,-0.7 0.2,-1.1 0.2,-0.2 0.3,-0.4 0.6,-0.5 0,0 0.2,-0.1 0.3,-0.1 0.1,-0.1 0.1,-0.3 0.2,-0.6 z"
   id="path248" />
			<path
   class="st26"
   d="m 314.2,2402.2 c -0.1,0 -0.2,0 -0.3,0 -0.4,0 -0.7,0.2 -0.9,0.5 0,0.1 0,0.2 0.1,0.3 0.1,0.1 2.2,0 2.8,0.3 0,0 0.1,0 0.1,0 0.4,0.2 0.5,0.3 0.9,0.4 l 0.2,-0.2 -0.2,-0.4 c -1,-0.6 -1.7,-0.7 -2.7,-0.9 z"
   id="path249" />
			<path
   class="st26"
   d="m 325.9,2407.5 c -0.1,0 -0.2,0.1 -0.4,0.1 -0.4,0.2 -0.7,0.6 -0.8,1 -0.2,0.7 0,1.2 0.3,1.8 0.1,0 0.3,-0.1 0.4,-0.1 0.4,-0.2 0.7,-0.5 0.9,-0.9 0.3,-0.8 0,-1.3 -0.4,-1.9 z"
   id="path250" />
			<path
   class="st26"
   d="m 314.2,2405.3 c -0.3,0.1 -0.5,0.2 -0.7,0.4 -0.3,0.3 -0.5,0.7 -0.5,1.1 0,0.6 0.2,1.1 0.6,1.6 0.3,-0.1 0.5,-0.2 0.8,-0.4 0.3,-0.3 0.6,-0.8 0.6,-1.2 0,-0.7 -0.3,-1.1 -0.8,-1.5 z"
   id="path251" />
			<path
   class="st26"
   d="m 326.2,2404 c -0.8,-0.1 -1.7,-0.1 -2.5,0 -0.4,0 -0.6,0.1 -0.8,0.4 l 0.1,0.2 c 1.1,0.3 2.3,0 3.5,0.2 0,0 0.1,0 0.1,0 0.7,0.2 1.3,0.8 2,1.1 l -0.1,-0.1 h 0.2 c 0.1,-0.3 0.1,-0.3 0,-0.6 -0.6,-0.6 -1.6,-0.9 -2.5,-1.2 z"
   id="path252" />
			<path
   class="st26"
   d="m 319.2,2406.8 c -0.1,0.1 -0.2,0.1 -0.3,0.2 -0.4,0.3 -2.6,5.4 -2.6,5.8 0.3,0.5 0.7,0.6 1.2,0.9 0.2,-0.1 0.3,-0.1 0.4,-0.3 -0.2,-0.4 -0.6,-0.6 -1,-0.9 0.6,-1 1.2,-2.1 1.7,-3.1 0.3,-0.8 0.9,-1.8 0.6,-2.6 z"
   id="path253" />
			<path
   class="st26"
   d="m 318.7,2415.2 c -0.9,-0.1 -1.8,-0.3 -2.7,-0.1 -0.2,0.2 -0.2,0.3 -0.2,0.5 0,0.8 0.5,2 1.1,2.5 1.1,1 2.5,1 3.9,0.9 0.4,-0.1 0.7,-0.3 1.1,-0.5 1.2,-0.7 1.5,-1.7 1.8,-2.9 -1.6,-0.2 -3.4,-0.2 -5,-0.4 z"
   id="path254" />
			<path
   class="st2"
   d="m 317,2415.8 c -0.2,0 -0.2,0 -0.4,0.1 0,0.3 0,0.5 0.1,0.7 0.3,0.7 0.8,1.2 1.5,1.5 1.1,0.4 2.3,0.3 3.3,-0.1 0.3,-0.2 0.8,-0.6 1,-0.9 0.2,-0.3 0.1,-0.4 0.1,-0.7 -1.1,-0.7 -4.3,-0.5 -5.6,-0.6 z"
   id="path255" />
			<path
   class="st26"
   d="m 249.9,2402.5 h -2.2 c -6.1,0.1 -9.7,1.2 -14,5.6 -3,3.2 -5.2,7.1 -8,10.5 -1,1.2 -3.6,3.5 -4.2,4.7 -0.5,0.4 -1,0.9 -1.5,1.3 -1,0.7 -5.4,3.1 -5.8,3.5 0.1,0.9 1.2,2 1.9,2.6 0.6,0.5 1.3,1.1 2,1.3 l 0.2,-0.1 c 1.1,-0.9 2.4,-1.4 3.4,-2.3 1,-0.8 1.6,-2.1 2.7,-2.8 -0.8,0.9 -3.9,5.9 -3.8,6.9 0,0.1 0,0.2 0,0.3 1.1,1.9 10.2,5.4 12.5,6.1 1,0.3 2.1,0.6 3.1,0.7 -0.3,0.3 -0.7,0.8 -0.8,1.3 0,0.1 0,0.1 0,0.2 0.1,0.1 0.3,0.2 0.4,0.3 -0.6,0.4 -1.6,0.8 -2,1.4 v 0.3 c -0.2,0.1 -0.3,0.1 -0.4,0.3 0.1,1.1 2.5,2.8 3.4,3.5 3.2,2.5 7.9,5.1 12,4.7 2.7,-0.3 4.5,-1.6 6.1,-3.7 0.5,-0.7 1.1,-1.7 1.7,-2.3 -0.8,-0.6 -1.9,-0.8 -2.8,-1.5 -0.6,-0.5 -0.9,-1.1 -1,-1.9 -0.1,-1.1 0,-3.2 0.7,-4.1 3.9,0.1 9.1,-1.5 12.6,-3.3 0.1,-1.7 0.1,-3.3 0.2,-5 0.4,1.4 0.6,3.1 1.3,4.5 l 0.3,-0.1 c 0.1,-0.1 0.2,-0.2 0.2,-0.4 0.8,-2.3 -2.7,-15.8 -3.5,-18.2 -0.3,-0.9 -0.6,-1.8 -1,-2.6 -0.4,-0.9 -0.8,-1.7 -1.3,-2.5 -3.3,-6 -6.3,-7.6 -12.4,-9.2 z"
   id="path256" />
			<path
   class="st2"
   d="m 240,2429.8 c -0.7,0.9 -1.6,6.1 -2,7.5 -0.5,1.8 -1.2,3.4 -2.1,5 -0.6,0.4 -1.6,0.8 -2,1.4 v 0.3 c 0.2,0.6 1.1,1.4 1.6,1.9 3.1,3 8.5,6.1 12.9,6 3.7,-0.1 5.1,-2.6 7.4,-5 0,0 0,0 0.1,-0.1 -0.7,-0.2 -1.4,-0.4 -2,-0.8 -1,-0.7 -1.6,-1.9 -1.7,-3 -0.1,-1.1 0.1,-3.1 0.8,-4 -2.9,-0.3 -5.5,-1.5 -7.8,-3.2 -1.6,-1.1 -5,-4.3 -5.2,-6 z"
   id="path257" />
			<path
   class="st2"
   d="m 255.6,2408.9 c -0.5,-0.1 -0.9,-0.2 -1.5,0 -0.5,0.4 -0.6,1 -0.9,1.6 -2,4.5 -8,7 -12.4,8.7 -0.2,0.3 -0.2,1 -0.2,1.3 -0.1,0.4 -0.3,0.7 -0.6,0.9 -0.7,0.4 -2.4,-0.5 -3.2,-0.7 -0.7,-0.1 -1.4,-0.1 -2,0.3 -0.7,0.5 -1.1,1.6 -1.3,2.4 -0.2,1.1 0.2,2.2 0.8,3.1 1.5,1.9 3.8,2.5 6,2.9 0,0.2 0,0.1 0.1,0.3 0.7,1.5 4.1,5 5.6,5.7 0.1,0.1 0.2,0.2 0.3,0.3 2.1,1.7 6.1,2.7 8.7,2.4 1.3,-0.2 2.7,-0.7 3.6,-1.8 1,-1.2 1.5,-2.9 1.9,-4.4 1.5,-4.7 2.1,-8.9 1.6,-13.9 -1.1,0.1 -2.2,0.3 -3.3,0.1 v -0.2 c 1.1,-0.6 2.1,-0.6 3.3,-0.6 -0.2,-1 -0.5,-2 -0.8,-3 -1.1,-3 -2.9,-4 -5.7,-5.4 z"
   id="path258" />
			<path
   class="st26"
   d="m 260.4,2420.5 c -0.4,0.1 -0.7,0.1 -1,0.5 -0.2,0.3 -0.3,0.6 -0.3,0.9 0.1,0.5 0.4,0.7 0.8,1 0.2,0 0.4,-0.1 0.6,-0.2 0.3,-0.2 0.4,-0.5 0.5,-0.8 -0.1,-0.6 -0.3,-1 -0.6,-1.4 z"
   id="path259" />
			<path
   class="st26"
   d="m 251.2,2422 c -0.2,0 -0.4,0 -0.6,0 -0.3,0.1 -0.7,0.4 -0.8,0.7 -0.1,0.3 -0.1,0.6 0,0.9 0.1,0.4 0.5,0.5 0.8,0.6 0.2,0.1 0.3,0 0.5,0 0.1,-0.1 0.2,-0.2 0.3,-0.4 0.2,-0.7 0.1,-1.2 -0.2,-1.8 z"
   id="path260" />
			<path
   class="st26"
   d="m 252.1,2418.7 c -1.6,-0.2 -3.4,-0.1 -4.8,0.8 -0.2,0.2 -0.2,0.2 -0.3,0.4 0.4,0.2 0.8,0 1.2,-0.1 1.1,-0.9 3.3,-0.3 4.7,-0.5 l 0.1,-0.2 c -0.2,-0.2 -0.5,-0.3 -0.9,-0.4 z"
   id="path261" />
			<path
   class="st26"
   d="m 256.5,2422.5 c -0.3,0 -0.3,0 -0.6,0.2 0,0.2 -0.1,0.3 -0.1,0.5 0.1,1.5 1.2,2.9 2.3,3.9 -0.5,0.2 -1,0.4 -1.3,0.9 l 0.2,0.4 c 0.4,-0.1 1,-0.3 1.2,-0.6 0.7,-0.8 -1.1,-2.8 -1.5,-3.6 -0.1,-0.6 -0.2,-1.2 -0.2,-1.7 z"
   id="path262" />
			<path
   class="st26"
   d="m 258.6,2429.9 c -0.8,-0.2 -5.4,0 -6.6,0 -0.3,0.4 -0.2,1 -0.1,1.4 0.1,0.6 0.4,1.1 0.9,1.5 0,0 0,0.1 0.1,0.1 0.3,0.4 1.1,0.8 1.5,0.9 0.8,0.2 1.6,-0.2 2.2,-0.6 1.3,-0.9 1.8,-1.9 2,-3.3 z"
   id="path263" />
			<path
   class="st2"
   d="m 257.9,2430.5 c -1.7,-0.2 -3.4,0.3 -5.3,0 l -0.2,0.2 c 0,0.1 0,0.2 0,0.3 0.1,0.5 0.5,1.1 0.9,1.4 0,0 0,0 0,0 0.2,0.3 0.5,0.6 0.9,0.7 0.4,0.2 1.1,0 1.5,-0.1 1.1,-0.6 1.8,-1.4 2.2,-2.5 z"
   id="path264" />
			<path
   class="st26"
   d="m 228.8,2444.9 c -0.7,-0.4 -1.4,-0.2 -2.2,0 -0.9,0.2 -3.6,1 -4.1,1.8 -0.1,0.1 -0.1,0.1 -0.1,0.2 -1.7,-0.4 -3.5,0.4 -4.9,1.3 -3.5,2.2 -5.6,6.6 -6.9,10.4 -0.3,0.7 -0.7,1.6 -0.8,2.4 0,0.2 0,0.3 0.1,0.5 -0.2,-0.1 -0.3,-0.3 -0.6,-0.2 -0.8,0.2 -1.7,1.8 -2,2.4 -0.7,1.3 -3.5,7.2 -3.3,8.5 -1,1.5 -1.4,4.2 -1.8,6 -2.9,11.4 -6.7,33.7 -4.7,45 0.8,4.4 3.3,7.6 6.9,10 3.1,2.1 7.2,3.9 10.9,3.9 -0.1,2.4 -0.1,20.7 0.5,21.6 h 57.9 c -1.5,-13.1 -2.5,-26.2 -3.9,-39.3 1,-0.5 1.9,-1 2.7,-1.7 -0.4,-2.7 -0.9,-5.3 -1.4,-8 1.4,-0.7 2.8,-1.4 4,-2.4 2.1,-1.8 2.4,-3.7 2.7,-6.3 -0.2,-0.4 -0.2,-0.4 -0.7,-0.5 -1.1,-1.4 -1.6,-3.3 -2.1,-5 0.2,-0.4 0.1,-0.6 0.1,-1 -0.9,-2.7 -0.3,-6.1 0.1,-8.8 l 0.1,-0.9 -1.2,-1.3 c 0.1,-0.4 0.1,-0.7 0.2,-1.1 0.2,-1.9 -0.1,-3.8 -0.6,-5.6 -1,-3.9 -3.2,-7.3 -4.4,-11.1 -0.4,-1.3 -0.9,-4.2 -1.6,-5 h -0.1 c -0.8,2.7 4.6,13 5.5,16.3 0.5,1.9 0.6,3.8 0.6,5.8 l -9.5,-11.9 c -2,-2.6 -4,-5.2 -6.2,-7.7 -0.4,-0.4 -0.9,-1 -1.4,-1.1 -0.7,0.3 -1.2,0.7 -1.8,1.1 -5.6,4.5 -11,9.4 -16.5,14.1 -1.3,1.1 -2.6,2.2 -3.9,3.3 -1.3,1 -2.7,2 -3.8,3.3 -0.3,0.4 -0.5,0.6 -0.4,1.1 0.3,0.2 0.3,0.2 0.7,0.3 0.5,0 0.8,-0.2 1.2,-0.5 1.9,-1.4 3.7,-3.2 5.5,-4.8 l 13.9,-11.8 c 1.5,-1.3 3,-2.8 4.6,-4 0.4,-0.3 0.8,-0.6 1.4,-0.6 0.3,0.3 0.3,0.3 0.4,0.7 -0.2,0.4 -0.4,0.7 -0.8,1.1 -3,2.8 -6.5,5.5 -9.7,8.1 -3,2.5 -5.9,5.2 -8.9,7.7 -1.6,1.3 -5.2,3.8 -6.3,5.2 -0.3,0.3 -0.3,0.3 -0.2,0.8 0.8,1.4 6.4,8.1 7.6,8.8 -3.6,-0.1 -7.3,-0.2 -10.9,-0.5 -0.2,-0.3 -0.2,-0.7 -0.2,-1 0.1,-2.4 0.5,-4.8 0.6,-7.2 0.4,-5.2 0.6,-10.3 0.8,-15.5 0.2,-6.3 0.1,-12.7 -0.2,-19 -0.4,-1.6 -1.2,-6.9 -0.9,-7.9 z"
   id="path265" />
			<path
   class="st2"
   d="m 218,2515.2 c -0.8,0.1 -1.6,0.1 -2.4,0.2 0,0.1 -0.1,0.2 -0.2,0.3 -0.3,0.8 -0.3,3.7 0,4.5 0.9,-1.3 2.5,-3.5 2.6,-5 z"
   id="path266" />
			<path
   class="st9"
   d="m 254,2505.4 c -1.8,-0.2 -4.3,0.4 -6.1,0.9 0,0 0,0.1 0,0.1 0,0.7 4,5.7 4.8,6.4 0.1,0.5 0.5,0.8 0.9,1.1 0.7,-0.9 3.2,-2.8 4.2,-3.3 -0.4,-0.2 -0.9,-0.6 -1.1,-1 -0.5,-0.7 -0.4,-1.3 -0.4,-2 -0.6,-0.3 -1.2,-0.7 -1.7,-1.1 -0.3,-0.3 -0.5,-0.6 -0.6,-1.1 z"
   id="path267" />
			<path
   class="st2"
   d="m 277.1,2500.6 c -1.1,-1.4 -1.6,-3.3 -2.1,-5 -4.5,4.6 -10.1,9.8 -17,9.8 -1.1,0 -2.3,0 -3.4,-0.3 0.1,0.7 0.8,1.2 1.4,1.6 1.4,0.9 3.4,1.2 5.1,1.1 0.5,0 1.2,-0.2 1.7,-0.1 0.3,0 0.4,0.1 0.5,0.3 -0.5,0.5 -2.1,0.4 -2.8,0.4 -0.9,0 -2.7,-0.5 -3.5,0 0,0.5 0.1,0.7 0.4,1 1.2,1.4 3.2,2.3 5,2.4 3.3,0.1 10.4,-3.1 12.7,-5.4 1.6,-1.5 1.9,-3.4 1.9,-5.5 0.1,-0.1 0.1,-0.2 0.1,-0.3 z"
   id="path268" />
			<path
   class="st2"
   d="m 267.2,2490.4 c -3.8,0.1 -8.5,2.6 -11.6,4.7 -1,0.7 -2,1.7 -3.2,2.2 -2.2,0.9 -5.1,0.9 -7.4,1.2 0,0.1 -0.1,0.2 -0.1,0.3 -0.1,0.5 0.8,6.7 1.1,7.2 3.2,-0.9 6.8,-1.5 10.2,-1.3 0.6,0 1.3,0.1 1.9,0.1 6.1,0 11.3,-4.5 15.4,-8.6 -2.2,0.2 -10.5,0.3 -12.2,-0.8 0.2,-1 5.5,-2.8 5.9,-4.7 0,-0.2 0,-0.3 0,-0.3 z"
   id="path269" />
			<path
   class="st2"
   d="m 247.1,2506.4 c -0.5,0 -0.7,0 -1.1,0.3 -0.4,0.7 -0.5,1.8 -0.3,2.6 -1.9,0.6 -3.9,1 -5.9,1.5 -3.7,0.8 -7.5,1.7 -11.3,2.4 -2,0.4 -4.3,0.6 -6.2,1.2 0,0 -0.1,0.1 -0.1,0.1 -0.3,0.3 -1.8,4.1 -1.8,4.6 2.4,0.6 5,0.8 7.4,1.1 3.8,0.5 7.7,0.9 11.5,1.1 3.9,0.2 7.7,0.3 11.6,0.2 6.3,-0.1 15.3,-0.5 20.8,-4 -0.2,-2.5 -0.7,-5 -1.2,-7.5 -2,0.9 -4.1,2 -6.3,2.3 -2.1,0.3 -4.3,0 -6,-1.3 -1.1,0.8 -4,2.7 -4.4,3.8 -1,-0.5 -6.2,-7.2 -6.7,-8.4 z"
   id="path270" />
			<path
   class="st9"
   d="m 258.6,2464.9 c -1.7,0.9 -4.1,3.3 -5.6,4.6 l -13,11.1 c -1.1,1 -7.2,5.6 -7.6,6.4 0.2,0.5 7.1,8.7 7.7,9.1 0.8,0.1 3.5,0 4,0.5 0.3,0.4 0.3,0.9 0.7,1.2 2.2,-0.2 5,-0.3 7.1,-1.1 1.6,-0.6 3.1,-2 4.5,-2.9 2.1,-1.3 9.1,-4.9 11.3,-3.8 0.2,0.3 0.2,0.4 0.1,0.7 -0.5,1.7 -3.6,3.4 -5.1,4.3 2.6,0.4 10,1.5 12,-0.1 0.1,-0.1 0.3,-0.2 0.4,-0.3 -0.9,-2.7 -0.3,-6.1 0.1,-8.8 -2.1,-2.5 -4.1,-5.2 -6.2,-7.8 -3.4,-4.2 -6.9,-8.3 -10.1,-12.5 -0.2,-0.3 -0.3,-0.4 -0.3,-0.6 z"
   id="path271" />
			<path
   class="st2"
   d="m 222.5,2446.8 c -1.7,-0.4 -3.5,0.4 -4.9,1.3 -3.5,2.2 -5.6,6.6 -6.9,10.4 -0.3,0.7 -0.7,1.6 -0.8,2.4 0,0.2 0,0.3 0.1,0.5 -0.1,0.1 -0.2,0.2 -0.3,0.4 -0.8,1.4 -1.1,3.4 -1.5,4.9 -1.1,4.1 -2,8.3 -2.8,12.5 -0.8,4.2 -1.5,8.4 -2,12.6 -0.3,2.5 -0.6,5.1 -0.7,7.6 -0.1,3 -0.1,5.9 0.8,8.7 0.7,2.2 1.9,4.2 3.9,5.3 2.1,1.1 4.4,1.5 6.7,1.4 3.3,0 6.7,-0.8 10,-1.4 4,-0.8 8,-1.6 12,-2.5 2.6,-0.6 5.6,-1.1 8.1,-1.9 0.3,-0.1 0.7,-0.2 0.8,-0.6 0.6,-1.5 -0.4,-9.7 -1.2,-11.2 -0.1,-0.2 -0.2,-0.4 -0.5,-0.4 -1,-0.2 -2.2,-0.1 -3.2,-0.2 l -7.1,-0.4 -8.3,-0.4 c -1.7,-0.1 -3.4,-0.3 -5.1,-0.2 -1.2,0.1 -2.5,0.4 -3.6,0.8 -1.5,0.6 -2.8,1.6 -3.9,2.8 -0.4,0.4 -0.7,1 -1.2,1.3 l -0.2,-0.2 c 0,-0.1 0,-0.1 0,-0.2 0,-0.7 1.2,-1.8 1.7,-2.3 3.6,-3.3 7.8,-3 12.4,-2.8 -0.4,-1.1 0.3,-5.1 0.4,-6.6 0.4,-5.3 0.5,-10.6 0.4,-15.9 -0.1,-4.3 -0.4,-8.6 -0.9,-12.9 -0.5,-1.8 -2.4,-11.7 -2.2,-12.8 z"
   id="path272" />
			<path
   class="st2"
   d="m 269.7,2519.4 c -11,4.3 -28.9,3 -40.8,1.6 -2.9,-0.3 -5.8,-0.6 -8.6,-1.3 -0.7,0.6 -1.2,1.6 -1.8,2.3 -0.9,1.2 -1.8,2.3 -2.9,3.3 -0.1,0.1 -0.1,0.1 -0.2,0.3 -0.3,0.7 -0.4,10.3 -0.2,11.5 -0.1,2.4 -0.1,20.7 0.5,21.6 h 57.9 c -1.4,-13.1 -2.5,-26.2 -3.9,-39.3 z"
   id="path273" />
			<path
   class="st26"
   d="m 231.6,2522.6 c -0.1,0 -0.3,-0.1 -0.4,-0.1 0,0 -0.3,0.1 -0.3,0.1 -0.2,0.3 -1,2.9 -1.6,3.9 -2.2,3.7 -5.4,5.1 -9.4,6.1 v 0.3 l 0.2,0.2 c 1.6,0.1 3.8,-0.9 5.2,-1.7 0.2,-0.1 0.4,-0.2 0.6,-0.4 0.2,-0.1 0.4,-0.3 0.6,-0.4 0.2,-0.1 0.4,-0.3 0.5,-0.4 0.2,-0.1 0.3,-0.3 0.5,-0.5 0.2,-0.2 0.3,-0.3 0.5,-0.5 0.2,-0.2 0.3,-0.3 0.5,-0.5 0.2,-0.2 0.3,-0.3 0.4,-0.5 0.1,-0.2 0.3,-0.4 0.4,-0.6 0.1,-0.2 0.3,-0.4 0.4,-0.6 0.1,-0.2 0.2,-0.4 0.4,-0.6 0.2,-0.2 0.2,-0.4 0.3,-0.6 0.1,-0.2 0.2,-0.4 0.3,-0.6 0.1,-0.2 0.2,-0.4 0.3,-0.6 0.1,-0.2 0.2,-0.4 0.2,-0.6 0.1,-0.2 0.1,-0.4 0.2,-0.7 0.1,-0.3 0.2,-0.5 0.2,-0.7 z"
   id="path274" />
			<path
   class="st26"
   d="m 252.7,2525.4 c -0.2,0 -0.5,0 -0.7,0 0,0.1 -0.1,0.2 -0.1,0.2 -0.2,1 -0.2,2.2 -0.3,3.2 l -0.5,7.9 -0.8,12 c -0.1,2.1 -0.4,4.2 -0.5,6.3 0,0.6 -0.1,1 0.2,1.5 h 0.2 c 0.8,-1 1.7,-27.2 2.5,-31.1 z"
   id="path275" />
			<path
   class="st26"
   d="m 384,2400.7 c -1.7,0 -3,0 -4.6,-0.5 -0.3,1 -0.7,2 -0.8,3 -0.2,1.7 0.1,4.3 -0.7,5.7 -0.6,1 -3.3,2.5 -3.5,3 -0.1,0.3 0,0.5 0.1,0.7 0.2,0.3 0.5,0.6 0.8,0.9 0.4,2.2 1.2,10.4 2.8,11.5 0.6,0.4 1.4,0.5 2.2,0.6 4.4,0.5 5.6,2 6.4,6.3 0.4,1.9 0.9,5.3 -0.3,7.1 -0.1,0.1 -0.1,0.2 -0.2,0.2 l -0.2,-0.1 c 0,-0.4 0,-0.7 0.1,-1.1 -1.1,0.1 -2.4,1 -3.4,1.5 -4.3,2 -8.1,3.4 -11.2,7.3 -1.1,1.4 -2,3 -2.6,4.6 -1.3,3.8 -1.9,12.2 -2.3,16.5 -0.1,1.4 -0.1,3.4 -0.7,4.6 0.1,0.5 0.1,0.9 0.1,1.4 -0.5,4.7 -1.3,9.3 -2,14 -0.2,1.4 -0.2,3.2 -0.6,4.6 l -0.1,0.4 c -0.9,6.9 -1.6,13.9 -2,20.8 -0.2,3.1 -0.7,6.5 -0.4,9.7 0,1.6 -0.1,3.1 -0.2,4.6 1.7,0.1 3.2,-0.1 4.9,-0.5 0.1,0.3 0.1,0.4 0,0.7 -0.1,1.8 0,3.8 0.1,5.6 0.1,2.9 0.2,5.9 0.3,8.8 0,1.3 0.3,2.8 0.1,4 0.1,0.5 0.2,0.8 0.1,1.3 0.4,1.2 0.5,9 0.5,10.7 h 23.6 0.7 35 l -1.4,-21.6 c -0.1,-1.7 -0.8,-6.7 -0.5,-8.1 l 0.3,-0.2 c 5.8,-0.8 11.9,-2.1 17.4,-4.3 4.8,-1.9 10.2,-4.7 12.3,-9.7 3.8,-9.1 -3.9,-33.9 -7.7,-43 -0.6,-1.7 -1.6,-3.4 -2.7,-4.9 -1.3,-1.7 -4.7,-5.4 -6.8,-5.7 -3,-6.9 -6.6,-16.3 -12.1,-21.7 -1.3,-1.2 -2.6,-2.1 -4.1,-3.1 0,0 -0.1,0 -0.1,-0.1 0,0 0,-0.1 0,-0.1 -0.1,-0.5 -0.7,-0.9 -1,-1.2 -1.5,-1.1 -3.8,-1.6 -5.7,-1.3 -0.9,-0.8 -3,-0.6 -4.1,-0.7 -0.6,-0.1 -0.9,-0.1 -1.4,0.3 0,0 0,0 -0.1,-0.1 -0.5,-0.5 -2.2,-0.5 -2.8,-0.6 -0.5,-0.1 -0.7,-0.4 -1,-0.9 -1.7,-2.9 -2.4,-8 -1.7,-11.2 -1.2,-0.5 -2.1,-0.9 -2.7,-2.2 -0.3,-0.6 -0.4,-1.4 -0.5,-2.1 -1.1,0.6 -3.5,2.2 -4.7,2 0.1,-0.3 0,-0.5 0.3,-0.6 2.3,-1.5 4.7,-1.1 5.5,-4.5 0.2,-0.8 0.3,-2.1 -0.1,-2.9 -0.3,-0.4 -0.7,-0.7 -1.1,-0.8 -2.3,-0.5 -4.4,1.8 -6.1,-0.7 -1,-1.5 -0.7,-4.8 -2.7,-5.2 -0.8,-0.2 -1.7,0 -2.5,-0.1 -1.6,0 -2.8,-1.6 -4.2,-2.6 z"
   id="path276" />
			<path
   class="st2"
   d="m 418.7,2497.4 c -0.7,0 -1.4,0 -2,0.2 0.3,0.7 0.5,1.5 0.7,2.2 z"
   id="path277" />
			<path
   class="st2"
   d="m 423.1,2488.8 c -2.9,0.4 -6,0.3 -8.9,0.2 l 2.5,8.6 c 0.6,-0.2 1.4,-0.2 2,-0.2 0.6,-1 1.1,-2.1 1.6,-3.1 0.9,-1.9 1.8,-3.7 2.8,-5.5 z"
   id="path278" />
			<path
   class="st2"
   d="m 423.7,2482.7 c -1.2,0.1 -10.2,0.2 -10.7,0.5 -0.1,0 -0.1,0.1 -0.2,0.2 0.4,1.9 0.9,3.8 1.4,5.6 2.9,0.1 6,0.2 8.9,-0.2 0.7,-1.1 1.3,-2.4 1.7,-3.7 -0.3,-0.8 -0.8,-1.6 -1.1,-2.4 z"
   id="path279" />
			<path
   class="st2"
   d="m 419.2,2474 c -2.3,0.4 -5.7,0.2 -8.1,0.1 0.5,2.8 0.9,6.5 1.7,9.2 0.1,-0.1 0.1,-0.1 0.2,-0.2 0.4,-0.2 9.5,-0.4 10.7,-0.5 -1.5,-2.8 -3,-5.7 -4.5,-8.6 z"
   id="path280" />
			<path
   class="st2"
   d="m 413.1,2512.4 c -1.2,1.4 -2.5,2.7 -3.7,4.2 0.7,2.4 1.9,4.6 3.4,6.7 0.8,1.1 4.2,5.2 5.3,5.3 l 0.3,-0.3 c 1.6,-2.5 3.1,-5.1 4.6,-7.7 -3.8,-2.1 -7.3,-4.8 -9.9,-8.2 z"
   id="path281" />
			<path
   class="st22"
   d="m 370.7,2468.9 c -0.3,2.9 -0.7,5.8 -1.1,8.6 l -0.6,4.8 c -0.3,3.2 -0.7,6.4 -1.1,9.5 3.9,0.8 7.7,1.8 11.6,2.5 10.4,2 21.1,3.3 31.8,3.4 -1.1,-2.9 -2,-5.8 -2.8,-8.8 -0.7,-2 -1.1,-4.1 -1.5,-6.2 -0.5,-3 -1,-6 -1.3,-9.1 -9.8,-0.1 -20.8,-1.8 -30.4,-3.7 -1.4,-0.2 -3.3,-0.3 -4.6,-1 z"
   id="path282" />
			<path
   class="st2"
   d="m 407,2482.8 c -11.4,-0.1 -26.2,-2.5 -37.3,-5.2 l -0.6,4.8 c 0,0.2 0,0.6 0.2,0.8 0.7,0.5 3.5,0.9 4.5,1.1 4.3,0.9 8.6,1.8 13,2.4 4.4,0.7 8.7,1.2 13.1,1.7 2.8,0.3 5.7,0.6 8.6,0.7 -0.7,-2.1 -1.1,-4.2 -1.5,-6.3 z"
   id="path283" />
			<path
   class="st22"
   d="m 370.7,2468.9 c -0.3,2.9 -0.7,5.8 -1.1,8.6 11.1,2.7 25.9,5.1 37.3,5.2 -0.5,-3 -1,-6 -1.3,-9.1 -9.8,-0.1 -20.8,-1.8 -30.4,-3.7 -1.3,-0.2 -3.2,-0.3 -4.5,-1 z"
   id="path284" />
			<path
   class="st2"
   d="m 367.9,2491.9 c -0.6,6.1 -1.4,12.1 -2.1,18.2 -0.4,3.7 -0.9,7.4 -0.9,11.1 11.6,3.3 30.1,5.8 41.2,-0.3 1.1,-0.6 2.2,-1.3 3.1,-2.2 -0.3,-1.1 -1.3,-3.4 -0.9,-4.5 l 0.2,-0.1 c 0.5,0.4 0.6,0.8 0.8,1.5 0.9,-1 3,-2.6 3.2,-4 -0.1,-0.4 -0.4,-0.7 -0.5,-1 -0.1,-0.4 1.1,-2.5 1.4,-2.9 0.4,-0.7 0.8,-1.5 1.2,-2.3 -1.3,-2.5 -2.3,-5 -3.3,-7.7 -10.6,-0.1 -21.3,-1.3 -31.8,-3.4 -3.9,-0.6 -7.7,-1.6 -11.6,-2.4 z"
   id="path285" />
			<path
   class="st2"
   d="m 420.7,2436.4 c -1.2,-0.5 -2.2,-0.7 -3.5,-0.2 -2,0.8 -3.2,3.1 -3.9,5 -3.9,9.6 -3.5,22.8 -2.3,33 2.4,0.1 5.8,0.3 8.1,-0.1 -0.6,-1.2 -4.3,-7.9 -4.3,-8.6 l 0.2,-0.2 c 0.1,0.1 0.2,0.1 0.2,0.2 0.7,0.8 1.4,2.6 1.9,3.6 1.8,3.4 3.6,6.8 5.4,10.3 1,2 2.1,3.9 3,5.9 0.2,0.4 0.3,0.7 0.3,1.1 l -0.6,-0.3 c -0.1,0 -0.2,0.1 -0.3,0.1 -0.4,0.4 -0.7,1.5 -1,2.1 l -11.5,22.2 c 0.8,1.3 1.6,2.4 2.7,3.5 2.1,2.2 7.5,6.8 10.6,6.8 1.5,-1 17.1,-23.3 19.1,-26.4 0.7,-1.2 1.4,-2.3 1.9,-3.6 0.6,-1.4 0.7,-2.8 0.5,-4.3 -0.5,-2.8 -1.8,-5.6 -2.9,-8.2 -2.4,-5.7 -5.1,-11.3 -7.5,-17.1 -3,-6.9 -6.6,-16.3 -12.1,-21.7 -1.1,-1.2 -2.5,-2 -4,-3.1 0.1,0 0,0 0,0 z"
   id="path286" />
			<path
   class="st9"
   d="m 409.6,2519.5 c -0.7,0.5 -1.4,1 -2.2,1.5 -11.7,6.9 -29.7,4.2 -42.1,1 0.1,1.8 0,3.8 0.2,5.6 0.1,0.3 0.1,0.4 0,0.7 -0.1,1.8 0,3.8 0.1,5.6 0.1,2.9 0.2,5.9 0.3,8.8 0,1.3 0.3,2.8 0.1,4 0.1,0.5 0.2,0.8 0.1,1.3 0.4,1.2 0.5,9 0.5,10.7 h 23.6 0.7 35 l -1.4,-21.6 c -0.1,-1.7 -0.8,-6.7 -0.5,-8.1 l 0.3,-0.2 -0.3,-0.1 c -0.5,-1.8 -0.5,-6 -0.6,-8 -1.5,2.9 -3.3,5.7 -5.1,8.4 0.7,0.5 2,1.2 2.2,2.1 -0.1,0 -0.2,0 -0.2,0 -0.6,-0.1 -1.6,-0.9 -2.1,-1.3 -3.6,-2.9 -6.2,-6.3 -8.6,-10.4 z"
   id="path287" />
			<path
   class="st26"
   d="m 391,2558.7 c -2.4,-5.6 -4.6,-11.2 -6.9,-16.8 -0.6,-1.5 -1.8,-5.2 -2.7,-6.3 l -0.3,-0.1 -0.2,0.2 c 0.5,2.5 2.2,5.6 3.1,8 2.1,5 4,10.1 6.2,15 z"
   id="path288" />
			<path
   class="st2"
   d="m 384,2400.7 c -1.7,0 -3,0 -4.6,-0.5 -0.3,1 -0.7,2 -0.8,3 -0.2,1.7 0.1,4.3 -0.7,5.7 -0.6,1 -3.3,2.5 -3.5,3 -0.1,0.3 0,0.5 0.1,0.7 0.2,0.3 0.5,0.6 0.8,0.9 0.4,2.2 1.2,10.4 2.8,11.5 0.6,0.4 1.4,0.5 2.2,0.6 4.4,0.5 5.6,2 6.4,6.3 0.4,1.9 0.9,5.3 -0.3,7.1 -0.1,0.1 -0.1,0.2 -0.2,0.2 l -0.2,-0.1 c 0,-0.4 0,-0.7 0.1,-1.1 -1.1,0.1 -2.4,1 -3.4,1.5 -4.3,2 -8.1,3.4 -11.2,7.3 -1.1,1.4 -2,3 -2.6,4.6 -1.3,3.8 -1.9,12.2 -2.3,16.5 -0.1,1.4 -0.1,3.4 -0.7,4.6 0.1,0.5 0.1,0.9 0.1,1.4 -0.5,4.7 -1.3,9.3 -2,14 -0.2,1.4 -0.2,3.2 -0.6,4.6 l -0.1,0.4 c -0.9,6.9 -1.6,13.9 -2,20.8 -0.2,3.1 -0.7,6.5 -0.4,9.7 0,1.6 -0.1,3.1 -0.2,4.6 1.7,0.1 3.2,-0.1 4.9,-0.5 -0.2,-1.8 -0.1,-3.8 -0.2,-5.6 -0.4,-0.1 -0.6,-0.2 -0.9,-0.5 -0.2,-0.6 -0.2,-1.3 -0.2,-1.9 0.3,-4.2 0.8,-8.5 1.3,-12.7 1.3,-11.6 2.6,-23.2 4.1,-34.8 l 1.6,-13.3 c 0.2,-1.9 0.4,-4.8 0.8,-6.5 0.1,-0.2 0.1,-0.2 0.3,-0.4 l 0.2,0.1 c 0.2,0.9 -1.7,15 -1.9,17 1.3,0.6 3.2,0.8 4.6,1.1 9.6,2 20.6,3.7 30.4,3.7 -0.8,-10.4 -0.3,-21.2 2.7,-31.2 1,-3.4 2.3,-6.9 5.6,-8.7 -0.9,-0.8 -3,-0.6 -4.1,-0.7 -0.6,-0.1 -0.9,-0.1 -1.4,0.3 0,0 0,0 -0.1,-0.1 -0.5,-0.5 -2.2,-0.5 -2.8,-0.6 -0.5,-0.1 -0.7,-0.4 -1,-0.9 -1.7,-2.9 -2.4,-8 -1.7,-11.2 -1.2,-0.5 -2.1,-0.9 -2.7,-2.2 -0.3,-0.6 -0.4,-1.4 -0.5,-2.1 -1.1,0.6 -3.5,2.2 -4.7,2 0.1,-0.3 0,-0.5 0.3,-0.6 2.3,-1.5 4.7,-1.1 5.5,-4.5 0.2,-0.8 0.3,-2.1 -0.1,-2.9 -0.3,-0.4 -0.7,-0.7 -1.1,-0.8 -2.3,-0.5 -4.4,1.8 -6.1,-0.7 -1,-1.5 -0.7,-4.8 -2.7,-5.2 -0.8,-0.2 -1.7,0 -2.5,-0.1 -1.7,-0.2 -2.9,-1.8 -4.3,-2.8 z"
   id="path289" />
			<path
   class="st26"
   d="m 398.6,2411.8 c -0.5,0 -1,0 -1.4,0.3 -0.7,0.3 -1.2,1.1 -1.5,1.9 -0.2,0.5 -0.3,1.2 -0.1,1.7 h 0.3 l 0.2,-0.3 c 0.1,-0.8 0.2,-1.7 0.7,-2.4 0.2,-0.3 0.6,-0.5 1,-0.5 0.6,0 0.7,0.1 1.2,0.5 h -0.1 l 0.3,-0.2 v 0.2 l 0.2,-0.4 c -0.2,-0.3 -0.5,-0.6 -0.8,-0.8 z"
   id="path290" />
			<path
   class="st26"
   d="m 382.1,2404.2 c -0.5,0 -1.2,0 -1.7,0.2 -0.4,0.1 -0.5,0.1 -0.7,0.5 l 0.1,0.2 c 1.5,-0.1 2.6,-0.2 4.1,0.3 0.4,0.3 0.9,0.7 1.4,0.7 v -0.3 c -0.8,-1.1 -1.8,-1.4 -3.2,-1.6 z"
   id="path291" />
			<path
   class="st26"
   d="m 381.2,2407.1 c -0.3,0.1 -0.6,0.2 -0.8,0.4 -0.4,0.4 -0.5,0.9 -0.5,1.4 0,0.6 0.2,1 0.7,1.4 0.2,-0.1 0.4,-0.2 0.6,-0.4 0.4,-0.4 0.7,-1 0.7,-1.6 0,-0.5 -0.2,-0.8 -0.7,-1.2 z"
   id="path292" />
			<path
   class="st26"
   d="m 380.8,2416.4 c -1.1,0 -4.8,-0.3 -5.6,0.4 l 0.2,0.1 c 1.2,0.6 3.5,0.1 4.8,0.1 -0.3,0.5 -0.7,0.9 -1,1.3 -0.2,0.1 -0.3,0.2 -0.5,0.4 -0.8,0.6 -1.9,0.5 -2.6,1 v 0.3 c 0,0 0.1,0 0.1,0.1 0.4,0.2 1.4,-0.1 1.8,-0.2 1,-0.3 2.3,-1.5 2.8,-2.5 0.2,-0.4 0.1,-0.6 0,-1 z"
   id="path293" />
			<path
   class="st26"
   d="m 409.9,2433.2 c -0.6,-0.1 -0.9,-0.1 -1.4,0.3 -4.6,4.2 -8.3,9 -14.9,10.1 -1.5,0.3 -3.9,0.4 -5.3,-0.2 -0.8,-0.4 -1.7,-1.1 -2.4,-1.6 l -0.3,0.1 v 0.1 c 0.1,0.2 0.2,0.4 0.3,0.6 1.2,1.3 3.2,1.8 5,1.9 8.3,0.3 13.5,-6.3 19,-11.3 z"
   id="path294" />
			<path
   class="st26"
   d="m 312.8,2430.7 c -2.4,-0.2 -5.2,0.8 -7.6,1.3 l -0.2,-0.4 c -1.1,-0.2 -5.7,0.6 -6.7,1.2 -0.2,0.1 -0.2,0.2 -0.3,0.5 0,0 0,0.1 0,0.1 -1.4,0.5 -2.8,0.8 -4.1,1.5 -3.3,1.8 -5.5,5.8 -7.1,9.1 -4.2,8.7 -6.6,18.2 -8.9,27.4 -0.7,3 -1.3,6 -1.9,9 -0.3,1.4 -0.4,3 -0.8,4.3 l -0.1,0.9 c -0.4,2.7 -1,6.2 -0.1,8.8 0,0.4 0.1,0.6 -0.1,1 0.6,1.6 1,3.6 2.1,5 0.4,0.1 0.4,0.1 0.7,0.5 -0.2,2.6 -0.5,4.5 -2.7,6.3 -1.2,1 -2.6,1.7 -4,2.4 0.5,2.7 1,5.3 1.4,8 -0.9,0.7 -1.8,1.2 -2.7,1.7 1.4,13.1 2.5,26.2 3.9,39.3 h 17.5 0.6 34 0.6 40.3 c 0,-1.7 -0.1,-9.4 -0.5,-10.7 0.1,-0.5 0.1,-0.8 -0.1,-1.3 0.2,-1.3 0,-2.8 -0.1,-4 -0.1,-2.9 -0.2,-5.9 -0.3,-8.8 -0.1,-1.8 -0.3,-3.8 -0.1,-5.6 0.1,-0.3 0,-0.5 0,-0.7 -1.7,0.4 -3.2,0.5 -4.9,0.5 0.1,-1.6 0.2,-3.1 0.2,-4.6 -0.4,-3.1 0.1,-6.5 0.4,-9.7 0.4,-7 1.1,-13.9 2,-20.8 l 0.1,-0.4 c 0.4,-1.3 0.4,-3.2 0.6,-4.6 0.7,-4.6 1.6,-9.3 2,-14 0,-0.5 0,-0.9 -0.1,-1.4 -2.4,-8.8 -6.3,-28.6 -12.3,-34.6 -0.4,-0.4 -0.9,-0.8 -1.3,-1.1 -0.5,-0.3 -1,-0.7 -1.5,-0.9 -1.9,-1 -11.7,-5 -13.6,-4.9 -0.5,0 -0.6,0.3 -0.9,0.7 0.4,0.1 0.4,0 0.6,0.3 l -0.1,0.3 c -0.2,0.1 -0.3,0.1 -0.5,0.1 -1.3,2 -1.9,3.7 -4,5.1 -3.1,2 -7,2.2 -10.5,1.4 -2.7,-0.6 -5.7,-1.9 -7.4,-4.2 -0.7,-0.9 -1.2,-2 -1.8,-3 -0.1,-0.3 -0.2,-0.4 -0.1,-0.7 z"
   id="path295" />
			<path
   class="st2"
   d="m 327,2488.7 c -1.2,0.2 -3.4,0.4 -4.4,1.1 -0.3,0.2 -0.5,0.5 -0.5,0.9 -0.1,1.1 0.9,2.1 1.6,2.9 l 1.6,1.7 c 0.6,-2.2 1.2,-4.4 1.7,-6.6 z"
   id="path296" />
			<path
   class="st2"
   d="m 325.9,2444.7 c -0.5,0 -1,-0.1 -1.5,0.1 l 0.1,0.2 c 3.6,3 7.2,6.1 10.9,9 1.4,1.1 2.8,2.3 4.3,3.1 l 1.7,0.3 c -5.1,-4.4 -10.4,-8.5 -15.5,-12.7 z"
   id="path297" />
			<path
   class="st2"
   d="m 332,2488 c -1.4,0.3 -2.8,0.5 -4.2,0.6 l -1.9,7.3 c 0.5,0.6 1,1.1 1.5,1.7 0.6,0.6 1.1,1.1 1.7,1.6 1,-3.8 1.9,-7.5 2.9,-11.2 z"
   id="path298" />
			<path
   class="st2"
   d="m 355,2518 c -0.6,1.8 0.6,4.5 -0.4,6.1 -0.7,1.1 -2.2,1.4 -3.3,1.7 0,3.2 -0.6,6.3 -0.7,9.5 0.4,-0.7 0.8,-1.4 1.3,-2.1 2.4,-3.7 4.5,-7.7 6.4,-11.7 -1.1,-1.2 -2.3,-2.3 -3.3,-3.5 z"
   id="path299" />
			<path
   class="st2"
   d="m 341.5,2458.1 c -0.3,-0.1 -0.3,-0.1 -0.5,0 -1.4,4.5 -2.6,9.7 -3.6,14.2 l 1.9,-0.6 1.9,-0.8 c 1.1,-4.2 1.9,-8.6 2.9,-12.8 -0.8,0.1 -1.7,0.1 -2.6,0 z"
   id="path300" />
			<path
   class="st2"
   d="m 337,2485.7 c -1.4,0.5 -2.8,1.4 -4.2,2 -0.9,3.1 -2.5,8.6 -2.8,11.6 1.2,0.1 2.5,0.2 3.8,0.2 1.2,-4.5 2.1,-9.2 3.2,-13.8 z"
   id="path301" />
			<path
   class="st2"
   d="m 365.6,2528.3 c -1.2,0.3 -2.4,0.4 -3.6,0.5 -0.2,6.4 0.8,12.4 4.1,17.9 0.2,-1.3 0,-2.8 -0.1,-4 -0.1,-2.9 -0.2,-5.9 -0.3,-8.8 -0.1,-1.8 -0.2,-3.7 -0.1,-5.6 z"
   id="path302" />
			<path
   class="st2"
   d="m 337.2,2456.2 c -0.8,0.9 -2.9,10.6 -3.5,12.4 -0.5,1.6 -1,3.2 -1.6,4.7 0.9,-0.1 1.8,-0.3 2.7,-0.5 l 1.9,-0.4 c 1.1,-4.9 2.4,-9.7 3.6,-14.6 -1.3,-0.2 -2.1,-0.7 -3.1,-1.6 z"
   id="path303" />
			<path
   class="st29"
   d="m 303.8,2472 c -0.7,2.8 -1.4,5.6 -2.4,8.3 3.8,-0.5 7.5,-1.1 11.3,-2 0.2,-2.1 0.9,-4.3 1.4,-6.3 -2.4,0 -4.8,-0.1 -7.2,0 -0.5,0 -2.6,0.3 -2.9,0.1 0,0 -0.1,-0.1 -0.2,-0.1 z"
   id="path304" />
			<path
   class="st2"
   d="m 318.4,2456.6 c -2.4,0 -4.8,0 -7.2,0.1 -1.7,0.1 -3.4,0.3 -5.1,0.4 -0.6,5 -1.3,9.9 -2.4,14.8 0.1,0.1 0.1,0.1 0.2,0.2 0.3,0.1 2.4,-0.1 2.9,-0.1 2.4,-0.1 4.8,0 7.2,0 1.8,-5.1 2.9,-10.3 4.4,-15.4 z"
   id="path305" />
			<path
   class="st29"
   d="m 363.2,2492.9 c -2.9,0 -5.6,0 -8.4,0.9 v 23 c 1.8,2.3 4.1,4.4 6.1,6.6 -0.4,-3.1 0.1,-6.5 0.4,-9.7 0.4,-6.9 1,-13.9 1.9,-20.8 z"
   id="path306" />
			<path
   class="st2"
   d="m 333,2466.9 c -1.5,0.3 -7,5.4 -8.3,6.8 -1.4,1.5 -2.8,3.3 -4.5,4.3 -0.6,0.4 -1.4,0.5 -2.1,0.6 0.4,1.8 1,3.6 1.5,5.4 0.6,1.8 1.2,3.5 1.9,5.2 3.1,-0.7 6.3,-1.1 9.4,-1.7 0.3,-0.1 0.5,-0.1 0.8,-0.2 0.3,-0.1 0.5,-0.2 0.8,-0.2 0.3,0 0.5,-0.2 0.8,-0.3 0.3,-0.1 0.5,-0.2 0.8,-0.3 0.3,-0.1 0.5,-0.2 0.8,-0.3 0.3,-0.1 0.5,-0.3 0.7,-0.4 0.2,-0.1 0.5,-0.3 0.7,-0.4 0.2,-0.1 0.5,-0.3 0.7,-0.5 0.2,-0.2 0.5,-0.3 0.7,-0.5 0.2,-0.2 0.4,-0.3 0.7,-0.5 0.2,-0.2 0.4,-0.4 0.6,-0.6 0.2,-0.2 0.4,-0.4 0.6,-0.6 0.2,-0.2 0.4,-0.4 0.6,-0.6 0.2,-0.2 0.4,-0.4 0.5,-0.6 0.2,-0.2 0.3,-0.4 0.5,-0.7 0.2,-0.2 0.3,-0.5 0.5,-0.7 -1.6,0.5 -2.9,1.9 -4.6,2.5 0,-0.3 -0.1,-0.4 0.1,-0.6 1,-1.2 3.3,-1.6 4.4,-3.2 0.3,-0.4 0.3,-0.7 0.2,-1.1 l -0.3,-0.1 c -1.2,0.5 -2.3,1.2 -3.4,1.8 -0.4,0.2 -0.9,0.4 -1.3,0.3 0,-0.1 0,-0.2 0,-0.3 0.3,-0.5 3.8,-1.8 4.7,-2.8 0.4,-0.4 0.8,-0.9 0.8,-1.5 -1.2,-0.4 -4,1.4 -5.3,1.7 -0.3,0.1 -0.3,0 -0.5,-0.1 0.7,-1 3.9,-1.6 5.1,-2.7 0.5,-0.4 0.9,-0.9 0.9,-1.6 -0.1,-0.4 -0.2,-0.6 -0.5,-0.8 -0.7,-0.1 -3,1.1 -3.8,1.3 -3.1,0.9 -6.3,1.4 -9.5,1.7 1.2,-1.9 3.2,-3.2 4.1,-5.4 0.4,-0.8 0.6,-1.5 0.2,-2.3 z"
   id="path307" />
			<path
   class="st2"
   d="m 322.9,2444.7 h -0.2 0.2 c -0.2,0.1 -0.2,0.1 -0.4,0.2 -0.6,1.4 -1,2.9 -1.4,4.4 -0.9,3.1 -1.7,6.2 -2.6,9.3 -1.8,6.5 -3.8,13 -5.2,19.5 1.1,-0.3 2,-0.7 3.1,-1 0.4,-0.1 0.7,-0.2 1.1,0 0.1,0.2 0.2,0.4 0.3,0.6 0.1,0.2 0.4,0.2 0.6,0.2 1.5,0 3.2,-2.1 4.1,-3.1 2.2,-2.4 4.6,-4.4 7.1,-6.4 0.7,-0.6 1.5,-1.4 2.2,-1.8 0.4,-0.2 1.1,-0.3 1.6,-0.4 l -0.3,-0.1 0.3,0.1 c 0.9,-1.7 2.3,-8.1 2.9,-10.4 -4.4,-3.7 -9,-7.3 -13.4,-11.1 z"
   id="path308" />
			<path
   class="st2"
   d="m 281.9,2502.3 c -1.4,-0.3 -2.8,-0.6 -4.2,-1.2 -0.2,2.6 -0.5,4.5 -2.7,6.3 -1.2,1 -2.6,1.7 -4,2.4 0.5,2.7 1,5.3 1.4,8 -0.9,0.7 -1.8,1.2 -2.7,1.7 1.4,13.1 2.5,26.2 3.9,39.3 h 17.5 l 1.9,-34.2 c -0.7,-0.3 -1.8,-0.6 -2.3,-1.2 -0.5,-0.6 -0.3,-1.4 -0.2,-2.2 -2.3,-0.5 -4.4,-1.1 -6.1,-2.8 -0.1,-0.1 -0.2,-0.2 -0.4,-0.4 -0.1,-0.1 -0.2,-0.3 -0.3,-0.4 -0.1,-0.1 -0.2,-0.3 -0.3,-0.4 -0.1,-0.1 -0.2,-0.3 -0.3,-0.4 -0.1,-0.2 -0.2,-0.3 -0.2,-0.5 -0.1,-0.2 -0.1,-0.3 -0.2,-0.5 -0.1,-0.2 -0.1,-0.3 -0.2,-0.5 -0.1,-0.2 -0.1,-0.3 -0.2,-0.5 -0.8,-2.8 -0.4,-9.5 -0.4,-12.5 z"
   id="path309" />
			<path
   class="st22"
   d="m 298.1,2433.4 c -1.4,0.5 -2.8,0.8 -4.1,1.5 -3.3,1.8 -5.5,5.8 -7.1,9.1 -4.2,8.7 -6.6,18.2 -8.9,27.4 -0.7,3 -1.3,6 -1.9,9 -0.3,1.4 -0.4,3 -0.8,4.3 l -0.1,0.9 c -0.4,2.7 -1,6.2 -0.1,8.8 0,0.4 0.1,0.6 -0.1,1 0.6,1.6 1,3.6 2.1,5 0.4,0.1 0.4,0.1 0.7,0.5 1.3,0.6 2.7,0.9 4.2,1.2 2.7,0.3 5.4,0.3 8.2,-0.2 4.1,-0.7 8.2,-2.2 12.1,-3.6 6.6,-2.4 13.1,-4.9 19.5,-7.6 -1.9,-3 -3.8,-9.6 -4.5,-13.1 -2,0.7 -4,1.2 -6.1,1.7 -2.1,0.5 -4.1,0.8 -6.2,1.1 -2.1,0.3 -4.3,0.4 -6.4,0.6 -3.6,0.2 -7.1,-0.3 -10.4,1.7 -2.4,1.4 -2.4,2.7 -4.1,4.4 h -0.2 c 0.2,-1.1 0.8,-2.1 1.5,-3 2.2,-2.5 5.3,-3.3 8.5,-3.6 v -20.4 c 0,-2.4 -0.4,-6.9 0.1,-9 h 0.4 l -0.3,-0.1 -0.1,0.2 0.4,-0.2 c 0.5,1.9 0.2,6.5 0.2,8.7 v 20.9 c 0.2,-0.5 0.3,-1 0.5,-1.4 3.9,-11.9 5.4,-27.1 4.2,-39.5 -0.3,-1.9 -0.4,-4.6 -1.2,-6.3 z"
   id="path310" />
			<path
   class="st2"
   d="m 360.3,2524.4 c -0.5,-0.3 -1,-0.6 -1.1,-1.2 -0.1,-0.4 0.1,-0.8 -0.2,-1 h -0.2 c -1.9,3.5 -3.8,6.9 -5.8,10.4 -0.8,1.3 -2.2,3.1 -2.6,4.6 -0.3,1 -0.2,2 -0.3,3.1 l -0.6,7.2 c -0.1,0.8 0,2.9 -0.7,3.3 -0.3,-1.3 1.4,-22.5 1.8,-24.7 -13.8,3.2 -30.5,3.7 -44.5,1.4 -2,2.9 -4.1,5 -7.3,6.6 -0.7,0.4 -1.6,0.8 -2.4,1 -0.2,0 -0.3,0 -0.5,0 l -0.1,-0.3 c 0.3,-0.4 1.4,-0.7 1.9,-0.9 3.1,-1.4 5.9,-3.4 7.6,-6.5 -3.8,-0.7 -7.9,-1.3 -11.6,-2.5 -0.4,4.1 -0.5,8.2 -0.7,12.2 -0.3,7.2 -0.6,14.6 -1.2,21.8 h 34 0.6 40.3 c 0,-1.7 -0.1,-9.4 -0.5,-10.7 -2.6,-2.2 -4.7,-11.6 -4.9,-14.9 -0.1,-0.9 0.3,-3.9 -0.2,-4.4 -0.4,0 -0.7,0 -1,-0.3 -0.2,-1.5 0.2,-2.8 0.2,-4.2 z"
   id="path311" />
			<path
   class="st26"
   d="m 326.4,2558.7 c 0.3,-2.9 3,-24.8 2.6,-25.3 -0.3,0.4 -0.4,0.9 -0.5,1.3 -0.4,2.1 -0.5,4.5 -0.8,6.6 l -1.9,17.4 z"
   id="path312" />
			<path
   class="st22"
   d="m 312.8,2430.7 c -2.4,-0.2 -5.2,0.8 -7.6,1.3 0.3,2.1 0.7,4.2 1,6.3 0.7,6.1 0.6,12.7 0,18.8 1.7,-0.1 3.4,-0.3 5.1,-0.4 2.4,-0.1 4.8,-0.1 7.2,-0.1 0.4,-1.5 2.9,-11.8 3.6,-12.2 0.8,-0.5 4.5,-0.5 5.6,-0.5 2.7,1.3 8.4,6.4 11,8.6 2.1,1.7 4.3,3.3 6.4,5.1 -1.1,4.3 -2,8.6 -2.9,13 0.5,0.4 1,0.8 1.1,1.5 0.1,0.6 -0.6,1.4 -0.7,2 -0.1,0.4 0.4,0.9 0.4,1.3 0,1 -0.9,0.7 -0.5,2.3 0.1,0.3 0.1,0.7 0,1 -0.5,0.9 -0.9,0.9 -0.7,2.1 0.1,0.3 -0.1,0.6 -0.3,0.8 -0.8,1.3 -2.4,2.7 -3.7,3.6 l -2.2,9.5 c -0.4,1.8 -0.7,3.7 -1.4,5.4 -1.7,0 -3.5,0 -5.2,-0.3 -2.5,-2 -5.9,-5.4 -7.6,-8.1 -6.1,2.5 -12.2,5 -18.4,7.2 -3.7,1.3 -7.6,2.7 -11.5,3.5 -0.2,6.8 -0.4,13.6 -0.5,20.4 2.8,1.8 6.4,2.3 9.6,2.9 15.9,3.2 33.2,3.3 49.1,-0.2 1.6,-0.4 3.2,-0.7 4.5,-1.7 0.3,-6.3 0,-13.2 0,-19.6 l 0.2,-34.9 c 0,-3.7 0.1,-7.5 0.1,-11.2 0,-1 -0.2,-2.3 0,-3.3 0,-0.2 0.1,-0.3 0.2,-0.4 l 0.3,-0.1 c 0.3,0.3 0.3,0.7 0.3,1.2 0,12.5 -0.4,25 -0.4,37.6 1.7,-0.4 6.8,-1.3 8.3,-0.7 0.1,0 0.1,0.1 0.2,0.2 0.4,-1.3 0.4,-3.2 0.6,-4.6 0.7,-4.6 1.6,-9.3 2,-14 0,-0.5 0,-0.9 -0.1,-1.4 -2.4,-8.8 -6.3,-28.6 -12.3,-34.6 -0.4,-0.4 -0.9,-0.8 -1.3,-1.1 -0.5,-0.3 -1,-0.7 -1.5,-0.9 -1.9,-1 -11.7,-5 -13.6,-4.9 -0.5,0 -0.6,0.3 -0.9,0.7 0.4,0.1 0.4,0 0.6,0.3 l -0.1,0.3 c -0.2,0.1 -0.3,0.1 -0.5,0.1 -1.3,2 -1.9,3.7 -4,5.1 -3.1,2 -7,2.2 -10.5,1.4 -2.7,-0.6 -5.7,-1.9 -7.4,-4.2 -0.7,-0.9 -1.2,-2 -1.8,-3 -0.1,-0.3 -0.2,-0.4 -0.1,-0.7 z"
   id="path313" />
		</g>
	</g>
	
		<rect
   x="196.8"
   y="2541.3"
   transform="rotate(180,319.1421,2552.26)"
   class="st2"
   width="244.8"
   height="21.799999"
   id="rect314" />
</g><polygon
     class="st2"
     points="393.3,2365.9 401,2366.9 396.2,2376.9 "
     id="polygon315" /><polygon
     class="st2"
     points="326.1,2333.6 337,2335 330.3,2349.1 "
     id="polygon316" /><polygon
     class="st2"
     points="246.6,2357.9 257.5,2359.3 250.8,2373.4 "
     id="polygon317" /><g
     id="g527">
	<path
   class="st41"
   d="m 386.7,2333.5 c -1.3,4.9 -1.9,8.3 -1.9,10.2 0,1.2 0.3,2.1 1,2.8 0.7,0.7 1.6,1.1 2.7,1.1 1.2,0 2.6,-0.5 4.4,-1.5 1.7,-1 4.3,-3.1 8,-6.6 0.2,-0.2 0.3,-0.6 0.1,-0.9 -0.2,-0.3 -0.5,-0.4 -0.8,-0.2 -3.2,1.5 -6.9,3.2 -7.7,3.3 0,0 0,0 -0.1,-0.1 -0.1,-0.1 -0.1,-0.3 -0.1,-0.5 0,-1.8 1.4,-7.4 4.1,-16.6 2.3,-7.7 2.6,-9.3 2.6,-9.9 0,-0.8 -0.3,-1.5 -0.9,-2 -0.6,-0.5 -1.4,-0.7 -2.3,-0.7 -1.6,0 -3.6,0.6 -5.8,1.9 -2.2,1.2 -4.7,3.4 -7.3,6.3 -0.2,0.2 -0.2,0.6 -0.1,0.8 0.2,0.3 0.5,0.3 0.8,0.2 0.9,-0.4 5.6,-2.3 6.3,-2.7 0.6,-0.3 1,-0.5 1.4,-0.5 0,0 0,0 0,0 0,0 0,0.1 0,0.1 0,0.4 -0.1,0.9 -0.2,1.4 -0.2,0.7 -1.5,4.7 -1.7,5.4"
   id="path526" />
	<path
   class="st9"
   d="m 402.9,2296.8 c -0.9,-0.9 -2.1,-1.4 -3.5,-1.4 -1.7,0 -3.3,0.7 -4.5,2 -1.2,1.3 -1.9,3 -1.9,4.9 0,1.5 0.5,2.7 1.4,3.7 0.9,1 2.1,1.5 3.4,1.5 1.7,0 3.2,-0.7 4.5,-2.2 1.3,-1.4 1.9,-3.1 1.9,-4.9 0.1,-1.4 -0.4,-2.6 -1.3,-3.6 z"
   id="path527" />
</g><g
     id="g531">
	<path
   class="st9"
   d="m 345.3,2268.1 -1.5,2.8 8.5,-2.5 -2.4,-8.6 -1.5,2.8 c -4.3,-2.1 -9.5,-1.6 -12.8,3.7 3.4,-1.6 6.6,-0.9 9.7,1.8 z"
   id="path528" />
	<path
   class="st9"
   d="m 320.3,2302.5 1.5,-2.8 -8.5,2.5 2.4,8.6 1.5,-2.8 c 4.3,2.1 9.5,1.6 12.8,-3.7 -3.5,1.5 -6.7,0.8 -9.7,-1.8 z"
   id="path529" />
	<path
   class="st41"
   d="m 336.1,2298.6 v 8.3 c 0,0.5 0.2,1 0.6,1.4 0.3,0.3 0.8,0.6 1.4,0.6 h 22.5 c 0.5,0 1,-0.2 1.4,-0.6 0.3,-0.3 0.6,-0.8 0.6,-1.4 v -6 0 -25.9 c 0,-0.5 -0.2,-1 -0.6,-1.4 -0.3,-0.3 -0.8,-0.6 -1.4,-0.6 h -13.5 c 0,0 -0.1,0 -0.1,0 -0.2,0 -0.4,0.1 -0.6,0.2 v 0 c 0,0 0,0 -0.1,0.1 l -9.9,10 c -0.2,0.2 -0.3,0.4 -0.3,0.7 0,0.1 0,0.1 0,0.2 v 5.9 m 0,-5.2 h 9 c 0.6,0 1.1,-0.2 1.5,-0.6 0.4,-0.4 0.6,-0.9 0.6,-1.5 v -9.6"
   id="path530" />
	<path
   class="st41"
   d="m 304.4,2285.7 v 8.3 c 0,0.5 0.2,1 0.6,1.4 0.3,0.3 0.8,0.6 1.4,0.6 h 22.5 c 0.5,0 1,-0.2 1.4,-0.6 0.3,-0.3 0.6,-0.8 0.6,-1.4 v -6 0 -26 c 0,-0.5 -0.2,-1 -0.6,-1.4 -0.3,-0.3 -0.8,-0.6 -1.4,-0.6 h -13.5 c 0,0 -0.1,0 -0.1,0 -0.2,0 -0.4,0.1 -0.6,0.2 v 0 c 0,0 0,0 -0.1,0.1 l -9.9,10 c -0.2,0.2 -0.3,0.4 -0.3,0.7 0,0.1 0,0.1 0,0.2 v 5.9 m 0,-5.2 h 9 c 0.6,0 1.1,-0.2 1.5,-0.6 0.4,-0.4 0.6,-0.9 0.6,-1.5 v -9.6"
   id="path531" />
</g><g
     id="g538">
	<path
   class="st9"
   d="m 247.6,2312.3 c 0,-1 -0.8,-1.8 -1.8,-1.8 H 235 c -1,0 -1.8,0.8 -1.8,1.8 0,1 0.8,1.8 1.8,1.8 h 10.7 c 1,0 1.9,-0.8 1.9,-1.8 z"
   id="path532" />
	<path
   class="st9"
   d="m 247.6,2321.1 c 0,-1 -0.8,-1.8 -1.8,-1.8 h -7.3 c -1,0 -1.8,0.8 -1.8,1.8 0,1 0.8,1.8 1.8,1.8 h 7.3 c 0.9,0.1 1.8,-0.8 1.8,-1.8 z"
   id="path533" />
	<path
   class="st9"
   d="m 245.7,2305.2 c 1,0 1.8,-0.8 1.8,-1.8 0,-1 -0.8,-1.8 -1.8,-1.8 h -13.6 c -1,0 -1.8,0.8 -1.8,1.8 0,1 0.8,1.8 1.8,1.8 z"
   id="path534" />
	<path
   class="st41"
   d="m 260,2301.6 c -1.1,-0.3 -2.3,-0.5 -3.7,-0.7 v -1.7 h -4.2 v 28.1 c -6.2,-0.4 -15.5,4 -15.5,10.2 0,4.9 7.7,4.9 12.4,2.3 4.7,-2.6 7.2,-6 7.2,-9 0,-1.3 0,-2.8 0,-3 v -5.7 -10.9 -3.8 c 7.3,0.4 8.2,2.4 7.5,11.8 4,-5.2 5,-9.9 3,-13.2"
   id="path535" />
	<path
   class="st9"
   d="m 284.2,2310.2 c -1.8,0.2 -3.5,-0.3 -5,-1.4 -1.5,-1.2 -2.4,-2.7 -2.6,-4.5 h -0.2 c 0.2,1.8 -0.3,3.5 -1.4,5 -1.1,1.5 -2.7,2.4 -4.5,2.6 v 0.2 c 1.8,-0.2 3.5,0.3 5,1.4 1.5,1.2 2.4,2.7 2.6,4.5 h 0.2 c -0.2,-1.8 0.3,-3.5 1.4,-5 1.2,-1.5 2.7,-2.4 4.5,-2.6 z"
   id="path536" />
	<path
   class="st9"
   d="m 272.1,2320 h -0.2 c -0.1,1.4 -0.7,2.6 -1.9,3.6 -1.1,1 -2.4,1.4 -3.8,1.3 v 0.2 c 1.4,0.1 2.6,0.7 3.6,1.9 1,1.1 1.4,2.4 1.3,3.8 h 0.2 c 0.1,-1.4 0.7,-2.6 1.9,-3.6 1.1,-1 2.4,-1.4 3.8,-1.3 v -0.2 c -1.4,-0.1 -2.6,-0.7 -3.6,-1.9 -1,-1.2 -1.4,-2.4 -1.3,-3.8 z"
   id="path537" />
	<path
   class="st9"
   d="m 264,2331.3 h -0.1 c 0,1.1 -0.4,2 -1.2,2.8 -0.8,0.8 -1.7,1.2 -2.8,1.2 v 0.1 c 1.1,0 2,0.4 2.8,1.2 0.8,0.8 1.2,1.7 1.2,2.8 h 0.1 c 0,-1.1 0.4,-2 1.2,-2.8 0.8,-0.8 1.7,-1.2 2.8,-1.2 v -0.1 c -1.1,0 -2,-0.4 -2.8,-1.2 -0.8,-0.8 -1.2,-1.7 -1.2,-2.8 z"
   id="path538" />
</g></g>















</svg>
