<?xml version="1.0" encoding="UTF-8" standalone="no"?>
<!-- Generator: Adobe Illustrator 22.0.1, SVG Export Plug-In . SVG Version: 6.00 Build 0)  -->

<svg
   version="1.1"
   id="Layer_1"
   x="0px"
   y="0px"
   viewBox="0 0 442.70001 309.96561"
   xml:space="preserve"
   width="442.70001"
   height="309.96561"
   xmlns="http://www.w3.org/2000/svg"
   xmlns:svg="http://www.w3.org/2000/svg"><defs
   id="defs746" />
<style
   type="text/css"
   id="style1">
	.st0{fill:#EAE2F0;}
	.st1{fill:#E1F4FD;}
	.st2{fill:#FFFFFF;}
	.st3{font-family:'Gantari-Bold';}
	.st4{font-size:30px;}
	.st5{fill:none;}
	.st6{font-family:'Gantari-Regular';}
	.st7{font-size:14px;}
	.st8{font-family:'Gantari-SemiBold';}
	.st9{fill:#782B90;}
	.st10{font-size:24px;}
	.st11{font-size:16px;}
	.st12{font-family:'Gantari-Medium';}
	.st13{font-family:'AlbertSans-MediumItalic';}
	.st14{font-size:16.8941px;}
	.st15{fill:url(#SVGID_1_);}
	.st16{fill:url(#SVGID_2_);}
	.st17{fill:url(#SVGID_3_);}
	.st18{fill:url(#SVGID_4_);}
	.st19{fill:#231F20;}
	.st20{font-family:'Gantari-BoldItalic';}
	.st21{fill:#10101A;}
	.st22{fill:#00AEEF;}
	.st23{font-size:11.4192px;}
	.st24{clip-path:url(#SVGID_6_);fill:#FFFFFF;}
	.st25{clip-path:url(#SVGID_6_);}
	.st26{fill:#020202;}
	.st27{fill:#EAEBF6;}
	.st28{clip-path:url(#SVGID_8_);}
	.st29{fill:#23A9E1;}
	.st30{font-size:18px;}
	.st31{fill:#BCBEC0;}
	.st32{font-size:12px;}
	.st33{font-size:13px;}
	.st34{fill:#FFFFFF;stroke:#000000;stroke-width:0.7148;stroke-miterlimit:10;}
	.st35{fill:#FFFFFF;stroke:#000000;stroke-width:0.6955;stroke-miterlimit:10;}
	.st36{fill:#010101;}
	.st37{fill:#FFFFFF;stroke:#000000;stroke-width:0.9307;stroke-miterlimit:10;}
	.st38{fill-rule:evenodd;clip-rule:evenodd;fill:#FFFFFF;stroke:#000000;stroke-miterlimit:10;}
	.st39{fill-rule:evenodd;clip-rule:evenodd;fill:#782B90;}
	.st40{fill:#FFFFFF;stroke:#000000;stroke-width:0.71;stroke-miterlimit:10;}
	.st41{fill:#FFFFFF;stroke:#000000;stroke-miterlimit:10;}
	.st42{fill:#FFFFFF;stroke:#000000;stroke-width:0.6956;stroke-miterlimit:10;}
	.st43{fill:none;stroke:#000000;stroke-miterlimit:10;}
	.st44{fill:#FFFFFF;stroke:#000000;stroke-width:1.2628;stroke-miterlimit:10;}
	.st45{fill:#FFFFFF;stroke:#000000;stroke-linecap:round;stroke-linejoin:round;stroke-miterlimit:10;}
	.st46{fill:none;stroke:#782B90;stroke-width:2;stroke-miterlimit:10;}
	.st47{fill:#FFFFFF;stroke:#000000;stroke-linejoin:round;stroke-miterlimit:10;}
	.st48{fill:#F7F6FB;}
	.st49{fill:#FFFFFF;stroke:#000000;stroke-width:0.2236;stroke-miterlimit:10;}
	.st50{fill:#FFFFFF;stroke:#000000;stroke-width:0.4473;stroke-miterlimit:10;}
</style>



























































































<g
   id="g741"
   transform="translate(-113.3,-4099.7001)">
	<circle
   class="st1"
   cx="364.5"
   cy="4208.6001"
   r="108.9"
   id="circle674" />
	<g
   id="g685">
		<path
   class="st0"
   d="m 218,4123.8 c 0.3,0.4 0.6,0.7 0.8,1.1 0.3,0.4 0.5,0.7 0.8,1.1 0.3,0.4 0.5,0.7 0.8,1.1 0.3,0.4 0.5,0.7 0.8,1.1 0.2,0.4 0.5,0.8 0.7,1.1 0.2,0.4 0.5,0.8 0.7,1.2 0.2,0.4 0.5,0.8 0.7,1.2 0.2,0.4 0.4,0.8 0.6,1.2 0.2,0.4 0.4,0.8 0.6,1.2 0.2,0.4 0.4,0.8 0.6,1.2 0.2,0.4 0.4,0.8 0.5,1.2 0.2,0.4 0.3,0.8 0.5,1.3 0.2,0.4 0.3,0.8 0.5,1.3 0.2,0.4 0.3,0.9 0.5,1.3 0.1,0.4 0.3,0.9 0.4,1.3 0.1,0.4 0.3,0.9 0.4,1.3 0.1,0.4 0.2,0.9 0.4,1.3 0.1,0.4 0.2,0.9 0.3,1.3 0.1,0.4 0.2,0.9 0.3,1.3 0.1,0.4 0.2,0.9 0.3,1.3 0.1,0.4 0.2,0.9 0.2,1.3 0.1,0.4 0.1,0.9 0.2,1.3 0.1,0.4 0.1,0.9 0.2,1.3 0,0.4 0.1,0.9 0.1,1.4 0,0.5 0.1,0.9 0.1,1.4 0,0.5 0,0.9 0.1,1.4 0,0.5 0,0.9 0,1.4 0,0.5 0,0.9 0,1.4 0,0.5 0,0.9 0,1.4 0,0.5 0,0.9 -0.1,1.4 0,0.5 -0.1,0.9 -0.1,1.4 0,0.5 -0.1,0.9 -0.1,1.3 -0.1,0.4 -0.1,0.9 -0.2,1.3 -0.1,0.4 -0.1,0.9 -0.2,1.3 -0.1,0.4 -0.2,0.9 -0.2,1.3 -0.1,0.4 -0.2,0.9 -0.3,1.3 -0.1,0.4 -0.2,0.8 -0.3,1.3 -0.1,0.4 -0.2,0.8 -0.3,1.3 -0.1,0.4 -0.2,0.8 -0.4,1.3 -0.1,0.4 -0.3,0.8 -0.4,1.2 -0.1,0.4 -0.3,0.8 -0.4,1.2 -0.1,0.4 -0.3,0.8 -0.5,1.2 -0.2,0.4 -0.3,0.8 -0.5,1.2 -0.2,0.4 -0.3,0.8 -0.5,1.2 -0.2,0.4 -0.4,0.8 -0.5,1.2 -0.1,0.4 -0.4,0.8 -0.6,1.2 -0.2,0.4 -0.4,0.8 -0.6,1.2 -0.2,0.4 -0.4,0.8 -0.6,1.1 -0.2,0.4 -0.4,0.8 -0.7,1.1 -0.2,0.4 -0.5,0.7 -0.7,1.1 -0.2,0.4 -0.5,0.7 -0.7,1.1 -0.2,0.4 -0.5,0.7 -0.7,1.1 -0.3,0.4 -0.5,0.7 -0.8,1.1 -0.3,0.3 -0.5,0.7 -0.8,1 -0.3,0.3 -0.5,0.7 -0.8,1 -0.3,0.3 -0.6,0.7 -0.8,1 -0.3,0.3 -0.6,0.7 -0.9,1 -0.3,0.3 -0.6,0.6 -0.9,1 -0.3,0.3 -0.6,0.6 -0.9,0.9 -0.3,0.3 -0.6,0.6 -0.9,0.9 -0.3,0.3 -0.6,0.6 -1,0.9 -0.3,0.3 -0.6,0.6 -1,0.9 -0.3,0.3 -0.7,0.6 -1,0.8 -0.3,0.3 -0.7,0.5 -1,0.8 -10.2,8 -27.8,14.5 -40.9,13.5 -14.9,-0.6 -28.3,-6.2 -38.5,-17.2 -9.7,-10.4 -15.1,-25.4 -14.6,-39.6 0.6,-15.3 6.7,-29.7 18,-40.1 11.8,-10.8 26.5,-15.5 42.4,-14.8 0.5,0 1,0 1.5,0.1 15.9,1.7 30.3,8.9 40.4,21.8 z"
   id="path674" />
		<path
   class="st21"
   d="m 195.4,4155.2 c 1.2,1.8 2.9,3.4 4.2,5.2 1.2,1.6 3.5,6 4.7,6.9 3.4,-0.7 15.9,-3.3 18.5,-2.4 0.3,0.6 0.1,1.4 -0.1,2 -0.8,3.5 -2.3,7 -3.4,10.4 -1.7,5 -3.2,10.2 -5,15.2 -0.3,0.9 -0.9,2.5 -1.8,2.9 -2.9,1.2 -7.4,1.6 -10.6,2.2 -5.7,1 -11.3,2.3 -17.1,3.1 -10.5,2 -4.3,-0.4 -11.3,0.4 -4.6,0.5 -19.3,2.6 -23.9,2.5 -2.2,0 -4.3,-0.7 -6.3,-1.6 -4.6,-2 -8.1,-5.4 -9.9,-10.3 -2.6,-6.8 1.5,-16.4 4.5,-22.9 0.5,-1.2 1.1,-0.8 -0.1,-1.7 -1.2,-1.4 -2.4,-2.9 -3.2,-4.5 -1.9,-3.5 -2.6,-7.9 -1.4,-11.7 1.1,-3.6 3.5,-5.6 6.2,-7.1 2.8,-1.6 6,-2.8 8.7,-4.9 3,-2.4 7.7,-5.5 6.1,-8.6 -1.1,-2 2.3,-5.9 3.9,-8.8 1.7,-3.1 4.1,-6 8.2,-8.1 3.9,-2.1 8.9,-2.8 13.2,-1.4 4.8,1.5 10.2,3.1 12.6,7.9 3.1,6 0.3,11.2 -1.4,16.9 -0.3,0.9 -0.5,2.1 -0.4,3.1 0,0.3 2.5,4.7 2,5.6 -1.9,3.1 2.7,7.1 2.9,7.5 0.1,0.1 0.1,0.2 0.2,0.3 -0.3,0.8 -0.4,1.3 0,1.9 z"
   id="path675" />
		<path
   class="st2"
   d="m 183.8,4194 c -0.1,0.5 -0.2,0.5 -0.7,0.8 -0.2,0.2 -0.1,0.1 -0.3,0.2 -1.3,0.1 -3.1,0.4 -4.3,-0.1 -0.5,-0.6 -0.4,-0.7 -0.5,-1.3 l 0.2,-0.4 c 0.5,-0.1 0.8,0 1.3,0 1.2,0.2 3.3,0.2 4.3,0.8 z"
   id="path676" />
		<path
   class="st2"
   d="m 180.6,4190.4 c 2.1,0.3 5.9,-0.2 7.5,1.2 l 0.1,0.5 c -0.4,0.5 -0.7,0.7 -1.3,0.8 -0.1,0 -0.1,0 -0.2,0 -1.9,-0.1 -7.2,-0.2 -8.5,-1.2 -0.2,-0.6 -0.2,-0.7 0,-1.3 0.6,-0.4 1.5,-0.1 2.2,-0.1 0,0.1 0.1,0.1 0.2,0.1 z"
   id="path677" />
		<path
   class="st2"
   d="m 189.3,4188.1 0.2,0.4 c -0.4,0.7 -1.1,1.1 -1.9,1.3 -0.3,0.1 -0.4,0.1 -0.6,0 -1.5,-0.1 -7.8,-0.2 -8.6,-1 -0.2,-0.7 -0.2,-1.1 -0.1,-1.8 l 0.3,-0.3 2.7,0.2 c 2,0.3 6.2,0.1 8,1.2 z"
   id="path678" />
		<path
   class="st2"
   d="m 180.4,4183 c 2.1,0.8 7.5,1 8.9,2.3 0,0.5 0,0.5 -0.4,0.8 -0.3,0.3 -0.6,0.5 -1,0.5 0,0 -0.1,0 -0.1,0 -2.3,-0.2 -7.8,0 -9.6,-1.2 -0.3,-0.5 -0.4,-0.9 -0.2,-1.5 0.2,-0.6 0.5,-0.8 1,-1 l 1.3,0.1 c 0,0 0.1,0 0.1,0 z"
   id="path679" />
		<path
   class="st2"
   d="m 183.4,4121.2 c 0.4,1.8 2.9,5.5 4.4,6.7 -0.9,2.1 -0.3,4.9 -1,7.2 -1,3.3 -3.3,4.2 -6,5.7 -1.8,0.1 -3,0.1 -4.6,-0.9 0,0.1 0,0.2 -0.1,0.2 -0.7,3 1.2,9.3 -1.8,11.2 -0.9,0.6 -2.2,0.7 -3.2,0.4 -0.9,-0.2 -2.2,-0.9 -2.6,-1.8 -0.1,-0.2 -0.1,-0.2 -0.1,-0.4 -0.6,-1.2 -0.3,-3.9 0.1,-5.2 0,-0.1 0.1,-0.3 0.2,-0.4 -0.6,-1.8 0.3,-4.7 0.3,-6.6 0.1,-2.9 -1.8,-2.7 -3.4,-4.6 -0.6,-0.7 -1.1,-1.5 -1,-2.5 0.1,-0.8 0.7,-2.1 1.3,-2.6 1.5,-1.1 4.2,0.8 5.8,1.2 l 0.3,0.1 c 3.9,-1 6.6,-2.8 9.3,-5.8 0.7,-0.8 1.3,-1.7 2.1,-2.3 0,0 0.1,-0.1 0.1,-0.1 -0.1,0.2 -0.1,0.2 -0.1,0.5 z"
   id="path680" />
		<path
   class="st21"
   d="m 184.6,4126.5 c -0.5,0 -1.1,0 -1.6,-0.2 l -0.2,-0.5 c 0.6,-0.5 1.8,-0.3 2.6,-0.2 -0.2,0.6 -0.2,0.6 -0.8,0.9 z"
   id="path681" />
		<path
   class="st21"
   d="m 181.4,4136.1 c -1.3,0.7 -3.1,0.8 -4.4,0.2 -0.6,-0.3 -1,-0.8 -1.4,-1.3 v -0.5 c -0.1,-0.4 -0.2,-0.6 -0.1,-1 1.4,0.8 2,3 4.1,2.4 1,-0.3 2,-1.1 2.4,-2 0.1,-0.1 0.1,-0.2 0.1,-0.3 0.3,-0.1 0.6,-0.1 0.9,0 -0.2,1 -0.5,1.9 -1.6,2.5 z"
   id="path682" />
		<path
   class="st2"
   d="m 215.1,4186.9 c -0.8,2.3 -2.2,5.3 -2.5,7.7 -11.4,2 -22.7,4.4 -34.1,6 -0.6,-1 -0.6,-2.7 -0.3,-3.8 0.1,-0.2 0.2,-0.4 0.3,-0.6 l 3.6,-0.1 c 2.6,-0.3 1.8,-1.4 3.3,-2 1.2,-0.5 2.6,0.2 3.6,-1 0.3,-0.4 0.5,-0.8 0.4,-1.3 -0.1,-0.4 -0.3,-0.9 -0.5,-1.3 0.6,-1 1.3,-0.9 1.5,-2.1 -0.3,-0.7 -0.9,-1.4 -0.5,-2.1 0.3,-0.6 0.6,-0.7 0.6,-1.5 -0.5,-0.7 -0.9,-0.9 -1.8,-1.1 -1.6,-0.3 -3.3,-0.3 -5,-0.7 -0.2,-1.5 3.5,-9.8 4.5,-11.2 0.2,-0.3 0.4,-0.5 0.7,-0.7 3.3,-1.6 14.1,-2.6 18.2,-3.2 5,-0.8 9.9,-1.8 14.9,-2.4 -1.8,7.2 -4.5,14.3 -6.9,21.4 z"
   id="path683" />
		<path
   class="st21"
   d="m 203,4184.7 h -0.4 c -0.9,-1.1 -1.2,-1.1 -1,-2.5 1.3,-0.8 1.7,-0.7 3.2,-0.7 -0.5,1.4 -0.6,2.2 -1.8,3.2 z"
   id="path684" />
		<path
   class="st22"
   d="m 180.3,4147.2 c 1.7,1.2 4.1,1.4 5.9,2.4 2.1,1.2 4.9,4 7,4.7 0.3,1.2 2.3,2.7 3.2,3.6 1.9,2 5.8,8.6 6.8,9.5 -2.9,0.5 -14.1,1.6 -15.5,3.5 -0.7,1 -5.1,11 -5.1,11.6 -0.9,-0.2 -2.2,-0.3 -3.1,-0.7 -0.7,-0.3 -1.7,-1.6 -2.2,-1.7 -1.6,-0.4 -17.4,0.8 -19.7,1.1 0,-0.1 0,-0.1 0,-0.2 -0.3,-2 2.2,-7.9 1.4,-8.9 -0.6,0.3 -0.8,0.8 -1,1.5 -0.6,1.8 -1.9,5.9 -1.3,7.6 -1.6,0 -4.1,-0.1 -5.5,0.9 l 0.4,-0.2 c 0.5,0.6 0.9,0.4 1.7,0.4 8,0.1 16.1,-1.1 24.1,-1.4 -0.5,1 -0.6,18.4 -0.2,19.6 0,0.1 0.1,0.2 0.1,0.3 -5.5,0.6 -11.1,1.2 -16.6,1.9 -3.8,0.4 -8.3,1.5 -12.1,1 -3.5,-0.5 -7.1,-2.1 -9.8,-4.3 -3.3,-2.7 -5.6,-6.5 -6,-10.8 -0.6,-6.1 2.3,-16.2 5.9,-21.3 0.2,-0.9 1,-2 1.5,-2.8 6.2,-9.5 14.6,-15.5 25.7,-17.8 h 0.8 c 0.7,0.9 0.1,2 0.7,3 0.2,0.9 0.8,1.6 1.5,2.1 1.2,0.9 2.8,1.1 4.2,0.8 1.2,-0.2 2.4,-0.9 3.1,-2 0.8,-1.3 0.2,-3 1,-4.2 1.1,0.5 2,0.7 3.1,0.8 z"
   id="path685" />
	</g>
	<g
   id="g696">
		<ellipse
   class="st21"
   cx="187.60001"
   cy="4336.8999"
   rx="73.099998"
   ry="71.599998"
   id="ellipse685" />
		<g
   id="g695">
			<path
   class="st2"
   d="m 214.8,4373.7 c 0.6,0.2 1.2,0.4 1.7,0.7 2.3,1.3 4.2,3.7 4.8,6.2 0.5,1.8 0.2,3.1 -0.8,4.6 l -0.2,0.2 c -1.4,1.3 -3.8,0.9 -5.6,0.9 z"
   id="path686" />
			<path
   class="st2"
   d="m 163.9,4373.2 c 0.4,0 0.7,0 1.1,0.1 0.7,1.6 0.2,10.8 0.1,13.1 -2,0.1 -4,0 -6.1,-0.1 -0.7,-0.8 -1.3,-1.5 -1.7,-2.5 -0.7,-1.9 -0.5,-3.9 0.4,-5.6 1.3,-2.8 3.5,-4.1 6.2,-5 z"
   id="path687" />
			<path
   class="st2"
   d="m 167.3,4356.1 c 10.1,-0.2 20.2,0 30.3,0 2.7,0 13,-0.5 15.1,0.2 0.4,0.1 0.7,0.4 0.8,0.8 0.3,1 0.5,29 0.3,32.1 0,0.8 -0.2,1.5 -0.6,2.3 -5.5,0.4 -11.2,0 -16.7,0 h -30 c 0,-0.1 0,-0.3 0,-0.4 -0.4,-6.7 -0.1,-13.5 -0.1,-20.2 0,-4.3 -0.5,-9 0.1,-13.2 0,-0.8 0.2,-0.9 0.8,-1.6 z"
   id="path688" />
			<path
   class="st9"
   d="m 141.3,4386 c -2.5,-0.9 -4.9,-2.4 -6.7,-4.4 -2.9,-3.3 -4.2,-8 -4,-12.4 0.7,-14 13.1,-31.5 23.2,-40.6 7.2,-6.6 13.7,-8.4 23.3,-8 -0.5,0.8 -1.6,1.7 -1.7,2.6 l 0.1,0.3 c -0.2,0.4 -0.3,0.6 -0.2,1.1 0.5,1.8 3,3.4 4.5,4.2 0.2,0.1 0.3,0.2 0.5,0.2 0.2,0.1 0.3,0.1 0.5,0.2 0.2,0.1 0.3,0.1 0.5,0.2 0.2,0.1 0.3,0.1 0.5,0.2 0.2,0 0.3,0.1 0.5,0.1 0.2,0 0.3,0.1 0.5,0.1 0.2,0 0.3,0.1 0.5,0.1 0.2,0 0.3,0 0.5,0 0.2,0 0.4,0 0.5,0 0.2,0 0.4,0 0.5,0 0.2,0 0.4,0 0.5,0 0.2,0 0.3,0 0.5,-0.1 0.2,0 0.3,-0.1 0.5,-0.1 0.2,0 0.3,-0.1 0.5,-0.1 0.2,0 0.3,-0.1 0.5,-0.1 0.2,0 0.3,-0.1 0.5,-0.2 3.4,-1.2 5.1,-3.5 6.6,-6.6 0.2,-0.4 0.2,-0.7 0.2,-1.1 -0.5,-0.6 -0.6,-0.5 -1.3,-0.6 l 0.5,-0.4 c 2.3,0.5 4.7,1.7 6.8,2.8 13.6,6.7 23.5,19.1 31.3,31.8 3.9,6.4 8.5,15.5 6.6,23.2 -0.8,3.4 -2.4,5.1 -5.3,6.8 -0.6,0.4 -1.3,0.7 -1.8,1 -3.4,0.1 -6.9,0.1 -10.3,0 0.8,-1.2 1.2,-2.2 1.6,-3.6 -0.3,-1.5 -0.5,-2.9 -1.1,-4.2 -1.4,-3.2 -3.8,-5.1 -7,-6.4 v -6.5 c 3.7,-2.7 6.2,-2.3 9.2,-4 v -0.3 c -0.1,0 -0.2,-0.1 -0.3,-0.1 -2.5,-0.7 -6.8,1.6 -8.9,2.7 0,-2.3 0.6,-6.8 -0.8,-8.7 -2.7,-0.9 -39.2,-0.7 -44.3,-0.4 -1.2,0.1 -2.8,0.1 -3.9,0.7 -1.4,2.1 -0.7,7.1 -0.7,9.6 -1.7,-0.9 -3.4,-1.8 -5.1,-2.6 0.8,-2.1 5,-12.3 4.5,-13.5 h -0.5 c -1.3,1.4 -4.3,10.9 -5.1,13.2 -2.7,-0.9 -5.4,-1.6 -8.2,-1.9 -1.3,-0.1 -3.1,-0.4 -4.1,0.5 l 0.1,0.4 c 1.7,0.6 3.9,0.3 5.7,0.4 4.6,0.3 9,2.7 12.9,5 l -0.1,5.2 c -1.9,0.2 -3.4,0.6 -5,1.6 -2.1,1.4 -3.5,3.4 -4,5.8 -0.5,2.5 0,4.8 1.4,7 -3.7,0.1 -7.4,0.1 -11.2,-0.1 -1.5,0.3 -3.2,0 -4.9,0 z"
   id="path689" />
			<path
   class="st0"
   d="m 241.9,4387.6 c -15.6,14.5 -34.8,22.9 -56.3,22 -19.8,-0.8 -39.1,-8.3 -52.7,-23.1 -0.4,-0.4 -0.8,-0.9 -1.2,-1.3 -0.4,-0.5 -0.8,-0.9 -1.2,-1.4 -0.4,-0.5 -0.8,-0.9 -1.2,-1.4 -0.4,-0.5 -0.7,-1 -1.1,-1.4 -0.4,-0.5 -0.7,-1 -1.1,-1.5 -0.4,-0.5 -0.7,-1 -1,-1.5 -0.3,-0.5 -0.7,-1 -1,-1.5 -0.3,-0.5 -0.7,-1 -1,-1.5 -0.3,-0.5 -0.6,-1 -0.9,-1.6 -0.3,-0.5 -0.6,-1.1 -0.9,-1.6 -0.3,-0.5 -0.6,-1.1 -0.9,-1.6 -0.3,-0.5 -0.5,-1.1 -0.8,-1.6 -0.3,-0.5 -0.5,-1.1 -0.8,-1.6 -0.2,-0.6 -0.5,-1.1 -0.7,-1.7 -0.2,-0.6 -0.5,-1.1 -0.7,-1.7 -0.2,-0.6 -0.4,-1.1 -0.6,-1.7 -0.2,-0.6 -0.4,-1.1 -0.6,-1.7 -0.2,-0.6 -0.4,-1.1 -0.6,-1.7 -0.2,-0.6 -0.4,-1.2 -0.5,-1.7 -0.2,-0.6 -0.3,-1.2 -0.5,-1.8 -0.2,-0.6 -0.3,-1.2 -0.4,-1.8 -0.1,-0.6 -0.3,-1.2 -0.4,-1.8 -0.1,-0.6 -0.2,-1.2 -0.3,-1.8 -0.1,-0.6 -0.2,-1.2 -0.3,-1.8 -0.1,-0.6 -0.2,-1.2 -0.3,-1.8 -0.1,-0.6 -0.1,-1.2 -0.2,-1.8 -0.1,-0.6 -0.1,-1.2 -0.2,-1.8 0,-0.6 -0.1,-1.2 -0.1,-1.8 0,-0.6 -0.1,-1.2 -0.1,-1.8 0,-0.6 0,-1.2 0,-1.8 0,-0.6 0,-1.2 0,-1.8 0,-0.6 0,-1.2 0.1,-1.8 0.9,-19.4 9.5,-37 23.8,-50 14.7,-13.4 35.1,-20.1 54.9,-19.1 0.6,0 1.2,0.1 1.8,0.1 0.6,0 1.2,0.1 1.8,0.2 0.6,0.1 1.2,0.1 1.8,0.2 0.6,0.1 1.2,0.2 1.8,0.2 0.6,0.1 1.2,0.2 1.8,0.3 0.6,0.1 1.2,0.2 1.8,0.3 0.6,0.1 1.2,0.2 1.8,0.4 0.6,0.1 1.2,0.3 1.7,0.4 0.6,0.1 1.2,0.3 1.7,0.5 0.6,0.2 1.1,0.3 1.7,0.5 0.6,0.2 1.1,0.4 1.7,0.5 0.6,0.2 1.1,0.4 1.7,0.6 0.6,0.2 1.1,0.4 1.7,0.6 0.6,0.2 1.1,0.4 1.7,0.7 0.6,0.3 1.1,0.5 1.6,0.7 0.5,0.2 1.1,0.5 1.6,0.7 0.5,0.3 1.1,0.5 1.6,0.8 0.5,0.3 1.1,0.5 1.6,0.8 0.5,0.3 1.1,0.6 1.6,0.9 0.5,0.3 1,0.6 1.6,0.9 0.5,0.3 1,0.6 1.5,0.9 0.5,0.3 1,0.6 1.5,1 0.5,0.3 1,0.7 1.5,1 0.5,0.3 1,0.7 1.5,1 0.5,0.4 1,0.7 1.4,1.1 0.5,0.4 0.9,0.7 1.4,1.1 0.5,0.4 0.9,0.8 1.4,1.1 0.5,0.4 0.9,0.8 1.3,1.2 0.4,0.4 0.9,0.8 1.3,1.2 0.4,0.4 0.9,0.8 1.3,1.2 0.4,0.4 0.8,0.8 1.3,1.3 0.4,0.4 0.8,0.9 1.2,1.3 0.4,0.4 0.8,0.9 1.2,1.4 0.4,0.5 0.8,0.9 1.2,1.4 0.4,0.5 0.8,0.9 1.1,1.4 0.4,0.5 0.7,1 1.1,1.4 0.4,0.5 0.7,1 1.1,1.5 0.3,0.5 0.7,1 1,1.5 0.3,0.5 0.7,1 1,1.5 0.3,0.5 0.6,1 1,1.5 0.4,0.5 0.6,1 0.9,1.6 0.3,0.5 0.6,1.1 0.9,1.6 0.3,0.5 0.6,1.1 0.8,1.6 0.3,0.5 0.5,1.1 0.8,1.6 0.3,0.5 0.5,1.1 0.8,1.6 0.3,0.5 0.5,1.1 0.7,1.7 0.2,0.6 0.5,1.1 0.7,1.7 0.2,0.6 0.4,1.1 0.6,1.7 0.2,0.6 0.4,1.1 0.6,1.7 0.2,0.6 0.4,1.1 0.5,1.7 0.2,0.6 0.3,1.2 0.5,1.7 0.2,0.5 0.3,1.2 0.5,1.8 0.2,0.6 0.3,1.2 0.4,1.8 0.1,0.6 0.3,1.2 0.4,1.8 0.1,0.6 0.2,1.2 0.3,1.8 0.1,0.6 0.2,1.2 0.3,1.8 0.1,0.6 0.2,1.2 0.2,1.8 0.1,0.6 0.1,1.2 0.2,1.8 0.1,0.6 0.1,1.2 0.1,1.8 0,0.6 0.1,1.2 0.1,1.8 0,0.6 0,1.2 0.1,1.8 0,0.6 0,1.2 0,1.8 0,0.6 0,1.2 0,1.8 0,0.6 0,1.2 -0.1,1.8 -0.8,15.4 -7.6,34.3 -18.9,45.1 -3.7,0 -7.4,0.1 -11.1,0.1 0.6,-0.4 1.2,-0.7 1.8,-1 2.9,-1.7 4.5,-3.5 5.3,-6.8 1.9,-7.7 -2.7,-16.8 -6.6,-23.2 -7.8,-12.7 -17.7,-25.1 -31.3,-31.8 -2.1,-1.1 -4.5,-2.2 -6.8,-2.8 l -0.5,0.4 c 0.7,0.1 0.8,0.1 1.3,0.6 0,0.4 0,0.7 -0.2,1.1 -1.5,3.1 -3.2,5.4 -6.6,6.6 -0.2,0.1 -0.3,0.1 -0.5,0.2 -0.2,0 -0.3,0.1 -0.5,0.1 -0.2,0 -0.3,0.1 -0.5,0.1 -0.2,0 -0.3,0.1 -0.5,0.1 -0.2,0 -0.3,0 -0.5,0.1 -0.2,0 -0.4,0 -0.5,0 -0.2,0 -0.4,0 -0.5,0 -0.2,0 -0.4,0 -0.5,0 -0.2,0 -0.3,0 -0.5,0 -0.2,0 -0.3,0 -0.5,-0.1 -0.2,0 -0.3,-0.1 -0.5,-0.1 -0.2,0 -0.3,-0.1 -0.5,-0.1 -0.2,0 -0.3,-0.1 -0.5,-0.2 -0.2,-0.1 -0.3,-0.1 -0.5,-0.2 -0.2,-0.1 -0.3,-0.1 -0.5,-0.2 -0.2,-0.1 -0.3,-0.1 -0.5,-0.2 -1.6,-0.8 -4,-2.4 -4.5,-4.2 -0.1,-0.4 -0.1,-0.7 0.2,-1.1 l -0.1,-0.3 c 0.1,-0.9 1.1,-1.9 1.7,-2.6 -9.6,-0.5 -16,1.4 -23.3,8 -10.1,9.1 -22.4,26.6 -23.2,40.6 -0.2,4.3 1.1,9.1 4,12.4 1.7,1.9 4.2,3.5 6.7,4.4 0.9,0.5 1.9,1 2.9,1.2 4.2,1 16.2,0.3 20.9,0.2 0,1.4 -0.3,3.6 0.8,4.6 0.5,0.5 1.1,0.6 1.8,0.6 6.5,0.4 13.4,-0.1 20,-0.1 7.6,0 16.5,0.5 24,0 1,-0.1 1.9,-0.1 2.6,-0.9 0.9,-1 0.7,-2.8 0.6,-4 8.6,-0.3 17.6,-0.3 26.6,-0.2 z"
   id="path690" />
			<path
   class="st21"
   d="m 171.7,4299.5 c -0.4,-0.8 -0.8,-1.8 -1,-2.7 -0.8,-3.1 -0.6,-6.5 1.1,-9.3 0.6,-1 1.5,-2 2.5,-2.6 1.7,-1.1 3.7,-1.4 5.5,-2.2 2.7,-1.1 5,-2.9 7.9,-3.6 6.4,-1.5 4.3,4.3 7.2,5.7 2.5,1.2 10,-3.7 12.8,-4.6 1.2,-0.4 2.9,-0.6 4,0.1 0.6,0.4 0.9,0.9 1,1.6 0.6,3.1 -1.3,6.7 -3,9.2 -1,1.4 -3.4,4.5 -5.2,4.7 0,5.5 0.3,11.8 -3.9,16 -0.1,0.1 -0.2,0.2 -0.4,0.3 -0.1,0.1 -0.2,0.2 -0.4,0.3 -0.1,0.1 -0.3,0.2 -0.4,0.3 -0.1,0.1 -0.3,0.2 -0.4,0.3 -0.1,0.1 -0.3,0.2 -0.4,0.3 -0.1,0.1 -0.3,0.2 -0.4,0.2 -0.1,0 -0.3,0.1 -0.4,0.2 -0.1,0.1 -0.3,0.1 -0.4,0.2 -0.2,0.1 -0.3,0.1 -0.5,0.2 -0.2,0.1 -0.3,0.1 -0.5,0.2 -0.2,0 -0.3,0.1 -0.5,0.1 -0.2,0 -0.3,0.1 -0.5,0.1 -0.2,0 -0.3,0.1 -0.5,0.1 -0.2,0 -0.3,0 -0.5,0.1 -0.2,0 -0.3,0 -0.5,0 -0.2,0 -0.3,0 -0.5,0 -1.2,0 -2.7,-0.5 -3.6,0.3 -0.3,0.8 -0.3,1.4 0.1,2.2 0.7,1.8 1.7,3.2 3.5,4 0.7,0.1 0.8,0.1 1.3,0.6 0,0.4 0,0.7 -0.2,1.1 -1.5,3.1 -3.2,5.4 -6.6,6.6 -0.2,0.1 -0.3,0.1 -0.5,0.2 -0.2,0 -0.3,0.1 -0.5,0.1 -0.2,0 -0.3,0.1 -0.5,0.1 -0.2,0 -0.3,0.1 -0.5,0.1 -0.2,0 -0.3,0 -0.5,0.1 -0.2,0 -0.4,0 -0.5,0 -0.2,0 -0.4,0 -0.5,0 -0.2,0 -0.4,0 -0.5,0 -0.2,0 -0.3,0 -0.5,0 -0.2,0 -0.3,0 -0.5,-0.1 -0.2,0 -0.3,-0.1 -0.5,-0.1 -0.2,0 -0.3,-0.1 -0.5,-0.1 -0.2,0 -0.3,-0.1 -0.5,-0.2 -0.2,-0.1 -0.3,-0.1 -0.5,-0.2 -0.2,-0.1 -0.3,-0.1 -0.5,-0.2 -0.2,-0.1 -0.3,-0.1 -0.5,-0.2 -1.6,-0.8 -4,-2.4 -4.5,-4.2 -0.1,-0.4 -0.1,-0.7 0.2,-1.1 l -0.1,-0.3 c 0.1,-0.9 1.1,-1.9 1.7,-2.6 2.2,-3.7 1.1,-8.7 0.8,-12.8 -3.8,-2.2 -4.7,-4.7 -6.3,-8.5 z"
   id="path691" />
			<path
   class="st2"
   d="m 192.7,4294.1 c 0.6,0.6 1.3,1.1 2,1.6 2.8,1.7 5.6,1.7 8.6,0.9 0.3,4.7 0.1,10.4 -3.2,14 -1.7,1.9 -4,3 -6.5,3.1 -4.1,0.2 -8.2,-2.8 -9.7,-2.6 v 0.3 c 1.4,1.3 3.3,2.1 5.1,2.8 -0.1,2.4 0,4.5 1.7,6.3 1,1.1 2.5,2 4,2.5 -1.5,3.1 -3.2,5.4 -6.6,6.6 -0.2,0.1 -0.3,0.1 -0.5,0.2 -0.2,0 -0.3,0.1 -0.5,0.1 -0.2,0 -0.3,0.1 -0.5,0.1 -0.2,0 -0.3,0.1 -0.5,0.1 -0.2,0 -0.3,0 -0.5,0.1 -0.2,0 -0.4,0 -0.5,0 -0.2,0 -0.4,0 -0.5,0 -0.2,0 -0.4,0 -0.5,0 -0.2,0 -0.3,0 -0.5,0 -0.2,0 -0.3,0 -0.5,-0.1 -0.2,0 -0.3,-0.1 -0.5,-0.1 -0.2,0 -0.3,-0.1 -0.5,-0.1 -0.2,0 -0.3,-0.1 -0.5,-0.2 -0.2,-0.1 -0.3,-0.1 -0.5,-0.2 -0.2,-0.1 -0.3,-0.1 -0.5,-0.2 -0.2,-0.1 -0.3,-0.1 -0.5,-0.2 -1.6,-0.8 -4,-2.4 -4.5,-4.2 -0.1,-0.4 -0.1,-0.7 0.2,-1.1 0.7,-0.4 1.3,-0.9 1.9,-1.5 3.1,-3.5 1.8,-9.3 1.6,-13.5 0,-1.1 0.4,-1.5 1.1,-2.3 -0.2,-0.7 -0.4,-0.9 -0.9,-1.3 l -0.5,0.1 -0.4,1.2 -0.4,0.2 c -0.6,-0.1 -1.1,-0.2 -1.6,-0.6 -1,-0.7 -1.8,-2.3 -2,-3.5 -0.2,-1 0.3,-1.6 0.8,-2.4 2.3,-0.6 4.8,0.1 7,-0.6 1,-0.1 1.9,-0.4 2.9,-0.3 -0.1,0.6 -0.1,1.1 -0.1,1.6 l 0.5,0.1 c 0.4,-0.2 0.7,-0.2 1,-0.6 0.3,-0.3 0,-1.2 0,-1.7 l 0.5,-0.6 c 2.1,-0.4 4,-2.5 5.5,-4 z"
   id="path692" />
			<path
   class="st21"
   d="m 191.4,4297.6 c 0.4,0.1 0.7,0.3 1,0.5 0.2,0.8 0.1,1.1 -0.2,1.8 -0.3,-0.1 -0.6,-0.2 -0.9,-0.4 -0.2,-0.6 0,-1.1 0.1,-1.9 z"
   id="path693" />
			<path
   class="st21"
   d="m 198.6,4297.3 c 0.3,0.2 0.6,0.5 0.8,0.7 0.4,0.6 0.2,1.1 0.1,1.8 -0.6,-0.1 -1,-0.2 -1.4,-0.7 -0.1,-0.8 0.1,-1.1 0.5,-1.8 z"
   id="path694" />
			<path
   class="st21"
   d="m 193.3,4304.5 c 1.9,0.2 2.9,-0.6 4.2,0.5 -1,0.4 -2.7,0.4 -3.9,0.5 -0.7,0 -1.2,-0.3 -1.7,0.2 0.1,0.5 0.3,0.8 0.7,1.2 0.8,0.7 1.7,0.6 2.6,0.5 0.7,-0.5 1.4,-2.1 2.2,-2.4 l 0.4,0.2 c -0.1,0.1 -0.5,1.8 -0.6,1.9 -0.7,0.8 -1.9,1.6 -3,1.6 -0.8,0 -1.7,-0.2 -2.2,-0.8 -0.5,-0.5 -1.2,-1.6 -1.1,-2.3 0,-1.3 0.9,-0.9 2.4,-1.1 z"
   id="path695" />
		</g>
	</g>
	<g
   id="g707">
		<path
   class="st21"
   d="m 449.8,4337.1 c 0,29.3 26.1,52.2 55.4,52.2 29.3,0 50.7,-22.9 50.7,-52.2 0,-29.3 -23.8,-53 -53.1,-53 -29.3,0 -53,23.7 -53,53 z"
   id="path696" />
		<path
   class="st2"
   d="m 502.4,4373.3 c 0.1,2 0.2,4.1 0.1,6.1 -2.4,-0.3 -4.6,-1.4 -6.9,-1.9 -0.3,-0.9 -0.7,-1.9 -0.5,-2.8 0.1,0 0.2,0 0.2,0 1.5,-0.2 5,0.8 6,0 l -0.2,-0.4 c -1.6,-0.5 -3.7,-0.8 -5.4,-0.8 -0.1,0.1 -0.2,0.1 -0.3,0.2 -0.2,0.2 -0.4,0.3 -0.7,0.3 -0.4,-0.5 -0.3,-1.2 -0.3,-1.7 0,-0.1 0,-0.1 0,-0.2 l 0.2,0.2 -0.1,-0.4 c 1.2,-0.1 2.5,-0.2 3.7,-0.2 1.6,0.3 2.9,0.9 4.2,1.6 z"
   id="path697" />
		<g
   id="g704">
			<path
   class="st2"
   d="m 502,4370.1 c 0.4,0.4 0.5,0.7 0.6,1.2 l -0.2,0.6 c -0.6,0.1 -0.7,-0.2 -1.2,-0.5 -0.7,-0.3 -1.5,-0.8 -2.3,-0.9 -1.2,-0.2 -4.5,0.2 -5,-0.9 -0.1,-0.2 -0.1,-0.3 -0.1,-0.5 0.3,-0.4 0.5,-0.8 1.1,-0.8 0.4,0 0.9,0 1.3,0.1 2.1,0.1 4.2,0.1 5.8,1.7 z"
   id="path698" />
			<path
   class="st2"
   d="m 502.6,4368.9 c -3.3,-1.8 -4.6,-1.3 -8.1,-1.7 -0.4,-0.1 -0.7,-0.1 -0.9,-0.5 -0.5,-0.9 -0.6,-2.5 -0.7,-3.5 3.3,-0.1 6.5,-0.3 9.8,-0.4 -0.2,2 -0.1,4.1 -0.1,6.1 z"
   id="path699" />
			<path
   class="st2"
   d="m 502.6,4306.9 c 0.4,1.2 1.5,2.3 2.4,3.2 1.3,-0.7 2.3,-1.2 3.8,-0.7 0.1,0 0.2,0.1 0.3,0.1 0.1,0 0.2,0.1 0.3,0.1 0.1,0.1 0.2,0.1 0.2,0.2 0.1,0.1 0.2,0.1 0.2,0.2 0.1,0.1 0.1,0.1 0.2,0.2 0.1,0.1 0.1,0.2 0.2,0.2 0.1,0.1 0.1,0.2 0.2,0.2 0,0.1 0.1,0.2 0.1,0.3 0.3,0.7 0.2,1.6 -0.1,2.3 -0.4,1 -1.4,1.8 -2.4,2.1 -0.6,0.2 -1.3,0.3 -1.9,0.3 0.3,2.3 0.6,8.6 1.8,10.3 0.3,1.1 0.5,1.9 -0.1,3 -0.6,1.2 -1.7,2 -2.9,2.3 -1.1,0.3 -2.3,0.3 -3.4,-0.3 -0.9,-0.5 -1.5,-1.3 -1.8,-2.2 -0.2,-0.6 -0.2,-1.4 -0.2,-2 0.6,-1.3 0.7,-3.5 0.9,-5 0.8,-0.8 1.5,-1.3 1.7,-2.4 l -0.3,-0.2 c -0.2,0.2 -0.5,0.4 -0.8,0.6 -1.4,1 -3.1,2.1 -5,1.8 -2.3,-0.5 -3.9,-2.9 -5.2,-4.8 -0.8,-1.9 -2.5,-6.4 -1.7,-8.5 0.2,-0.5 0.9,-0.6 1.4,-0.8 4.7,-0.6 9.3,-3.1 13,-6.1 -0.5,1.9 -1.6,3.7 -0.9,5.6 z"
   id="path700" />
			<path
   class="st21"
   d="m 498,4316.4 c -1.2,0.8 -2.8,0.9 -4.2,0.7 l 0.2,-0.7 c 1.3,-0.6 3.4,-1.2 4.8,-1.4 -0.1,0.7 -0.2,0.9 -0.8,1.4 z"
   id="path701" />
			<path
   class="st9"
   d="m 475.9,4343.8 c 4.3,1.5 8.6,2.8 12.9,4.4 1.7,7.5 3,15 4.4,22.6 0.4,2.1 1.2,5 1.1,7.1 -5.7,-1.8 -11.4,-3.7 -17.1,-5.7 -3.8,-1.3 -7.8,-2.5 -11.5,-4.2 -0.8,-3.4 -6.9,-28.5 -6.3,-29.7 5.5,1.7 11,3.7 16.5,5.5 z"
   id="path702" />
			<path
   class="st2"
   d="m 499.5,4330.6 c 1,1.6 2.5,1.8 4.1,2.2 4.4,-1 3.5,-2.2 5.9,-4.8 0.4,-0.4 0.9,-0.3 1.5,-0.3 1.1,0.6 2.7,0.8 4,1.2 3.5,1.2 6.8,2.8 9.9,4.8 3.9,2.6 7.1,6.2 9.8,9.9 4.9,6.6 9.1,16 7.8,24.4 -1,6 -4.1,9.7 -8.8,13.2 -10,0.2 -20.1,0 -30.1,-0.6 -0.4,-6.2 0,-12.7 -0.1,-19 3.2,-0.3 15.2,-0.7 17.9,-0.1 0.4,0.1 0.4,0 0.8,-0.1 0,-0.1 0,-0.2 0,-0.2 0.1,-1 -2,-5 -2.7,-5.7 0,0 -0.1,0.1 -0.1,0.1 -0.4,1.1 0.8,3.5 1.2,4.6 -5.6,0.2 -11.3,0 -16.8,0.3 -1.2,0.1 -1.4,0.9 -2.6,1 -2.8,0.4 -5.8,0.2 -8.7,0.4 -0.9,-4.9 -1.9,-9.8 -2.9,-14.6 -3.8,-1.5 -7.8,-2.9 -11.8,-4.1 3.1,-4.1 6.5,-7.7 10.4,-11 3.3,-2.2 6.4,-3.6 10.2,-4.8 0.4,1.2 0.5,2.3 1.1,3.2 z"
   id="path703" />
			<path
   class="st0"
   d="m 541.2,4353 c -1.9,-4.8 -4.9,-9.8 -8.4,-13.6 -1.5,-1.6 -3.4,-3 -4.6,-4.8 -0.4,-0.5 -0.5,-1 -0.6,-1.6 -0.3,-1.4 -0.6,-2.8 -1.1,-4.2 -1.6,-4.6 -4.7,-8.6 -5.9,-13.3 -1.3,-5 -0.7,-10.3 -2.3,-15.2 -1.1,-3.3 -3,-6.2 -6.2,-7.8 -3.1,-1.6 -6.1,-1.8 -9.4,-0.7 -0.8,-0.4 -1.6,-0.8 -2.4,-1.2 -2.9,-1.2 -6.1,-1.4 -9.1,-0.2 -3.1,1.3 -5.5,3.8 -6.8,7 -1.3,3.2 -1.7,7.8 -0.3,11 0.4,0.4 0.4,0.5 1,0.5 0.9,0 1.9,-0.3 2.7,-0.5 0.4,2.9 1.3,5.6 1.7,8.4 -2.3,3.8 -6.1,9 -5,13.7 0.2,0.7 0.4,1.4 0.7,2 0,0.2 0.1,0.6 0,0.7 -0.1,0.4 -7.7,8.5 -8.7,9.7 -6.4,-2.1 -12.7,-4.2 -19,-6.5 1.4,6.9 2.9,13.8 4.4,20.7 0.8,3.8 1.5,7.9 2.7,11.6 2.6,1.3 28.4,10.4 29.9,10.4 0.1,0 0.5,-0.1 0.7,-0.2 0.2,-0.1 0.4,-0.1 0.6,-0.2 2.1,0.5 4,1.2 6.1,1.8 0.4,0.1 0.6,0.3 0.8,0.6 0.3,0.3 0.6,0.6 1.1,0.7 2.3,0.5 5.3,0.2 7.7,0.3 6.8,0.1 13.6,0.1 20.3,0.5 -0.4,0.2 -0.7,0.4 -1.1,0.7 -0.4,0.2 -0.8,0.4 -1.1,0.6 -0.3,0.2 -0.8,0.4 -1.2,0.6 -0.4,0.2 -0.8,0.4 -1.2,0.6 -0.4,0.2 -0.8,0.4 -1.2,0.5 -0.4,0.2 -0.8,0.3 -1.2,0.5 -0.4,0.2 -0.8,0.3 -1.2,0.5 -0.4,0.2 -0.8,0.3 -1.2,0.5 -0.4,0.1 -0.8,0.3 -1.2,0.4 -0.4,0.1 -0.8,0.3 -1.2,0.4 -0.4,0.1 -0.8,0.2 -1.2,0.4 -0.4,0.1 -0.8,0.2 -1.3,0.3 -0.4,0.1 -0.8,0.2 -1.3,0.3 -0.4,0.1 -0.8,0.2 -1.3,0.3 -0.4,0.1 -0.9,0.2 -1.3,0.2 -0.4,0.1 -0.9,0.1 -1.3,0.2 -0.4,0.1 -0.9,0.1 -1.3,0.2 -0.4,0.1 -0.9,0.1 -1.3,0.1 -0.4,0 -0.9,0.1 -1.3,0.1 -0.4,0 -0.9,0.1 -1.3,0.1 -0.4,0 -0.9,0 -1.3,0 -0.4,0 -0.9,0 -1.3,0 -0.4,0 -0.9,0 -1.3,0 -0.4,0 -0.9,0 -1.3,-0.1 -0.4,0 -0.9,0 -1.3,-0.1 -0.4,-0.1 -0.9,-0.1 -1.3,-0.1 -0.4,0 -0.9,-0.1 -1.3,-0.1 -0.4,-0.1 -0.9,-0.1 -1.3,-0.2 -0.4,-0.1 -0.9,-0.1 -1.3,-0.2 -0.4,-0.1 -0.9,-0.2 -1.3,-0.2 -0.4,0 -0.8,-0.2 -1.3,-0.3 -0.4,-0.1 -0.8,-0.2 -1.3,-0.3 -14.4,-3.5 -27.3,-12.2 -35,-25 -0.2,-0.4 -0.4,-0.7 -0.7,-1.1 -0.2,-0.4 -0.4,-0.7 -0.6,-1.1 -0.2,-0.4 -0.4,-0.7 -0.6,-1.1 -0.2,-0.4 -0.4,-0.8 -0.6,-1.1 -0.2,-0.4 -0.4,-0.8 -0.5,-1.2 -0.2,-0.4 -0.3,-0.8 -0.5,-1.2 -0.2,-0.4 -0.3,-0.8 -0.5,-1.2 -0.2,-0.4 -0.3,-0.8 -0.5,-1.2 -0.1,-0.4 -0.3,-0.8 -0.4,-1.2 -0.1,-0.4 -0.3,-0.8 -0.4,-1.2 -0.1,-0.4 -0.2,-0.8 -0.4,-1.2 -0.1,-0.4 -0.2,-0.8 -0.3,-1.2 -0.1,-0.4 -0.2,-0.8 -0.3,-1.2 -0.1,-0.4 -0.2,-0.8 -0.3,-1.2 -0.1,-0.4 -0.2,-0.8 -0.2,-1.3 -0.1,-0.4 -0.1,-0.8 -0.2,-1.3 -0.1,-0.4 -0.1,-0.8 -0.2,-1.3 -0.1,-0.4 -0.1,-0.8 -0.1,-1.3 0,-0.4 -0.1,-0.8 -0.1,-1.3 0,-0.4 -0.1,-0.8 -0.1,-1.3 0,-0.4 0,-0.9 -0.1,-1.3 -0.1,-0.4 0,-0.9 0,-1.3 0,-0.4 0,-0.9 0,-1.3 0,-0.4 0,-0.9 0,-1.3 0,-0.4 0,-0.9 0.1,-1.3 0.1,-0.4 0.1,-0.8 0.1,-1.3 0,-0.4 0.1,-0.8 0.1,-1.3 0,-0.4 0.1,-0.8 0.2,-1.3 0.1,-0.5 0.1,-0.8 0.2,-1.3 0.1,-0.4 0.1,-0.8 0.2,-1.3 0.1,-0.5 0.2,-0.8 0.3,-1.3 0.1,-0.5 0.2,-0.8 0.3,-1.2 3.4,-13.8 12.2,-25.2 24.3,-32.5 12.1,-7.3 27,-10 40.8,-6.5 0.4,0.1 0.8,0.2 1.3,0.3 0.4,0.1 0.8,0.2 1.3,0.4 0.4,0.1 0.8,0.3 1.3,0.4 0.4,0.1 0.8,0.3 1.2,0.4 0.4,0.1 0.8,0.3 1.2,0.5 0.4,0.2 0.8,0.3 1.2,0.5 0.4,0.2 0.8,0.3 1.2,0.5 0.4,0.2 0.8,0.4 1.2,0.5 0.4,0.2 0.8,0.4 1.2,0.6 0.4,0.2 0.8,0.4 1.2,0.6 0.4,0.2 0.8,0.4 1.2,0.6 0.4,0.2 0.8,0.4 1.1,0.7 0.4,0.2 0.7,0.5 1.1,0.7 0.4,0.2 0.7,0.5 1.1,0.7 0.4,0.2 0.7,0.5 1.1,0.7 0.4,0.3 0.7,0.5 1.1,0.8 0.4,0.3 0.7,0.5 1,0.8 0.3,0.3 0.7,0.5 1,0.8 0.3,0.3 0.7,0.6 1,0.8 0.3,0.3 0.7,0.6 1,0.9 0.3,0.3 0.6,0.6 1,0.9 0.3,0.3 0.6,0.6 0.9,0.9 0.3,0.3 0.6,0.6 0.9,0.9 0.3,0.3 0.6,0.6 0.9,1 0.3,0.3 0.6,0.7 0.9,1 0.3,0.3 0.6,0.7 0.8,1 0.3,0.3 0.6,0.7 0.8,1 0.2,0.3 0.5,0.7 0.8,1 0.3,0.4 0.5,0.7 0.8,1.1 0.3,0.4 0.5,0.7 0.7,1.1 0.2,0.4 0.5,0.7 0.7,1.1 0.2,0.4 0.5,0.7 0.7,1.1 0.2,0.4 0.5,0.8 0.7,1.2 0.2,0.4 0.4,0.8 0.6,1.2 0.2,0.4 0.4,0.8 0.6,1.2 0.2,0.4 0.4,0.8 0.6,1.2 0.2,0.4 0.4,0.8 0.6,1.2 0.2,0.4 0.4,0.8 0.5,1.2 0.2,0.4 0.3,0.8 0.5,1.2 0.2,0.4 0.3,0.8 0.5,1.3 0.1,0.4 0.3,0.8 0.4,1.3 0.1,0.4 0.3,0.9 0.4,1.3 0.1,0.4 0.3,0.9 0.4,1.3 0.1,0.4 0.2,0.9 0.3,1.3 0.1,0.4 0.2,0.9 0.3,1.3 0.1,0.4 0.2,0.9 0.3,1.3 0.1,0.4 0.2,0.9 0.2,1.3 0.1,0.4 0.1,0.9 0.2,1.3 0.1,0.4 0.1,0.9 0.2,1.3 0.1,0.4 0.1,0.9 0.1,1.3 0,0.4 0.1,0.9 0.1,1.3 0,0.4 0.1,0.9 0.1,1.3 0,0.4 0,0.9 0,1.3 0,0.4 0,0.9 0,1.3 0,0.4 0,0.9 0,1.3 0,0.4 0,0.9 -0.1,1.3 -0.1,0.4 -0.1,0.9 -0.1,1.3 0,0.4 -0.1,0.9 -0.1,1.3 0,0.4 -0.1,0.9 -0.2,1.3 -0.1,0.4 -0.1,0.9 -0.2,1.3 -0.1,0.4 -0.1,0.9 -0.2,1.3 -0.1,0.4 -0.2,0.9 -0.3,1.3 -0.1,0.4 -0.2,0.9 -0.3,1.3 -0.1,0.4 -0.2,0.9 -0.3,1.3 -2.2,8.6 -6.8,17.6 -13.3,23.8 3.9,-6.6 3.3,-13.4 0.3,-20.8 z"
   id="path704" />
		</g>
		<path
   class="st21"
   d="m 492.7,4311.9 c -0.3,0.2 -0.5,0.3 -0.8,0.4 -0.2,-0.7 -0.3,-1 -0.1,-1.8 0.3,-0.3 0.6,-0.4 1,-0.5 0,0.8 0.2,1.2 -0.1,1.9 z"
   id="path705" />
		<path
   class="st21"
   d="m 498,4310.8 c -0.3,0.2 -0.5,0.3 -0.8,0.4 -0.2,-0.7 -0.3,-1 -0.1,-1.8 0.3,-0.3 0.6,-0.4 1,-0.5 0.1,0.7 0.2,1.2 -0.1,1.9 z"
   id="path706" />
		<path
   class="st2"
   d="m 474.9,4358.8 c -0.5,0.3 -0.9,0.5 -1.5,0.6 -0.4,-1.3 -0.6,-1.8 -0.3,-3.2 0.6,-0.5 1,-0.7 1.7,-0.9 0.3,1.4 0.6,2.2 0.1,3.5 z"
   id="path707" />
	</g>
	<circle
   class="st2"
   cx="303.60001"
   cy="4185.5"
   r="24.200001"
   id="circle707" />
	<g
   id="g710">
		<circle
   class="st2"
   cx="360.60001"
   cy="4185.5"
   r="18.5"
   id="circle708" />
		<g
   id="g709">
			<path
   class="st41"
   d="m 357.3,4191.7 c -0.6,2.4 -0.9,4.1 -0.9,5.1 0,0.6 0.2,1.1 0.5,1.4 0.3,0.4 0.8,0.5 1.3,0.5 0.6,0 1.3,-0.2 2.2,-0.7 0.8,-0.5 2.1,-1.6 4,-3.3 0.1,-0.1 0.1,-0.3 0,-0.4 -0.1,-0.1 -0.3,-0.2 -0.4,-0.1 -1.6,0.8 -3.4,1.6 -3.8,1.6 0,0 0,0 0,0 0,-0.1 -0.1,-0.2 -0.1,-0.3 0,-0.9 0.7,-3.7 2,-8.3 1.1,-3.8 1.3,-4.6 1.3,-4.9 0,-0.4 -0.2,-0.8 -0.5,-1 -0.3,-0.2 -0.7,-0.3 -1.2,-0.3 -0.8,0 -1.8,0.3 -2.9,0.9 -1.1,0.6 -2.3,1.7 -3.6,3.1 -0.1,0.1 -0.1,0.3 0,0.4 0.1,0.1 0.3,0.2 0.4,0.1 0.5,-0.2 2.8,-1.1 3.1,-1.4 0.3,-0.2 0.5,-0.3 0.7,-0.3 0,0 0,0 0,0 0,0 0,0 0,0.1 0,0.2 0,0.4 -0.1,0.7 -0.1,0.3 -0.8,2.4 -0.9,2.7"
   id="path708" />
			<path
   class="st9"
   d="m 365.3,4173.5 c -0.5,-0.5 -1,-0.7 -1.7,-0.7 -0.9,0 -1.6,0.3 -2.2,1 -0.6,0.7 -0.9,1.5 -0.9,2.4 0,0.7 0.2,1.4 0.7,1.8 0.5,0.5 1,0.7 1.7,0.7 0.8,0 1.6,-0.4 2.2,-1.1 0.6,-0.7 1,-1.5 1,-2.4 -0.1,-0.6 -0.3,-1.2 -0.8,-1.7 z"
   id="path709" />
		</g>
	</g>
	<g
   id="g712">
		<circle
   class="st2"
   cx="403.10001"
   cy="4271.7002"
   r="18.700001"
   id="circle710" />
		<g
   id="g711">
			<path
   class="st9"
   d="m 412,4280.8 c 0.2,-0.2 0.2,-0.5 0.1,-0.7 -0.3,-0.6 -0.8,-1.7 -1.3,-2.8 -0.4,-0.8 -0.7,-1.6 -1,-2.2 -0.5,-1.3 -1.5,-0.8 -2.5,-1 h -1.1 l -1.2,1.8 h 3.4 l 0.9,1.8 c 0.2,0.7 0.3,0.9 0.8,1.8 -0.4,0 -0.7,0 -1.1,0 -4,-0.2 -6,0.1 -10.5,0 -0.3,0 -0.6,0 -0.8,0 -1.6,0 -2,0 -2,0 l 1.8,-3.8 h 3.1 l -0.7,-1.6 h -2 c -0.9,0.2 -1.8,-0.3 -2.4,1.1 -0.3,0.7 -0.7,1.6 -1,2.5 -0.3,0.7 -0.6,1.3 -0.8,1.9 -0.4,1 -0.1,1.7 0.8,1.7 0.7,0 1.7,0 2.8,0 0.4,0 0.7,0 1.1,0 4.3,-0.1 8,-0.1 12,-0.1 0.4,0 0.9,0 1.3,0 -0.1,0 0.1,-0.2 0.3,-0.4 z"
   id="path710" />
			<path
   class="st41"
   d="m 407.9,4266.7 c 0,0 0,-0.1 0.1,-0.1 l 0.1,-0.3 v 0 c 0.3,-0.7 0.5,-1.5 0.5,-2.4 0,-3.2 -2.6,-5.7 -5.7,-5.7 -3.2,0 -5.7,2.6 -5.7,5.7 0,0.8 0.2,1.6 0.5,2.3 v 0 l 0.1,0.1 c 0.1,0.1 0.1,0.3 0.2,0.4 l 5,10 3,-6 m -3.1,-3.9 c -1.5,0 -2.8,-1.2 -2.8,-2.8 0,-1.6 1.2,-2.8 2.8,-2.8 1.5,0 2.8,1.2 2.8,2.8 0,1.6 -1.3,2.8 -2.8,2.8 z"
   id="path711" />
		</g>
	</g>
	<g
   id="g717">
		<circle
   class="st2"
   cx="338.5"
   cy="4140.2002"
   r="20"
   id="circle712" />
		<g
   id="g716">
			<path
   class="st45"
   d="m 338.6,4128.5 c 0,0 2.1,-3.1 4.8,-1.7 4.1,2.3 0.2,4.8 0.2,4.8 0,0 1,-0.6 1.9,-2.2 1.7,0 2.6,1.3 3.2,2.4 0.8,1.5 0.5,3.8 -0.4,4.5 -0.2,0.2 0.7,-0.5 1,-0.4 0.9,0.3 2.1,1.2 2.1,3.9 0,2 -2.1,3.8 -3.8,3.2 -0.5,-0.2 1.2,0.2 1.3,0.7 0.8,2.4 -1.1,4.8 -3.2,5.5 -0.4,0.1 -1.3,-2.3 -3.2,-3 0,0 2.4,1.3 3,3.6 0.8,3 -6.6,5.8 -6.7,1.4 -0.1,-3.1 -0.2,-20.5 -0.2,-20.5"
   id="path712" />
			<path
   class="st46"
   d="m 342.7,4134.5 c 0,0 2.5,1.3 2.7,4.2 0.2,3.3 -0.9,4.7 -0.9,4.7"
   id="path713" />
			<path
   class="st45"
   d="m 331.6,4129.5 c -1.7,0 -2.6,1.3 -3.2,2.4 -0.8,1.5 0.1,3.9 0.3,4.5 0.1,0.3 -0.3,-0.7 -0.6,-0.6 -0.9,0.3 -2.4,1.4 -2.4,4 0,2 2.2,3.6 3.9,3 0.4,-0.2 -0.8,0.1 -1.3,0.9 -1.3,2.1 1.1,4.8 3.2,5.5 0.4,0.1 1.3,-2.3 3.2,-3 0,0 -2.4,1.3 -3,3.6 -0.8,3 6.6,5.8 6.7,1.4 0.1,-3.1 0.2,-22.6 0.2,-22.6"
   id="path714" />
			<path
   class="st45"
   d="m 338.6,4128.5 c 0,0 -2.1,-3.1 -4.8,-1.7"
   id="path715" />
			<path
   class="st46"
   d="m 334.4,4134.5 c 0,0 -2.5,1.3 -2.7,4.2 -0.2,3.3 0.9,4.7 0.9,4.7"
   id="path716" />
		</g>
	</g>
	<g
   id="g720">
		<circle
   class="st2"
   cx="341.20001"
   cy="4275.7002"
   r="18.700001"
   id="circle717" />
		<g
   id="g719">
			<path
   class="st41"
   d="m 338.9,4271.4 c -0.3,1.2 -0.8,3.5 -1.2,4.6 h 6.2 c -0.9,-2.9 -1.6,-6.1 -1.8,-9.6 0.2,-0.2 0.4,-0.4 0.5,-0.7 0.1,-0.2 0.2,-0.5 0.2,-0.8 0,-0.5 -0.2,-1 -0.5,-1.3 -0.3,-0.3 -0.8,-0.5 -1.3,-0.5 -0.5,0 -1,0.2 -1.3,0.5 -0.3,0.3 -0.5,0.8 -0.5,1.3 0,0.5 0.2,1 0.5,1.3 v 0 c 0,0.6 -0.1,1.1 -0.2,1.7"
   id="path717" />
			<path
   class="st9"
   d="m 344.5,4277.6 h -7.4 c -0.3,0.7 -0.5,1.4 -0.8,2.1 h 9 c -0.3,-0.7 -0.5,-1.4 -0.8,-2.1 z"
   id="path718" />
			<path
   class="st41"
   d="m 345.5,4281.4 h -9.2 c -0.7,1.6 -4.2,5.9 -4.2,6.3 0,0.2 0,0.5 0.1,0.7 h 3.7 c 0.2,-1.4 0.7,-2.6 1.6,-3.4 3,-2.9 8.4,-0.9 8.3,3.4 h 3.8 c 0.1,-0.2 0.2,-0.4 0.2,-0.6 0,-0.5 -3.6,-4.8 -4.3,-6.4 z"
   id="path719" />
		</g>
	</g>
	<g
   id="g721">
		<circle
   class="st2"
   cx="425"
   cy="4202.7002"
   r="33.099998"
   id="circle720" />
		<path
   class="st41"
   d="m 432.4,4181.8 c -2.4,-1.1 -5.1,-1.6 -8.2,-1.6 -2.7,0 -5.3,0.5 -7.7,1.5 -2.4,1 -4.7,2.5 -6.9,4.5 l 3.2,6.8 c 2.5,-1.7 4.5,-2.8 6.1,-3.5 1.5,-0.6 3,-1 4.4,-1 1.2,0 2.3,0.2 3.3,0.7 1,0.5 1.8,1.2 2.4,2.1 0.6,0.9 0.9,2 0.9,3.2 0,1 -0.3,2 -0.9,2.8 -0.6,0.9 -1.4,1.7 -2.3,2.6 -0.9,0.9 -1.8,1.8 -2.7,2.8 -0.9,1 -1.7,2.1 -2.3,3.3 -0.6,1.2 -0.9,2.5 -0.9,4 v 2.1 h 8 v -1.2 c 0,-1.2 0.4,-2.2 1.1,-3.3 0.8,-1 1.7,-2 2.8,-3.1 1.1,-1 2.3,-2.1 3.4,-3.2 1.1,-1.1 2,-2.3 2.8,-3.6 0.7,-1.3 1.1,-2.7 1.1,-4.2 0,-2.8 -0.7,-5.2 -2.1,-7.2"
   id="path720" />
		<path
   class="st9"
   d="m 424.9,4217.4 c -1.7,0 -3,0.5 -4,1.5 -1,1 -1.5,2.2 -1.5,3.7 0,1.5 0.5,2.7 1.5,3.7 1,1 2.3,1.5 4,1.5 1.7,0 3,-0.5 4,-1.5 1,-1 1.5,-2.2 1.5,-3.7 0,-1.5 -0.5,-2.8 -1.5,-3.7 -1.1,-1 -2.4,-1.5 -4,-1.5 z"
   id="path721" />
	</g>
	<g
   id="g724">
		<circle
   class="st2"
   cx="300.20001"
   cy="4240.8999"
   r="18.700001"
   id="circle721" />
		<g
   id="g723">
			<path
   class="st41"
   d="m 295.2,4237.9 v 15.4 H 306 v -15.4 z m 6.5,2.6 c 0,-0.5 0.4,-0.8 0.8,-0.8 0.5,0 0.8,0.4 0.8,0.8 v 10.1 c 0,0.5 -0.4,0.8 -0.8,0.8 -0.5,0 -0.8,-0.4 -0.8,-0.8 z m -3.9,0 c 0,-0.5 0.4,-0.8 0.8,-0.8 0.5,0 0.8,0.4 0.8,0.8 v 10.1 c 0,0.5 -0.4,0.8 -0.8,0.8 -0.5,0 -0.8,-0.4 -0.8,-0.8 z"
   id="path722" />
			<path
   class="st9"
   d="m 308.7,4230.7 h -16.3 c -0.3,0 -0.6,0.3 -0.6,0.6 v 1.4 c 0,0.3 0.3,0.6 0.6,0.6 h 0.8 v 1.9 c 0,0.3 0.3,0.6 0.6,0.6 h 12.2 1.4 c 0.3,0 0.6,-0.3 0.6,-0.6 v -1.9 h 0.8 c 0.3,0 0.6,-0.3 0.6,-0.6 v -1.4 c -0.1,-0.3 -0.4,-0.6 -0.7,-0.6 z"
   id="path723" />
		</g>
	</g>
	<g
   id="g730">
		<circle
   class="st2"
   cx="393.89999"
   cy="4144.8999"
   r="14.9"
   id="circle724" />
		<g
   id="g729">
			<path
   id="messenger_2_"
   class="st41"
   d="m 385.2,4143.7 c 0,2.5 1.2,4.9 3.3,6.3 l -0.1,5 3.5,-3.4 c 0.8,0.2 1.3,0.3 2.2,0.3 4.9,0 8.8,-3.6 8.8,-8.1 0,-4.5 -3.9,-8.1 -8.8,-8.1 -2.6,0 -4.9,1.1 -6.6,2.7" />
			<g
   id="g728">
				<g
   id="g725">
					<path
   class="st9"
   d="m 398.8,4146.3 h -9 c -0.4,0 -0.7,0.3 -0.7,0.7 0,0.4 0.3,0.7 0.7,0.7 h 9 c 0.4,0 0.7,-0.3 0.7,-0.7 0,-0.4 -0.3,-0.7 -0.7,-0.7 z"
   id="path724" />
				</g>
				<g
   id="g726">
					<path
   class="st9"
   d="m 398.8,4143.2 h -9 c -0.4,0 -0.7,0.3 -0.7,0.7 0,0.4 0.3,0.7 0.7,0.7 h 9 c 0.4,0 0.7,-0.3 0.7,-0.7 0,-0.4 -0.3,-0.7 -0.7,-0.7 z"
   id="path725" />
				</g>
				<g
   id="g727">
					<path
   class="st9"
   d="m 394,4140 h -4.1 c -0.4,0 -0.7,0.3 -0.7,0.7 0,0.4 0.3,0.7 0.7,0.7 h 4.1 c 0.4,0 0.7,-0.3 0.7,-0.7 -0.1,-0.4 -0.4,-0.7 -0.7,-0.7 z"
   id="path726" />
				</g>
			</g>
		</g>
	</g>
	<g
   id="g732">
		<circle
   class="st2"
   cx="359.79999"
   cy="4233"
   r="15.3"
   id="circle730" />
		<g
   id="g731">
			<path
   class="st9"
   d="m 359.9,4230.5 c -1.6,0 -2.9,1.3 -2.9,2.9 0,1.6 1.3,2.9 2.9,2.9 v 0 c 1.6,0 2.8,-1.3 2.9,-2.9 -0.1,-1.6 -1.3,-2.9 -2.9,-2.9 z"
   id="path730" />
			<path
   class="st41"
   d="m 354.8,4227.4 -1.7,-1 c -0.2,-0.1 -0.5,-0.1 -0.6,0.1 -1,1.1 -1.8,2.4 -2.2,3.9 -0.1,0.2 0,0.5 0.2,0.6 l 1.7,1 c -0.2,0.9 -0.2,1.9 0,2.9 l -1.7,1 c -0.2,0.1 -0.3,0.4 -0.2,0.6 0.4,1.4 1.2,2.8 2.2,3.9 0.2,0.2 0.4,0.2 0.6,0.1 l 1.7,-1 c 0.7,0.6 1.6,1.1 2.5,1.4 v 2 c 0,0.2 0.2,0.4 0.4,0.5 1.5,0.3 3,0.3 4.5,0 0.2,0 0.4,-0.3 0.4,-0.5 v -2 c 0.9,-0.3 1.7,-0.8 2.5,-1.4 l 1.7,1 c 0.2,0.1 0.5,0.1 0.6,-0.1 1,-1.1 1.8,-2.4 2.2,-3.9 0.1,-0.2 0,-0.5 -0.2,-0.6 v 0 l -1.7,-1 c 0.2,-0.9 0.2,-1.9 0,-2.9 l 1.7,-1 c 0.2,-0.1 0.3,-0.4 0.2,-0.6 -0.4,-1.4 -1.2,-2.8 -2.2,-3.9 -0.2,-0.2 -0.4,-0.2 -0.6,-0.1 l -1.7,1 c -0.7,-0.6 -1.6,-1.1 -2.5,-1.4 v -2 c 0,-0.2 -0.2,-0.4 -0.4,-0.5 -1.5,-0.3 -3,-0.3 -4.5,0 -0.2,0 -0.4,0.3 -0.4,0.5 v 2 m 2.6,12.4 v 0 c -2.8,0 -5,-2.2 -5,-5 0,-2.8 2.2,-5 5,-5 2.8,0 5,2.2 5,5 0,2.7 -2.2,5 -5,5 z"
   id="path731" />
		</g>
	</g>
	<polygon
   class="st1"
   points="272.9,4182.9 274.2,4167.7 241,4173.4 "
   id="polygon732" />
	<polygon
   class="st1"
   points="288.2,4268.1 279.5,4255.5 257.6,4281.1 "
   id="polygon733" />
	<polygon
   class="st1"
   points="429.8,4280.4 436.7,4264.5 458.2,4291 "
   id="polygon734" />
	<g
   id="g740">
		<g
   id="g735">
			<path
   class="st41"
   d="m 301.3,4173.5 h -8.7 c -1.5,0 -2.7,1.2 -2.8,2.8 v 17.9 l 5.5,-5.5 h 12.4 c 1.5,0 2.7,-1.2 2.8,-2.8 v 0 -9.6 c 0,-1.5 -1.2,-2.7 -2.8,-2.8"
   id="path734" />
			<path
   class="st9"
   d="m 314.6,4179 h -1.4 v 11 c 0,0.8 -0.6,1.4 -1.4,1.4 h -16.5 v 1.4 c 0,1.5 1.2,2.7 2.8,2.8 h 13.8 l 5.5,5.5 v -19.3 c 0,-1.6 -1.3,-2.8 -2.8,-2.8 z"
   id="path735" />
		</g>
		<g
   id="g739">
			<g
   id="g736">
				<path
   class="st9"
   d="m 306.6,4183.6 h -12.5 c -0.4,0 -0.7,0.3 -0.7,0.7 0,0.4 0.3,0.7 0.7,0.7 h 12.5 c 0.4,0 0.7,-0.3 0.7,-0.7 0,-0.4 -0.3,-0.7 -0.7,-0.7 z"
   id="path736" />
			</g>
			<g
   id="g737">
				<path
   class="st9"
   d="m 306.6,4180.3 h -12.5 c -0.4,0 -0.7,0.3 -0.7,0.7 0,0.4 0.3,0.7 0.7,0.7 h 12.5 c 0.4,0 0.7,-0.3 0.7,-0.7 0,-0.4 -0.3,-0.7 -0.7,-0.7 z"
   id="path737" />
			</g>
			<g
   id="g738">
				<path
   class="st9"
   d="m 301.6,4177 h -7.4 c -0.4,0 -0.7,0.3 -0.7,0.7 0,0.4 0.3,0.7 0.7,0.7 h 7.4 c 0.4,0 0.7,-0.3 0.7,-0.7 0,-0.4 -0.3,-0.7 -0.7,-0.7 z"
   id="path738" />
			</g>
		</g>
	</g>
</g>


</svg>
