<?xml version="1.0" encoding="UTF-8" standalone="no"?>
<!-- Generator: Adobe Illustrator 22.0.1, SVG Export Plug-In . SVG Version: 6.00 Build 0)  -->

<svg
   version="1.1"
   id="Layer_1"
   x="0px"
   y="0px"
   viewBox="0 0 358.91803 342.89999"
   xml:space="preserve"
   width="358.91803"
   height="342.89999"
   xmlns="http://www.w3.org/2000/svg"
   xmlns:svg="http://www.w3.org/2000/svg"><defs
   id="defs746" />
<style
   type="text/css"
   id="style1">
	.st0{fill:#EAE2F0;}
	.st1{fill:#E1F4FD;}
	.st2{fill:#FFFFFF;}
	.st3{font-family:'Gantari-Bold';}
	.st4{font-size:30px;}
	.st5{fill:none;}
	.st6{font-family:'Gantari-Regular';}
	.st7{font-size:14px;}
	.st8{font-family:'Gantari-SemiBold';}
	.st9{fill:#782B90;}
	.st10{font-size:24px;}
	.st11{font-size:16px;}
	.st12{font-family:'Gantari-Medium';}
	.st13{font-family:'AlbertSans-MediumItalic';}
	.st14{font-size:16.8941px;}
	.st15{fill:url(#SVGID_1_);}
	.st16{fill:url(#SVGID_2_);}
	.st17{fill:url(#SVGID_3_);}
	.st18{fill:url(#SVGID_4_);}
	.st19{fill:#231F20;}
	.st20{font-family:'Gantari-BoldItalic';}
	.st21{fill:#10101A;}
	.st22{fill:#00AEEF;}
	.st23{font-size:11.4192px;}
	.st24{clip-path:url(#SVGID_6_);fill:#FFFFFF;}
	.st25{clip-path:url(#SVGID_6_);}
	.st26{fill:#020202;}
	.st27{fill:#EAEBF6;}
	.st28{clip-path:url(#SVGID_8_);}
	.st29{fill:#23A9E1;}
	.st30{font-size:18px;}
	.st31{fill:#BCBEC0;}
	.st32{font-size:12px;}
	.st33{font-size:13px;}
	.st34{fill:#FFFFFF;stroke:#000000;stroke-width:0.7148;stroke-miterlimit:10;}
	.st35{fill:#FFFFFF;stroke:#000000;stroke-width:0.6955;stroke-miterlimit:10;}
	.st36{fill:#010101;}
	.st37{fill:#FFFFFF;stroke:#000000;stroke-width:0.9307;stroke-miterlimit:10;}
	.st38{fill-rule:evenodd;clip-rule:evenodd;fill:#FFFFFF;stroke:#000000;stroke-miterlimit:10;}
	.st39{fill-rule:evenodd;clip-rule:evenodd;fill:#782B90;}
	.st40{fill:#FFFFFF;stroke:#000000;stroke-width:0.71;stroke-miterlimit:10;}
	.st41{fill:#FFFFFF;stroke:#000000;stroke-miterlimit:10;}
	.st42{fill:#FFFFFF;stroke:#000000;stroke-width:0.6956;stroke-miterlimit:10;}
	.st43{fill:none;stroke:#000000;stroke-miterlimit:10;}
	.st44{fill:#FFFFFF;stroke:#000000;stroke-width:1.2628;stroke-miterlimit:10;}
	.st45{fill:#FFFFFF;stroke:#000000;stroke-linecap:round;stroke-linejoin:round;stroke-miterlimit:10;}
	.st46{fill:none;stroke:#782B90;stroke-width:2;stroke-miterlimit:10;}
	.st47{fill:#FFFFFF;stroke:#000000;stroke-linejoin:round;stroke-miterlimit:10;}
	.st48{fill:#F7F6FB;}
	.st49{fill:#FFFFFF;stroke:#000000;stroke-width:0.2236;stroke-miterlimit:10;}
	.st50{fill:#FFFFFF;stroke:#000000;stroke-width:0.4473;stroke-miterlimit:10;}
</style>
















































































<g
   id="g634"
   transform="translate(-152.98196,-3027.1)">
	<rect
   x="241.2"
   y="3213.5"
   class="st2"
   width="228.60001"
   height="9.5"
   id="rect540" />
	<circle
   class="st0"
   cx="332.20001"
   cy="3195.8"
   r="121.7"
   id="circle540" />
	<path
   class="st2"
   d="m 381.9,3145.6 c 0,-25.9 -21,-46.9 -46.9,-46.9 -25.9,0 -46.9,21 -46.9,46.9 0,23.5 17.3,43 39.9,46.4 l 3.4,12.6 5.8,-12.1 c 24.9,-1.2 44.7,-21.7 44.7,-46.9 z"
   id="path541" />
	<path
   class="st2"
   d="m 267.3,3140 c -22.3,0 -40.4,18.1 -40.4,40.4 0,19.4 13.6,35.5 31.8,39.4 l 2.7,9.9 4.3,-9 c 0.5,0 1.1,0 1.6,0 22.3,0 40.4,-18.1 40.4,-40.4 -0.1,-22.2 -18.1,-40.3 -40.4,-40.3 z"
   id="path542" />
	<path
   class="st2"
   d="m 431,3181.7 c 0,-17.7 -14.4,-32.1 -32.1,-32.1 -17.7,0 -32.1,14.4 -32.1,32.1 0,17.7 14.4,32.1 32.1,32.1 0.2,0 0.3,0 0.5,0 l 1.7,6.2 3.2,-6.7 c 15.2,-2.5 26.7,-15.7 26.7,-31.6 z"
   id="path543" />
	<g
   id="g588">
		<g
   id="g587">
			<path
   class="st2"
   d="m 346.8,3270.7 c 0,0 -6.8,-1.3 -7.1,-2 -0.3,-0.7 -0.2,-7.7 -0.2,-7.7 l 4.2,-7.8 c 0,0 6,-1.7 3.2,-6.1 -2.8,-4.4 -9.5,-13.5 -9.5,-13.5 l -19.1,10.2 -0.3,3.5 c 0,0 -2.2,3 -0.7,4.4 1.5,1.4 3.1,1.8 3.1,1.8 l 4.3,7.6 c 0,0 0.7,6.6 -0.5,7 -1.2,0.4 -3.9,0.9 -3.9,0.9 l 5.3,13.6 7.3,2.6 8,-7 z"
   id="path544" />
			<path
   class="st21"
   d="m 344.1,3248.1 c 0.4,0 0.9,-0.1 1.2,0.2 0.3,0.2 0.3,0.3 0.4,0.6 l -0.1,0.1 -0.2,-0.1 c 0,0 -0.1,0 -0.1,0 0,0 -0.1,0 -0.1,-0.1 -0.5,-0.2 -0.9,0.1 -1.4,-0.1 0,-0.3 0.1,-0.4 0.3,-0.6 z"
   id="path545" />
			<path
   class="st21"
   d="m 318.5,3248.4 c 0.2,0 0.5,0.1 0.6,0.2 0.5,0.3 0.8,1.2 0.9,1.8 0.1,0.4 0.1,0.5 -0.2,0.9 -0.4,-0.6 -0.4,-1.2 -0.7,-1.8 -0.2,-0.4 -0.6,-0.4 -0.9,-0.7 z"
   id="path546" />
			<path
   class="st21"
   d="m 331.4,3249.6 0.3,0.1 c 0.4,0.5 0.3,2.4 0.3,3.1 0.5,0.3 0.6,0.4 0.7,0.9 -0.1,0 -0.2,0 -0.3,0 -0.2,0 -0.5,-0.1 -0.6,-0.3"
   id="path547" />
			<path
   class="st21"
   d="m 336.7,3247.7 c 0.3,0 0.6,0 0.8,0.2 0.2,0.2 0.4,0.4 0.4,0.7 0,0.5 -0.2,0.7 -0.5,1 -0.2,0 -0.4,-0.1 -0.6,-0.2 -0.2,-0.1 -0.4,-0.4 -0.5,-0.6 -0.1,-0.4 0.1,-0.7 0.4,-1.1 z"
   id="path548" />
			<path
   class="st21"
   d="m 336.2,3243.5 c 0.5,0 0.9,0 1.3,0.1 0.7,0.1 1.7,0.5 2.1,1.2 0.1,0.2 0.1,0.1 0,0.4 -0.3,0 -0.4,-0.2 -0.7,-0.4 -2,-1.2 -3.5,-0.2 -4,-0.5 v -0.2 c 0.4,-0.5 0.8,-0.5 1.3,-0.6 z"
   id="path549" />
			<path
   class="st21"
   d="m 326,3247.6 c 0.3,0 0.5,0.1 0.8,0.2 0.2,0.2 0.4,0.4 0.4,0.7 0,0.5 -0.2,0.8 -0.5,1.1 -0.3,0 -0.6,0.1 -0.9,-0.2 -0.2,-0.2 -0.3,-0.4 -0.3,-0.7 -0.1,-0.4 0.2,-0.7 0.5,-1.1 z"
   id="path550" />
			<path
   class="st21"
   d="m 325.1,3243.8 c 0.7,0 1.4,-0.1 2.1,0 0.5,0.1 1,0.3 1.3,0.7 l -0.1,0.2 c -0.4,0.1 -0.8,-0.1 -1.2,-0.3 -0.5,0 -0.9,-0.1 -1.4,-0.1 -0.6,0 -1.8,0.5 -2.2,0.3 0,-0.2 -0.1,-0.2 0,-0.3 0.3,-0.4 1.1,-0.4 1.5,-0.5 z"
   id="path551" />
			<path
   class="st21"
   d="m 327.7,3255.9 c 1.5,0 7.8,0.2 8.9,0.7 l 0.1,0.2 c -0.3,0.8 -0.9,1.5 -1.5,2.1 -0.6,0.6 -1.2,1.1 -2.1,1.3 -1,0.3 -2.1,0 -3,-0.5 -1.5,-0.9 -2.1,-2.2 -2.4,-3.8 z"
   id="path552" />
			<path
   class="st48"
   d="m 328.4,3256.4 c 2.5,0 5.1,0.3 7.6,0.4 -0.4,0.7 -0.8,1.2 -1.3,1.8 -0.4,0.4 -0.8,0.7 -1.4,0.9 -0.9,0.3 -1.8,0.3 -2.7,-0.1 -1.2,-0.6 -1.8,-1.7 -2.2,-3 z"
   id="path553" />
			<path
   class="st21"
   d="m 222.6,3340.3 c 0.2,0.1 0.2,0.3 0.3,0.5 0.3,1.1 0.5,2.3 0.8,3.4 1.2,4.2 3.5,7.8 7.4,10 0.4,0.2 0.8,0.4 1.1,0.6 0.4,0.2 0.8,0.3 1.2,0.5 0.4,0.1 0.8,0.3 1.2,0.4 0.4,0.1 0.8,0.2 1.3,0.3 0.7,0.1 3.3,0.1 3.7,0.4 v 0.1 c -1.3,0.4 -2.7,1.3 -4,1.9 -2,1 -4.1,2 -6.1,3 l 203.6,0.1 c -3.5,-1.6 -7,-3.3 -10.6,-4.9 -1.2,-0.5 -2.5,-1.3 -3.8,-1.6 -0.1,-0.1 -0.1,-0.3 -0.1,-0.4 l 0.1,-0.1 c 0.3,0 0.6,0.1 0.9,0.2 1.6,0.9 3.3,1.5 5,2.3 2.1,0.9 4.1,2 6.2,2.9 1.1,0.5 2.7,1 3.7,1.8 v 0.2 c -0.1,0.1 -0.2,0.1 -0.4,0.2 -2.3,0.2 -4.7,0 -7,0 h -13.3 -48 -98.2 L 240.1,3362 H 232 c -1,0 -2.3,0.1 -3.3,0 -0.2,0 -0.2,-0.1 -0.3,-0.1 l -0.1,-0.2 c 0.2,-0.5 0.9,-0.7 1.4,-1 -1.4,-0.3 -5.6,-0.1 -7.3,-0.1 -0.8,-5.5 -0.8,-13.7 0,-19.2 z"
   id="path554" />
			<path
   class="st22"
   d="m 222.6,3360.4 c -0.8,-5.5 -0.8,-13.7 0,-19.2 0,0 0,0.1 0,0.1 0.4,1 0.5,2.6 0.8,3.7 1.3,4.6 4.3,8.4 8.7,10.4 1.8,0.8 3.8,1.1 5.8,1.3 -2.2,1 -5.8,3.3 -8,3.9 -1.4,-0.4 -5.6,-0.2 -7.3,-0.2 z"
   id="path555" />
			<path
   class="st21"
   d="m 328.1,3224.2 c 0.7,0 1.4,0 2.1,0.1 3.2,0.3 5.6,1.5 7.7,3.9 0.8,-0.2 1.6,-0.3 2.4,-0.3 5.4,0.1 6.9,4.6 9.3,8.5 0.6,1 1.4,1.9 2.3,2.8 -0.8,0.3 -1.5,0.7 -2.2,1.2 -1.8,1.5 -2.3,3.9 -2.6,6.1 0.4,0.6 0.7,1.1 0.8,1.8 0.1,1.3 -0.5,2.5 -1.3,3.5 -0.8,0.9 -1.7,1.4 -2.9,1.4 -0.4,1.5 -0.9,3.1 -1.7,4.5 -0.6,1.1 -1.5,2 -1.8,3.2 -0.6,2.3 -0.7,4.8 -0.7,7.1 0,0.8 0.1,1.9 0,2.7 0,0.2 -0.1,0.2 -0.2,0.3 l -0.1,-0.1 c -0.6,-2.6 0.1,-7.2 0.5,-9.9 -1.3,1.4 -2.8,2.6 -4.5,3.5 -1.2,0.6 -2.3,0.9 -3.6,0.5 -0.8,-0.3 -2.5,-1.2 -2.8,-2.1 -0.1,-0.2 -0.1,-0.1 0,-0.3 0.5,-0.2 1.4,1 1.9,1.3 0.5,0.3 1,0.6 1.6,0.7 1.2,0.3 2.4,-0.4 3.4,-1 4.2,-2.7 6.7,-6.2 7.7,-11.1 0.5,0 1,0 1.5,-0.1 0.9,-0.2 1.5,-1 1.9,-1.7 0.5,-0.9 0.8,-2 0.5,-3.1 -0.2,-0.6 -0.6,-1.1 -1.2,-1.3 -0.6,-0.3 -1.4,-0.2 -2,0 -0.2,0.1 -0.3,0.1 -0.5,0.2 v -0.2 c 0.1,-1.1 -0.1,-2 -0.5,-3 -0.5,-0.2 -1.1,-0.5 -1.5,-0.8 -2.4,-1.6 -3.9,-4 -4.5,-6.7 -0.8,1.5 -1.7,2.8 -3,3.9 -3.6,3.1 -8.3,3.8 -12.9,3.5 0.1,0.5 0.3,1 0.4,1.4 0.2,0.9 -0.2,1.5 -0.6,2.2 -0.2,0 -0.4,-0.1 -0.7,-0.1 -0.8,-0.1 -1.5,0.1 -2.1,0.6 -0.5,0.4 -0.9,1.1 -0.9,1.8 -0.1,1 0.3,1.9 0.9,2.6 0.8,0.9 1.6,1.1 2.7,1.2 0.9,1.4 1.5,2.9 2.3,4.4 0.7,1.2 1.5,2.4 2,3.6 0.3,0.7 0.3,8 0,8.7 l -0.2,0.1 -0.2,-0.1 c -0.2,-0.8 0,-7 0,-8.5 -1.6,-2.5 -2.9,-5 -4.3,-7.6 -0.1,0 -0.3,0 -0.4,0 -1,-0.1 -2.1,-0.9 -2.7,-1.8 -0.6,-0.8 -1,-1.9 -0.8,-2.9 0.2,-0.9 0.7,-1.5 1.4,-2 -1.6,-2.3 -2.4,-4.9 -3.8,-7.3 -0.9,-0.3 -1.6,-0.7 -2.3,-1.3 2.2,-2.8 3,-5.7 5.3,-8.3 2.7,-3.4 6.5,-5.4 10.9,-5.7 z"
   id="path556" />
			<path
   class="st21"
   d="m 236.2,3282.5 c 1.8,-6.1 2.8,-13 3.1,-19.3 0.1,-1.9 0.1,-3.9 0,-5.8 -0.3,-5.8 -0.8,-11.5 3.3,-16.3 0.3,-0.4 0.7,-0.7 1,-1.1 0.4,-0.4 0.7,-0.7 1.1,-1 0.4,-0.3 0.8,-0.6 1.2,-0.9 0.4,-0.3 0.9,-0.5 1.3,-0.8 5.2,-2.8 12,-3.4 17.7,-1.7 3.3,1 6.6,3.2 8.2,6.3 0.9,1.6 1.3,3.6 0.7,5.4 -0.3,1 -0.8,1.9 -1.4,2.8 0.5,2.6 1.1,5.4 2,7.9 0.2,0.5 1.7,2.3 1.5,2.6 -0.2,0.5 -1.2,0.9 -1.7,1.1 -0.4,3 -1,9 -3.5,10.9 -0.8,0.6 -1.7,0.9 -2.7,1 0.5,3.4 0.9,6.5 0.7,9.9 -0.1,0.1 0,0 -0.2,0 -1.4,-1.8 -3.3,-3.5 -5.4,-4.4 -0.3,1.1 -0.6,2.2 -0.7,3.2 -0.5,2.7 -0.6,6.7 -2.1,9.1 -0.5,0.8 -1.3,1.5 -2.3,1.7 -1.5,0.3 -3,-0.4 -4.2,-1.2 -3.6,-2.4 -5.8,-6.4 -7.7,-10.2 -0.5,-1 -1.2,-2.1 -1.4,-3.2 -2.2,0.4 -4.5,1.6 -6.4,2.7 -0.7,0.5 -1.4,1.1 -2.1,1.3 z"
   id="path557" />
			<path
   class="st48"
   d="m 273.1,3265.2 0.2,0.1 c 0,0.4 -0.2,0.8 -0.3,1.2 -0.4,0.2 -0.9,0.4 -1.3,0.5 -1.2,0.4 -2.2,0.2 -3.3,-0.4 -0.4,-0.3 -0.7,-0.7 -1,-1 1.9,0.1 3.7,0.2 5.7,-0.4 z"
   id="path558" />
			<path
   class="st2"
   d="m 266,3242.9 c 2.2,1 4.4,2.3 5.3,4.7 0.6,1.5 0.7,3.1 1,4.6 0.3,1.7 0.7,3.4 1.2,5 0.4,1.1 1.5,2.2 1.7,3.3 -0.2,0.3 -0.5,0.4 -0.9,0.6 -0.1,0 -0.4,0.1 -0.4,0.2 -0.5,0.5 -0.5,2.6 -0.6,3.3 -1.5,0.5 -3.1,0.8 -4.7,0.6 -0.6,-0.1 -1.2,-0.2 -1.8,-0.2 -0.3,0 -0.3,0 -0.4,0.2 0.1,0.7 0.8,1.2 1.2,1.7 0.9,0.7 2.1,1 3.2,0.9 0.7,-0.1 1.3,-0.3 1.9,-0.5 -0.5,1.9 -1,4.3 -2.9,5.3 -1.5,0.8 -3.1,0.5 -4.7,0.5 -1,1.9 -1.7,4 -2.1,6.2 -0.3,1.1 -0.6,2.2 -0.7,3.2 -0.5,2.7 -0.6,6.7 -2.1,9.1 -0.5,0.8 -1.3,1.5 -2.3,1.7 -1.5,0.3 -3,-0.4 -4.2,-1.2 -3.6,-2.4 -5.8,-6.4 -7.7,-10.2 -0.5,-1 -1.2,-2.1 -1.4,-3.2 1,-0.8 1.9,-1.5 2.6,-2.5 2.2,-2.8 4.5,-8.4 4.9,-12 v -0.1 c 0.8,-0.1 2,-0.2 2.6,-0.8 0.1,-0.2 0.1,-0.2 0.1,-0.4 l -0.2,-0.1 c -1.2,0.5 -1.8,1.1 -3.2,0.5 -1.2,-0.5 -2.3,-1.7 -2.8,-3 -0.3,-1 -0.3,-2 0.1,-2.9 0.4,-0.7 1.1,-1.2 1.8,-1.5 1,-0.3 1.9,0 2.8,0.4 l 0.1,-0.1 c 1.3,-0.8 2.7,-1.3 4.1,-2 3.9,-2.1 6.9,-5.1 8,-9.5 0.3,-0.7 0.4,-1.2 0.5,-1.8 z"
   id="path559" />
			<path
   class="st21"
   d="m 251,3257.8 c 0.4,0 0.8,0.1 1.1,0.4 0.6,0.5 0.8,1.1 0.9,1.8 -0.2,0 -0.3,0 -0.5,-0.1 -0.3,-0.3 -0.4,-0.8 -0.5,-1.2 -0.3,-0.3 -0.7,-0.5 -1,-0.9 z"
   id="path560" />
			<path
   class="st21"
   d="m 267.8,3256.6 c 0.2,0 0.4,0 0.6,0.1 0.2,0.1 0.5,0.3 0.5,0.6 0.1,0.4 0,0.8 -0.3,1.1 -0.2,0 -0.5,0 -0.7,-0.1 -0.2,-0.1 -0.4,-0.3 -0.5,-0.6 -0.1,-0.3 0.1,-0.7 0.4,-1.1 z"
   id="path561" />
			<path
   class="st21"
   d="m 267.8,3252.3 c 0.2,0 0.5,0 0.7,0 0.3,0 0.4,0.1 0.6,0.4 -0.2,0.4 -2,0.2 -2.5,0.3 -0.6,0.2 -1.1,0.5 -1.5,0.8 -0.3,0.2 -0.5,0.5 -0.8,0.5 l -0.1,-0.1 c 0,-0.2 0.1,-0.3 0.2,-0.4 0.7,-1.1 2.1,-1.4 3.4,-1.5 z"
   id="path562" />
			<path
   class="st21"
   d="m 384.7,3264.4 c -0.7,-0.4 -1.9,-0.9 -2.3,-1.6 0,0 0,-0.1 0,-0.1 -0.1,-0.4 1,-2.7 1.2,-3.2 0.4,-1.1 0.8,-2.4 0.8,-3.6 0.1,-1.2 -0.8,-2.7 -1.2,-3.8 -1.6,-4.8 -1.1,-10.4 1.3,-14.8 0.1,-0.2 0.2,-0.3 0.3,-0.5 0.1,-0.2 0.2,-0.3 0.3,-0.5 0.1,-0.2 0.2,-0.3 0.3,-0.5 0.1,-0.1 0.2,-0.3 0.3,-0.4 0.1,-0.1 0.2,-0.3 0.3,-0.4 0.1,-0.1 0.2,-0.3 0.3,-0.4 0.1,-0.1 0.2,-0.3 0.3,-0.4 0.1,-0.1 0.2,-0.3 0.3,-0.4 0.1,-0.1 0.2,-0.3 0.3,-0.4 0.1,-0.1 0.2,-0.3 0.4,-0.4 0.1,-0.1 0.2,-0.3 0.4,-0.4 0.1,-0.1 0.3,-0.3 0.4,-0.4 0.1,-0.1 0.3,-0.2 0.4,-0.4 0.1,-0.1 0.3,-0.2 0.4,-0.4 0.1,-0.1 0.3,-0.2 0.4,-0.3 0.1,-0.1 0.3,-0.2 0.4,-0.3 0.1,-0.1 0.3,-0.2 0.4,-0.3 0.1,-0.1 0.3,-0.2 0.4,-0.3 0.1,-0.1 0.3,-0.2 0.4,-0.3 0.1,-0.1 0.3,-0.2 0.4,-0.3 0.1,-0.1 0.3,-0.2 0.5,-0.3 0.2,-0.1 0.3,-0.2 0.5,-0.3 0.2,-0.1 0.3,-0.2 0.5,-0.3 0.2,-0.1 0.3,-0.2 0.5,-0.3 0.2,-0.1 0.3,-0.2 0.5,-0.2 0.2,0 0.3,-0.2 0.5,-0.2 0.2,-0.1 0.3,-0.1 0.5,-0.2 0.2,-0.1 0.3,-0.1 0.5,-0.2 0.2,-0.1 0.3,-0.1 0.5,-0.2 0.2,-0.1 0.3,-0.1 0.5,-0.2 0.2,-0.1 0.3,-0.1 0.5,-0.2 0.2,-0.1 0.3,-0.1 0.5,-0.2 0.2,-0.1 0.4,-0.1 0.5,-0.1 0.2,0 0.4,-0.1 0.5,-0.1 0.1,0 0.4,-0.1 0.6,-0.1 0.2,0 0.4,-0.1 0.6,-0.1 0.2,0 0.4,-0.1 0.6,-0.1 0.2,0 0.4,-0.1 0.6,-0.1 0.2,0 0.4,0 0.6,-0.1 0.2,0 0.4,0 0.6,0 0.2,0 0.4,0 0.6,0 0.2,0 0.4,0 0.6,0 0.2,0 0.4,0 0.6,0 0.2,0 0.4,0 0.6,0 0.2,0 0.4,0 0.6,0 0.2,0 0.4,0 0.6,0 0.2,0 0.4,0 0.6,0 0.2,0 0.4,0 0.6,0.1 0.2,0 0.4,0 0.6,0.1 0.2,0 0.4,0.1 0.6,0.1 0.2,0 0.4,0.1 0.6,0.1 0.2,0 0.4,0.1 0.6,0.1 0.2,0 0.4,0.1 0.5,0.1 0.2,0 0.4,0.1 0.5,0.1 0.2,0.1 0.4,0.1 0.5,0.2 0.2,0.1 0.4,0.1 0.5,0.2 0.2,0.1 0.4,0.1 0.5,0.2 0.2,0.1 0.4,0.1 0.5,0.2 0.2,0.1 0.4,0.1 0.5,0.2 0.2,0.1 0.3,0.1 0.5,0.2 0.2,0.1 0.3,0.2 0.5,0.2 0.2,0.1 0.3,0.2 0.5,0.3 0.2,0.1 0.3,0.2 0.5,0.3 0.2,0.1 0.3,0.2 0.5,0.3 4.9,2.8 8.9,7.5 10.4,12.9 0,0.2 0.1,0.4 0.1,0.5 0,0.2 0.1,0.4 0.1,0.5 0,0.2 0.1,0.4 0.1,0.5 0,0.2 0.1,0.4 0.1,0.5 0,0.2 0.1,0.4 0.1,0.5 0,0.2 0,0.4 0.1,0.6 0,0.2 0,0.4 0.1,0.6 0,0.2 0,0.4 0,0.6 0,0.2 0,0.4 0,0.6 0,0.2 0,0.4 0,0.6 0,0.2 0,0.4 0,0.6 0,0.2 0,0.4 0,0.6 0,0.2 0,0.4 0,0.6 0,0.2 0,0.4 0,0.6 0,0.2 0,0.4 -0.1,0.6 0,0.2 0,0.4 -0.1,0.6 0,0.2 -0.1,0.4 -0.1,0.5 0,0.2 -0.1,0.4 -0.1,0.5 0,0.2 -0.1,0.4 -0.1,0.5 0,0.2 -0.1,0.4 -0.1,0.5 0,0.2 -0.1,0.4 -0.1,0.5 0,0.1 -0.1,0.4 -0.2,0.5 -0.1,0.2 -0.1,0.4 -0.2,0.5 -0.1,0.2 -0.1,0.4 -0.2,0.5 -0.1,0.1 -0.1,0.3 -0.2,0.5 -0.1,0.2 -0.1,0.3 -0.2,0.5 -0.1,0.2 -0.1,0.3 -0.2,0.5 -0.1,0.2 -0.1,0.3 -0.2,0.5 -0.1,0.2 -0.2,0.3 -0.2,0.5 -0.1,0.2 -0.2,0.3 -0.3,0.5 -0.1,0.2 -0.2,0.3 -0.3,0.5 -0.1,0.2 -0.2,0.3 -0.3,0.5 -2.2,3.8 -6.2,7.4 -10.5,8.5 -1.1,0.3 -2.1,0.4 -3.2,0.4 0.6,2.9 2.5,9.4 4.9,11 0.9,0.6 2,0.9 2.9,1.3 1.2,0.5 2.3,1.2 3.4,1.8 6.7,4.1 11.4,11.5 13.3,19 1.1,4.5 1.6,9.3 1.4,13.9 -0.1,2.4 -0.5,4.8 -0.7,7.2 l -1,10.9 c -1,0.3 -2.1,0.5 -3.2,0.7 -1.1,5.9 -3.7,13.2 -7.5,17.8 -0.9,1.1 -2,2 -3.1,2.9 -0.3,-0.1 -0.6,-0.3 -0.9,-0.2 l -0.1,0.1 c 0,0.1 0.1,0.3 0.1,0.4 1.3,0.3 2.6,1 3.8,1.6 3.6,1.6 7,3.3 10.6,4.9 l -203.6,-0.1 c 2,-1 4.1,-2 6.1,-3 1.3,-0.6 2.6,-1.5 4,-1.9 v -0.1 c -0.4,-0.3 -3,-0.3 -3.7,-0.4 -0.4,-0.1 -0.8,-0.1 -1.3,-0.3 -0.4,-0.1 -0.8,-0.2 -1.2,-0.4 -0.4,-0.1 -0.8,-0.3 -1.2,-0.5 -0.4,-0.2 -0.8,-0.4 -1.1,-0.6 -3.8,-2.2 -6.2,-5.8 -7.4,-10 -0.3,-1.1 -0.5,-2.3 -0.8,-3.4 -0.1,-0.3 -0.1,-0.4 -0.3,-0.5 0.2,-1 -0.3,-3.5 -0.4,-4.7 -0.1,-1.6 -0.2,-3.2 -0.2,-4.7 0,-13.2 3.2,-33.3 10.8,-44.3 1,-1.5 2.2,-2.8 3.4,-4 0.7,-0.2 1.4,-0.9 2,-1.2 1.9,-1.1 4.2,-2.3 6.4,-2.7 0.2,1.1 0.9,2.2 1.4,3.2 1.9,3.7 4.1,7.8 7.7,10.2 1.2,0.8 2.7,1.5 4.2,1.2 1,-0.2 1.8,-0.9 2.3,-1.7 1.5,-2.3 1.6,-6.4 2.1,-9.1 0.2,-1.1 0.5,-2.2 0.7,-3.2 2.1,0.9 4,2.7 5.4,4.4 0.2,0 0.1,0 0.2,0 l 0.1,0.2 c 0.6,1.3 1.6,2.4 2.2,3.6 2.3,4.8 3.8,10.1 4.9,15.3 0.7,3.4 1.2,6.9 1.9,10.3 0.2,1.1 0.3,2.5 0.8,3.6 3.5,-5.2 7.4,-10.4 12,-14.7 1.5,-1.4 3.3,-2.5 4.7,-3.9 0,0 0.1,-0.1 0.1,-0.1 3.6,-8.7 8.5,-19.5 16.4,-25.1 1.5,-1.1 3.2,-1.9 5,-2.6 1.4,-0.6 2.8,-1 4.2,-1.5 1.5,3.3 6.8,12.8 10,14.1 0.7,0.3 1.5,0.3 2.2,0 2.7,-1.2 8.6,-10.4 9.9,-13.3 9.6,2.3 15.8,9 20.8,17.2 3.9,6.4 7,13.3 9.5,20.4 1.1,2.9 2.1,5.9 2.7,9 0.4,2 0.7,4 0.9,6.1 0.1,1.1 0.1,2.4 0.2,3.5 0.5,-0.7 0.9,-1.3 1.4,-1.9 0.6,-0.7 1.2,-1.5 1.7,-2.3 -0.8,-0.5 -1.6,-0.9 -2.4,-1.5 4.3,-12.3 10.2,-27.4 18.1,-37.7 -0.3,-2.4 -0.6,-4.8 -1,-7.2 -1.6,0.6 -3.7,1.3 -5.4,0.5 -2,-0.9 -3.6,-4.6 -4.3,-6.7 -0.7,-1.5 -0.8,-2.9 -0.9,-4.4 z"
   id="path563" />
			<path
   class="st48"
   d="m 307,3344.9 c 1.1,0.5 1.6,1.3 2.9,1.5 0,0.6 0,1.7 -0.3,2.2 -0.3,-0.4 -0.6,-0.9 -0.8,-1.4 l 0.2,-0.2 -0.1,-0.1 c -0.2,0.1 -0.1,0 -0.3,0.1 -0.7,-0.6 -1.1,-1.4 -1.6,-2.1 z"
   id="path564" />
			<path
   class="st48"
   d="m 291,3331.9 c 0.2,0.3 0.5,0.7 0.9,0.8 1.1,0.4 3.1,-0.9 4.1,-1.4 0,0 0,0.1 0,0.1 0.1,0.7 0.7,1 0.9,1.6 0,0 -0.1,0.1 -0.1,0.1 -0.1,0 -5.7,0 -6.4,0.1 0.2,-0.4 0.4,-0.9 0.6,-1.3 z"
   id="path565" />
			<path
   class="st48"
   d="m 390.6,3267.3 c 0.3,0 0.3,0 0.5,0.2 0,0.3 0,0.4 -0.2,0.7 -0.7,0.9 -2.1,2.1 -3.3,2.2 -0.4,0 -0.7,0.1 -0.9,-0.2 -0.4,-0.6 -0.9,-1.6 -0.7,-2.3 0.1,0.1 0.1,0.1 0.2,0.1 1.2,0.6 3.3,-0.2 4.4,-0.7 z"
   id="path566" />
			<path
   class="st48"
   d="m 298.8,3328.7 c 2.3,-0.1 4.6,0 6.9,0.1 1.6,0 3.3,-0.1 4.8,0.1 0.3,0 0.6,0.1 0.9,0.3 0.4,0.3 0.6,0.8 0.7,1.3 0.1,0.4 0.1,1 -0.2,1.3 -0.4,0.4 -1.4,0.2 -1.9,0.2 h -8.7 c -1.5,0 -3.1,0.1 -4.6,-0.1 -0.2,-0.2 -0.2,-0.2 -0.3,-0.4 -0.2,-0.5 0,-1.8 0.3,-2.3 0.5,-0.6 1.5,-0.5 2.1,-0.5 z"
   id="path567" />
			<path
   class="st48"
   d="m 324.4,3315.7 c 2.3,-0.1 4.7,0 7.1,0 2.4,0 4.9,-0.2 7.3,0 0.5,0 1.4,0.1 1.7,0.6 0.2,0.4 0.1,1.9 -0.1,2.3 -0.1,0.2 -0.1,0.2 -0.3,0.3 -1.9,0.2 -4,0.1 -5.9,0.1 -3.4,0 -6.7,0.1 -10.1,-0.1 0,-0.2 -0.1,-0.4 -0.1,-0.7 -0.1,-0.7 -0.3,-1.7 0.4,-2.5 z"
   id="path568" />
			<path
   class="st48"
   d="m 354.5,3329.1 c 2.5,-0.2 5.2,0 7.7,0 2.1,0 6.1,-0.2 8,0.1 0.2,0.2 0.3,0.3 0.3,0.5 0.2,0.7 0.3,2.3 -0.1,3 -0.1,0.2 -0.3,0.1 -0.5,0.2 -3,0 -6,-0.1 -9,-0.1 -2,0 -4.1,0.1 -6.1,0 -0.4,0 -0.6,0 -0.9,-0.2 -0.3,-0.7 -0.3,-1.7 -0.1,-2.5 0.1,-0.6 0.3,-0.8 0.7,-1 z"
   id="path569" />
			<path
   class="st48"
   d="m 354.8,3333.2 c 5,0 9.9,0 14.9,0.1 -0.1,1.7 -0.4,3.5 -0.6,5.2 -0.1,0.2 -0.1,0.2 -0.3,0.3 -1.3,0 -2.6,-0.5 -3.9,-0.7 -3.2,-0.5 -6.6,-0.5 -9.7,-2 -0.1,-0.7 -0.6,-2.2 -0.4,-2.9 z"
   id="path570" />
			<path
   class="st48"
   d="m 297.3,3332.5 c 4.7,0 9.4,0 14.1,0 -0.3,3.3 -0.8,6.6 -1.2,9.9 l -0.1,1.3 c -0.1,-0.2 -0.2,-0.4 -0.4,-0.6 -1.9,-2.9 -5.4,-5.1 -8.6,-6.2 -1.1,-0.4 -2.3,-0.5 -3.5,-0.8 -0.2,-1.2 -0.1,-2.4 -0.3,-3.6 z"
   id="path571" />
			<path
   class="st9"
   d="m 298.1,3316 c 5.3,1.5 11.8,4.6 16.5,7.3 -2.7,1.5 -5.2,2.9 -7.5,4.9 -1.8,0 -9.4,-0.5 -10.4,0.4 -0.7,0.7 -0.6,1.8 -0.7,2.6 -1,0.5 -3,1.8 -4.1,1.4 -0.4,-0.1 -0.7,-0.5 -0.9,-0.8 0.4,-1.4 1.9,-4.3 2.5,-5.8 1.6,-3.2 2.9,-6.7 4.6,-10 z"
   id="path572" />
			<path
   class="st2"
   d="m 380.4,3321.3 c 1.3,0.7 2.6,1.5 4,2 -0.7,5.6 -0.7,11.7 0,17.2 l -5.2,0.8 c -1.1,0.2 -2.2,0.4 -3.3,0.4 -0.4,0 -0.8,-0.1 -1.2,-0.3 -0.4,-0.3 -0.8,-1 -1.1,-1.4 -1,-1.3 -2.3,-2.3 -3.8,-3 0.1,-1.2 0.2,-2.4 0.4,-3.7 1.8,-0.8 7.9,-7.3 8.6,-9.2 0,-0.1 0,-0.2 0,-0.3 l -0.2,-0.3 c 0.7,-0.6 1.2,-1.5 1.8,-2.2 z"
   id="path573" />
			<path
   class="st48"
   d="m 336.8,3319.6 h 2.6 c -0.2,1.3 -0.4,2.6 -0.6,3.9 -2.3,0.2 -5,0.7 -7,1.8 -0.6,0.3 -1.3,0.8 -1.5,1.6 -0.1,0.4 0,0.9 0.2,1.3 0.4,0.5 1,0.6 1.6,0.7 -1.4,0.8 -4.1,2.2 -4.9,3.6 -1.7,-0.7 -6.5,-3.2 -7.8,-3.3 v 0.1 c 0.8,1.2 7.6,3.3 8.4,4.2 0.5,0.5 1,0.6 1.7,0.9 0,0.2 -0.1,0.3 -0.1,0.5 -0.1,0.4 -0.2,0.9 -0.7,1.1 -0.2,0.1 -0.6,0.2 -0.9,0.1 -0.7,-0.2 -1.5,-0.8 -2.1,-1.1 -1.4,-0.8 -4.9,-2.7 -6.3,-3.1 -0.2,-0.1 -0.3,-0.1 -0.5,0 0.3,0.8 4.3,2.6 5.2,3.2 0.6,0.4 1.1,0.9 1.6,1.4 0,0.4 0.1,0.8 0,1.2 0,0.1 -0.1,0.3 -0.2,0.4 -0.1,0.1 -0.2,0.1 -0.4,0.1 -1.1,0 -4.1,-2.1 -5.3,-2.6 -1,-0.4 -2.1,-0.4 -3.2,-0.6 -0.7,-0.1 -1.3,-0.4 -2,-0.6 -0.8,-0.3 -1.7,-0.4 -2.5,-0.6 -0.2,-0.2 -0.2,-0.2 -0.2,-0.5 0,-0.5 0.1,-0.6 0.4,-0.9 0.4,-0.4 0.5,-1.1 0.5,-1.7 0,-0.6 -0.2,-1.1 -0.6,-1.5 -1,-1 -2.9,-0.7 -4.2,-0.7 0.9,-0.8 1.9,-1.6 3,-2.3 1.1,-0.7 5.5,-3.3 6.6,-3.4 0.6,-0.1 1.3,0.1 1.9,0.3 1.3,0.4 8.3,3.9 9.2,4.7 0.3,0.2 0.4,0.5 0.4,0.9 0,0.4 -0.1,0.9 -0.4,1.2 -0.7,0.7 -6.8,-3.5 -8.4,-3.6 -0.1,0 -0.1,0 -0.3,0.1 0.1,0.2 0.2,0.3 0.4,0.4 1.1,0.6 2.4,1.1 3.5,1.6 1.6,0.8 3.2,1.7 4.9,2.3 0.4,-0.8 1,-1.7 0.6,-2.6 -0.4,-1.2 -2.4,-1.9 -3.5,-2.5 -0.5,-1.9 -0.7,-3.9 -1,-5.9 4,-0.2 8,-0.1 11.9,-0.1 z"
   id="path574" />
			<path
   class="st2"
   d="m 385.5,3248.1 c 1.3,0 2.7,-0.1 4,0.1 4.3,0.6 6.9,3.3 8.5,7.1 0.5,1.2 0.9,2.6 2.1,3.5 2,1.5 3.3,-1.9 5.2,-2.1 0.5,-0.1 1,0.2 1.4,0.5 0.7,0.6 1.1,1.6 1.1,2.6 0,1.3 -0.5,3 -1.4,4 -0.7,0.8 -1.3,0.7 -2.3,0.7 1.4,1.5 3,2.7 4.9,3.4 0.4,3.4 2.1,8.4 4.4,10.9 0.5,0.5 1,1.1 1.7,1.1 -1.1,2.7 -4,6.3 -6.3,8 -0.9,0.7 -1.9,1.2 -3,1.7 -2.2,0.9 -5.1,1.4 -7.4,0.5 -1.1,-0.5 -1.9,-1.3 -2.3,-2.4 -0.4,-1.1 -0.4,-2.5 -0.7,-3.4 0.3,-0.5 0.7,-0.9 1,-1.4 0,0.5 0,1.1 0.5,1.4 l 0.1,-0.1 h -0.2 l 0.2,-0.4 v 0.1 c -0.1,-2.8 -0.8,-6.4 -1.2,-9.2 1.1,-0.6 2.3,-1.3 3.4,-2 0.7,-0.5 2,-1.4 2.2,-2.3 -0.4,-0.1 -0.9,0.5 -1.2,0.8 -0.7,0.6 -1.4,1.1 -2.2,1.7 -0.8,0.5 -1.5,1 -2.4,1.4 -1.6,0.8 -3.7,1.4 -5.4,0.8 -1.7,-0.6 -2.4,-2.6 -3.2,-4.2 2.6,-0.2 3.4,-1.1 5.1,-2.9 -0.3,-0.5 -0.5,-0.9 -0.9,-1.4 -0.5,0.3 -1,0.5 -1.6,0.6 -0.5,0.2 -1.1,0.3 -1.6,0.4 -0.6,0.1 -1.4,0.3 -1.9,-0.1 -0.5,-0.4 -0.6,-2.2 -0.6,-2.9 0.5,0.1 1.1,0.2 1.6,0.2 0.3,0 0.3,-0.1 0.5,-0.3 0,-0.2 0,-0.2 -0.1,-0.2 -0.5,-0.2 -1,-0.2 -1.5,-0.3 -1.2,-0.1 -2,-0.8 -2.9,-1.5 0.6,-1 1.1,-2.1 1.5,-3.2 0.8,-3.3 0.6,-7.6 0.9,-11.2 z"
   id="path575" />
			<path
   class="st21"
   d="m 387.9,3257.6 c 0.1,0.1 0.2,0.1 0.3,0.2 0.2,0.7 -0.1,2.3 -0.3,2.9 -0.1,-0.1 -0.3,-0.2 -0.3,-0.3 -0.3,-0.7 0.1,-2.1 0.3,-2.8 z"
   id="path576" />
			<path
   class="st21"
   d="m 387.6,3253.8 c 0.8,0.3 2.6,1.1 3.2,1.8 0.1,0.1 0.1,0.3 0.1,0.4 -0.9,-0.2 -2.8,-1.1 -3.3,-1.9 z"
   id="path577" />
			<path
   class="st21"
   d="m 405.1,3259.2 c 0.3,0 0.7,0 1,0.1 0.3,0.2 0.7,0.5 0.8,0.9 -0.1,0.3 -0.1,0.3 -0.3,0.4 -0.2,-0.1 -0.2,0 -0.3,-0.2 -0.1,-0.2 -0.3,-0.4 -0.4,-0.5 -0.1,-0.1 -0.2,-0.2 -0.4,-0.2 -0.3,0.1 -0.6,0.4 -0.8,0.6 0,0.4 0.3,0.6 0.5,0.9 0.1,0.2 0.2,0.4 0.3,0.7 0,0.4 0,0.7 -0.3,1 -0.1,0 -0.2,0 -0.3,-0.1 0.1,-0.8 0.1,-1.1 -0.3,-1.8 -0.1,-0.2 -0.4,-0.5 -0.3,-0.8 0,-0.4 0.5,-0.7 0.8,-1 z"
   id="path578" />
			<path
   class="st2"
   d="m 305.1,3291 c 0.1,0.1 0.1,0.1 0.2,0.3 0.6,1.3 -0.8,4 -1.3,5.3 2,-0.5 4.1,-0.8 6.1,-1.5 1.6,-0.5 5.4,-2.9 6.9,-2.7 0.2,0.2 0.2,0.2 0.3,0.5 -0.5,2 -5.1,4.2 -7,5 -0.4,0.2 -1.3,0.3 -1.6,0.6 v 0.3 l 0.2,0.1 c 1.4,0 5.8,-2.5 7,-3.4 0.6,-0.5 1,-1.2 1.7,-1.6 0.2,-0.1 0.3,-0.1 0.5,0 0.1,0.1 0.1,0.1 0.2,0.3 0.2,0.4 0,1 -0.2,1.3 -0.4,0.7 -1,1.3 -1.6,1.9 -2.2,2.2 -4.2,3.2 -7,4.3 -0.3,0.1 -0.5,0.2 -0.7,0.5 0.1,0.1 0.1,0.2 0.2,0.2 1,0.3 5.4,-2.5 6.3,-3.2 0.8,-0.6 1.5,-1.6 2.4,-2.1 0.2,0.1 0.2,0.1 0.3,0.3 0,0.4 -0.2,0.7 -0.3,1.1 -2.3,4.3 -7.2,7.4 -11.7,8.9 -1.5,0.5 -3.1,0.8 -4.6,1.3 -0.7,0.6 -2.8,5.7 -3.4,6.8 -1.3,2.6 -2.4,5.4 -3.5,8 l -2.7,5.8 c -0.6,1.2 -1.3,2.6 -1.6,3.9 -1.6,0.2 -3.1,0.7 -4.5,1.5 -1.2,0.7 -2.4,1.8 -3.8,2.1 -1.9,0.4 -6.5,-0.1 -8.6,-0.3 -0.2,-2 -1,-6.4 -0.6,-8.1 0.3,-1.5 1.4,-3 2.2,-4.3 4.5,-8.3 11.8,-18.6 19.3,-24.4 3.4,-2.8 8.3,-4.8 10.9,-8.7 z"
   id="path579" />
			<path
   class="st21"
   d="m 302,3298.9 c 0.2,0.2 0.2,0.2 0.3,0.4 0,1.3 -0.8,2.8 -1.4,4 -0.2,-0.1 -0.2,0 -0.4,-0.2 0.2,-1 1.1,-3.1 1.5,-4.2 z"
   id="path580" />
			<path
   class="st2"
   d="m 249.6,3335.9 21.8,1.1 c 2,0.1 4,0.2 6,0.4 1.3,0.1 2.6,0.3 3.9,0.1 1.7,-0.2 3.2,-1.6 4.7,-2.4 1.7,-0.9 3.8,-1.4 5.7,-1.5 1,-0.1 4.1,-0.2 4.8,0.5 0.1,0.1 0.2,0.3 0.2,0.5 0,0.3 -0.3,0.6 -0.5,0.8 -1.2,0.8 -5,0.2 -5.7,1.3 0.7,0.4 2.8,-0.2 3.7,-0.2 4.8,-0.1 9.5,1.2 13.1,4.6 1.1,1 2.4,2.4 2.7,3.9 0.1,0.3 0.1,0.6 -0.1,0.9 -0.3,0 -0.4,0 -0.7,-0.1 -1.7,-0.9 -3.9,-3 -5.8,-4.1 -1.4,-0.9 -3,-1.6 -4.6,-1.9 -0.4,-0.1 -0.9,-0.2 -1.4,-0.1 0.1,0.2 0.2,0.3 0.4,0.4 0.9,0.3 1.9,0.4 2.9,0.8 3.4,1.4 6.9,5 8.6,8.3 0.1,0.2 0.2,0.5 0.2,0.7 -0.1,0.3 -0.2,0.3 -0.4,0.5 -0.7,0.1 -1.4,-0.4 -1.9,-0.9 -3,-2.6 -3.2,-5 -7.4,-6.5 -1,-0.4 -2.3,-0.7 -3.4,-0.6 -0.1,0 -0.2,0 -0.4,0.1 0.1,0.3 0.1,0.4 0.4,0.5 0.7,0.2 1.4,0.3 2.1,0.5 2.2,0.8 4.8,2.9 6,5 0.4,0.6 1.2,1.8 0.9,2.6 -0.1,0.2 -0.2,0.2 -0.4,0.3 -0.3,0 -0.5,-0.1 -0.7,-0.3 -0.4,-0.5 -0.6,-1.2 -1.1,-1.7 -1.7,-2.1 -4.2,-3.4 -6.8,-4 -0.4,-0.1 -0.8,-0.2 -1.2,-0.2 -0.1,0 -0.1,0 -0.3,0 l -0.1,0.2 c 0.6,0.6 2.2,0.7 3,1 2.2,0.8 5.6,3.1 5.8,5.6 l -0.1,0.2 c -1.4,0 -5.4,-2.8 -7.4,-3.5 -2,-0.7 -4.3,-0.7 -6.4,-0.8 -5.2,-0.1 -10.3,1 -15.4,2 -5.5,1.1 -11,2.4 -16.6,3.4 -2.6,0.5 -5.4,1.1 -8,1.4 H 249 c -0.4,-0.3 -0.5,-1.2 -0.6,-1.7 -1,-4.8 -1.3,-9.6 -0.2,-14.4 0.2,-0.7 0.3,-1.8 0.8,-2.4 0.2,-0.3 0.3,-0.3 0.6,-0.3 z"
   id="path581" />
			<path
   class="st49"
   d="m 395.2,3284.3 c 0.4,0.9 0.3,2.3 0.7,3.4 0.4,1.1 1.2,1.9 2.3,2.4 2.3,0.9 5.2,0.4 7.4,-0.5 1.1,-0.4 2.1,-1 3,-1.7 2.3,-1.8 5.2,-5.3 6.3,-8 2,0.9 3.9,1.8 5.7,2.9 5.1,3.3 9.3,8.8 11.5,14.5 2,5.3 2.9,11.6 2.7,17.2 -0.1,2.4 -0.5,4.7 -0.7,7.1 -0.3,3.7 -0.7,7.4 -1,11.1 -8.2,1.7 -18.8,2.2 -26.9,-0.2 0.4,-2.7 0.9,-5.4 1.3,-8 0.6,-3.7 1.1,-7.5 1.9,-11.2 0.1,-0.7 1,-3.7 0.6,-4.1 -0.3,0.2 -0.4,0.6 -0.5,1 -0.3,1 -0.4,2 -0.6,3 -0.6,3.1 -1.2,6.2 -1.6,9.3 -0.5,3.3 -1.1,6.5 -1.6,9.8 l -0.1,0.6 c 0.9,0.3 1.8,0.5 2.7,0.7 -0.4,1.4 -0.8,2.9 -1.3,4.3 -2.8,0.4 -5.7,0.5 -8.6,0.9 -4.5,0.6 -9.1,1.4 -13.7,1.7 -0.1,-1.4 -0.2,-2.9 -0.2,-4.4 -0.1,-1.5 -0.1,-2.9 -0.1,-4.4 0,-1.5 0,-2.9 0.1,-4.4 0.1,-1.5 0.1,-2.9 0.3,-4.4 0.1,-1.4 0.3,-2.9 0.4,-4.3 0.2,-1.4 0.4,-2.9 0.6,-4.3 0.2,-1.4 0.5,-2.9 0.7,-4.3 0.2,-1.4 0.6,-2.8 0.9,-4.3 0.4,-1.7 0.8,-3.4 1.3,-5.1 0.4,-1.2 0.9,-2.4 1.1,-3.7 0.1,-0.3 0.1,-0.6 0,-0.9 l -0.2,0.1 c -0.5,0.8 -0.7,1.9 -0.9,2.8 -2.4,7.7 -3.6,15.6 -4.4,23.6 -2,-0.9 -3.9,-1.9 -5.7,-3.1 1.3,-4.1 2.9,-8 4.5,-11.9 3.3,-8 6.9,-15.9 12.1,-23.2 z"
   id="path582" />
			<path
   class="st2"
   d="m 347.3,3334.4 c 1.6,0.2 4.1,0.7 5.7,0.1 v -0.1 c -0.8,-0.3 -1.9,-0.2 -2.8,-0.2 -0.6,0 -1.2,0 -1.8,-0.1 -0.3,-0.1 -0.6,-0.2 -0.9,-0.2 -1.4,0.2 -7,4.8 -8.7,4.7 -0.3,0 -0.4,-0.1 -0.6,-0.4 -0.8,-2.3 5.4,-4.6 5.7,-6.6 -0.2,0 -0.4,0 -0.5,0.1 -0.7,0.4 -1.3,1.1 -1.9,1.6 -1.2,1 -2.5,1.9 -3.7,2.8 -0.6,0.4 -1.5,1 -2.3,0.8 -0.4,-0.1 -0.5,-0.4 -0.7,-0.7 0.1,-1.4 6.4,-4.9 7.4,-6.6 l -0.1,-0.2 c -0.1,0 -0.1,-0.1 -0.2,-0.1 -0.5,-0.1 -8.3,7.1 -9.7,7.4 -0.5,0.1 -1,0 -1.4,-0.3 0,0 -0.1,-0.1 -0.1,-0.1 0,0 -0.1,-0.1 -0.1,-0.1 0,0 -0.1,-0.1 -0.1,-0.1 0,0 -0.1,-0.1 -0.1,-0.1 0,0 0,-0.1 -0.1,-0.1 0,0 0,-0.1 -0.1,-0.1 0,0 0,-0.1 0,-0.1 0,0 0,-0.1 0,-0.1 -0.1,-0.5 0.2,-1 0.5,-1.3 0.6,-0.7 1.5,-1.1 2.3,-1.6 1.6,-1.1 6.2,-3.8 7.3,-5.1 v -0.1 c -0.3,0 -0.5,0.1 -0.8,0.2 -0.8,0.4 -1.5,1 -2.2,1.5 -2,1.3 -4,2.6 -6,3.8 -0.5,0.3 -1.8,1.1 -2.4,0.9 -0.5,-0.2 -0.8,-0.5 -1,-1 0.4,-1.6 7.7,-4.8 9.2,-6.1 v -0.1 c -0.9,-0.2 -1.8,0.6 -2.6,1 -0.8,0.4 -2.1,1 -3,0.7 -0.3,-0.1 -0.4,-0.2 -0.6,-0.5 0,-0.4 0,-0.6 0.3,-0.9 1.9,-2.4 8.4,-2.4 11.3,-3.2 1.4,-0.4 2.7,-1.6 4.2,-1.7 0.6,-0.1 1.2,0.3 1.6,0.6 0.8,0.5 1.5,1.3 2.3,2 1.6,1.5 3.1,3 4.8,4.4 -0.3,0 -0.9,0.1 -1.1,0.2 -0.4,0.3 -0.7,0.7 -0.9,1.2 -0.3,0.9 -0.1,2.2 0.3,3 0.1,0.2 0.3,0.2 0.5,0.2 0.4,0.7 0.4,1.8 0.6,2.6 -0.7,-0.2 -1.5,-0.3 -2.1,-0.4 -0.4,0 -0.4,0 -0.6,0.2 -0.4,0.9 0.3,1.6 0.4,2.5 0.1,0.5 -0.1,0.9 0,1.4 0.2,1.1 1.7,6.4 2.2,7.3 0.4,0.7 0.8,1 1.5,1.4 5.6,4.7 32.8,8.2 40.7,8.8 4.6,0.3 9.3,0.5 14,0.1 2.2,-0.2 6.5,-1 8.2,-2.4 1.3,0.3 2.6,1 3.8,1.6 3.6,1.6 7,3.3 10.6,4.9 l -203.6,-0.1 c 2,-1 4.1,-2 6.1,-3 1.3,-0.6 2.6,-1.5 4,-1.9 1.5,0.2 8,0.3 9.1,-0.5 0.3,-0.2 0.3,-0.2 0.3,-0.6 1.4,-0.4 3,-0.5 4.4,-0.8 2.7,-0.5 5.4,-1 8.1,-1.5 l 12.8,-2.7 c 6.4,-1.3 13.3,-2.8 19.8,-1.7 3.8,0.6 6.3,3.4 9.2,4 0.3,0.1 0.4,0.1 0.7,-0.1 0.1,-0.2 0.1,-0.5 0.1,-0.7 0.3,-0.3 0.7,-0.2 1.1,-0.1 0.3,-0.1 0.3,-0.2 0.5,-0.4 0,-0.5 -0.1,-0.9 -0.3,-1.4 -0.8,-2.2 -2.8,-4.8 -4.9,-5.8 -0.2,-0.1 -0.2,-0.1 -0.3,-0.3 h 0.1 c 2.7,1 3.8,3.7 5.7,5.6 1.3,1.2 1.9,1.3 3.6,1.3 0.2,-1.7 0.5,-3.4 0.7,-5.1 0.1,-0.8 0,-1.5 0.1,-2.3 0.3,-3.1 0.7,-6.2 1.2,-9.3 1.6,0.1 3,0.8 4.6,1.1 1,0.2 2.3,0.2 3.2,0.6 1.5,0.7 2.8,1.8 4.3,2.4 0.5,0.2 1.2,0.4 1.7,0.1 0.3,-0.1 0.5,-0.4 0.6,-0.7 0.2,-0.5 0.1,-1 -0.1,-1.4 0,0 0,-0.1 -0.1,-0.1 l -0.1,-0.2 c 0,0 -0.1,-0.1 -0.1,-0.1 0.3,0 0.5,0.1 0.8,0.3 0.3,0.2 0.6,0.4 0.9,0.5 0.7,0.1 1.3,-0.4 1.8,-0.7 0.4,0.6 0.8,1.1 1.4,1.4 1.2,0.6 1.8,-0.4 2.8,-0.7 0.4,-0.1 0.9,0.8 1.3,1 0.8,0.4 1.7,-0.3 2.5,-0.6 l 0.1,0.1 c -0.1,0.5 -0.1,0.9 0.1,1.4 0.2,0.4 0.4,0.7 0.8,0.8 1.4,0.4 7.1,-3.8 8.7,-4.6 z"
   id="path583" />
			<path
   class="st22"
   d="m 244.6,3278.6 c 0.2,1.1 0.9,2.2 1.4,3.2 1.9,3.7 4.1,7.8 7.7,10.2 1.2,0.8 2.7,1.5 4.2,1.2 1,-0.2 1.8,-0.9 2.3,-1.7 1.5,-2.3 1.6,-6.4 2.1,-9.1 0.2,-1.1 0.5,-2.2 0.7,-3.2 2.1,0.9 4,2.7 5.4,4.4 0.2,0 0.1,0 0.2,0 l 0.1,0.2 c 0.6,1.3 1.6,2.4 2.2,3.6 2.3,4.8 3.8,10.1 4.9,15.3 0.7,3.4 1.2,6.9 1.9,10.3 0.2,1.1 0.3,2.5 0.8,3.6 -0.6,1.1 -1.4,2.1 -2,3.2 -1.6,2.6 -3.1,5.2 -4.4,7.9 -0.7,-8.6 -1.5,-17.2 -2.5,-25.7 -0.1,-1.1 -0.3,-4.4 -0.6,-5.3 l -0.2,-0.1 c -0.2,0.2 -0.2,0.4 -0.2,0.7 0,0.9 0.2,1.8 0.3,2.7 0.3,2.9 0.6,5.9 0.9,8.8 1,9.3 1.9,18.5 2.7,27.8 -3.1,-0.1 -6.2,-0.4 -9.3,-0.5 -3.8,-0.2 -7.6,-0.3 -11.4,-0.6 -1.9,-0.1 -3.7,-0.7 -5.6,-0.8 -0.4,-4.4 -1.2,-8.7 -1.5,-13.1 -0.2,-3.6 -0.3,-7.3 -0.4,-10.9 -0.1,-3.5 -0.1,-7 -0.6,-10.5 -0.2,-1.1 -0.4,-2.7 -1.2,-3.6 l -0.1,0.1 c 0.1,1 0.5,2 0.7,2.9 0.3,1.3 0.3,2.6 0.4,4 0.4,6 0.3,12 0.7,18 0.3,4.4 0.9,8.9 1.6,13.2 -2.1,-0.1 -5,-0.3 -7.1,0 -0.1,0.2 -0.1,0.1 -0.1,0.4 0.5,0.3 7.6,0.1 8.7,0.2 0.9,0.1 1.7,0.5 2.2,0.5 -0.2,0 -0.4,0 -0.5,0.2 -0.4,0.6 -0.6,1.7 -0.8,2.4 -1,4.8 -0.8,9.6 0.2,14.4 0.1,0.5 0.2,1.4 0.6,1.7 h 0.7 l -0.6,0.1 -0.1,0.2 c 0,0.1 0.1,0.3 0.1,0.4 0,0.3 0,0.4 -0.3,0.6 -1.1,0.8 -7.6,0.7 -9.1,0.5 v -0.1 c -0.4,-0.3 -3,-0.3 -3.7,-0.4 -0.4,-0.1 -0.8,-0.1 -1.3,-0.3 -0.4,-0.1 -0.8,-0.2 -1.2,-0.4 -0.4,-0.1 -0.8,-0.3 -1.2,-0.5 -0.4,-0.2 -0.8,-0.4 -1.1,-0.6 -3.8,-2.2 -6.2,-5.8 -7.4,-10 -0.3,-1.1 -0.5,-2.3 -0.8,-3.4 -0.1,-0.3 -0.1,-0.4 -0.3,-0.5 0.2,-1 -0.3,-3.5 -0.4,-4.7 -0.1,-1.6 -0.2,-3.2 -0.2,-4.7 0,-13.2 3.2,-33.3 10.8,-44.3 1,-1.5 2.2,-2.8 3.4,-4 0.7,-0.2 1.4,-0.9 2,-1.2 1.8,-1.1 4.2,-2.3 6.3,-2.7 z"
   id="path584" />
			<path
   class="st9"
   d="m 295.3,3297.9 c 3.6,-8.7 8.5,-19.5 16.4,-25.1 1.5,-1.1 3.2,-1.9 5,-2.6 1.4,-0.6 2.8,-1 4.2,-1.5 1.5,3.3 6.8,12.8 10,14.1 0.7,0.3 1.5,0.3 2.2,0 2.7,-1.2 8.6,-10.4 9.9,-13.3 9.6,2.3 15.8,9 20.8,17.2 3.9,6.4 7,13.3 9.5,20.4 1.1,2.9 2.1,5.9 2.7,9 0.4,2 0.7,4 0.9,6.1 0.1,1.1 0.1,2.4 0.2,3.5 -1.6,2.4 -3.9,4.4 -6,6.4 0,-0.9 0.2,-2.1 -0.5,-2.9 -0.2,-0.3 -0.4,-0.3 -0.7,-0.4 -1.3,-0.2 -2.9,0 -4.3,0 -3.2,0 -6.5,0.1 -9.7,0 -2.5,-1.9 -4.5,-4.2 -6.9,-6.2 -2.8,-2.3 -4.1,-0.5 -6.9,0.5 -1,0.4 -2,0.5 -3,0.6 0.2,-1 0.3,-3.2 0.8,-3.9 0.2,-0.1 0.4,-0.1 0.6,-0.2 0.3,-0.8 0.3,-1.9 0.2,-2.7 -0.1,-0.4 -0.1,-0.7 -0.4,-0.9 -0.4,-0.3 -1,-0.3 -1.4,-0.3 -1.9,-0.1 -3.9,0 -5.8,0 -2.2,0 -6.7,-0.3 -8.6,0.1 -0.4,0.1 -0.7,0.2 -0.9,0.6 -0.3,0.6 -0.5,2.3 -0.2,2.9 0.2,0.5 0.6,0.6 1.1,0.8 0.2,1.8 0.5,3.8 0.9,5.6 -1.8,-1 -3.8,-2.3 -5.8,-2.9 -1.8,-0.6 -3,-0.2 -4.6,0.6 -2.2,-1.3 -4.6,-2.5 -7,-3.5 0.3,-1.5 2.1,-10.7 1.9,-11.3 -0.3,0.3 -0.5,0.7 -0.6,1.1 -0.2,0.8 -0.3,1.7 -0.5,2.6 -0.5,2.5 -1,5 -1.3,7.5 -2.9,-1.6 -6.1,-2.7 -9.3,-3.7 0.9,-2.2 1.9,-4.3 2.9,-6.4 0.7,-0.2 1.3,-0.3 2,-0.5 5.6,-1.3 11.4,-4.3 14.4,-9.3 0.5,-0.8 0.8,-1.3 0.5,-2.4 0,-0.1 0,-0.1 -0.1,-0.2 -0.1,-0.4 0.3,-0.9 0.5,-1.2 0.3,-0.5 0.3,-0.9 0.1,-1.5 -0.1,-0.3 -0.3,-0.4 -0.6,-0.6 -0.7,-0.4 -0.3,-0.9 -0.8,-1.5 -0.4,-0.2 -0.7,-0.2 -1.1,-0.1 -1.7,0.3 -4.9,2.2 -6.8,2.8 -1.5,0.5 -3,0.8 -4.6,1.1 0.6,-1.4 1.4,-3.4 1,-4.9 -0.1,-0.3 -0.1,-0.4 -0.4,-0.5 -0.9,0 -1.6,1.4 -2.2,2 -1.3,1.4 -6.1,4.5 -7.8,5.4 z"
   id="path585" />
			<path
   class="st21"
   d="m 354.7,3297 0.2,0.1 c 0.5,0.9 -0.5,18.6 -0.3,21.7 1.6,-0.5 7.7,-2.3 9.1,-1.8 0.2,0.1 0.2,0.1 0.3,0.3 l -0.1,0.1 c -0.6,0.3 -1.5,0.2 -2.2,0.2 -0.8,0.1 -1.5,0.2 -2.2,0.4 -2,0.3 -4,1 -5.9,1.7 -0.9,0.3 -1.7,0.7 -2.6,0.9 l -0.2,-0.1 c 0.9,-0.7 2.2,-1.1 3.2,-1.5 0.1,-4.4 0.2,-8.7 0.3,-13.1 0,-2.4 0,-6.8 0.4,-8.9 z"
   id="path586" />
			<path
   class="st50"
   d="m 408.4,3333.5 c 7.3,1.7 14.7,1.3 22,0.3 -1.1,5.9 -3.7,13.2 -7.5,17.8 -0.9,1.1 -2,2 -3.1,2.9 -0.3,-0.1 -0.6,-0.3 -0.9,-0.2 l -0.1,0.1 c 0,0.1 0.1,0.3 0.1,0.4 -1.7,1.4 -6.1,2.2 -8.2,2.4 -4.6,0.4 -9.3,0.2 -14,-0.1 -7.9,-0.6 -35.1,-4.1 -40.7,-8.8 0,-0.2 0,-0.1 -0.1,-0.3 -0.6,-0.7 -1,-1.3 -1.3,-2.2 1.1,0.7 2.3,1.3 3.5,1.6 0.4,0.1 0.8,0.3 1.3,0.1 v -0.2 c -0.4,-0.4 -2.9,-0.9 -3.9,-1.5 -1.1,-0.8 -1.3,-1.5 -1.5,-2.8 1.2,0.6 2.4,1.1 3.7,1.3 0.6,0.1 2,0.4 2.5,0 v -0.2 c -0.5,-0.4 -4.2,-0.4 -5.8,-1.6 -1.2,-0.9 -1.4,-2.3 -1.6,-3.7 2.1,1.2 4.1,1.9 6.4,2.3 0.5,0.1 1.1,0.3 1.6,0.1 0.2,-0.1 0.1,-0.1 0.2,-0.2 -0.1,-0.2 -0.3,-0.3 -0.5,-0.3 -2.2,-0.5 -4.7,-0.5 -6.7,-1.9 -1.2,-0.8 -1.4,-1.8 -1.7,-3.2 2,0.3 3.8,1.2 5.7,1.7 2.2,0.6 4.6,0.7 6.8,1 1.3,0.2 3,0.8 4.3,0.7 0.6,-0.5 0.7,-1.2 0.8,-1.9 2.2,1.4 3,2.9 4.8,4.6 0.3,0.1 0.6,0.2 1,0.2 1.4,0.1 3,-0.3 4.4,-0.5 2.6,-0.4 5.2,-0.7 7.8,-1 6.2,-0.8 12.4,-1.7 18.7,-2.3 1.7,-0.2 3.4,-0.3 5.1,-0.4 0.7,0 1.4,0 2.1,-0.1 0.3,0 0.4,0 0.7,-0.2 v -0.2 c -0.8,-0.5 -6,0.2 -7.3,0.3 0.6,-1 1,-2.5 1.4,-4 z"
   id="path587" />
		</g>
		<rect
   x="219.39999"
   y="3360.5"
   class="st2"
   width="228.60001"
   height="9.5"
   id="rect587" />
		<path
   class="st22"
   d="m 387.5,3305.9 c 0,0 2.1,5 7.6,8.2 5.5,3.2 13,3.3 13,3.3 l -1.3,7.9 c 0,0 -6.8,-0.6 -12.8,-3.7 -6,-3 -8.2,-7.2 -8.2,-7.2 z"
   id="path588" />
	</g>
	<g
   id="g592">
		<path
   class="st41"
   d="m 248.3,3048.1 c 1.8,-0.7 3.8,-1 5.7,-0.8 1.9,0.2 3.8,0.8 5.5,1.8 2.1,1.2 3.8,3.1 4.8,5.4 0.6,1.3 0.9,2.8 0.9,4.2 0,1.7 -0.3,3.4 -0.9,4.9 -1.1,2.7 -4.4,7.5 -5.2,11.6 -1.5,0 -11.5,-0.1 -11.5,-0.1 -0.5,-1.7 -1,-5 -2.1,-6.4 v 0 c -1.2,-1.3 -2.2,-2.7 -3,-4.2 -0.8,-1.7 -1.3,-3.6 -1.3,-5.6 0,-2.1 0.6,-4.1 1.6,-6 v 0 0"
   id="path589" />
		<g
   id="g591">
			<g
   id="g590">
				<path
   class="st41"
   d="m 249.1,3077.2 c 0,7.1 2,7.3 2.8,7.5 0.5,0.1 0.7,0.4 1.5,0.4 0.8,0 0.9,-0.3 1.3,-0.4 0.6,-0.2 2.9,-0.3 2.9,-7.5 z"
   id="path590" />
			</g>
		</g>
		<path
   class="st9"
   d="m 252.8,3040.3 c 0,-0.8 0.7,-1.4 1.4,-1.4 v 0 h 0.1 c 0.7,0.1 1.3,0.7 1.3,1.4 v 0 c 0,0 0,0 0,0.1 l -0.1,3 v 0 c 0,0 0,0.1 0,0.1 -0.1,0.7 -0.7,1.3 -1.4,1.3 v 0 H 254 c -0.7,-0.1 -1.3,-0.7 -1.3,-1.4 v 0 c 0,0 0,0 0,-0.1 z m -15.4,5.3 c -0.6,-0.5 -0.6,-1.4 -0.1,-2 0.5,-0.6 1.4,-0.6 2,-0.1 l 2.3,2.1 c 0.3,0.3 0.4,0.6 0.5,1 0,0.4 -0.1,0.7 -0.4,1 -0.3,0.3 -0.6,0.4 -1,0.5 -0.4,0 -0.7,-0.1 -1,-0.4 z m -3.7,15.6 c -0.8,0 -1.4,-0.6 -1.4,-1.4 0,-0.8 0.6,-1.4 1.4,-1.4 l 3.1,-0.1 c 0.8,0 1.4,0.6 1.4,1.4 v 0 0 0.1 c 0,0.8 -0.6,1.4 -1.4,1.4 h -0.1 z m 38.6,-4.4 v 0 c 0.8,-0.1 1.5,0.5 1.6,1.3 v 0 c 0,0 0,0 0,0 0,0.8 -0.5,1.4 -1.3,1.5 l -3.1,0.3 c -0.8,0.1 -1.5,-0.5 -1.6,-1.3 -0.1,-0.8 0.5,-1.5 1.3,-1.6 v 0 c 1,0 2.1,-0.1 3.1,-0.2 z m -6.1,-12.3 c 0.4,-0.6 1.3,-0.8 2,-0.4 0,0 0,0 0,0 v 0 c 0.3,0.2 0.5,0.5 0.6,0.9 0.1,0.4 0,0.8 -0.2,1.1 l -1.7,2.6 c -0.4,0.7 -1.3,0.8 -2,0.4 -0.7,-0.4 -0.8,-1.3 -0.4,-2 z"
   id="path591" />
		<path
   class="st9"
   d="m 248.4,3059.9 c 0.6,0.2 1.1,0.5 1.5,0.9 0.4,0.3 0.7,0.6 1,1 0.9,-1.5 2,-3 3.1,-4.4 1,-1.3 2.1,-2.4 3.3,-3.5 l 0.3,-0.1 h 3 l -0.6,0.7 c -1.6,1.8 -3.2,3.8 -4.5,5.8 -1.6,2.3 -3.1,4.7 -4.5,7.3 -0.7,-1.5 -1.6,-2.9 -2.7,-4.2 -0.8,-1.1 -1.8,-2 -2.9,-2.7 z"
   id="path592" />
	</g>
	<g
   id="g596">
		<path
   class="st9"
   d="m 348.5,3032.9 -1,1.9 5.7,-1.7 -1.6,-5.8 -1,1.9 c -2.9,-1.4 -6.4,-1.1 -8.6,2.5 2.3,-1 4.5,-0.5 6.5,1.2 z"
   id="path593" />
		<path
   class="st9"
   d="m 331.7,3056.1 1,-1.9 -5.7,1.7 1.6,5.8 1,-1.9 c 2.9,1.4 6.4,1.1 8.6,-2.5 -2.3,1.1 -4.4,0.6 -6.5,-1.2 z"
   id="path594" />
		<path
   class="st41"
   d="m 342.4,3053.5 v 5.6 c 0,0.4 0.1,0.7 0.4,0.9 0.2,0.2 0.6,0.4 0.9,0.4 h 15.2 c 0.4,0 0.7,-0.1 0.9,-0.4 0.2,-0.2 0.4,-0.6 0.4,-0.9 v -4 0 -17.5 c 0,-0.4 -0.1,-0.7 -0.4,-0.9 -0.2,-0.2 -0.6,-0.4 -0.9,-0.4 h -9.1 c 0,0 -0.1,0 -0.1,0 -0.1,0 -0.3,0.1 -0.4,0.2 v 0 c 0,0 0,0 -0.1,0 l -6.7,6.7 c -0.1,0.1 -0.2,0.3 -0.2,0.4 0,0.1 0,0.1 0,0.1 v 3.9 m 0.1,-3.3 h 6.1 c 0.4,0 0.8,-0.2 1,-0.4 0.3,-0.3 0.4,-0.6 0.4,-1 v -6.5"
   id="path595" />
		<path
   class="st41"
   d="m 321,3044.8 v 5.6 c 0,0.4 0.1,0.7 0.4,0.9 0.2,0.2 0.6,0.4 0.9,0.4 h 15.2 c 0.4,0 0.7,-0.1 0.9,-0.4 0.2,-0.2 0.4,-0.6 0.4,-0.9 v -4 0 -17.5 c 0,-0.4 -0.1,-0.7 -0.4,-0.9 -0.2,-0.2 -0.6,-0.4 -0.9,-0.4 h -9.1 c 0,0 -0.1,0 -0.1,0 -0.1,0 -0.3,0.1 -0.4,0.2 v 0 c 0,0 0,0 -0.1,0 l -6.7,6.7 c -0.1,0.1 -0.2,0.3 -0.2,0.4 0,0.1 0,0.1 0,0.1 v 3.9 m 0.1,-3.4 h 6.1 c 0.4,0 0.8,-0.2 1,-0.4 0.3,-0.3 0.4,-0.6 0.4,-1 v -6.5"
   id="path596" />
	</g>
	<g
   id="g603">
		<path
   class="st9"
   d="m 482.4,3186.7 c 0,-0.8 -0.7,-1.5 -1.5,-1.5 h -8.7 c -0.8,0 -1.5,0.7 -1.5,1.5 0,0.8 0.7,1.5 1.5,1.5 h 8.7 c 0.9,0 1.5,-0.7 1.5,-1.5 z"
   id="path597" />
		<path
   class="st9"
   d="m 482.4,3193.8 c 0,-0.8 -0.7,-1.5 -1.5,-1.5 H 475 c -0.8,0 -1.5,0.7 -1.5,1.5 0,0.8 0.7,1.5 1.5,1.5 h 5.9 c 0.9,0 1.5,-0.6 1.5,-1.5 z"
   id="path598" />
		<path
   class="st9"
   d="m 481,3181 c 0.8,0 1.5,-0.7 1.5,-1.5 0,-0.8 -0.7,-1.5 -1.5,-1.5 h -10.9 c -0.8,0 -1.5,0.7 -1.5,1.5 0,0.8 0.7,1.5 1.5,1.5 z"
   id="path599" />
		<path
   class="st41"
   d="m 492.4,3178.1 c -0.9,-0.2 -1.9,-0.4 -3,-0.5 v -1.3 H 486 v 22.6 c -5,-0.3 -12.5,3.2 -12.5,8.2 0,3.9 6.2,4 10,1.8 3.7,-2.1 5.8,-4.8 5.8,-7.3 0,-1 0,-2.3 0,-2.4 v -4.6 -8.7 -3.1 c 5.9,0.3 6.6,2 6,9.5 3.2,-4.2 4.1,-8 2.4,-10.6"
   id="path600" />
		<path
   class="st9"
   d="m 511.9,3185.1 c -1.5,0.2 -2.8,-0.2 -4,-1.2 -1.2,-1 -1.9,-2.2 -2.1,-3.6 h -0.2 c 0.2,1.5 -0.2,2.8 -1.2,4 -1,1.2 -2.2,1.9 -3.6,2.1 v 0.2 c 1.5,-0.2 2.8,0.2 4,1.2 1.2,1 1.9,2.2 2.1,3.6 h 0.2 c -0.2,-1.5 0.2,-2.8 1.2,-4 1,-1.2 2.2,-1.9 3.6,-2.1 z"
   id="path601" />
		<path
   class="st9"
   d="m 502.2,3193 h -0.1 c -0.1,1.1 -0.6,2.1 -1.5,2.9 -0.9,0.8 -1.9,1.1 -3.1,1 v 0.1 c 1.1,0.1 2.1,0.6 2.9,1.5 0.8,0.9 1.1,1.9 1,3.1 h 0.1 c 0.1,-1.1 0.6,-2.1 1.5,-2.9 0.9,-0.8 1.9,-1.1 3.1,-1 v -0.1 c -1.1,-0.1 -2.1,-0.6 -2.9,-1.5 -0.8,-0.9 -1.1,-2 -1,-3.1 z"
   id="path602" />
		<path
   class="st9"
   d="m 495.7,3202 h -0.1 c 0,0.9 -0.3,1.6 -1,2.3 -0.7,0.6 -1.4,1 -2.3,1 v 0.1 c 0.9,0 1.6,0.3 2.3,1 0.6,0.7 1,1.4 1,2.3 h 0.1 c 0,-0.9 0.3,-1.6 1,-2.3 0.7,-0.6 1.4,-1 2.3,-1 v -0.1 c -0.9,0 -1.6,-0.3 -2.3,-1 -0.7,-0.7 -1,-1.4 -1,-2.3 z"
   id="path603" />
	</g>
	<g
   id="g608">
		<path
   class="st45"
   d="m 469.3,3106.9 c 0,0 3.2,-4.7 7.2,-2.5 6.2,3.5 0.4,7.2 0.4,7.2 0,0 1.6,-0.9 2.9,-3.2 2.5,0.1 4,2 4.8,3.6 1.2,2.3 0.7,5.7 -0.6,6.7 -0.4,0.3 1.1,-0.8 1.6,-0.7 1.4,0.5 3.1,1.8 3.1,5.9 0,3 -3.1,5.8 -5.8,4.8 -0.7,-0.2 1.7,0.4 2,1 1.2,3.6 -1.7,7.1 -4.8,8.2 -0.6,0.2 -1.9,-3.5 -4.8,-4.5 0.1,0.1 3.6,1.9 4.5,5.4 1.2,4.6 -9.8,8.8 -10.1,2 -0.2,-4.7 -0.3,-30.8 -0.3,-30.8"
   id="path604" />
		<path
   class="st46"
   d="m 475.5,3115.9 c 0,0 3.7,1.9 4,6.3 0.3,5 -1.4,7.1 -1.4,7.1"
   id="path605" />
		<path
   class="st45"
   d="m 458.9,3108.3 c -2.5,0.1 -4,2 -4.8,3.6 -1.2,2.3 0.1,5.9 0.5,6.7 0.2,0.4 -0.4,-1 -0.8,-0.8 -1.4,0.5 -3.7,2 -3.7,6.1 0,3 3.4,5.4 5.8,4.5 0.7,-0.3 -1.2,0.2 -2,1.4 -2,3.2 1.7,7.1 4.8,8.2 0.6,0.2 1.9,-3.5 4.8,-4.5 -0.1,0.1 -3.6,1.9 -4.5,5.4 -1.2,4.6 9.8,8.8 10.1,2 0.2,-4.7 0.3,-33.9 0.3,-33.9"
   id="path606" />
		<path
   class="st45"
   d="m 469.3,3106.9 c 0,0 -3.2,-4.7 -7.2,-2.5"
   id="path607" />
		<path
   class="st46"
   d="m 463.2,3115.9 c 0,0 -3.7,1.9 -4,6.3 -0.3,5 1.4,7.1 1.4,7.1"
   id="path608" />
	</g>
	<g
   id="g611">
		<path
   class="st9"
   d="m 461.1,3261.3 c -0.7,0 -1.2,0.8 -1.2,1.7 0,0.9 0.5,1.7 1.2,1.7 h 14.6 c 0.7,0 1.2,-0.8 1.2,-1.7 0,-0.9 -0.5,-1.7 -1.2,-1.7 z"
   id="path609" />
		<path
   class="st41"
   d="m 477.5,3243.8 c -1.7,-5.4 -4.8,-7.9 -9.3,-8.2 l -0.1,1.4 c -1,-1.1 -2.1,-2 -3.4,-2.5 -0.1,0.8 -0.1,1.6 0,2.4 0.2,0.1 0.4,0.5 0.4,0.7 0,0.6 -0.5,0.6 -0.9,0.9 -1,0.8 -1.9,2.7 -4.8,5.7 -1.4,1.6 0.7,4.1 2.2,2.7 l 1.4,-1.4 c 2.3,0.3 4.8,0.4 5.3,-2.9 3.5,6.3 -6.9,8 -7.8,14.8 -0.1,0.6 -0.1,1.2 -0.1,1.8 h 15.1 c 0.3,-3.2 1.3,-4.7 1.8,-7.7"
   id="path610" />
		<path
   class="st41"
   d="m 477.7,3272.9 c 0.3,-2.4 -1.4,-4.2 -2.4,-6 h -13.8 c -1,1.8 -2.9,3.6 -2.6,6 z"
   id="path611" />
	</g>
	<g
   id="g613">
		<path
   class="st9"
   d="m 196.2,3174.1 c -0.7,-1.7 -2.6,-1.5 -4.8,-1.2 -0.5,0.1 -1,0.1 -1.5,0.2 -2,0.2 -4,0.1 -5.8,-0.4 0,1.5 0,2.9 -0.1,3.9 -0.2,3.3 -1,6.9 -2.4,10.1 1.8,0.9 3.8,2.3 3.7,4.3 -1.6,-0.9 -3.3,-1.8 -5,-1.9 v 0 c -1.3,2.2 -3.1,4.1 -5.3,5.3 0.8,0.6 1.8,1.1 2.8,1.3 6.7,1.8 12.5,-4.2 15.4,-9.6 1.5,-2.5 4.2,-9 3,-12 z m -4.2,8 c -0.2,0.2 -0.5,0.2 -0.9,0.3 -1,0.1 -2.6,-0.1 -3.8,-0.6 -0.9,-0.4 -1.7,-0.9 -2.1,-1.9 1.8,-1.4 4.2,-1.1 5.8,0.3 0.5,0.4 1.7,1.4 1,1.9 z"
   id="path612" />
		<path
   class="st41"
   d="m 158.4,3187.7 c 2.8,4.1 6.1,6.3 10,6 7.3,-0.4 11.1,-8.4 12.2,-14.7 0.5,-3.1 1.1,-10.4 -1.1,-13 -1.2,-1.5 -3.1,-0.7 -5.2,0.4 -0.5,0.2 -0.9,0.4 -1.4,0.7 -3.5,1.6 -7.2,2 -10.9,1 -1.7,-0.5 -3.5,-1 -5.3,-1.1 -0.9,-0.1 -1.8,0.1 -2.3,0.6 -1.8,1.7 -0.5,9.4 0.1,11.6 m 16.7,-4.3 c 2.5,-2.9 7.1,-1.1 6.8,0 -0.1,0.3 -0.4,0.6 -1,0.9 -1.4,0.7 -9.4,3.1 -5.8,-0.9 z m -13.1,2.3 c -0.7,-0.2 -1.1,-0.4 -1.2,-0.6 -0.5,-1 3.7,-3.6 6.7,-1.2 4.3,3.3 -4,2.3 -5.5,1.8 z m 14.1,9.1 c -1.9,2.7 -4.7,2.8 -7.3,0.9 -1.1,-0.8 -1.7,-1.8 -2.1,-3.1 3.7,1.9 7.2,1.7 10.5,-0.8 -0.1,1 -0.4,2.1 -1.1,3 z"
   id="path613" />
	</g>
	<g
   id="g615">
		<path
   class="st41"
   d="m 408.3,3071.9 c -1,4.1 -1.6,6.9 -1.6,8.4 0,1 0.3,1.8 0.8,2.4 0.5,0.6 1.3,0.9 2.2,0.9 1,0 2.2,-0.4 3.6,-1.2 1.4,-0.8 3.6,-2.6 6.6,-5.4 0.2,-0.2 0.2,-0.5 0.1,-0.7 -0.2,-0.2 -0.4,-0.3 -0.7,-0.2 -2.7,1.3 -5.7,2.6 -6.3,2.7 0,0 0,0 -0.1,-0.1 -0.1,-0.1 -0.1,-0.3 -0.1,-0.4 0,-1.5 1.1,-6.1 3.4,-13.7 1.9,-6.4 2.1,-7.7 2.1,-8.1 0,-0.7 -0.3,-1.3 -0.8,-1.7 -0.5,-0.4 -1.1,-0.6 -1.9,-0.6 -1.4,0 -2.9,0.5 -4.8,1.6 -1.8,1 -3.9,2.8 -6.1,5.2 -0.2,0.2 -0.2,0.5 0,0.7 0.1,0.2 0.4,0.3 0.7,0.2 0.8,-0.3 4.6,-1.9 5.2,-2.3 0.5,-0.3 0.9,-0.4 1.2,-0.4 0,0 0,0 0,0 0,0 0,0.1 0,0.1 0,0.3 -0.1,0.7 -0.2,1.2 -0.2,0.6 -1.3,3.9 -1.4,4.5"
   id="path614" />
		<path
   class="st9"
   d="m 421.7,3041.6 c -0.8,-0.8 -1.7,-1.2 -2.9,-1.2 -1.4,0 -2.7,0.6 -3.7,1.7 -1,1.1 -1.5,2.5 -1.5,4 0,1.2 0.4,2.3 1.1,3.1 0.8,0.8 1.7,1.2 2.8,1.2 1.4,0 2.6,-0.6 3.7,-1.8 1.1,-1.2 1.6,-2.5 1.6,-4.1 0,-1.1 -0.4,-2.1 -1.1,-2.9 z"
   id="path615" />
	</g>
	<g
   id="g619">
		<path
   class="st9"
   d="m 187.5,3248.1 c 1.2,-1.5 2.1,-3.6 1.8,-5.6 -0.2,-1.4 -1.1,-2.5 -2.1,-4 -0.9,-1.3 -1.3,-2.2 -0.9,-4.9 -4.1,7.5 3.1,5.3 1.2,14.5 z"
   id="path616" />
		<path
   class="st9"
   d="m 190,3239.1 c 0.4,0.8 0.8,1.6 1.1,2.5 0.9,3 0.3,5.6 -0.9,9.6 3.4,-3.6 4.6,-8 2.1,-12.6 -1.8,-3.1 -2.9,-4.3 -3,-6.9 0,-1.4 0.2,-2.8 0.6,-4.2 -0.7,0.9 -1.3,1.9 -1.7,3 v 0 c -0.3,0.7 -0.4,1.5 -0.4,2.3 -0.2,2.6 1,4.3 2.2,6.3 z"
   id="path617" />
		<g
   id="g618">
			<path
   class="st47"
   d="m 178.4,3264.3 c 0,0 0.2,0.3 0.2,0.3 1,1.6 2,2.9 3.3,4 4.5,4 10.3,4 14.8,-0.1 1.3,-1.2 2.3,-2.3 3.4,-4 0,0 0.2,-0.3 0.2,-0.3 0.1,-0.2 0.3,-0.4 0.4,-0.6 4.2,0 6.9,-2.2 8.1,-4.6 0.6,-1.1 0.8,-2.4 0.7,-3.7 -0.1,-1.2 -0.7,-2.3 -1.6,-3 -1.1,-0.8 -2.6,-1 -4.5,-0.4 0,-0.6 -0.1,-1.3 -0.2,-2 0,0 0,-0.1 0,-0.1 0,-0.2 0,-0.4 -0.1,-0.5 0,-0.1 -0.1,-0.2 -0.1,-0.3 -0.5,-1.1 -2.1,-2 -4.2,-2.6 -1,-0.3 -2.1,-0.5 -3.2,-0.7 -0.1,0.6 -0.3,1.1 -0.5,1.7 1,0.2 2.1,0.4 3.1,0.7 1.7,0.5 2.8,1.1 3.1,1.7 v 0.3 c -0.1,0.6 -1.3,1.2 -3.1,1.8 -2.9,0.7 -5.8,1.1 -8.8,1 -3,0 -5.9,-0.3 -8.8,-1.1 -1.8,-0.5 -3,-1.2 -3.1,-1.8 l 0.1,-0.4 c 0.3,-0.5 1.4,-1.1 3,-1.6 1.6,-0.5 3.3,-0.8 5,-0.9 0.1,-0.6 0.1,-1.1 0.1,-1.7 -1.9,0.1 -3.9,0.5 -5.8,1 -2,0.6 -3.5,1.4 -4.1,2.4 -0.1,0.1 -0.2,0.3 -0.2,0.4 -0.1,0.2 -0.1,0.4 -0.1,0.7 v 0.1 c -0.2,1.1 -0.2,2.3 -0.2,3.5 0,1.4 0.2,2.7 0.4,4 m 27.2,-0.1 c 0.2,-1.1 0.4,-2.3 0.4,-3.4 v 0 c 1.6,-0.6 2.7,-0.6 3.4,-0.1 0.5,0.4 0.8,1 0.8,1.7 0.1,0.9 -0.1,1.8 -0.5,2.6 -0.8,1.7 -2.6,3.2 -5.4,3.5 0.6,-1.4 1,-2.8 1.3,-4.3 z"
   id="path618" />
		</g>
	</g>
	<g
   id="g620">
		<path
   class="st9"
   d="m 213.9,3125.4 c 0.3,-0.4 0.3,-0.8 0.1,-1.3 -0.4,-0.9 -1.3,-2.8 -2.2,-4.7 -0.6,-1.3 -1.2,-2.7 -1.7,-3.7 -0.9,-2.2 -2.4,-1.4 -4.2,-1.7 H 204 l -2,3.1 5.6,0.1 1.4,3 c 0.3,1.2 0.5,1.5 1.3,3.1 -0.7,0 -1.2,0 -1.9,0 -6.7,-0.3 -10,0.1 -17.7,-0.1 -0.5,0 -1,0 -1.4,0 -2.7,0 -3.4,0 -3.4,0 l 3,-6.5 5.3,-0.1 -1.2,-2.6 h -3.3 c -1.5,0.3 -3,-0.5 -4.1,1.9 -0.5,1.2 -1.1,2.7 -1.8,4.2 -0.5,1.1 -0.9,2.2 -1.3,3.2 -0.7,1.7 -0.2,2.9 1.4,2.9 1.2,0 2.8,0 4.6,0 0.6,0 1.2,0 1.9,0 7.2,-0.2 13.4,-0.2 20.2,-0.1 0.7,0 1.5,0 2.2,0 0.4,0.1 0.8,-0.3 1.1,-0.7 z"
   id="path619" />
		<path
   class="st41"
   d="m 207.1,3101.8 c 0,-0.1 0.1,-0.1 0.1,-0.2 l 0.2,-0.4 v 0 c 0.6,-1.2 0.9,-2.6 0.9,-4 0,-5.3 -4.3,-9.7 -9.7,-9.7 -5.3,0 -9.7,4.3 -9.7,9.7 0,1.4 0.3,2.7 0.8,3.8 v 0 l 0.1,0.2 c 0.1,0.2 0.2,0.4 0.3,0.7 l 8.4,16.8 5.1,-10.1 m -4.9,-6.8 c -2.6,0 -4.7,-2.1 -4.7,-4.7 0,-2.6 2.1,-4.7 4.7,-4.7 2.6,0 4.7,2.1 4.7,4.7 0,2.6 -2.1,4.7 -4.7,4.7 z"
   id="path620" />
	</g>
	<g
   id="g628">
		<path
   class="st9"
   d="m 347.7,3133.3 c 1.9,-1.1 4.1,-1.7 6.5,-1.9 l -6,-15 c -0.2,-0.5 -0.5,-0.9 -0.9,-1.1 -0.4,-0.2 -0.8,-0.3 -1.4,-0.1 -1.4,0.7 -1.3,1.6 -1.1,2.8 z"
   id="path621" />
		<path
   class="st9"
   d="m 351.9,3141.3 c 0.9,-0.8 2.4,-1.1 3.3,-1 -0.5,-3.3 -0.3,-4.5 -0.5,-7.8 -2.3,0 -4.4,0.8 -6.5,2 z"
   id="path622" />
		<path
   class="st9"
   d="m 355.3,3142.2 c -0.2,0 -0.5,0 -0.7,0 -0.5,0 -1,0.2 -1.5,0.5 -1.1,0.7 -1.8,2.1 -2,3.3 -0.6,4.7 5.4,5.5 6.8,9.4 0.7,-1.7 1.7,-4.3 1.7,-6.8 0.1,-2.8 -1.2,-6 -4.3,-6.4 z"
   id="path623" />
		<path
   class="st41"
   d="m 312.8,3146.7 c -0.1,13.1 11.4,27.6 25.4,25.6 7.5,-1.1 14.2,-6 18.1,-12.2 -0.3,0 -0.6,-0.1 -0.9,-0.3 -1,-0.4 -1.7,-1.2 -2,-2.1 -0.3,-0.7 -1.3,-1.4 -2.2,-2.2 -2.7,-2.1 -5.4,-4.2 -4.8,-8.9 0.1,-1 0.4,-2 0.9,-2.9 l -3.6,-6.5 c -0.2,-0.4 -0.3,-0.8 -0.4,-1.2 0,-0.1 -0.1,-0.2 -0.1,-0.2 -1,0.6 -2.1,1.1 -3.4,1.5 -6.5,2 -10.8,-0.9 -5.8,-7.5 3.5,-4.6 -4.2,-8.7 -11,-4.1 -2.1,1.4 -4,3.4 -5.7,5.9"
   id="path624" />
		<path
   class="st41"
   d="m 320.8,3136 c 1.5,-1.2 3.7,-1 4.9,0.6 1.2,1.5 1,3.7 -0.6,4.9 -1.5,1.2 -3.7,1 -4.9,-0.6 -1.2,-1.5 -1,-3.7 0.6,-4.9 z"
   id="path625" />
		<path
   class="st41"
   d="m 324.9,3154.6 c -1.8,1.4 -4.4,1.1 -5.8,-0.7 -1.4,-1.8 -1.1,-4.4 0.7,-5.8 1.8,-1.4 4.4,-1.1 5.8,0.7 1.4,1.8 1.1,4.4 -0.7,5.8 z"
   id="path626" />
		<path
   class="st41"
   d="m 335.2,3165.2 c -2.1,1.6 -5.1,1.3 -6.8,-0.8 -1.6,-2.1 -1.3,-5.1 0.8,-6.8 2.1,-1.6 5.1,-1.3 6.8,0.8 1.6,2.1 1.3,5.2 -0.8,6.8 z"
   id="path627" />
		<path
   class="st41"
   d="m 347.1,3161.1 c -1.7,1.4 -4.2,1.1 -5.5,-0.6 -3.2,-4.1 3,-9 6.2,-4.9 1.3,1.7 1,4.2 -0.7,5.5 z"
   id="path628" />
	</g>
	<g
   id="g630">
		<path
   class="st41"
   d="m 385,3200.5 h 32.3 -34.8 c -2.4,-0.2 -4.1,-2.1 -4.2,-4.3 -0.1,-0.9 0.1,-5.9 6.3,-5.8 6,0.1 32.8,-0.1 32.8,-0.1 l -5.8,-26.4 h -25.8 c -2.2,0 -3.5,1.4 -3.5,2.5 l -2.9,19.4"
   id="path629" />
		<line
   class="st41"
   x1="382.60001"
   y1="3193.8"
   x2="415.79999"
   y2="3193.8"
   id="line629" />
		<line
   class="st41"
   x1="382.60001"
   y1="3196.8"
   x2="415.79999"
   y2="3196.8"
   id="line630" />
		<path
   class="st9"
   d="m 393.2,3194.1 h 5.3 v 11.7 l -2.7,-3.8 -2.6,3.8 z"
   id="path630" />
	</g>
	<g
   id="g633">
		<path
   class="st41"
   d="m 241.5,3178.4 v 10.4 c 0,2.5 2,4.5 4.5,4.5 h 5.4 v 8 l 8.1,-8 h 27.4 c 2.5,0 4.5,-2 4.5,-4.5 v -21.5 c 0,-2.5 -2,-4.5 -4.5,-4.5 H 246 c -2.5,0 -4.5,2 -4.5,4.5"
   id="path631" />
		<g
   id="g632">
			<rect
   x="247.2"
   y="3169"
   class="st22"
   width="12.9"
   height="18.1"
   id="rect631" />
			<rect
   x="272.89999"
   y="3169"
   class="st9"
   width="12.9"
   height="18.1"
   id="rect632" />
		</g>
	</g>
</g>













</svg>
