<svg xmlns="http://www.w3.org/2000/svg" width="8.032" height="12.987" viewBox="0 0 8.032 12.987">
  <g id="Group_859" data-name="Group 859" transform="translate(-1087.967 -396.717)">
    <path id="Path_139" data-name="Path 139" d="M27.98,2.853H33.5A1.258,1.258,0,0,1,34.756,4.11V5.438A3.233,3.233,0,0,1,33.835,7.7L32.5,9.073a.39.39,0,0,0,0,.548l1.288,1.321a3.39,3.39,0,0,1,.968,2.38v1.262A1.258,1.258,0,0,1,33.5,15.84H27.98a1.258,1.258,0,0,1-1.256-1.257V13.348a3.432,3.432,0,0,1,1.008-2.42L29.067,9.6a.363.363,0,0,0,0-.515L27.685,7.718a3.269,3.269,0,0,1-.961-2.306V4.11A1.258,1.258,0,0,1,27.98,2.853Zm5.408,1.368h-5.3V5.412a1.892,1.892,0,0,0,.556,1.334L30.03,8.118a1.731,1.731,0,0,1,0,2.458L28.7,11.9a2.055,2.055,0,0,0-.6,1.449v1.124h5.3V13.322a2.03,2.03,0,0,0-.579-1.425l-1.288-1.321a1.751,1.751,0,0,1,0-2.459L32.855,6.75a1.871,1.871,0,0,0,.533-1.312Z" transform="translate(1061.243 393.864)" fill="#aaa"/>
    <path id="Path_139-2" data-name="Path 139" d="M11.633,6.908s1.98-2.542.41-2.487-6.626.315-6.626.315l.645,2.486,2.327,2.87H9.982Z" transform="translate(1083.032 393.231)" fill="#aaa"/>
  </g>
</svg>
