<?xml version="1.0" encoding="UTF-8" standalone="no"?>
<!-- Generator: Adobe Illustrator 22.0.1, SVG Export Plug-In . SVG Version: 6.00 Build 0)  -->

<svg
   version="1.1"
   id="Layer_1"
   x="0px"
   y="0px"
   viewBox="0 0 269.29999 253.90063"
   xml:space="preserve"
   width="269.29999"
   height="253.90063"
   xmlns="http://www.w3.org/2000/svg"
   xmlns:svg="http://www.w3.org/2000/svg"><defs
   id="defs746" />
<style
   type="text/css"
   id="style1">
	.st0{fill:#EAE2F0;}
	.st1{fill:#E1F4FD;}
	.st2{fill:#FFFFFF;}
	.st3{font-family:'Gantari-Bold';}
	.st4{font-size:30px;}
	.st5{fill:none;}
	.st6{font-family:'Gantari-Regular';}
	.st7{font-size:14px;}
	.st8{font-family:'Gantari-SemiBold';}
	.st9{fill:#782B90;}
	.st10{font-size:24px;}
	.st11{font-size:16px;}
	.st12{font-family:'Gantari-Medium';}
	.st13{font-family:'AlbertSans-MediumItalic';}
	.st14{font-size:16.8941px;}
	.st15{fill:url(#SVGID_1_);}
	.st16{fill:url(#SVGID_2_);}
	.st17{fill:url(#SVGID_3_);}
	.st18{fill:url(#SVGID_4_);}
	.st19{fill:#231F20;}
	.st20{font-family:'Gantari-BoldItalic';}
	.st21{fill:#10101A;}
	.st22{fill:#00AEEF;}
	.st23{font-size:11.4192px;}
	.st24{clip-path:url(#SVGID_6_);fill:#FFFFFF;}
	.st25{clip-path:url(#SVGID_6_);}
	.st26{fill:#020202;}
	.st27{fill:#EAEBF6;}
	.st28{clip-path:url(#SVGID_8_);}
	.st29{fill:#23A9E1;}
	.st30{font-size:18px;}
	.st31{fill:#BCBEC0;}
	.st32{font-size:12px;}
	.st33{font-size:13px;}
	.st34{fill:#FFFFFF;stroke:#000000;stroke-width:0.7148;stroke-miterlimit:10;}
	.st35{fill:#FFFFFF;stroke:#000000;stroke-width:0.6955;stroke-miterlimit:10;}
	.st36{fill:#010101;}
	.st37{fill:#FFFFFF;stroke:#000000;stroke-width:0.9307;stroke-miterlimit:10;}
	.st38{fill-rule:evenodd;clip-rule:evenodd;fill:#FFFFFF;stroke:#000000;stroke-miterlimit:10;}
	.st39{fill-rule:evenodd;clip-rule:evenodd;fill:#782B90;}
	.st40{fill:#FFFFFF;stroke:#000000;stroke-width:0.71;stroke-miterlimit:10;}
	.st41{fill:#FFFFFF;stroke:#000000;stroke-miterlimit:10;}
	.st42{fill:#FFFFFF;stroke:#000000;stroke-width:0.6956;stroke-miterlimit:10;}
	.st43{fill:none;stroke:#000000;stroke-miterlimit:10;}
	.st44{fill:#FFFFFF;stroke:#000000;stroke-width:1.2628;stroke-miterlimit:10;}
	.st45{fill:#FFFFFF;stroke:#000000;stroke-linecap:round;stroke-linejoin:round;stroke-miterlimit:10;}
	.st46{fill:none;stroke:#782B90;stroke-width:2;stroke-miterlimit:10;}
	.st47{fill:#FFFFFF;stroke:#000000;stroke-linejoin:round;stroke-miterlimit:10;}
	.st48{fill:#F7F6FB;}
	.st49{fill:#FFFFFF;stroke:#000000;stroke-width:0.2236;stroke-miterlimit:10;}
	.st50{fill:#FFFFFF;stroke:#000000;stroke-width:0.4473;stroke-miterlimit:10;}
</style>

























































































<g
   id="g750"
   transform="translate(-208,-3561.7744)"><circle
     class="st0"
     cx="343.10001"
     cy="3696.8"
     r="86.5"
     id="circle346" /><g
     id="g367">
	<path
   class="st26"
   d="m 461,3814.6 c -1.9,-0.2 -4,0 -5.9,0 l -12,-0.1 c 2.8,-1.6 4.6,-3 6.2,-5.9 1.7,-0.2 3.1,-0.4 4.2,-1.8 0.6,-0.7 0.8,-1.7 0.9,-2.5 0.3,-2 0.1,-4.3 0.1,-6.3 0,-2.4 0.1,-5 -0.1,-7.4 -1.4,-0.1 -2.8,-0.1 -4.2,-0.1 0,-1 0,-1.9 -0.1,-2.9 -2.2,-0.1 -4.4,0 -6.6,-0.1 h -4.9 c -0.9,0 -1.8,0 -2.8,0 h -0.4 -1.8 c -3.6,0 -7.2,-0.1 -10.7,0 l -0.1,11 c 0,2.7 -0.3,5.9 0.3,8.6 0.1,0.2 0.1,0.5 0.2,0.7 0.1,0.2 0.2,0.4 0.2,0.7 0.1,0.2 0.2,0.4 0.3,0.6 0.1,0.2 0.2,0.4 0.3,0.6 0.1,0.2 0.2,0.4 0.4,0.6 0.1,0.2 0.3,0.4 0.4,0.6 0.1,0.2 0.3,0.4 0.4,0.5 0.2,0.2 0.3,0.3 0.5,0.5 1,1 2.2,1.7 3.4,2.5 -4.9,0.1 -9.8,0.1 -14.8,0.1 -3.9,0 -7.8,0.1 -11.7,-0.1 1.3,-0.4 2.6,-0.7 3.8,-1.2 4.1,-1.7 7.6,-5.2 9.6,-9.1 1.8,-3.5 2.4,-7.5 2.1,-11.4 -0.3,-3.3 -1.5,-6.5 -2.4,-9.7 l -3.2,-10.9 -7.4,-25.4 c -1.2,-4 -2.3,-8.1 -3.6,-12.1 -3,-9.2 -10.8,-17.1 -19.3,-21.4 -9.2,-4.7 -18.3,-4.8 -28.3,-4.7 v -11.6 c 1.8,-0.8 3.1,-1.6 4.6,-3 2,0 3.9,0 5.9,0 4.4,0 8.3,-0.1 11.6,-3.4 2.4,-2.4 3.6,-5.9 3.5,-9.3 -0.1,-5.6 -4.7,-8.7 -6,-13.8 -0.9,-3.7 0.5,-6 1.1,-9.4 0,-0.2 0.1,-0.4 0.1,-0.6 0,-0.2 0.1,-0.4 0.1,-0.6 0,-0.2 0,-0.4 0.1,-0.6 0.1,-0.2 0,-0.4 0.1,-0.6 0,-0.2 0,-0.4 0,-0.6 0,-0.2 0,-0.4 0,-0.6 0,-0.2 0,-0.4 0,-0.6 0,-0.2 0,-0.4 0,-0.6 0,-0.2 0,-0.4 0,-0.6 0,-0.2 0,-0.4 -0.1,-0.6 -0.1,-0.2 -0.1,-0.4 -0.1,-0.6 0,-0.2 -0.1,-0.4 -0.1,-0.6 0,-0.2 -0.1,-0.4 -0.1,-0.6 0,-0.2 -0.1,-0.4 -0.1,-0.6 -0.1,-0.2 -0.1,-0.4 -0.2,-0.6 -0.1,-0.2 -0.1,-0.4 -0.2,-0.6 -0.1,-0.2 -0.1,-0.4 -0.2,-0.6 -0.1,-0.2 -0.1,-0.4 -0.2,-0.6 -0.1,-0.2 -0.2,-0.4 -0.2,-0.6 -0.1,-0.2 -0.2,-0.4 -0.3,-0.6 -0.1,-0.2 -0.2,-0.4 -0.3,-0.6 -0.1,-0.2 -0.2,-0.4 -0.3,-0.5 -0.1,-0.2 -0.2,-0.4 -0.3,-0.5 -0.1,-0.2 -0.2,-0.4 -0.3,-0.5 -0.1,-0.2 -0.2,-0.3 -0.3,-0.5 -0.1,-0.2 -0.2,-0.3 -0.4,-0.5 -0.1,-0.2 -0.2,-0.3 -0.4,-0.5 -0.1,-0.2 -0.3,-0.3 -0.4,-0.5 -0.1,-0.2 -0.3,-0.3 -0.4,-0.5 -0.1,-0.2 -0.3,-0.3 -0.4,-0.5 -0.1,-0.2 -0.3,-0.3 -0.4,-0.4 -0.1,-0.1 -0.3,-0.3 -0.4,-0.4 -3.8,-3.6 -9.1,-5.8 -14.4,-5.6 -3.8,0.1 -8.3,1.5 -11.2,4 -3.9,-3.1 -9.4,-4.5 -14.3,-3.9 -0.3,0 -0.6,0.1 -1,0.2 -0.3,0.1 -0.6,0.1 -1,0.2 -0.4,0.1 -0.6,0.2 -0.9,0.2 -0.3,0.1 -0.6,0.2 -0.9,0.3 -0.3,0.1 -0.6,0.2 -0.9,0.3 -0.3,0.1 -0.6,0.2 -0.9,0.4 -0.3,0.1 -0.6,0.3 -0.9,0.4 -0.3,0.1 -0.6,0.3 -0.9,0.5 -0.3,0.2 -0.6,0.3 -0.8,0.5 -0.3,0.2 -0.5,0.4 -0.8,0.5 -0.3,0.1 -0.5,0.4 -0.8,0.6 -0.3,0.2 -0.5,0.4 -0.7,0.6 -0.2,0.2 -0.5,0.4 -0.7,0.7 -0.2,0.2 -0.5,0.5 -0.7,0.7 -0.2,0.2 -0.4,0.5 -0.6,0.7 -0.2,0.2 -0.4,0.5 -0.6,0.8 -3.2,4.1 -4.7,9.7 -4,14.8 0.3,1.9 0.9,3.7 1.4,5.5 0,0.2 0.1,0.4 0.1,0.6 0,0.2 0.1,0.4 0.1,0.6 0,0.2 0,0.4 0.1,0.6 0,0.2 0,0.4 0,0.6 0,0.2 0,0.4 0,0.6 0,0.2 0,0.4 0,0.6 0,0.2 0,0.4 -0.1,0.6 0,0.2 -0.1,0.4 -0.1,0.6 0,0.2 -0.1,0.4 -0.1,0.6 -0.1,0.2 -0.1,0.4 -0.2,0.6 -0.1,0.2 -0.1,0.4 -0.2,0.6 -0.1,0.2 -0.2,0.4 -0.2,0.5 -0.1,0.2 -0.2,0.4 -0.3,0.5 -0.1,0.2 -0.2,0.3 -0.3,0.5 -0.1,0.2 -0.2,0.3 -0.3,0.5 -0.1,0.2 -0.2,0.3 -0.3,0.5 -0.7,0.9 -1.5,1.8 -2.1,2.8 -1.6,2.5 -2.2,5.7 -1.8,8.6 0,0.2 0.1,0.4 0.1,0.6 0,0.2 0.1,0.4 0.1,0.6 0,0.2 0.1,0.4 0.2,0.6 0.1,0.2 0.1,0.4 0.2,0.6 0.1,0.2 0.1,0.4 0.2,0.6 0.1,0.2 0.2,0.4 0.3,0.6 0.1,0.2 0.2,0.4 0.3,0.6 0.1,0.2 0.2,0.4 0.3,0.6 0.1,0.2 0.2,0.4 0.3,0.6 0.1,0.2 0.2,0.4 0.4,0.5 0.1,0.2 0.3,0.4 0.4,0.5 0.1,0.2 0.3,0.3 0.4,0.5 0.1,0.2 0.3,0.3 0.4,0.5 0.2,0.2 0.3,0.3 0.5,0.5 0.2,0.1 0.3,0.3 0.5,0.4 0.2,0.1 0.3,0.3 0.5,0.4 4.7,3.5 10.3,2.5 15.8,2.7 1.4,1.1 2.8,2 4.5,2.8 0,3.9 0.1,7.7 0,11.6 -4.3,-0.1 -8.8,-0.3 -13.1,0.1 -9.1,0.8 -17.9,4.6 -24.5,10.9 -0.5,0.4 -0.9,0.9 -1.4,1.4 -0.5,0.5 -0.9,0.9 -1.3,1.4 -0.4,0.5 -0.8,1 -1.2,1.5 -0.4,0.5 -0.8,1 -1.2,1.5 -0.4,0.5 -0.7,1.1 -1.1,1.6 -0.3,0.5 -0.7,1.1 -1,1.7 -0.3,0.6 -0.6,1.1 -0.9,1.7 -0.3,0.6 -0.6,1.2 -0.8,1.7 -1.9,4.1 -2.9,8.4 -4,12.8 l -4,14.9 -6.7,24.7 c -0.5,1.9 -1.1,3.7 -1.5,5.6 h -17.9 c -2.2,0 -6.2,0.2 -8.2,-0.1 -0.9,-0.4 -2.2,-0.2 -3.2,-0.2 h -4 c 0,2.6 0,5.2 0,7.8 0,1.5 0.1,3 0,4.5 -1.2,0 -3.1,-0.3 -4.2,0.2 -0.1,0.2 -0.1,0.4 -0.1,0.7 0.2,1.5 0.1,3 0.1,4.5 v 7 c -1.4,0 -2.8,0 -4.2,0.1 -0.8,0 -3.1,-0.2 -3.7,0.3 l 0.1,0.2 c 0.5,0.2 0.9,0.3 1.5,0.3 2,0.1 4,0 6,0 h 14.4 39 142 c 7.4,0.1 14.8,0.1 22.2,0 1.6,0 10.4,0.2 11.2,-0.1 0.3,-0.1 0.3,-0.1 0.4,-0.4 -0.3,-0.3 -0.5,-0.4 -0.8,-0.5 z"
   id="path346" />
	<path
   class="st9"
   d="m 270.6,3790.3 c 0.4,-1.9 1,-3.7 1.5,-5.6 l 6.7,-24.7 4,-14.9 c 1.2,-4.3 2.2,-8.7 4,-12.8 0.3,-0.6 0.5,-1.2 0.8,-1.7 0.3,-0.6 0.6,-1.1 0.9,-1.7 0.3,-0.6 0.7,-1.1 1,-1.7 0.3,-0.5 0.7,-1.1 1.1,-1.6 0.4,-0.5 0.8,-1 1.2,-1.5 0.4,-0.5 0.8,-1 1.2,-1.5 0.4,-0.5 0.9,-1 1.3,-1.4 0.4,-0.4 0.9,-0.9 1.4,-1.4 6.6,-6.3 15.4,-10.1 24.5,-10.9 4.3,-0.4 8.7,-0.2 13.1,-0.1 h 21 c 10,-0.1 19.2,0 28.3,4.7 8.5,4.3 16.3,12.2 19.3,21.4 1.3,4 2.4,8.1 3.6,12.1 l 7.4,25.4 3.2,10.9 c 0.9,3.1 2.1,6.4 2.4,9.7 0.4,3.9 -0.3,7.9 -2.1,11.4 -2,3.9 -5.5,7.4 -9.6,9.1 -1.2,0.5 -2.5,0.8 -3.8,1.2 3.9,0.2 -124.7,0.1 -120.8,0.1 z"
   id="path347" />
	<path
   class="st2"
   d="m 450.2,3791.4 c 1.1,0 2.2,0 3.4,0 v 0.4 c 0.1,2.7 0.4,10.9 -0.2,13.2 -0.2,0.8 -0.6,1.3 -1.2,2 -0.6,0.4 -1.3,0.7 -1.9,0.8 -0.3,0 -0.3,0 -0.5,-0.2 0.8,-5 0.4,-11.1 0.4,-16.2 z"
   id="path348" />
	<path
   class="st2"
   d="m 320.9,3671.9 c 0.8,-0.1 1.5,0 2.3,0.1 -0.1,3.4 0,6.9 0,10.3 -1.4,0.1 -2.5,0 -3.8,-0.5 -0.1,-0.1 -0.3,-0.2 -0.4,-0.2 -0.1,0 -0.2,-0.1 -0.2,-0.1 -0.1,-0.1 -0.1,-0.1 -0.2,-0.2 -0.1,-0.1 -0.1,-0.1 -0.2,-0.2 -0.1,-0.1 -0.1,-0.1 -0.2,-0.2 -0.1,-0.1 -0.1,-0.1 -0.2,-0.2 -0.1,-0.1 -0.1,-0.1 -0.2,-0.2 -0.1,-0.1 -0.1,-0.1 -0.2,-0.2 -0.1,-0.1 -0.1,-0.1 -0.2,-0.2 -0.1,-0.1 -0.1,-0.1 -0.2,-0.2 0,-0.1 -0.1,-0.2 -0.1,-0.2 0,-0.1 -0.1,-0.2 -0.1,-0.2 0,-0.1 -0.1,-0.2 -0.1,-0.2 0,-0.1 -0.1,-0.2 -0.1,-0.2 0,-0.1 -0.1,-0.2 -0.1,-0.3 0,-0.1 -0.1,-0.2 -0.1,-0.3 0,-0.1 0,-0.2 -0.1,-0.3 -0.3,-1.4 -0.1,-2.9 0.7,-4.1 1,-1.3 2.2,-1.9 3.7,-2.2 z"
   id="path349" />
	<path
   class="st2"
   d="m 364.4,3671.9 c 1.9,0 3.8,-0.1 5.3,1.3 1.1,1 1.6,2.5 1.6,3.9 0,1.6 -0.7,2.8 -1.8,3.9 -1.6,1.2 -3.6,1.2 -5.5,1.3 0,-2 0,-4 0.1,-6 0,-1.4 -0.1,-2.9 0.1,-4.3 z"
   id="path350" />
	<path
   class="st2"
   d="m 358.4,3811.9 c 8,0.2 16,0.1 24,0.1 v 2.7 h -23.9 c -0.1,-1 -0.1,-1.9 -0.1,-2.8 z"
   id="path351" />
	<path
   class="st2"
   d="m 304.4,3811.7 24.2,0.1 c 0,0.9 0,1.9 -0.1,2.8 h -24.1 z"
   id="path352" />
	<path
   class="st2"
   d="m 331.2,3667.1 c 1.9,-0.3 3.9,0.3 5.5,1.4 0.1,0.1 0.2,0.2 0.3,0.2 0.1,0 0.2,0.2 0.3,0.3 0.1,0.1 0.2,0.2 0.3,0.3 0.1,0.1 0.2,0.2 0.3,0.3 0.1,0.1 0.2,0.2 0.3,0.3 0.1,0.1 0.2,0.2 0.3,0.3 0.1,0.1 0.2,0.2 0.2,0.3 0.1,0.1 0.2,0.2 0.2,0.3 0.1,0.1 0.1,0.2 0.2,0.3 0.1,0.1 0.1,0.2 0.2,0.4 0.1,0.1 0.1,0.2 0.2,0.4 0.1,0.1 0.1,0.2 0.2,0.4 0,0.1 0.1,0.2 0.1,0.4 0,0.1 0.1,0.3 0.1,0.4 0,0.1 0.1,0.3 0.1,0.4 0,0.1 0.1,0.3 0.1,0.4 0.4,2.3 0,4.7 -1.4,6.5 -1.3,1.8 -3.3,2.8 -5.5,3.2 -1.8,0.1 -3.4,-0.1 -5,-1 -1.9,-1.1 -3.3,-3.2 -3.8,-5.3 -0.5,-2.2 0,-4.5 1.2,-6.3 1.3,-2.3 3.2,-3.4 5.6,-3.9 z"
   id="path353" />
	<path
   class="st26"
   d="m 330.2,3675.6 c 1.2,0 2.5,-0.3 3.6,0.1 0.2,0.3 0.2,0.4 0.1,0.8 -1,0 -1.9,0.1 -2.9,0 -0.4,0 -0.7,-0.1 -1,-0.4 z"
   id="path354" />
	<path
   class="st2"
   d="m 355.2,3667 c 0,0 0.1,0 0.1,0 1.6,0 3.4,0.7 4.6,1.7 0.1,0.1 0.2,0.2 0.3,0.3 0.1,0.1 0.2,0.2 0.3,0.3 0.1,0.1 0.2,0.2 0.3,0.3 0.1,0.1 0.2,0.2 0.3,0.3 0.1,0.1 0.2,0.2 0.3,0.3 0.1,0.1 0.2,0.2 0.2,0.3 0.1,0.1 0.2,0.2 0.2,0.3 0.1,0.1 0.1,0.2 0.2,0.4 0.1,0.1 0.1,0.2 0.2,0.4 0.1,0.1 0.1,0.3 0.2,0.4 0.1,0.1 0.1,0.3 0.1,0.4 0,0.1 0.1,0.3 0.1,0.4 0,0.1 0.1,0.3 0.1,0.4 0,0.1 0.1,0.3 0.1,0.4 0,0.1 0,0.3 0.1,0.4 0,0.1 0,0.3 0,0.4 0,0.1 0,0.3 0,0.4 0,0.1 0,0.3 0,0.4 0,0.1 0,0.3 0,0.4 0,0.1 0,0.3 0,0.4 0,0.1 0,0.3 -0.1,0.4 0,0.1 0,0.3 -0.1,0.4 0,0.1 -0.1,0.3 -0.1,0.4 0,0.1 -0.1,0.3 -0.1,0.4 0,0.1 -0.1,0.3 -0.1,0.4 0,0.1 -0.1,0.3 -0.2,0.4 -0.1,0.1 -0.1,0.3 -0.2,0.4 -0.1,0.1 -0.1,0.3 -0.2,0.4 -0.1,0.1 -0.1,0.2 -0.2,0.4 -0.1,0.1 -0.1,0.2 -0.2,0.4 -0.1,0.1 -0.2,0.2 -0.2,0.3 -0.1,0.1 -0.2,0.2 -0.3,0.3 -1.6,1.9 -3.6,2.7 -6,2.9 -1.8,-0.1 -3.4,-0.5 -4.8,-1.7 -1.7,-1.3 -2.9,-3.5 -3.1,-5.6 0,-0.1 0,-0.3 0,-0.4 0,-0.1 0,-0.3 0,-0.4 0,-0.1 0,-0.3 0,-0.4 0,-0.1 0,-0.3 0,-0.4 0,-0.1 0,-0.3 0,-0.4 0,-0.1 0,-0.3 0.1,-0.4 0,-0.1 0.1,-0.3 0.1,-0.4 0,-0.1 0.1,-0.3 0.1,-0.4 0,-0.1 0.1,-0.3 0.1,-0.4 0,-0.1 0.1,-0.3 0.1,-0.4 0.1,-0.1 0.1,-0.3 0.2,-0.4 0.1,-0.1 0.1,-0.3 0.2,-0.4 0.1,-0.1 0.1,-0.2 0.2,-0.4 0.1,-0.2 0.1,-0.2 0.2,-0.4 0.1,-0.1 0.2,-0.2 0.2,-0.3 0.1,-0.1 0.2,-0.2 0.3,-0.3 1.7,-2.1 3.8,-2.7 6.4,-3 z"
   id="path355" />
	<path
   class="st26"
   d="m 353.2,3675.6 c 1.2,0 2.5,-0.3 3.7,0.1 0.3,0.3 0.2,0.5 0.2,0.9 -1.2,0 -2.6,0.3 -3.7,-0.2 -0.3,-0.3 -0.2,-0.4 -0.2,-0.8 z"
   id="path356" />
	<path
   class="st2"
   d="m 343.5,3654.5 c 1.2,1 2.4,2.5 3.5,3.6 2.6,2.7 5.2,5.2 7.7,8 -1.7,0.2 -3.2,0.6 -4.6,1.6 -2.3,1.6 -3.4,3.9 -3.9,6.6 -0.9,-0.4 -1.7,-0.5 -2.6,-0.5 -0.9,0.1 -1.7,0.2 -2.6,0.5 -0.3,-2.1 -1.1,-4 -2.6,-5.5 -1.8,-1.8 -3.9,-2.6 -6.5,-2.6 1.4,-1.7 3.1,-3.3 4.7,-4.9 2.2,-2.2 4.5,-4.5 6.9,-6.8 z"
   id="path357" />
	<path
   class="st2"
   d="m 241.2,3789.9 c 0.9,0 2.3,-0.2 3.2,0.2 0.1,0.3 0,0.6 0.3,0.8 2.2,0.3 4.5,0 6.7,0.1 h 17 c 3,0 6,-0.1 9,0 v 11.2 c -6.2,0 -12.5,0.1 -18.7,0 -2.5,0.2 -5,0 -7.5,0 h -14.1 c 0.1,-1.5 0,-3 0,-4.5 0,-2.6 0,-5.2 0,-7.8 z"
   id="path358" />
	<path
   class="st26"
   d="m 241.2,3789.9 c 0.9,0 2.3,-0.2 3.2,0.2 0.1,0.3 0,0.6 0.3,0.8 2.2,0.3 4.5,0 6.7,0.1 -2.3,0.1 -4.5,0 -6.8,0 0,3.7 0,7.4 0,11.1 h 8.9 c 1.7,0 3.5,-0.1 5.3,0.1 -2.5,0.2 -5,0 -7.5,0 h -14.1 c 0.1,-1.5 0,-3 0,-4.5 0,-2.6 0,-5.2 0,-7.8 z"
   id="path359" />
	<path
   class="st26"
   d="m 442.5,3788.5 c 2.3,0 4.6,-0.1 6.8,0 0.1,3.1 0,6.2 0,9.4 0,2.8 0.3,6 -0.3,8.7 -0.6,2.7 -2.5,5 -4.8,6.4 -2.7,1.7 -5.4,1.6 -8.5,1.6 -1.5,0 -3,0 -4.5,-0.4 -1.7,-0.4 -3.2,-1.3 -4.5,-2.5 -0.2,-0.2 -0.3,-0.3 -0.5,-0.5 -0.1,-0.2 -0.3,-0.3 -0.4,-0.5 -0.1,-0.2 -0.3,-0.4 -0.4,-0.6 -0.1,-0.2 -0.2,-0.4 -0.4,-0.6 -0.1,-0.2 -0.2,-0.4 -0.3,-0.6 -0.1,-0.2 -0.2,-0.4 -0.3,-0.6 -0.1,-0.2 -0.2,-0.4 -0.2,-0.6 0,-0.2 -0.1,-0.4 -0.2,-0.7 -0.6,-2.4 -0.3,-5.3 -0.3,-7.8 v -10.8 z"
   id="path360" />
	<path
   class="st22"
   d="m 232.8,3803.1 55.7,0.1 v 11.4 l -34.6,-0.1 c -2.8,0 -5.6,0 -8.3,0 -2.3,0 -4.8,0.3 -7.1,0 -3.2,0 -6.5,0.2 -9.7,0.1 1.4,-0.1 2.8,-0.1 4.2,-0.1 v -7 c -0.1,-1.4 0,-3 -0.2,-4.4 z"
   id="path361" />
	<path
   class="st2"
   d="m 238.4,3803.2 c 2.2,0 4.4,0 6.7,0 v 11.4 c -2.1,0 -4.5,-0.2 -6.6,0.1 z"
   id="path362" />
	<path
   class="st2"
   d="m 343.4,3674.7 c 1,0 1.8,0.2 2.7,0.5 0,0.9 0.1,1.7 0.4,2.6 0.7,2.3 2.3,4.4 4.4,5.5 2,1.1 4.6,1.3 6.8,0.6 2.8,-0.9 4.4,-3.1 5.6,-5.6 -0.2,4 -0.2,7.5 -2,11.1 -1.7,3.5 -4.5,5.8 -8.1,7 0,3.2 0,6.4 0,9.6 0,2.1 0.2,4.3 -0.2,6.3 -0.1,0.3 -0.2,0.7 -0.3,1 -0.1,0.3 -0.2,0.6 -0.4,1 -0.1,0.3 -0.3,0.6 -0.5,0.9 -0.2,0.3 -0.4,0.6 -0.6,0.9 -1.7,2.3 -4.2,3.4 -6.9,3.8 -0.4,0 -0.9,0 -1.3,0 -0.2,0 -0.3,0 -0.5,0 -0.2,0 -0.3,0 -0.5,0 -0.2,0 -0.3,0 -0.5,-0.1 -0.2,0 -0.3,-0.1 -0.5,-0.1 -0.2,0 -0.3,-0.1 -0.4,-0.1 -0.1,0 -0.3,-0.1 -0.4,-0.1 -0.1,0 -0.3,-0.1 -0.4,-0.2 -0.1,-0.1 -0.3,-0.1 -0.4,-0.2 -0.1,-0.1 -0.3,-0.1 -0.4,-0.2 -0.1,-0.1 -0.3,-0.1 -0.4,-0.2 -0.1,-0.1 -0.3,-0.2 -0.4,-0.2 -0.1,-0.1 -0.3,-0.2 -0.4,-0.3 -0.1,-0.1 -0.2,-0.2 -0.4,-0.3 -0.1,-0.1 -0.2,-0.2 -0.4,-0.3 -0.1,-0.1 -0.2,-0.2 -0.3,-0.3 -0.1,-0.1 -0.2,-0.2 -0.3,-0.3 -3.3,-3.5 -2.9,-8.1 -2.9,-12.6 0,-2.6 0,-5.3 0,-7.9 -2.1,-0.6 -3.9,-1.8 -5.4,-3.3 -3.9,-4 -4.6,-9.1 -4.5,-14.5 0.5,0.9 1,1.8 1.7,2.6 1.6,1.7 3.8,2.8 6.1,2.9 0.1,0 0.3,0 0.4,0 0.1,0 0.3,0 0.4,0 0.1,0 0.3,0 0.4,0 0.1,0 0.3,0 0.4,-0.1 0.1,0 0.3,0 0.4,-0.1 0.1,0 0.3,-0.1 0.4,-0.1 0.1,0 0.3,-0.1 0.4,-0.1 0.1,0 0.3,-0.1 0.4,-0.1 0.1,-0.1 0.3,-0.1 0.4,-0.2 0.1,-0.1 0.3,-0.1 0.4,-0.2 0.1,-0.1 0.3,-0.1 0.4,-0.2 0.1,-0.1 0.3,-0.1 0.4,-0.2 0.1,-0.1 0.2,-0.2 0.4,-0.2 0.1,-0.1 0.2,-0.2 0.4,-0.3 0.2,-0.1 0.2,-0.2 0.3,-0.3 0.1,-0.1 0.2,-0.2 0.3,-0.3 1.9,-1.8 2.6,-4.1 2.7,-6.6 1.5,-0.1 2.3,-0.3 3.1,-0.5 z"
   id="path363" />
	<path
   class="st26"
   d="m 338.7,3688.2 c 1.4,0.2 2.4,2 4.4,2.1 2.6,0.2 4.3,-2.1 5,-2.1 0.2,0.2 0.1,0.3 0.1,0.6 -1.2,1.2 -2.5,2 -4.2,2.2 -1.4,0.1 -3.3,-0.3 -4.3,-1.2 -0.6,-0.4 -1,-0.8 -1,-1.6 z"
   id="path364" />
	<path
   class="st2"
   d="m 350,3773.3 c 1.5,0 3.1,0 4.6,0 0.2,1.7 0.2,3.4 0.3,5.1 l 0.7,10 c 0.6,8.7 1.3,17.4 2.1,26.1 h -20.3 -7.8 c 0.1,-3.3 0.5,-6.6 0.7,-9.9 l 2.2,-31.3 z"
   id="path365" />
	<path
   class="st2"
   d="m 293.1,3730.4 c 0,0 0.1,0 0.1,0 2.3,-0.1 4.7,-0.1 7,-0.1 h 11.8 34.6 31.4 10 c 1.7,0 3.4,-0.1 5.1,0 0.9,0.1 1.8,0.5 2.5,1.1 1.2,1.1 1.3,2.4 1.4,3.9 0.1,3.6 0,7.3 0,11 l 0.1,22.4 c 0,5.1 0,10.2 0,15.3 0,2.6 0.2,5.3 -0.1,7.8 -0.1,0.9 -0.4,1.6 -1,2.3 -0.6,0.6 -1.2,0.8 -2,1 -2.2,0.3 -4.7,0 -6.9,0 H 371.4 357 c -0.4,-2.3 -0.4,-4.6 -0.5,-6.9 -0.3,-5.1 -0.5,-10.4 -1,-15.5 -2.9,-0.3 -6,-0.1 -8.9,-0.1 -5,0 -9.9,0 -14.9,0 -0.2,1.9 -0.2,3.9 -0.4,5.8 l -1.2,16.8 c -4,0 -36.4,0.2 -37.7,-0.3 -0.9,-0.4 -1.9,-1.2 -2.2,-2.1 -0.6,-1.5 -0.2,-9.3 -0.2,-11.5 -0.1,-6.9 -0.1,-13.7 0,-20.6 0,-8.6 -0.3,-17.4 0.1,-25.9 0,-0.6 0.1,-1.3 0.4,-1.9 0.3,-1.4 1.4,-2.1 2.6,-2.5 z"
   id="path366" />
	<path
   class="st22"
   d="m 342.6,3751.4 c 0.9,-0.1 1.7,0 2.5,0.3 1.1,0.5 1.9,1.4 2.3,2.6 0.4,1.1 0.3,2.2 -0.2,3.2 -0.6,1.3 -1.7,2 -3.1,2.4 -1,0.1 -1.8,0 -2.7,-0.5 -0.1,-0.1 -0.3,-0.1 -0.4,-0.2 -0.1,-0.1 -0.3,-0.2 -0.4,-0.3 -0.1,-0.1 -0.2,-0.2 -0.3,-0.3 -0.1,-0.1 -0.2,-0.2 -0.3,-0.3 -0.1,-0.1 -0.2,-0.2 -0.3,-0.4 -0.1,-0.1 -0.2,-0.3 -0.2,-0.4 -0.1,-0.1 -0.1,-0.3 -0.2,-0.4 -0.1,-0.1 -0.1,-0.3 -0.2,-0.4 0,-0.1 -0.1,-0.3 -0.1,-0.4 0,-0.1 0,-0.3 -0.1,-0.4 0,-0.1 0,-0.3 0,-0.4 0,-0.1 0,-0.3 0,-0.4 0,-0.1 0,-0.3 0.1,-0.4 0,-0.1 0.1,-0.3 0.1,-0.4 0,-0.1 0.1,-0.3 0.1,-0.4 0,-0.1 0.1,-0.3 0.2,-0.4 0.9,-1.3 1.9,-1.8 3.2,-2.1 z"
   id="path367" />
</g><g
     id="g644">
	<path
   class="st9"
   d="m 353.6,3579 c -0.1,0 -0.2,0 -0.4,0 l -11.1,-4.4 v 7 c 1.4,3.5 6.4,6.3 11.5,6.3 5.3,0.1 10.8,-2.7 12.5,-6.5 l -0.2,-7.3 z"
   id="path639" />
	<path
   class="st41"
   d="m 349.8,3563.4 2.3,-0.9 c 0.8,-0.3 1.7,-0.3 2.5,0 l 3.4,1.3 16.6,6.3 c 0.5,0.2 0.5,0.8 0,1 l -21.2,8 c -0.1,0 -0.2,0 -0.4,0 l -21.2,-8 c -0.5,-0.2 -0.5,-0.8 0,-1 l 11.2,-4.2"
   id="path640" />
	<path
   class="st9"
   d="m 338,3583.6 -1.2,7.4 c 0,0.1 0.6,0.3 1,0 0.4,0.3 1,0.2 1.2,0 0.2,0.2 0.7,0.3 1.1,0 0.3,0.2 1,0.1 1,-0.1 l -1,-7.3 c -0.2,0 -2.1,-0.1 -2.1,0 z"
   id="path641" />
	<g
   id="g643">
		<path
   class="st43"
   d="m 339.1,3583.6 c 0,0.2 -0.1,0.3 -0.3,0.3 -0.1,0 -0.3,-0.1 -0.3,-0.3 v -10.7 0 c 0,-0.1 0.1,-0.2 0.2,-0.3 l 12.6,-4.4"
   id="path642" />
		<path
   class="st41"
   d="m 338.9,3585.4 c 1.2,0 2.1,-0.9 2.1,-1.9 0,-1.1 -0.9,-1.9 -2.1,-1.9 -1.2,0 -2.1,0.9 -2.1,1.9 -0.1,1 0.9,1.9 2.1,1.9 z"
   id="path643" />
	</g>
</g><g
     id="g645">
	<path
   class="st41"
   d="m 431.1,3602.6 v 12.6 c 0,1.1 -0.9,2 -2,2 h -19.9 c -1.1,0 -2,-0.9 -2,-2 v -13.6 c 0,-1.1 0.9,-2 2,-2 l 10,-11.1 10,11.1 c 1.1,0 2,0.9 2,2"
   id="path644" />
	<rect
   x="414.70001"
   y="3605.1001"
   class="st9"
   width="8.6999998"
   height="12.1"
   id="rect644" />
	<path
   class="st41"
   d="m 407.7,3595.9 -5.2,5.2 c -0.5,0.5 -0.5,1.3 0,1.8 l 1.2,1.2 c 0.5,0.5 1.3,0.5 1.8,0 l 13.5,-13.5 13.5,13.5 c 0.5,0.5 1.3,0.5 1.8,0 l 1.2,-1.2 c 0.5,-0.5 0.5,-1.3 0,-1.8 L 420,3585.6 c -0.3,-0.3 -0.6,-0.4 -0.9,-0.4 -0.3,0 -0.7,0.1 -0.9,0.4 l -2.2,2.2"
   id="path645" />
</g><g
     id="g653">
	<path
   class="st41"
   d="m 463.7,3653.8 -11,5 8.9,19.7 4.8,-4.1 6.2,-0.9 z"
   id="path650" />
	<path
   class="st41"
   d="m 455.5,3654 11,5 -8.9,19.7 -4.8,-4.1 -6.2,-0.9 c -0.1,0 8.9,-19.7 8.9,-19.7 z"
   id="path651" />
	<path
   class="st41"
   d="m 454,3644.5 c 0.9,-0.5 1.4,-2.2 2.4,-2.4 1,-0.2 2.1,1.1 3.2,1.1 1,0 2.2,-1.3 3.2,-1.1 1,0.2 1.5,1.9 2.4,2.4 0.9,0.5 2.5,-0.2 3.3,0.4 0.8,0.7 0.5,2.4 1.1,3.2 0.6,0.8 2.4,0.9 2.8,1.9 0.4,0.9 -0.6,2.4 -0.3,3.4 0.3,1 1.8,1.9 1.8,2.9 0,1 -1.5,1.9 -1.7,2.9 -0.2,1 0.8,2.5 0.3,3.4 -0.5,0.9 -2.2,1.1 -2.8,1.9 -0.6,0.8 -0.3,2.6 -1.1,3.2 -0.8,0.7 -2.4,0 -3.3,0.4 -0.9,0.5 -1.4,2.2 -2.4,2.4 -1,0.2 -2.1,-1.1 -3.2,-1.1 -1,0 -2.2,1.3 -3.2,1.1 -1,-0.2 -1.5,-1.9 -2.4,-2.4 -0.9,-0.5 -2.5,0.2 -3.3,-0.4 -0.8,-0.7 -0.5,-2.4 -1.1,-3.2 -0.6,-0.8 -2.4,-0.9 -2.8,-1.9 -0.4,-0.9 0.6,-2.4 0.3,-3.4 -0.3,-1 -1.8,-1.9 -1.8,-2.9 0,-1 1.5,-1.9 1.7,-2.9 0.2,-1 -0.8,-2.5 -0.3,-3.4 0.5,-0.9 2.2,-1.1 2.8,-1.9"
   id="path652" />
	<path
   class="st9"
   d="m 459.6,3651.2 c -2.9,0 -5.2,2.4 -5.2,5.2 0,2.8 2.4,5.2 5.2,5.2 2.9,0 5.2,-2.4 5.2,-5.2 0,-2.8 -2.3,-5.2 -5.2,-5.2 z m 0,7.6 c -1.3,0 -2.4,-1 -2.4,-2.4 0,-1.4 1,-2.4 2.4,-2.4 1.3,0 2.4,1 2.4,2.4 0,1.4 -1.1,2.4 -2.4,2.4 z m 0,-11.8 c -5.2,0 -9.4,4.2 -9.4,9.4 0,5.2 4.2,9.4 9.4,9.4 5.2,0 9.4,-4.2 9.4,-9.4 0,-5.2 -4.2,-9.4 -9.4,-9.4 z m 0,17.3 c -4.3,0 -7.9,-3.5 -7.9,-7.9 0,-4.3 3.5,-7.9 7.9,-7.9 4.3,0 7.9,3.5 7.9,7.9 -0.1,4.3 -3.6,7.9 -7.9,7.9 z"
   id="path653" />
</g><g
     id="g655">
	<g
   id="Group_601_4_">
		<path
   id="Path_94_2_"
   class="st44"
   d="m 262.8,3590.5 c -1.6,2.8 -3.1,5.5 -3.5,6 -1.2,1.6 -1.9,3.6 -1.8,5.6 -0.2,4.3 3.1,8 7.4,8.4 4.1,-0.1 7.4,-3.3 7.6,-7.3 0.5,1.9 2.4,3.1 4.3,2.6 1.3,-0.3 2.3,-1.3 2.6,-2.6 0.3,4 3.6,7.2 7.6,7.3 4.3,-0.4 7.6,-4.1 7.4,-8.4 0,-2 -0.6,-4 -1.8,-5.6 -1,-1.2 -7.6,-13.4 -8.5,-14.2 -0.8,-0.7 -1.8,-1.1 -2.8,-1.1 -1.6,0.1 -2.9,1.3 -3.2,2.8 0,0.3 0,0.8 0,1.2 -1.4,0.5 -2.9,0.5 -4.4,0 0,-0.4 0,-0.9 0,-1.2 -0.2,-1.6 -1.6,-2.8 -3.2,-2.8 -1,0 -2,0.4 -2.8,1.1 -0.2,0.2 -1,1.4 -1.9,3 m 8.6,16.6 c -0.1,-0.7 0.4,-1.4 1.2,-1.5 0.7,-0.1 1.4,0.4 1.5,1.2 0,0 0,0.1 0,0.1 0,0.3 -0.3,1.4 -1.3,1.4 -1.1,0.1 -1.4,-0.9 -1.4,-1.2 z m 4.9,1.3 c -0.5,-4.1 2.7,-7.6 6.8,-8 4.1,-0.5 7.8,2.5 8.3,6.6 0,0.3 0,0.6 0,0.8 m -37,0.8 c -0.5,-4.1 2.5,-7.8 6.6,-8.3 4.1,-0.5 7.8,2.5 8.3,6.6 0,0.3 0.1,1.2 0.1,1.4" />
	</g>
	<path
   class="st9"
   d="m 287.4,3606.5 c -2.2,0.2 -4.1,-1.3 -4.4,-3.5 -0.2,-2.2 1.3,-4.1 3.5,-4.4 2.2,-0.2 4.1,1.3 4.4,3.5 0,0.1 0,0.3 0,0.4 0.1,2.1 -1.5,3.9 -3.5,4 z"
   id="path654" />
	<path
   class="st9"
   d="m 265.3,3606.5 c -2.8,0.3 -5.3,-2.4 -4.1,-5.6 0.2,-0.6 0.6,-1.1 1.2,-1.5 2.8,-1.9 6.1,-0.1 6.4,2.7 0,0.1 0,0.3 0,0.4 0.1,2.1 -1.4,3.9 -3.5,4 z"
   id="path655" />
</g><path
     class="st41"
     d="m 230.1,3613.4 c 2,0 3.7,0.4 5.1,1.2 l -1,5.3 c -1,-1.1 -2.5,-1.6 -4.4,-1.6 -1.9,0 -3.5,0.7 -4.6,2.2 -0.7,0.8 -1.1,1.9 -1.4,3.2 h 9.7 l -0.6,3 h -9.5 c 0,0.3 0,0.7 0,1.1 0,0.4 0,0.9 0,1.4 h 9 l -0.6,3 h -8 c 0.3,1.4 0.7,2.4 1.4,3.2 1.2,1.5 2.7,2.3 4.6,2.3 2.3,0 4,-0.8 5.4,-2.3 v 5.9 c -1.5,0.8 -3.3,1.2 -5.3,1.2 -3.4,0 -6.2,-1.3 -8.4,-3.8 -1.5,-1.7 -2.5,-3.9 -3,-6.5 h -2.6 l 0.6,-3 h 1.7 c 0,-0.3 0,-0.6 0,-1 0,-0.6 0,-1.1 0,-1.6 h -2.3 l 0.6,-3 h 2.1 c 0.5,-2.5 1.5,-4.7 2.9,-6.4"
     id="path656" /><g
     id="g659">
	<path
   class="st9"
   d="m 209.4,3707.2 v 5.7 c 0,0.5 0.2,0.9 0.5,1.2 0.3,0.3 0.7,0.5 1.2,0.5 h 26 c 0.9,0 1.7,-0.8 1.7,-1.8 v -14.3 c -1.6,1.1 -3.3,2.1 -5,2.9 -2.3,1.1 -4.4,1.9 -6.8,2.4 -0.1,0 0.1,0 0,0 v 0 2.3 c 0,0.3 -0.1,0.6 -0.3,0.9 -0.2,0.2 -1.1,0.4 -1.4,0.4 h -2.7 c -0.6,0 -1.1,-0.5 -1.1,-1.2 v -2.3 h -0.2 c -2.4,-0.5 -4.2,-1.4 -6.5,-2.4 -1.8,-0.9 -3.5,-1.9 -5.2,-3 v 3.5"
   id="path657" />
	<path
   class="st41"
   d="m 211.3,3694.2 h -1 c -1,0 -1.8,0.8 -1.8,1.8 v 2.5 c 2,1.4 4,2.5 6.2,3.5 2.2,1 3.8,1.8 6.2,2.3 v -2.3 c 0,-0.3 0.1,-0.6 0.4,-0.9 0.2,-0.2 0.5,-0.4 0.9,-0.4 h 3.9 c 0.7,0 1.3,0.5 1.3,1.2 v 2.4 c 2.4,-0.5 3.9,-1.3 6.2,-2.3 2.1,-1 4.2,-2.1 6.1,-3.4 v -2.7 c 0,-0.5 -0.2,-0.9 -0.5,-1.2 -0.3,-0.3 -0.8,-0.5 -1.2,-0.5 h -7.3 v -3.6 c 0,0 0,0 0,0 0,-0.7 -0.6,-1.2 -1.2,-1.2 h -10.4 c -0.7,0 -1.2,0.5 -1.3,1.2 v 3.6 h -2 m 12.1,0 h -7.5 v -2.2 c 0,0 0,-0.1 0,-0.1 0,0 0.1,0 0.1,0 h 7.2 v 0 c 0,0 0.1,0 0.1,0 0,0 0,0.1 0,0.1 v 2.2 z"
   id="path658" />
	<path
   class="st41"
   d="m 225.2,3703.2 h -2.3 c 0,0 -0.1,0 -0.1,0 0,0 0,0 0,0 v 2.4 c 0,0 0,0 0,0 0,0 0.1,0 0.1,0 h 2.3 c 0,0 0.1,0 0.1,0 0,0 0,0 0,0 v -2.4 c 0.1,0 0,0 -0.1,0 0.1,0 0.1,0 0,0 z"
   id="path659" />
</g><g
     id="g667">
	<path
   class="st38"
   d="m 449.5,3714 h -2.8 c -0.6,0 -1,0.4 -1,1 v 11.4 9 4.6 c 0,0.5 0.4,1 1,1 h 29.1 c 0.6,0 1,-0.4 1,-1 v -25 c 0,-0.5 -0.4,-1 -1,-1 h -18"
   id="path660" />
	<polygon
   class="st39"
   points="473.7,3722.3 448.8,3722.3 448.8,3716.9 473.7,3716.9 "
   id="polygon660" />
	<polygon
   class="st9"
   points="453.9,3734.7 460.2,3734.7 460.2,3728.8 460.2,3726.8 453.9,3726.8 "
   id="polygon661" />
	<polygon
   class="st9"
   points="470.1,3726.8 473.8,3726.8 473.8,3735.8 473.8,3736.6 470.1,3736.6 "
   id="polygon662" />
	<line
   class="st38"
   x1="473.29999"
   y1="3724.3"
   x2="448.79999"
   y2="3724.3"
   id="line662" />
	<line
   class="st38"
   x1="451.89999"
   y1="3732.1001"
   x2="448.79999"
   y2="3732.1001"
   id="line663" />
	<line
   class="st38"
   x1="468.70001"
   y1="3732.1001"
   x2="461.79999"
   y2="3732.1001"
   id="line664" />
	<line
   class="st38"
   x1="451.89999"
   y1="3727.8999"
   x2="448.79999"
   y2="3727.8999"
   id="line665" />
	<line
   class="st38"
   x1="468.70001"
   y1="3727.8999"
   x2="461.79999"
   y2="3727.8999"
   id="line666" />
	<line
   class="st38"
   x1="468.70001"
   y1="3736.6001"
   x2="448.79999"
   y2="3736.6001"
   id="line667" />
</g></g>




</svg>
