<?xml version="1.0" standalone="no"?>
<!DOCTYPE svg PUBLIC "-//W3C//DTD SVG 20010904//EN"
 "http://www.w3.org/TR/2001/REC-SVG-20010904/DTD/svg10.dtd">
<svg version="1.0" xmlns="http://www.w3.org/2000/svg"
 width="1600.000000pt" height="1600.000000pt" viewBox="0 0 1600.000000 1600.000000"
 preserveAspectRatio="xMidYMid meet">
<metadata>
Created by potrace 1.14, written by Peter Selinger 2001-2017
</metadata>
<g transform="translate(0.000000,1600.000000) scale(0.100000,-0.100000)"
fill="#000000" stroke="none">
<path d="M4004 10400 c-1314 -1315 -2387 -2390 -2384 -2390 3 0 -1 -4 -9 -9
-14 -9 -640 -631 -635 -631 1 0 -27 -28 -63 -62 -102 -98 -268 -268 -271 -278
-2 -6 -7 -10 -11 -10 -9 0 -465 -456 -469 -470 -2 -5 -7 -9 -10 -7 -4 1 -37
-29 -74 -68 l-67 -70 4795 0 4794 1 -2 -26 c-1 -14 1 -31 6 -38 4 -7 3 -12 -2
-12 -4 0 -7 -17 -4 -37 2 -21 3 -44 3 -50 -1 -12 -1 -34 -1 -75 0 -7 -1 -44
-2 -81 -2 -38 0 -71 5 -74 4 -2 4 -10 0 -16 -9 -15 -9 -49 1 -65 4 -6 3 -12
-1 -12 -10 0 -10 -71 0 -87 4 -6 4 -13 1 -16 -9 -9 -10 -137 -1 -137 4 0 4 -8
0 -17 -10 -21 -10 -114 0 -130 4 -6 4 -14 -1 -17 -9 -6 -8 -47 2 -64 4 -7 3
-12 -1 -12 -10 0 -9 -71 0 -87 4 -7 4 -14 -1 -17 -9 -6 -8 -59 3 -75 3 -6 2
-11 -2 -11 -10 0 -9 -53 2 -69 3 -6 2 -11 -2 -11 -5 0 -7 -26 -5 -57 1 -32 3
-62 3 -68 1 -5 -1 -25 -4 -42 -2 -18 0 -33 5 -33 5 0 6 -6 1 -12 -9 -16 -10
-46 -2 -73 4 -11 3 -29 -1 -40 -4 -11 -4 -32 1 -47 4 -16 5 -28 1 -28 -4 0 -7
-16 -7 -35 0 -19 4 -35 8 -35 4 0 4 -8 0 -18 -10 -21 -10 -93 0 -109 4 -6 4
-14 -1 -17 -9 -6 -8 -47 2 -64 4 -7 4 -17 0 -24 -10 -17 -11 -58 -2 -64 5 -3
5 -10 1 -17 -10 -16 -10 -58 -1 -63 5 -3 5 -10 1 -17 -10 -16 -10 -58 -1 -63
5 -3 5 -10 1 -17 -10 -16 -10 -58 -1 -63 5 -3 5 -10 1 -17 -10 -16 -10 -58 -1
-63 5 -3 5 -10 1 -17 -10 -16 -10 -58 -1 -63 5 -3 5 -10 1 -17 -10 -16 -10
-58 -1 -63 5 -3 5 -11 1 -17 -10 -16 -10 -118 0 -139 4 -10 4 -18 0 -18 -4 0
-8 -32 -8 -70 0 -39 4 -70 8 -70 5 0 5 -5 1 -12 -10 -17 -11 -58 -2 -64 5 -3
5 -11 1 -17 -10 -16 -10 -88 0 -109 4 -10 4 -18 0 -18 -4 0 -8 -25 -8 -55 0
-30 3 -55 7 -55 4 0 3 -11 -2 -25 -5 -14 -6 -27 0 -30 8 -5 6380 6360 6380
6374 0 9 -102 7 -118 -2 -6 -5 -12 -4 -12 0 0 11 -71 10 -87 0 -7 -5 -13 -5
-13 0 0 4 -33 7 -72 6 -95 -4 -89 -4 -118 0 -14 2 -31 -1 -37 -6 -7 -5 -13 -6
-13 -1 0 5 -16 9 -35 9 -19 0 -35 -4 -35 -8 0 -4 -8 -4 -17 1 -10 4 -27 7 -38
6 -21 -2 -69 -4 -97 -4 -10 0 -25 0 -33 0 -8 0 -22 0 -30 0 -8 0 -22 0 -30 0
-8 0 -22 0 -30 0 -8 0 -21 0 -27 -1 -7 0 -25 2 -40 4 -16 2 -28 1 -28 -4 0 -4
-13 -4 -30 1 -19 5 -30 5 -30 -1 0 -6 -6 -6 -18 0 -11 6 -24 6 -35 0 -9 -6
-17 -6 -17 -2 0 4 -11 8 -25 8 -14 0 -25 -4 -25 -8 0 -4 -8 -4 -17 2 -10 5
-26 5 -41 0 -13 -5 -21 -6 -19 -1 6 9 -107 7 -121 -2 -6 -3 -13 -2 -17 4 -4 7
-12 7 -25 0 -12 -6 -21 -7 -25 0 -4 6 -15 6 -30 0 -14 -5 -25 -6 -25 -2 0 4
-11 7 -25 7 -14 0 -25 -2 -25 -5 0 -7 -43 -5 -56 3 -5 3 -16 2 -24 -3 -8 -5
-21 -5 -31 1 -11 5 -20 5 -24 0 -3 -5 -17 -6 -33 -2 -15 4 -39 4 -54 0 -16 -4
-28 -3 -28 1 0 5 -13 5 -30 0 -19 -5 -30 -5 -30 1 0 6 -6 7 -17 1 -9 -5 -29
-6 -44 -2 -15 5 -30 6 -32 3 -9 -8 -71 -9 -94 -1 -13 4 -23 4 -23 0 0 -5 -15
-7 -32 -5 -18 2 -44 3 -58 3 -14 0 -54 0 -90 0 -36 0 -69 0 -75 0 -304 -5
-583 -4 -592 3 -7 5 -13 6 -13 1 0 -10 -173 -10 -188 0 -6 3 -13 3 -16 -2 -5
-8 -120 -7 -142 2 -8 3 -14 2 -14 -2 0 -9 -134 -7 -149 2 -6 4 -11 4 -11 -1 0
-10 -162 -9 -178 0 -6 4 -13 4 -15 0 -6 -10 -140 -8 -156 1 -6 4 -11 4 -11 -1
0 -4 -23 -8 -50 -8 -28 0 -50 4 -50 8 0 5 -5 5 -11 2 -16 -11 -69 -12 -69 -2
0 4 -5 5 -11 2 -16 -11 -69 -12 -69 -2 0 4 -5 5 -11 2 -16 -11 -69 -12 -69 -2
0 4 -5 5 -11 2 -16 -11 -69 -12 -69 -2 0 4 -5 5 -11 2 -16 -11 -69 -12 -69 -2
0 4 -5 5 -11 2 -16 -11 -69 -12 -69 -2 0 4 -5 5 -11 2 -16 -11 -69 -12 -69 -2
0 4 -5 5 -12 1 -16 -10 -118 -11 -145 -2 -13 4 -23 4 -23 0 0 -9 -53 -7 -69 3
-6 3 -11 3 -11 -2 0 -4 -13 -8 -30 -8 -16 0 -30 3 -30 7 0 4 -11 3 -25 -2 -16
-6 -26 -6 -31 1 -3 6 -10 6 -17 1 -7 -5 -23 -6 -37 -2 -14 4 -37 3 -52 -1 -16
-4 -28 -4 -28 1 0 6 -10 6 -25 0 -15 -6 -26 -6 -30 0 -4 6 -13 7 -23 1 -11 -6
-24 -6 -35 0 -11 7 -17 7 -17 0 0 -6 -11 -7 -27 -2 -16 4 -40 4 -55 0 -16 -4
-28 -3 -28 2 0 5 -11 4 -25 -1 -15 -6 -26 -6 -30 0 -4 6 -13 7 -23 1 -11 -6
-24 -6 -35 0 -11 7 -17 7 -17 0 0 -6 -11 -7 -27 -2 -16 4 -40 4 -55 0 -16 -4
-28 -3 -28 2 0 5 -11 4 -25 -1 -15 -6 -26 -6 -30 0 -4 7 -13 6 -25 0 -12 -6
-21 -7 -25 0 -4 6 -15 6 -30 0 -14 -5 -25 -6 -25 -2 0 4 -25 7 -55 7 -30 0
-55 -3 -55 -7 0 -4 -11 -3 -25 2 -17 6 -25 6 -25 -1 0 -6 -4 -7 -10 -4 -15 9
-80 12 -80 3 0 -4 -11 -3 -25 2 -16 6 -25 6 -25 0 0 -6 -9 -6 -25 0 -16 6 -25
6 -25 0 0 -6 -9 -6 -25 0 -15 6 -26 6 -30 0 -4 -6 -13 -7 -23 -1 -11 6 -24 6
-35 0 -9 -6 -17 -6 -17 -2 0 4 -25 8 -55 8 -30 0 -55 -3 -55 -7 0 -4 -11 -3
-25 2 -16 6 -25 6 -25 0 0 -6 -9 -6 -24 0 -15 5 -27 5 -34 -2 -6 -6 -12 -6
-16 1 -5 7 -15 7 -31 1 -14 -5 -25 -6 -25 -2 0 4 -11 7 -25 7 -14 0 -25 -4
-25 -8 0 -4 -8 -3 -18 2 -11 6 -24 6 -35 0 -9 -6 -17 -6 -17 -2 0 4 -11 8 -25
8 -14 0 -25 -4 -25 -8 0 -4 -8 -3 -18 2 -11 6 -24 6 -35 0 -9 -6 -17 -6 -17
-2 0 4 -11 8 -25 8 -14 0 -25 -4 -25 -8 0 -4 -8 -3 -18 2 -11 6 -24 6 -35 0
-11 -7 -17 -7 -17 0 0 6 -11 6 -30 1 -16 -5 -30 -6 -30 -2 0 4 -11 7 -25 7
-14 0 -25 -4 -25 -8 0 -4 -8 -3 -18 2 -11 6 -24 6 -35 0 -9 -6 -17 -6 -17 -2
0 4 -11 8 -25 8 -14 0 -25 -4 -25 -8 0 -4 -8 -3 -18 2 -11 6 -24 6 -35 0 -9
-6 -17 -6 -17 -2 0 10 -82 9 -99 -1 -6 -4 -11 -3 -11 1 0 10 -41 10 -57 0 -7
-4 -14 -3 -17 1 -6 10 -36 9 -54 -2 -6 -4 -12 -3 -12 1 0 10 -41 10 -58 -1 -7
-4 -12 -4 -12 1 0 4 -22 8 -50 8 -27 0 -50 -4 -50 -8 0 -4 -8 -4 -17 0 -22 10
-44 10 -60 0 -7 -5 -13 -5 -13 0 0 4 -16 8 -35 8 -19 0 -35 -4 -35 -8 0 -5 -5
-5 -11 -2 -17 11 -59 13 -59 3 0 -5 -5 -6 -12 -2 -17 11 -78 11 -85 1 -2 -4
-10 -4 -16 0 -15 10 -38 10 -54 0 -7 -5 -13 -5 -13 0 0 4 -16 8 -35 8 -19 0
-35 -4 -35 -8 0 -4 -8 -4 -17 0 -22 10 -44 10 -60 0 -7 -5 -13 -4 -13 0 0 8
-56 10 -85 3 -5 -1 -12 -1 -15 0 -18 7 -80 4 -80 -5 0 -7 -3 -7 -8 0 -10 13
-72 14 -72 1 0 -7 -3 -8 -8 -1 -4 6 -20 10 -37 10 -16 0 -33 -4 -37 -10 -5 -7
-11 -7 -15 0 -9 12 -52 13 -70 2 -7 -5 -13 -5 -13 0 0 10 -91 10 -108 -1 -7
-4 -12 -3 -12 1 0 10 -61 10 -78 -1 -7 -4 -12 -4 -12 1 0 4 -16 8 -35 8 -19 0
-35 -4 -35 -9 0 -5 -6 -4 -12 0 -16 11 -68 11 -85 1 -7 -5 -13 -5 -13 0 0 4
-16 8 -35 8 -19 0 -35 -4 -35 -8 0 -5 -6 -5 -12 0 -17 10 -119 11 -140 1 -9
-4 -19 -4 -22 0 -3 5 -22 7 -43 5 -21 -2 -42 -4 -48 -3 -5 0 -34 1 -62 3 -32
1 -53 -2 -53 -8 0 -7 -3 -7 -8 0 -8 12 -92 14 -92 2 0 -4 -6 -5 -12 0 -18 10
-138 10 -138 0 0 -5 -6 -5 -12 0 -7 5 -28 9 -45 8 -18 -1 -38 4 -44 11 -6 8
-7 14 -2 14 12 0 11 83 -2 92 -7 5 -6 8 0 8 12 0 14 98 3 116 -4 6 -4 14 0 18
11 12 9 156 -3 156 -7 0 -7 3 0 8 6 4 11 30 11 57 0 28 -5 53 -11 57 -7 5 -7
8 0 8 6 0 10 24 10 55 0 31 -4 55 -10 55 -7 0 -7 3 0 8 6 4 11 25 11 47 0 22
-5 43 -11 47 -7 5 -7 8 0 8 12 0 14 98 3 116 -4 6 -4 14 0 18 11 12 9 156 -3
156 -7 0 -7 3 0 8 6 4 11 30 11 57 0 28 -5 53 -11 57 -7 5 -7 8 0 8 6 0 10 24
10 55 0 31 -4 55 -10 55 -7 0 -7 3 0 8 6 4 11 25 11 47 0 22 -5 43 -11 47 -7
5 -7 8 0 8 12 0 14 98 3 116 -4 6 -4 14 0 18 11 12 9 156 -3 156 -7 0 -7 3 0
8 6 4 11 30 11 57 0 28 -5 53 -11 57 -7 5 -7 8 0 8 6 0 10 24 10 55 0 31 -4
55 -10 55 -7 0 -7 3 0 8 6 4 11 25 11 47 0 22 -5 43 -11 47 -7 5 -7 8 0 8 12
0 14 98 3 116 -4 6 -4 14 0 18 11 12 9 156 -3 156 -7 0 -7 3 0 8 6 4 11 30 11
57 0 28 -5 53 -11 57 -7 5 -7 8 0 8 7 0 10 38 8 108 -4 127 -4 118 0 162 2 19
-1 41 -6 48 -5 6 -6 12 -1 12 12 0 11 163 -1 172 -7 5 -7 8 0 8 6 0 10 23 10
50 0 28 -4 50 -8 50 -5 0 -5 5 -1 12 10 16 13 88 4 93 -4 2 -1082 -1071 -2396
-2385z"/>
</g>
</svg>
