<svg id="Layer_1" xmlns="http://www.w3.org/2000/svg" xmlns:xlink="http://www.w3.org/1999/xlink" x="0px" y="0px"
	 viewBox="0 0 566.9 131.5" style="enable-background:new 0 0 566.9 131.5;" xml:space="preserve">
<style type="text/css">
	.st0{fill:url(#SVGID_1_);}
	.st1{fill:url(#SVGID_2_);}
	.st2{fill:url(#SVGID_3_);}
	.st3{fill:url(#SVGID_4_);}
	.st4{fill:#231F20;}
</style>
<g>
	<linearGradient id="SVGID_1_" gradientUnits="userSpaceOnUse" x1="13.9742" y1="120.8664" x2="94.325" y2="120.8664">
		<stop  offset="0.2162" style="stop-color:#00AEEF"/>
		<stop  offset="0.324" style="stop-color:#008ACE"/>
		<stop  offset="0.4299" style="stop-color:#4869B2"/>
		<stop  offset="0.517" style="stop-color:#674D9F"/>
		<stop  offset="0.5819" style="stop-color:#743594"/>
		<stop  offset="0.6174" style="stop-color:#782B90"/>
		<stop  offset="0.7274" style="stop-color:#97268F"/>
		<stop  offset="0.8496" style="stop-color:#B41E8E"/>
		<stop  offset="0.9446" style="stop-color:#C7158D"/>
		<stop  offset="1" style="stop-color:#CF128C"/>
	</linearGradient>
	<path class="st0" d="M62.7,121.1l0.5-0.5c-0.2,0-0.3,0-0.5-0.1V121.1z"/>
	<linearGradient id="SVGID_2_" gradientUnits="userSpaceOnUse" x1="15.423" y1="33.6567" x2="125.3025" y2="97.0957">
		<stop  offset="0.2162" style="stop-color:#00AEEF"/>
		<stop  offset="0.324" style="stop-color:#008ACE"/>
		<stop  offset="0.4299" style="stop-color:#4869B2"/>
		<stop  offset="0.517" style="stop-color:#674D9F"/>
		<stop  offset="0.5819" style="stop-color:#743594"/>
		<stop  offset="0.6174" style="stop-color:#782B90"/>
		<stop  offset="0.7274" style="stop-color:#97268F"/>
		<stop  offset="0.8496" style="stop-color:#B41E8E"/>
		<stop  offset="0.9446" style="stop-color:#C7158D"/>
		<stop  offset="1" style="stop-color:#CF128C"/>
	</linearGradient>
	<path class="st1" d="M125.4,57.4l-0.5,0l0,0l-88.3,0l-21.5,0.1c-0.4,2.6-0.6,5.2-0.6,7.9c0,2.7,0.2,5.3,0.6,7.8h89l21.3,0.3
		c0.4-2.6,0.6-5.3,0.6-8.1C126,62.7,125.8,60,125.4,57.4z"/>
	<linearGradient id="SVGID_3_" gradientUnits="userSpaceOnUse" x1="58.434" y1="22.5046" x2="118.5377" y2="57.2055">
		<stop  offset="0.2162" style="stop-color:#00AEEF"/>
		<stop  offset="0.3062" style="stop-color:#008ACE"/>
		<stop  offset="0.3947" style="stop-color:#4869B2"/>
		<stop  offset="0.4674" style="stop-color:#674D9F"/>
		<stop  offset="0.5216" style="stop-color:#743594"/>
		<stop  offset="0.5512" style="stop-color:#782B90"/>
		<stop  offset="0.7367" style="stop-color:#872890"/>
		<stop  offset="1" style="stop-color:#98258F"/>
	</linearGradient>
	<path class="st2" d="M78.8,10.3L47.2,42h72.7l1,0.1c-2.7-5.9-6.5-11.3-11-15.9l-31,0V10.3z"/>
	<linearGradient id="SVGID_4_" gradientUnits="userSpaceOnUse" x1="22.771" y1="74.2459" x2="83.0236" y2="109.0328">
		<stop  offset="0" style="stop-color:#00AEEF"/>
		<stop  offset="0.1659" style="stop-color:#008ACE"/>
		<stop  offset="0.3289" style="stop-color:#4869B2"/>
		<stop  offset="0.4629" style="stop-color:#674D9F"/>
		<stop  offset="0.5628" style="stop-color:#743594"/>
		<stop  offset="0.6174" style="stop-color:#782B90"/>
		<stop  offset="0.7274" style="stop-color:#97268F"/>
		<stop  offset="0.8496" style="stop-color:#B41E8E"/>
		<stop  offset="0.9446" style="stop-color:#C7158D"/>
		<stop  offset="1" style="stop-color:#CF128C"/>
	</linearGradient>
	<path class="st3" d="M81.7,89.5L81.7,89.5l-59,0l-2.7,0c2.8,5.9,6.7,11.3,11.4,15.8h31.3v15.3c0.2,0,0.3,0,0.5,0.1l31.2-31.2
		L81.7,89.5z"/>
</g>
<g>
	<g>
		<path class="st4" d="M319.3,99.9V77.1v0v-1.3h0.1c0.7-8.8,8-15.8,17-15.8c2,0,3.9,0.4,5.7,1V49.2c-1.8-0.4-3.7-0.6-5.7-0.6
			c-6.4,0-12.3,2.1-17.1,5.7v-5.7h-11.4v28.4c0,0,0,0,0,0c0,0,0,0,0,0v28.4h11.4V99.9z"/>
		<path class="st4" d="M364.8,77.1V25.9h-11.4v79.6h11.4V77.1c0,15.7,12.7,28.4,28.4,28.4V94.2c-9.4,0-17.1-7.6-17.1-17.1
			c0-9.4,7.6-17.1,17.1-17.1v-7.5v-3.8C377.5,48.7,364.8,61.4,364.8,77.1z"/>
		<path class="st4" d="M227.7,71.4L227.7,71.4L227.7,71.4l-43.9,0c2.4-6.6,8.6-11.3,16.1-11.3c4.7,0,9,1.9,12.1,5l8.1-8
			c-5.1-5.1-12.3-8.3-20.1-8.3c-15.7,0-28.4,12.7-28.4,28.4c0,1.9,0.2,3.9,0.6,5.7l11.8,0c0,0,0,0,0,0h32.1
			c-2.3,6.6-8.6,11.4-16.1,11.4c-4.7,0-9-1.9-12-5l-8.1,8c5.1,5.1,12.3,8.3,20.1,8.3c15.7,0,28.4-12.7,28.4-28.4
			C228.3,75.2,228.1,73.3,227.7,71.4z"/>
		<path class="st4" d="M551.9,71.4L551.9,71.4L551.9,71.4l-43.9,0c2.4-6.6,8.6-11.3,16.1-11.3c4.7,0,9,1.9,12.1,5l8.1-8
			c-5.1-5.1-12.3-8.3-20.1-8.3c-15.7,0-28.4,12.7-28.4,28.4c0,1.9,0.2,3.9,0.6,5.7l11.8,0c0,0,0,0,0,0h32.1
			c-2.3,6.6-8.6,11.4-16.1,11.4c-4.7,0-9-1.9-12-5l-8.1,8c5.1,5.1,12.3,8.3,20.1,8.3c15.7,0,28.4-12.7,28.4-28.4
			C552.4,75.2,552.2,73.3,551.9,71.4z"/>
		<path class="st4" d="M443.4,82.8h11.8c0.4-1.8,0.6-3.7,0.6-5.7c0-15.7-12.7-28.4-28.4-28.4c-15.7,0-28.4,12.7-28.4,28.4
			c0,15.7,12.7,28.4,28.4,28.4c11.6,0,21.5-6.9,26-16.9h-13.5c-3.1,3.4-7.6,5.5-12.5,5.5c-7.4,0-13.7-4.8-16.1-11.4h16.1H443.4z
			 M411.2,82.8c-0.6-1.8-1-3.7-1-5.7c0-2,0.4-3.9,1-5.7h0c0.2-0.5,0.4-0.9,0.6-1.4c0,0,0-0.1,0-0.1l0,0c2.7-5.8,8.6-9.9,15.5-9.9
			c7.4,0,13.7,4.8,16.1,11.4h-21.8l0.1,0L411.2,82.8z"/>
		<path class="st4" d="M284.1,82.8h11.8c0.4-1.8,0.6-3.7,0.6-5.7c0-15.7-12.7-28.4-28.4-28.4c-15.7,0-28.4,12.7-28.4,28.4
			c0,15.7,12.7,28.4,28.4,28.4c11.6,0,21.5-6.9,26-16.9h-13.5c-3.1,3.4-7.6,5.5-12.5,5.5c-7.4,0-13.7-4.8-16.1-11.4h16.1H284.1z
			 M252,82.8c-0.6-1.8-1-3.7-1-5.7c0-2,0.4-3.9,1-5.7h0c0.2-0.5,0.4-0.9,0.6-1.4c0,0,0-0.1,0-0.1l0,0c2.7-5.8,8.6-9.9,15.5-9.9
			c7.4,0,13.7,4.8,16.1,11.4h-21.8l0.1,0L252,82.8z"/>
		<path class="st4" d="M479.5,82.8L479.5,82.8c-0.6-1.8-1-3.7-1-5.7h0V25.9h-11.4v51.2c0,15.7,12.7,28.4,28.4,28.4V94.2
			C488.1,94.2,481.8,89.4,479.5,82.8z"/>
	</g>
</g>
</svg>
