<svg xmlns="http://www.w3.org/2000/svg" xmlns:xlink="http://www.w3.org/1999/xlink" width="247.273" height="50.931" viewBox="0 0 247.273 50.931">
  <defs>
    <linearGradient id="linear-gradient" x1="-104.065" y1="0.501" x2="67.708" y2="0.501" gradientUnits="objectBoundingBox">
      <stop offset="0.216" stop-color="#00a1ed"/>
      <stop offset="0.3" stop-color="#167fd1"/>
      <stop offset="0.447" stop-color="#3b4ba4"/>
      <stop offset="0.557" stop-color="#522a89"/>
      <stop offset="0.617" stop-color="#5b1e7f"/>
      <stop offset="0.664" stop-color="#6a197e"/>
      <stop offset="0.815" stop-color="#960b7c"/>
      <stop offset="0.932" stop-color="#b1037b"/>
      <stop offset="1" stop-color="#bc007b"/>
    </linearGradient>
    <linearGradient id="linear-gradient-2" x1="0.154" y1="-1.901" x2="0.848" y2="2.902" gradientUnits="objectBoundingBox">
      <stop offset="0.188" stop-color="#00a1ed"/>
      <stop offset="0.258" stop-color="#167fd1"/>
      <stop offset="0.38" stop-color="#3b4ba4"/>
      <stop offset="0.472" stop-color="#522a89"/>
      <stop offset="0.523" stop-color="#5b1e7f"/>
      <stop offset="0.566" stop-color="#6a197e"/>
      <stop offset="0.705" stop-color="#960b7c"/>
      <stop offset="0.813" stop-color="#b1037b"/>
      <stop offset="0.876" stop-color="#bc007b"/>
    </linearGradient>
    <linearGradient id="linear-gradient-3" x1="0.266" y1="0.38" x2="0.81" y2="1.643" gradientUnits="objectBoundingBox">
      <stop offset="0.164" stop-color="#00a1ed"/>
      <stop offset="0.617" stop-color="#5b1e7f"/>
      <stop offset="0.731" stop-color="#75137d"/>
      <stop offset="0.907" stop-color="#9a057c"/>
      <stop offset="1" stop-color="#a8007c"/>
    </linearGradient>
    <linearGradient id="linear-gradient-4" x1="0.195" y1="-0.656" x2="0.735" y2="0.632" gradientUnits="objectBoundingBox">
      <stop offset="0.052" stop-color="#00a1ed"/>
      <stop offset="0.17" stop-color="#167fd1"/>
      <stop offset="0.377" stop-color="#3b4ba4"/>
      <stop offset="0.532" stop-color="#522a89"/>
      <stop offset="0.617" stop-color="#5b1e7f"/>
      <stop offset="0.664" stop-color="#6a197e"/>
      <stop offset="0.815" stop-color="#960b7c"/>
      <stop offset="0.932" stop-color="#b1037b"/>
      <stop offset="1" stop-color="#bc007b"/>
    </linearGradient>
  </defs>
  <g id="Group_885" data-name="Group 885" transform="translate(-11485.987 -504.272)">
    <g id="Group_882" data-name="Group 882" transform="translate(11485.987 504.272)">
      <path id="Path_1054" data-name="Path 1054" d="M11534.135,614.783l.216-.215c-.071-.009-.145-.017-.216-.028Z" transform="translate(-11512.002 -563.852)" fill="url(#linear-gradient)"/>
      <path id="Path_1055" data-name="Path 1055" d="M11536.962,551.318h-.241l-40.6-.012-9.872.063a25.377,25.377,0,0,0-.006,7.216h40.912l9.8.126a25.572,25.572,0,0,0,0-7.393Z" transform="translate(-11485.987 -529.685)" fill="url(#linear-gradient-2)"/>
      <path id="Path_1056" data-name="Path 1056" d="M11533.217,504.272l-14.561,14.559h33.414l.459.031a25.675,25.675,0,0,0-5.064-7.3l-14.248-.006Z" transform="translate(-11503.638 -504.272)" fill="url(#linear-gradient-3)"/>
      <path id="Path_1057" data-name="Path 1057" d="M11519.837,583.41h0l-27.128-.012-1.262.01a25.687,25.687,0,0,0,5.229,7.269h14.393v7.037c.071.01.145.018.216.028l14.344-14.344Z" transform="translate(-11488.938 -547.024)" fill="url(#linear-gradient-4)"/>
    </g>
    <g id="Group_884" data-name="Group 884" transform="translate(11558.099 511.281)">
      <g id="Group_883" data-name="Group 883" transform="translate(0)">
        <path id="Path_1058" data-name="Path 1058" d="M11784.59,565.8V555.342h0v-.6h.029a7.82,7.82,0,0,1,10.429-6.791v-5.423a13.1,13.1,0,0,0-10.458,2.353v-2.615h-5.229V555.34h0v13.071h5.229Z" transform="translate(-11716.613 -531.811)" fill="#1a1718"/>
        <path id="Path_1059" data-name="Path 1059" d="M11830.091,543.048V519.519h-5.229v36.6h5.229V543.051a13.071,13.071,0,0,0,13.072,13.071v-5.229a7.843,7.843,0,0,1,0-15.687v-5.229A13.072,13.072,0,0,0,11830.091,543.048Z" transform="translate(-11741.198 -519.519)" fill="#1a1718"/>
        <path id="Path_1060" data-name="Path 1060" d="M11668.74,552.724h-.036v-.015h-20.154a7.838,7.838,0,0,1,12.922-2.919l3.7-3.695a13.076,13.076,0,0,0-22.051,11.862l5.427.009,0-.01h14.775a7.826,7.826,0,0,1-12.921,2.932l-3.706,3.7a13.074,13.074,0,0,0,22.049-11.865Z" transform="translate(-11642.858 -531.811)" fill="#1a1718"/>
        <path id="Path_1061" data-name="Path 1061" d="M11992.911,552.724h-.037v-.015h-20.153a7.836,7.836,0,0,1,12.92-2.919l3.7-3.695a13.072,13.072,0,0,0-22.312,9.247,13.179,13.179,0,0,0,.262,2.615l5.427.009,0-.01h14.776a7.827,7.827,0,0,1-12.923,2.932l-3.705,3.7a13.074,13.074,0,0,0,22.049-11.865Z" transform="translate(-11818.013 -531.811)" fill="#1a1718"/>
        <path id="Path_1062" data-name="Path 1062" d="M11890.822,557.956h5.422a13.084,13.084,0,1,0-.868,2.7h-6.191a7.824,7.824,0,0,1-13.139-2.7h14.776Zm-14.776,0a7.81,7.81,0,0,1-.455-2.615,7.731,7.731,0,0,1,.459-2.614h0c.076-.212.162-.419.255-.623a.583.583,0,0,1,.021-.055h0a7.829,7.829,0,0,1,14.5.677h-10l.024,0Z" transform="translate(-11765.781 -531.811)" fill="#1a1718"/>
        <path id="Path_1063" data-name="Path 1063" d="M11731.57,557.956h5.422a13.084,13.084,0,1,0-.868,2.7h-6.192a7.823,7.823,0,0,1-13.138-2.7h14.776Zm-14.776,0a7.81,7.81,0,0,1-.455-2.615,7.731,7.731,0,0,1,.459-2.614h0c.076-.212.162-.419.255-.623a.583.583,0,0,1,.021-.055h0a7.829,7.829,0,0,1,14.5.677h-10l.024,0Z" transform="translate(-11679.734 -531.811)" fill="#1a1718"/>
        <path id="Path_1064" data-name="Path 1064" d="M11944.3,545.664h0a7.832,7.832,0,0,1-.455-2.614h0V519.519h-5.229V543.05a13.072,13.072,0,0,0,13.063,13.072v-5.229A7.84,7.84,0,0,1,11944.3,545.664Z" transform="translate(-11802.659 -519.519)" fill="#1a1718"/>
      </g>
    </g>
  </g>
</svg>
