<svg xmlns="http://www.w3.org/2000/svg" xmlns:xlink="http://www.w3.org/1999/xlink" width="174.89" height="49.563" viewBox="0 0 174.89 49.563">
  <defs>
    <linearGradient id="linear-gradient" x1="0.082" y1="0.903" x2="0.918" y2="0.097" gradientUnits="objectBoundingBox">
      <stop offset="0.216" stop-color="#00a1ed"/>
      <stop offset="0.418" stop-color="#2c60b6"/>
      <stop offset="0.636" stop-color="#5b1e7f"/>
      <stop offset="0.68" stop-color="#6a197e"/>
      <stop offset="0.824" stop-color="#960b7c"/>
      <stop offset="0.935" stop-color="#b1037b"/>
      <stop offset="1" stop-color="#bc007b"/>
    </linearGradient>
  </defs>
  <g id="Group_807" data-name="Group 807" transform="translate(-595.555 -49.964)">
    <path id="Path_992" data-name="Path 992" d="M1122.9,402.1l-9.9,9.9v-4.948h-14.843l9.9-9.9V402.1l10.907.008h0Z" transform="translate(-428.399 -337.289)" fill="url(#linear-gradient)"/>
    <path id="Path_993" data-name="Path 993" d="M1079.739,405.8a7.421,7.421,0,1,1,.08-10.487l3.5-3.5a12.369,12.369,0,1,0-.08,17.491Z" transform="translate(-412.189 -333.236)" fill="#1a1718"/>
    <path id="Path_994" data-name="Path 994" d="M1259.739,405.8a7.421,7.421,0,1,1,.08-10.487l3.5-3.5a12.369,12.369,0,1,0-.08,17.491Z" transform="translate(-493.238 -333.236)" fill="#1a1718"/>
    <path id="Path_995" data-name="Path 995" d="M977.6,403.886c-2.25,0-4.539-1-4.539-3.708V389.043h7.249V384.1h-7.249v-4.948l-9.9,9.9h4.948v11.508c0,2.147.032,4.193,2.268,6.324,1.374,1.309,4.505,1.959,6.653,1.959a11.876,11.876,0,0,0,5.922-1.461v-4.806A9.923,9.923,0,0,1,977.6,403.886Z" transform="translate(-367.612 -329.184)" fill="#1a1718"/>
    <path id="Path_996" data-name="Path 996" d="M1157.6,403.886c-2.25,0-4.539-1-4.539-3.708V389.043h7.249V384.1h-7.249v-4.948l-9.9,9.9h4.948v11.508c0,2.147.032,4.193,2.268,6.324,1.374,1.309,4.505,1.959,6.653,1.959a11.875,11.875,0,0,0,5.922-1.461v-4.806A9.923,9.923,0,0,1,1157.6,403.886Z" transform="translate(-448.662 -329.184)" fill="#1a1718"/>
    <g id="Group_802" data-name="Group 802" transform="translate(620.292 54.912)">
      <path id="Path_997" data-name="Path 997" d="M1020.535,393.1a7.421,7.421,0,1,1-7.421,7.421,7.43,7.43,0,0,1,7.421-7.421m0-4.948a12.369,12.369,0,1,0,12.369,12.369A12.368,12.368,0,0,0,1020.535,388.148Z" transform="translate(-1008.167 -388.148)" fill="#1a1718"/>
    </g>
    <g id="Group_803" data-name="Group 803" transform="translate(719.243 54.912)">
      <path id="Path_998" data-name="Path 998" d="M1200.535,393.1a7.421,7.421,0,1,1-7.421,7.421,7.43,7.43,0,0,1,7.421-7.421m0-4.948a12.369,12.369,0,1,0,12.369,12.369A12.368,12.368,0,0,0,1200.535,388.148Z" transform="translate(-1188.167 -388.148)" fill="#1a1718"/>
    </g>
    <g id="Group_804" data-name="Group 804" transform="translate(595.71 90.851)">
      <path id="Path_999" data-name="Path 999" d="M970.307,460.038a3.067,3.067,0,0,1-3.218,2.394c-2.419,0-3.639-1.836-3.639-4.121,0-2.2,1.221-4.185,3.68-4.185a2.94,2.94,0,0,1,3.181,2.439h-1.073a2.043,2.043,0,0,0-2.152-1.545c-1.784,0-2.513,1.622-2.513,3.258,0,1.587.693,3.259,2.56,3.259a2.078,2.078,0,0,0,2.1-1.5Z" transform="translate(-963.45 -453.795)" fill="#1a1718"/>
      <path id="Path_1000" data-name="Path 1000" d="M983.461,461.149a2.794,2.794,0,0,1-2.775,3.1c-1.689,0-2.71-1.307-2.71-3.08a2.785,2.785,0,0,1,2.777-3.1C982.389,458.073,983.461,459.3,983.461,461.149Zm-4.437.012c0,1.293.645,2.236,1.7,2.236,1.079,0,1.685-.894,1.685-2.232s-.6-2.24-1.708-2.24S979.023,459.815,979.023,461.16Z" transform="translate(-969.99 -455.572)" fill="#1a1718"/>
      <path id="Path_1001" data-name="Path 1001" d="M990.441,459.733c0-.508,0-1.042-.011-1.521h.981c.015.177.043.611.04.908a1.823,1.823,0,0,1,1.715-1.047,1.617,1.617,0,0,1,1.632,1.057,2.008,2.008,0,0,1,1.878-1.057c.957,0,1.859.566,1.859,2.161v3.874h-1v-3.751c0-.684-.247-1.405-1.168-1.405-.959,0-1.375.725-1.375,1.771v3.385h-1v-3.719c0-.758-.215-1.433-1.14-1.433-.947,0-1.4.765-1.4,1.889v3.263h-1.01Z" transform="translate(-975.598 -455.572)" fill="#1a1718"/>
      <path id="Path_1002" data-name="Path 1002" d="M1008.5,459.733c0-.508,0-1.042-.011-1.521h.982c.015.177.043.611.04.908a1.823,1.823,0,0,1,1.715-1.047,1.618,1.618,0,0,1,1.632,1.057,2.008,2.008,0,0,1,1.878-1.057c.957,0,1.859.566,1.859,2.161v3.874h-1v-3.751c0-.684-.246-1.405-1.167-1.405-.959,0-1.375.725-1.375,1.771v3.385h-1v-3.719c0-.758-.215-1.433-1.14-1.433-.947,0-1.4.765-1.4,1.889v3.263h-1.01Z" transform="translate(-983.728 -455.572)" fill="#1a1718"/>
      <path id="Path_1003" data-name="Path 1003" d="M1031.127,462.5c0,.573.007,1.369.012,1.718h-.991c-.023-.155-.035-.515-.039-.885a1.753,1.753,0,0,1-1.785,1.024c-.994,0-1.948-.495-1.948-2.158v-3.877h1.01v3.66c0,.775.243,1.489,1.221,1.489,1.083,0,1.5-.6,1.5-2.074v-3.075h1.018Z" transform="translate(-991.784 -455.687)" fill="#1a1718"/>
      <path id="Path_1004" data-name="Path 1004" d="M1038.313,459.7c0-.511,0-1.029-.011-1.485h.99c.027.174.043.794.04.969a1.856,1.856,0,0,1,1.856-1.109c1.1,0,1.97.677,1.97,2.243v3.792h-1.018v-3.662c0-.891-.348-1.491-1.248-1.491-1.112,0-1.56.847-1.56,2.031v3.121h-1.018Z" transform="translate(-997.154 -455.572)" fill="#1a1718"/>
      <path id="Path_1005" data-name="Path 1005" d="M1054.365,462.823a9.167,9.167,0,0,0,.081,1.286h-.974a3.237,3.237,0,0,1-.1-.772,1.844,1.844,0,0,1-1.82.912,1.783,1.783,0,0,1-1.983-1.8c0-1.315,1.033-1.918,2.786-1.918h1.005v-.5c0-.52-.166-1.155-1.269-1.155-.985,0-1.151.489-1.258.949h-.984c.078-.813.58-1.751,2.275-1.748,1.44,0,2.238.591,2.238,1.932Zm-.994-1.589h-.954c-1.175,0-1.8.325-1.8,1.156a1.037,1.037,0,0,0,1.147,1.06c1.42,0,1.611-.957,1.611-2.027Z" transform="translate(-1002.229 -455.572)" fill="#1a1718"/>
      <path id="Path_1006" data-name="Path 1006" d="M1066.159,462.5c0,.573.007,1.369.012,1.718h-.99c-.023-.155-.035-.515-.04-.885a1.752,1.752,0,0,1-1.785,1.024c-.993,0-1.948-.495-1.948-2.158v-3.877h1.01v3.66c0,.775.243,1.489,1.221,1.489,1.083,0,1.5-.6,1.5-2.074v-3.075h1.018Z" transform="translate(-1007.558 -455.687)" fill="#1a1718"/>
      <path id="Path_1007" data-name="Path 1007" d="M1072.226,456.9h1.019v-1.739h1.018V456.9h1.3v.831h-1.3v3.453c0,.573.14.866.672.866a2.211,2.211,0,0,0,.514-.049v.767a2.742,2.742,0,0,1-.881.108c-.917,0-1.323-.474-1.323-1.454v-3.692h-1.019Z" transform="translate(-1012.429 -454.262)" fill="#1a1718"/>
      <path id="Path_1008" data-name="Path 1008" d="M1080.435,459.825a1.8,1.8,0,0,0,1.93,1.954,3.7,3.7,0,0,0,1.558-.291l.174.733a4.559,4.559,0,0,1-1.872.349,2.613,2.613,0,0,1-2.767-2.837c0-1.7,1-3.034,2.639-3.034a2.383,2.383,0,0,1,2.325,2.651,3.856,3.856,0,0,1-.035.476Zm3-.732a1.456,1.456,0,0,0-1.418-1.662,1.7,1.7,0,0,0-1.569,1.662Zm.245-4.7-1.418,1.662h-.732l1.022-1.662Z" transform="translate(-1015.686 -453.917)" fill="#1a1718"/>
      <path id="Path_1009" data-name="Path 1009" d="M1101.949,453.524v6.87c0,.554,0,1.1.011,1.666h-.978c-.027-.156-.047-.608-.051-.837a1.849,1.849,0,0,1-1.855.977c-1.516,0-2.447-1.229-2.447-3.026,0-1.815,1-3.149,2.635-3.149,1.043,0,1.508.422,1.666.753v-3.253Zm-4.262,5.618c0,1.424.677,2.193,1.6,2.193,1.379,0,1.682-1.016,1.682-2.309,0-1.311-.274-2.137-1.6-2.137C1098.33,456.889,1097.687,457.712,1097.687,459.142Z" transform="translate(-1023.417 -453.524)" fill="#1a1718"/>
      <path id="Path_1010" data-name="Path 1010" d="M1110.048,454.564l-.2,2.791h-.628l-.186-2.791Z" transform="translate(-1029.004 -453.992)" fill="#1a1718"/>
      <path id="Path_1011" data-name="Path 1011" d="M1114.311,461.346c.008,1.2.611,2.051,1.612,2.051a1.359,1.359,0,0,0,1.423-.911h1.025a2.394,2.394,0,0,1-2.48,1.763c-1.853,0-2.609-1.507-2.609-3.025,0-1.753.883-3.15,2.675-3.15a2.505,2.505,0,0,1,2.525,2.784,4.792,4.792,0,0,1-.016.489Zm3.138-.717c-.012-.97-.5-1.749-1.507-1.749-1.037,0-1.493.722-1.6,1.749Z" transform="translate(-1030.916 -455.572)" fill="#1a1718"/>
      <path id="Path_1012" data-name="Path 1012" d="M1125.184,459.7c0-.511,0-1.029-.011-1.485h.99c.027.174.043.794.04.969a1.855,1.855,0,0,1,1.856-1.109c1.1,0,1.97.677,1.97,2.243v3.792h-1.018v-3.662c0-.891-.347-1.491-1.248-1.491-1.112,0-1.559.847-1.559,2.031v3.121h-1.018Z" transform="translate(-1036.27 -455.572)" fill="#1a1718"/>
      <path id="Path_1013" data-name="Path 1013" d="M1135.862,456.9h1.02v-1.739h1.017V456.9h1.3v.831h-1.3v3.453c0,.573.14.866.673.866a2.21,2.21,0,0,0,.514-.049v.767a2.742,2.742,0,0,1-.881.108c-.917,0-1.323-.474-1.323-1.454v-3.692h-1.02Z" transform="translate(-1041.083 -454.262)" fill="#1a1718"/>
      <path id="Path_1014" data-name="Path 1014" d="M1143.677,459.815c0-.825-.008-1.289-.011-1.6h1c.016.165.031.628.031,1.2a2.086,2.086,0,0,1,1.986-1.344v1.015a1.877,1.877,0,0,0-1.986,2.158v2.862h-1.017Z" transform="translate(-1044.596 -455.572)" fill="#1a1718"/>
      <path id="Path_1015" data-name="Path 1015" d="M1154.768,462.823a9.046,9.046,0,0,0,.082,1.286h-.974a3.233,3.233,0,0,1-.1-.772,1.845,1.845,0,0,1-1.821.912,1.783,1.783,0,0,1-1.983-1.8c0-1.315,1.033-1.918,2.785-1.918h1.005v-.5c0-.52-.166-1.155-1.269-1.155-.985,0-1.151.489-1.258.949h-.985c.078-.813.581-1.751,2.275-1.748,1.44,0,2.238.591,2.238,1.932Zm-.993-1.589h-.954c-1.175,0-1.8.325-1.8,1.156a1.037,1.037,0,0,0,1.147,1.06c1.42,0,1.611-.957,1.611-2.027Z" transform="translate(-1047.438 -455.572)" fill="#1a1718"/>
      <path id="Path_1016" data-name="Path 1016" d="M1161.974,453.524h1.018V454.8h-1.018Zm0,2.64h1.018v5.9h-1.018Z" transform="translate(-1052.84 -453.524)" fill="#1a1718"/>
      <path id="Path_1017" data-name="Path 1017" d="M1171.59,453.524v6.87c0,.554,0,1.1.012,1.666h-.979c-.027-.156-.047-.608-.051-.837a1.85,1.85,0,0,1-1.855.977c-1.516,0-2.447-1.229-2.447-3.026,0-1.815,1-3.149,2.635-3.149,1.043,0,1.508.422,1.667.753v-3.253Zm-4.262,5.618c0,1.424.677,2.193,1.6,2.193,1.379,0,1.682-1.016,1.682-2.309,0-1.311-.274-2.137-1.6-2.137C1167.97,456.889,1167.328,457.712,1167.328,459.142Z" transform="translate(-1054.775 -453.524)" fill="#1a1718"/>
      <path id="Path_1018" data-name="Path 1018" d="M1179.45,461.346c.008,1.2.611,2.051,1.612,2.051a1.358,1.358,0,0,0,1.423-.911h1.025a2.394,2.394,0,0,1-2.48,1.763c-1.853,0-2.609-1.507-2.609-3.025,0-1.753.883-3.15,2.675-3.15a2.505,2.505,0,0,1,2.525,2.784,4.792,4.792,0,0,1-.016.489Zm3.138-.717c-.012-.97-.5-1.749-1.507-1.749-1.037,0-1.493.722-1.6,1.749Z" transform="translate(-1060.246 -455.572)" fill="#1a1718"/>
      <path id="Path_1019" data-name="Path 1019" d="M1196.547,459.825a1.8,1.8,0,0,0,1.929,1.954,3.7,3.7,0,0,0,1.558-.291l.175.733a4.563,4.563,0,0,1-1.872.349,2.613,2.613,0,0,1-2.767-2.837c0-1.7,1-3.034,2.639-3.034a2.384,2.384,0,0,1,2.325,2.651,3.769,3.769,0,0,1-.035.476Zm3-.732a1.457,1.457,0,0,0-1.418-1.662,1.7,1.7,0,0,0-1.569,1.662Zm.244-4.7-1.418,1.662h-.732l1.023-1.662Z" transform="translate(-1067.967 -453.917)" fill="#1a1718"/>
      <path id="Path_1020" data-name="Path 1020" d="M1206.095,456.9h1.019v-1.739h1.018V456.9h1.3v.831h-1.3v3.453c0,.573.14.866.672.866a2.208,2.208,0,0,0,.514-.049v.767a2.741,2.741,0,0,1-.881.108c-.917,0-1.323-.474-1.323-1.454v-3.692h-1.019Z" transform="translate(-1072.707 -454.262)" fill="#1a1718"/>
      <path id="Path_1021" data-name="Path 1021" d="M1218.528,462.5c0,.573.008,1.369.012,1.718h-.99c-.023-.155-.035-.515-.04-.885a1.752,1.752,0,0,1-1.785,1.024c-.993,0-1.948-.495-1.948-2.158v-3.877h1.01v3.66c0,.775.243,1.489,1.221,1.489,1.084,0,1.5-.6,1.5-2.074v-3.075h1.018Z" transform="translate(-1076.166 -455.687)" fill="#1a1718"/>
      <path id="Path_1022" data-name="Path 1022" d="M1230.28,453.524v6.87c0,.554,0,1.1.012,1.666h-.978a8.315,8.315,0,0,1-.051-.837,1.849,1.849,0,0,1-1.855.977c-1.516,0-2.447-1.229-2.447-3.026,0-1.815,1-3.149,2.635-3.149,1.043,0,1.508.422,1.666.753v-3.253Zm-4.262,5.618c0,1.424.677,2.193,1.6,2.193,1.379,0,1.682-1.016,1.682-2.309,0-1.311-.274-2.137-1.6-2.137C1226.661,456.889,1226.018,457.712,1226.018,459.142Z" transform="translate(-1081.201 -453.524)" fill="#1a1718"/>
      <path id="Path_1023" data-name="Path 1023" d="M1237.873,453.524h1.018V454.8h-1.018Zm0,2.64h1.018v5.9h-1.018Z" transform="translate(-1087.015 -453.524)" fill="#1a1718"/>
      <path id="Path_1024" data-name="Path 1024" d="M1246.841,462.823a9.167,9.167,0,0,0,.081,1.286h-.974a3.212,3.212,0,0,1-.1-.772,1.845,1.845,0,0,1-1.821.912,1.783,1.783,0,0,1-1.983-1.8c0-1.315,1.034-1.918,2.786-1.918h1.005v-.5c0-.52-.165-1.155-1.269-1.155-.985,0-1.151.489-1.258.949h-.985c.078-.813.58-1.751,2.275-1.748,1.44,0,2.238.591,2.238,1.932Zm-.994-1.589h-.954c-1.175,0-1.8.325-1.8,1.156a1.037,1.037,0,0,0,1.147,1.06c1.42,0,1.611-.957,1.611-2.027Z" transform="translate(-1088.896 -455.572)" fill="#1a1718"/>
      <path id="Path_1025" data-name="Path 1025" d="M1254.045,459.7c0-.511,0-1.029-.012-1.485h.99c.027.174.043.794.04.969a1.856,1.856,0,0,1,1.856-1.109c1.1,0,1.969.677,1.969,2.243v3.792h-1.017v-3.662c0-.891-.348-1.491-1.248-1.491-1.112,0-1.56.847-1.56,2.031v3.121h-1.017Z" transform="translate(-1094.292 -455.572)" fill="#1a1718"/>
      <path id="Path_1026" data-name="Path 1026" d="M1264.722,456.9h1.019v-1.739h1.018V456.9h1.3v.831h-1.3v3.453c0,.573.14.866.672.866a2.208,2.208,0,0,0,.514-.049v.767a2.742,2.742,0,0,1-.881.108c-.917,0-1.323-.474-1.323-1.454v-3.692h-1.019Z" transform="translate(-1099.105 -454.262)" fill="#1a1718"/>
      <path id="Path_1027" data-name="Path 1027" d="M1272.876,461.346c.007,1.2.611,2.051,1.611,2.051a1.358,1.358,0,0,0,1.423-.911h1.025a2.394,2.394,0,0,1-2.48,1.763c-1.853,0-2.609-1.507-2.609-3.025,0-1.753.883-3.15,2.675-3.15a2.505,2.505,0,0,1,2.525,2.784,4.583,4.583,0,0,1-.017.489Zm3.138-.717c-.012-.97-.5-1.749-1.507-1.749-1.037,0-1.493.722-1.6,1.749Z" transform="translate(-1102.313 -455.572)" fill="#1a1718"/>
    </g>
  </g>
</svg>
