<svg xmlns="http://www.w3.org/2000/svg" viewBox="0 0 174.89 52.572">
  <defs>
    <linearGradient id="a" x1=".08" x2=".92" y1=".9" y2=".1">
      <stop offset=".22" stop-color="#00adee"/>
      <stop offset=".42" stop-color="#3a6dbf"/>
      <stop offset=".64" stop-color="#782b8f"/>
      <stop offset=".65" stop-color="#7c298e"/>
      <stop offset=".81" stop-color="#a81c8c"/>
      <stop offset=".93" stop-color="#c3148b"/>
      <stop offset="1" stop-color="#ce118b"/>
    </linearGradient>
  </defs>
  <path fill="#221f1f" d="M72.14 22.65a7.44 7.44 0 1 1 .08-10.51l3.51-3.51a12.39 12.39 0 1 0-.08 17.53l-3.51-3.51zm99.16 0a7.44 7.44 0 1 1 .08-10.51l3.51-3.51a12.39 12.39 0 1 0-.08 17.53l-3.51-3.51zM14.46 24.79c-2.25 0-4.54-1-4.54-3.72V9.92h7.26V4.96H9.92V0L0 9.92h4.96v11.53c0 2.15.03 4.2 2.27 6.33 1.38 1.32 4.51 1.97 6.66 1.97a11.9 11.9 0 0 0 5.94-1.47v-4.81a9.94 9.94 0 0 1-5.37 1.32zm99.16 0c-2.26 0-4.55-1-4.55-3.72V9.92h7.27V4.96h-7.27V0l-9.91 9.92h4.95v11.53c0 2.15.04 4.2 2.28 6.33 1.37 1.32 4.51 1.97 6.66 1.97a11.9 11.9 0 0 0 5.94-1.47v-4.81a9.93 9.93 0 0 1-5.37 1.32z"/>
  <path fill="url(#a)" d="m99.15 14.87-9.91 9.92v-4.96H74.36l9.92-9.91v4.95l10.93.01 3.94-.01z"/>
  <path fill="#221f1f" d="M37.18 9.91a7.44 7.44 0 1 1-7.43 7.44 7.45 7.45 0 0 1 7.43-7.44m0-4.96a12.39 12.39 0 1 0 12.4 12.4 12.39 12.39 0 0 0-12.4-12.39v-.01zm99.16 4.96a7.44 7.44 0 1 1-7.44 7.44 7.45 7.45 0 0 1 7.44-7.44m0-4.96a12.39 12.39 0 1 0 12.39 12.4 12.4 12.4 0 0 0-12.39-12.39v-.01z"/>
  <text xml:space="preserve" x="87.3" y="49.65" fill="#221f1f" fill-opacity="NaN" font-family="Helvetica" font-size="11" text-anchor="middle">Communauté d&apos;entraide étudiante</text>
</svg>
