<?xml version="1.0" encoding="UTF-8" standalone="no"?>
<!-- Generator: Adobe Illustrator 22.0.1, SVG Export Plug-In . SVG Version: 6.00 Build 0)  -->

<svg
   version="1.1"
   id="Layer_1"
   x="0px"
   y="0px"
   viewBox="0 0 367.89999 304.39999"
   xml:space="preserve"
   width="367.89999"
   height="304.39999"
   xmlns="http://www.w3.org/2000/svg"
   xmlns:svg="http://www.w3.org/2000/svg"><defs
   id="defs746" />
<style
   type="text/css"
   id="style1">
	.st0{fill:#EAE2F0;}
	.st1{fill:#E1F4FD;}
	.st2{fill:#FFFFFF;}
	.st3{font-family:'Gantari-Bold';}
	.st4{font-size:30px;}
	.st5{fill:none;}
	.st6{font-family:'Gantari-Regular';}
	.st7{font-size:14px;}
	.st8{font-family:'Gantari-SemiBold';}
	.st9{fill:#782B90;}
	.st10{font-size:24px;}
	.st11{font-size:16px;}
	.st12{font-family:'Gantari-Medium';}
	.st13{font-family:'AlbertSans-MediumItalic';}
	.st14{font-size:16.8941px;}
	.st15{fill:url(#SVGID_1_);}
	.st16{fill:url(#SVGID_2_);}
	.st17{fill:url(#SVGID_3_);}
	.st18{fill:url(#SVGID_4_);}
	.st19{fill:#231F20;}
	.st20{font-family:'Gantari-BoldItalic';}
	.st21{fill:#10101A;}
	.st22{fill:#00AEEF;}
	.st23{font-size:11.4192px;}
	.st24{clip-path:url(#SVGID_6_);fill:#FFFFFF;}
	.st25{clip-path:url(#SVGID_6_);}
	.st26{fill:#020202;}
	.st27{fill:#EAEBF6;}
	.st28{clip-path:url(#SVGID_8_);}
	.st29{fill:#23A9E1;}
	.st30{font-size:18px;}
	.st31{fill:#BCBEC0;}
	.st32{font-size:12px;}
	.st33{font-size:13px;}
	.st34{fill:#FFFFFF;stroke:#000000;stroke-width:0.7148;stroke-miterlimit:10;}
	.st35{fill:#FFFFFF;stroke:#000000;stroke-width:0.6955;stroke-miterlimit:10;}
	.st36{fill:#010101;}
	.st37{fill:#FFFFFF;stroke:#000000;stroke-width:0.9307;stroke-miterlimit:10;}
	.st38{fill-rule:evenodd;clip-rule:evenodd;fill:#FFFFFF;stroke:#000000;stroke-miterlimit:10;}
	.st39{fill-rule:evenodd;clip-rule:evenodd;fill:#782B90;}
	.st40{fill:#FFFFFF;stroke:#000000;stroke-width:0.71;stroke-miterlimit:10;}
	.st41{fill:#FFFFFF;stroke:#000000;stroke-miterlimit:10;}
	.st42{fill:#FFFFFF;stroke:#000000;stroke-width:0.6956;stroke-miterlimit:10;}
	.st43{fill:none;stroke:#000000;stroke-miterlimit:10;}
	.st44{fill:#FFFFFF;stroke:#000000;stroke-width:1.2628;stroke-miterlimit:10;}
	.st45{fill:#FFFFFF;stroke:#000000;stroke-linecap:round;stroke-linejoin:round;stroke-miterlimit:10;}
	.st46{fill:none;stroke:#782B90;stroke-width:2;stroke-miterlimit:10;}
	.st47{fill:#FFFFFF;stroke:#000000;stroke-linejoin:round;stroke-miterlimit:10;}
	.st48{fill:#F7F6FB;}
	.st49{fill:#FFFFFF;stroke:#000000;stroke-width:0.2236;stroke-miterlimit:10;}
	.st50{fill:#FFFFFF;stroke:#000000;stroke-width:0.4473;stroke-miterlimit:10;}
</style>


















<g
   id="g747"
   transform="translate(-157,-460.6)"><path
     class="st0"
     d="m 524.9,637.8 c 0,97.9 -66.7,110.4 -168.3,110.4 C 255,748.2 157,735.6 157,637.8 157,540 239.4,460.6 341,460.6 c 101.6,0 183.9,79.3 183.9,177.2 z"
     id="path1" /><ellipse
     class="st2"
     cx="345.29999"
     cy="667.79999"
     rx="131.39999"
     ry="86.300003"
     id="ellipse1" /><g
     id="g160">
	<g
   id="g159">
		<path
   class="st21"
   d="m 446.1,650.1 c 0.2,0 0.2,0 0.4,0 0.9,0.2 1.9,0.7 2.4,1.5 0,0.6 0,0.6 -0.4,1.1 l -0.2,0.3 c -0.2,0 -0.5,0 -0.8,0 -1,-0.1 -0.9,-2 -1.4,-2.8 z"
   id="path92" />
		<path
   class="st21"
   d="m 335.3,636 c 0.3,0.4 0.5,0.7 0.5,1.3 0,0.3 0,0.6 0,0.8 0,1.1 0.5,1.9 1.2,2.7 2.4,2.3 6.5,3 9.7,3 3.2,0 7.4,-0.6 9.7,-3 1.2,-1.2 1.3,-2.1 1.2,-3.7 0.3,-0.2 0.5,-0.6 0.7,-0.8 v 3.5 c -0.6,0.9 -1.3,1.7 -2.2,2.3 -3.5,2.5 -8.8,3 -12.9,2.3 -3.1,-0.5 -6.1,-1.8 -8,-4.5 -0.1,-1.3 -0.2,-2.6 0.1,-3.9 z"
   id="path93" />
		<path
   class="st2"
   d="m 335.8,637.3 0.3,-0.3 c 2,2.3 4.2,3.2 7.2,3.6 5.4,0.8 10,-0.1 14.3,-3.4 0,1.6 -0.1,2.5 -1.2,3.7 -2.3,2.4 -6.5,3 -9.7,3 -3.2,0 -7.3,-0.7 -9.7,-3 -0.8,-0.8 -1.3,-1.6 -1.2,-2.7 0,-0.3 0,-0.6 0,-0.9 z"
   id="path94" />
		<path
   class="st21"
   d="m 438.5,628.1 0.8,-0.1 c 1.9,1 23.1,15.4 23.7,16.6 -0.9,1.3 -4.1,2.7 -5.6,3.3 -1.2,1.2 -4.5,3 -6.1,3.7 0,0 0,-0.1 0,-0.1 -0.4,-0.9 -4.7,-3.9 -5.7,-4.4 0.3,-0.7 -0.8,-10.2 -1.2,-11.1 -0.6,-1.8 -6.4,-5.5 -8.2,-6.4 0.8,-0.4 1.8,-0.9 2.3,-1.5 z"
   id="path95" />
		<path
   class="st9"
   d="m 355.4,630.3 c 1.4,0.9 2.5,1.8 2.9,3.6 0.2,0.8 0.1,1.7 0.1,2.5 -0.2,0.3 -0.4,0.6 -0.7,0.8 -4.3,3.3 -8.9,4.2 -14.3,3.4 -3,-0.4 -5.2,-1.3 -7.2,-3.6 l -0.3,0.3 c 0,-0.5 -0.2,-0.8 -0.5,-1.3 -0.2,-0.5 -0.2,-1.1 -0.2,-1.6 0,-1.3 0.7,-2.4 1.6,-3.2 3.1,-2.8 9.2,-3.5 13.2,-2.7 0.8,0.2 1.7,0.5 2.6,0.8 0.4,0.1 2.7,1 2.8,1 z"
   id="path96" />
		<path
   class="st21"
   d="m 459.2,577.2 c -0.1,0 -0.1,-0.1 -0.2,-0.1 -1.1,-0.6 -2.7,-0.5 -3.1,-2 -0.6,-2.4 1.5,-7.2 2.7,-9.2 2.7,-4.2 6.6,-6.8 11.5,-7.9 4.8,-1 10.5,-1.1 14.7,1.7 0.6,0.4 1.2,0.8 1.7,1.3 2.6,0.2 5.2,0.8 7,2.9 1.3,1.5 2.4,3.3 3.2,5 1,2.1 9.8,22.8 9.7,23.3 0,0.1 0,0.1 0,0.2 -0.1,1.4 -2.3,3.1 -3.3,4 -3.2,2.7 -7.9,5.4 -12.1,6.2 0.4,1 0.7,2.4 0.5,3.5 0.2,0.6 0.3,0.7 0.1,1.3 -0.3,0.2 -0.6,0.4 -0.9,0.5 0.1,0.8 -0.3,1.4 -0.8,2 -1.4,1.7 -3.7,2.7 -5.8,2.9 -0.2,0 -0.3,0 -0.5,0 -0.2,0 -0.3,0 -0.5,0 -0.2,0 -0.3,0 -0.5,0 -0.2,0 -0.3,0 -0.5,0 -0.2,0 -0.3,0 -0.5,-0.1 -0.2,0 -0.3,-0.1 -0.5,-0.1 -0.2,0 -0.3,-0.1 -0.5,-0.1 -0.1,0 -0.3,-0.1 -0.4,-0.1 -0.1,0 -0.3,-0.1 -0.4,-0.2 -0.1,-0.1 -0.3,-0.1 -0.4,-0.2 -0.1,-0.1 -0.3,-0.1 -0.4,-0.2 -0.1,-0.1 -0.3,-0.1 -0.4,-0.2 -0.1,-0.1 -0.3,-0.2 -0.4,-0.2 -0.1,-0.1 -0.3,-0.2 -0.4,-0.3 -0.1,-0.1 -0.3,-0.2 -0.4,-0.3 -0.1,-0.1 -0.2,-0.2 -0.4,-0.3 -0.8,-0.7 -1.4,-1.5 -1.9,-2.3 -1.2,-1.1 0.4,-4.7 -0.8,-6.4 -0.1,0 -0.1,-0.1 -0.2,-0.1 -0.8,-0.3 -2.2,-0.1 -3.1,-0.2 -4.1,-0.4 -7.3,-2.5 -9.2,-6.1 -2.4,-4.5 -2.5,-9.7 -2.6,-14.7 0.2,-0.8 0.4,-2.4 0,-3.5 z"
   id="path97" />
		<path
   class="st2"
   d="m 459.6,577.4 c 1.6,0.1 3.2,0.7 4.7,1 3.3,0.6 10.9,1.9 13.9,0.5 0.7,-0.3 1.3,-1 1.5,-1.7 1.5,2.9 1.2,5.5 4.3,7.8 1.2,0.9 2.6,1.4 3.6,2.6 0,0.1 0.1,0.1 0.1,0.2 0.2,-0.1 0.2,0 0.3,-0.2 0.5,-0.6 1,-1.3 1.7,-1.5 0.8,-0.3 1.8,-0.3 2.6,0.1 0.9,0.4 1.7,1.2 2,2.2 0.4,1 0.2,1.9 -0.3,2.9 -0.5,1.1 -2,3 -3.3,3.3 -0.6,0.1 -0.9,-0.1 -1.4,-0.4 l -0.3,0.1 c -0.1,1 0.3,2.3 0.5,3.3 0.4,2.3 1.7,8.5 1.1,10.5 0.1,0.8 -0.3,1.4 -0.8,2 -1.4,1.7 -3.7,2.7 -5.8,2.9 -0.2,0 -0.3,0 -0.5,0 -0.2,0 -0.3,0 -0.5,0 -0.2,0 -0.3,0 -0.5,0 -0.2,0 -0.3,0 -0.5,0 -0.2,0 -0.3,0 -0.5,-0.1 -0.2,0 -0.3,-0.1 -0.5,-0.1 -0.2,0 -0.3,-0.1 -0.5,-0.1 -0.1,0 -0.3,-0.1 -0.4,-0.1 -0.1,0 -0.3,-0.1 -0.4,-0.2 -0.1,-0.1 -0.3,-0.1 -0.4,-0.2 -0.1,-0.1 -0.3,-0.1 -0.4,-0.2 -0.1,-0.1 -0.3,-0.1 -0.4,-0.2 -0.1,-0.1 -0.3,-0.2 -0.4,-0.2 -0.1,-0.1 -0.3,-0.2 -0.4,-0.3 -0.1,-0.1 -0.3,-0.2 -0.4,-0.3 -0.1,-0.1 -0.2,-0.2 -0.4,-0.3 -0.8,-0.7 -1.4,-1.5 -1.9,-2.3 0.1,-0.1 0.1,-0.3 0.2,-0.4 0.3,-1.2 0.4,-5.9 -0.2,-7 -2.1,0.2 -4.3,0.2 -6.4,-0.4 -7.2,-2.2 -8.5,-11 -8.7,-17.5 -0.1,-1.6 0.3,-4.2 -0.5,-5.5 0.3,-0.1 0.2,-0.2 0.2,-0.2 z"
   id="path98" />
		<path
   class="st21"
   d="m 490,587.8 c 0.3,0 0.7,0.1 0.9,0.3 0.4,0.3 0.7,0.9 0.7,1.4 0,0.7 -0.2,0.8 -0.6,1.2 -0.3,-0.2 -0.3,-0.3 -0.4,-0.6 0.1,-0.6 0.2,-1 0.1,-1.6 l -0.6,-0.3 z"
   id="path99" />
		<path
   class="st21"
   d="m 472.4,582 c 1.3,-0.2 2.9,-0.4 4.2,0 l 0.1,0.3 -0.5,0.4 c -1,-0.2 -2.9,0.3 -3.7,-0.2 z"
   id="path100" />
		<path
   class="st21"
   d="m 462.4,584.2 c 0.4,-0.1 0.7,-0.1 1.1,0 0.4,0.4 0.5,0.4 0.7,1 -0.2,0.7 -0.2,0.8 -0.7,1.2 l -0.3,0.1 c -0.3,0 -0.5,0 -0.7,-0.2 -0.4,-0.5 -0.2,-1.4 -0.1,-2.1 z"
   id="path101" />
		<path
   class="st21"
   d="m 473.2,585.6 c 0.7,-0.1 0.8,-0.1 1.4,0.1 0.3,0.4 0.6,0.7 0.5,1.2 -0.1,0.6 -0.4,0.7 -0.9,1 -0.2,0.1 -0.4,0.1 -0.7,0.1 l -0.3,-0.4 c -0.2,-0.7 -0.1,-1.2 0,-2 z"
   id="path102" />
		<path
   class="st21"
   d="m 471.3,593.2 c 0.4,0 0.5,0 0.9,0.3 0,0.7 -0.1,1.2 -0.6,1.8 -0.5,0.7 -1.4,1.1 -2.2,1.2 -1.6,0.1 -2.5,-0.6 -3.6,-1.6 -0.1,-0.4 -0.2,-0.6 0,-1.1 h 0.4 c 0.7,0.7 2,2.1 3.1,2.1 0.6,0 0.9,-0.3 1.3,-0.7 0.5,-0.7 0.8,-1.1 0.7,-2 z"
   id="path103" />
		<path
   class="st21"
   d="m 199.6,600.9 c -3.1,-1.5 -5.9,-3.6 -8.4,-5.9 -5.2,-4.9 -6.2,-10.4 -6.3,-17.8 -0.1,-3.2 0.4,-7.7 2.7,-10 5.5,-5.7 7.2,-4.2 13.3,-6.7 6.2,-2.6 10.1,-4.3 17.3,-4.4 3.4,-0.1 6.8,-0.1 9.3,2.3 1.6,1.6 3.2,2.7 3.2,5 0,3.8 -1.6,5.5 -4.2,8.1 0.4,1.3 0.8,2.6 1.1,3.8 1.6,5.7 2.3,12.6 -0.7,17.9 -2.3,4.1 -5.9,6.5 -10.3,7.7 0,2 -0.3,4.7 0.4,6.6 0.3,0.4 0.4,0.5 0.5,1 -0.7,1.7 -2.9,3.1 -4.5,3.8 -3.1,1.4 -6.7,1.4 -9.9,0.2 -1.5,-0.6 -4.4,-2.1 -5,-3.7 -0.2,-0.4 0,-0.9 0.1,-1.3 -3,0.3 -6.4,2.1 -9.1,3.5 -0.9,0.5 -2,1.2 -3,1.4 3.4,-2.8 8.4,-4.9 12.7,-5.8 0.3,-1.8 0.5,-3.8 0.8,-5.7 z"
   id="path104" />
		<path
   class="st2"
   d="m 225.7,572.1 c 0.8,0.9 1.6,5.5 1.9,6.8 1,5.1 0.8,10.6 -2.2,15 -2.2,3.3 -5.6,5.5 -9.6,6.2 -0.2,1.8 -0.6,5.6 0.3,7.2 0.1,0.3 0.3,0.4 0.3,0.7 -0.1,0.7 -0.9,1.6 -1.4,2 -2.2,1.9 -5.5,2.6 -8.3,2.4 -3,-0.2 -5.9,-1.5 -7.9,-3.8 0,0 0,-0.1 0,-0.1 l 0.1,-0.2 c 0.5,-1.3 0.7,-2.7 1,-4.1 0.6,-3.6 0.7,-7.2 0.6,-10.8 -1.8,0.1 -3.2,0.2 -4.8,-0.9 -0.9,-0.6 -1.7,-1.5 -1.9,-2.6 -0.2,-1 0.3,-2 0.8,-2.9 1.6,-2.3 5.1,-1.4 7.5,-1.9 1.4,-0.3 2.4,-0.9 3.2,-2.1 1.4,-2.2 -0.1,-5.3 -0.6,-7.6 3.2,0.9 7.6,2 10.9,1.4 1.5,-0.3 3,-0.8 4.6,-1 -0.1,0.4 -0.2,0.7 -0.3,1.1 l 0.2,0.3 0.3,-0.1 c 0.2,-0.3 0.4,-0.7 0.7,-1 0.3,-0.2 1.7,-0.1 2.2,0 0.4,-0.2 0.4,-0.2 0.6,-0.6 -0.4,-0.3 -1.5,-0.1 -2,-0.1 0.2,-0.6 3.1,-2.6 3.8,-3.3 z"
   id="path105" />
		<path
   class="st21"
   d="m 222.1,578.3 c 0.2,0.1 0.5,0.2 0.7,0.3 0.4,0.3 0.8,0.7 0.9,1.2 0.1,0.7 -0.1,1.1 -0.4,1.7 -0.4,-0.1 -0.7,-0.2 -1,-0.4 -0.4,-0.4 -0.7,-0.8 -0.7,-1.4 -0.1,-0.7 0.1,-1 0.5,-1.4 z"
   id="path106" />
		<path
   class="st21"
   d="m 213,582 c 0.2,0.1 0.3,0.1 0.4,0.2 0.5,0.2 0.9,0.6 1.1,1.1 0.2,0.7 -0.1,1.3 -0.4,2 H 214 c -0.3,-0.1 -0.6,-0.2 -0.9,-0.4 -0.4,-0.2 -0.7,-0.7 -0.8,-1.1 0,-0.7 0.3,-1.2 0.7,-1.8 z"
   id="path107" />
		<path
   class="st21"
   d="m 228.6,586.6 c 0,0 0.7,8.6 -2.2,10.5 -2.9,1.9 -6.8,3.8 -9.5,2.8 -2.7,-0.9 -7.8,-1.1 -9.7,-3.3 -1.9,-2.2 -5.8,-12.2 -5.8,-12.2 l 2,-1.6 c 0,0 3.8,8.8 8.4,9.5 3.5,0.5 2.8,0 4.2,-1.6 1.9,-2.2 5.6,-4 7.6,-4.6 2.1,-0.6 5,0.5 5,0.5 z"
   id="path108" />
		<path
   class="st2"
   d="m 225.1,588.2 0.5,0.2 c 0.4,0.4 0.3,0.9 0.2,1.4 -0.1,0.9 -0.6,1.6 -1.5,2.2 -1.7,0.9 -3.4,1 -5.5,0.8 -0.3,-0.1 -0.4,-0.2 -0.6,-0.5 1.4,-0.4 3.5,-0.3 5.5,-1.5 1.4,-0.9 1.3,-1.5 1.4,-2.6 z"
   id="path109" />
		<path
   class="st21"
   d="m 249.8,504.4 c 6.5,-0.7 14.1,1.8 19.1,5.9 6,4.7 9.9,11.5 10.7,19.1 0,0.2 0,0.5 0.1,0.7 0,0.2 0,0.5 0,0.7 0,0.2 0,0.5 0,0.7 0,0.2 0,0.5 0,0.7 0,0.2 0,0.5 0,0.7 0,0.2 0,0.5 0,0.7 0,0.2 0,0.5 0,0.7 0,0.2 0,0.5 -0.1,0.7 0,0.2 0,0.5 -0.1,0.7 0,0.2 -0.1,0.5 -0.1,0.7 0,0.2 -0.1,0.5 -0.1,0.7 0,0.2 -0.1,0.5 -0.1,0.7 0,0.2 -0.1,0.5 -0.1,0.7 -0.1,0.2 -0.1,0.5 -0.2,0.7 -0.1,0.2 -0.1,0.5 -0.2,0.7 -0.1,0.2 -0.1,0.5 -0.2,0.7 -0.1,0.2 -0.1,0.5 -0.2,0.7 -0.1,0.2 -0.1,0.5 -0.2,0.7 -0.1,0.2 -0.2,0.5 -0.2,0.7 -0.1,0.2 -0.2,0.5 -0.3,0.7 -0.1,0.2 -0.2,0.4 -0.3,0.7 -0.1,0.2 -0.2,0.4 -0.3,0.7 -0.1,0.2 -0.2,0.4 -0.3,0.7 -0.1,0.3 -0.2,0.4 -0.3,0.6 -0.1,0.2 -0.2,0.4 -0.3,0.6 -0.1,0.2 -0.2,0.4 -0.4,0.6 -0.1,0.2 -0.2,0.4 -0.4,0.6 -0.1,0.2 -0.3,0.4 -0.4,0.6 -0.1,0.2 -0.3,0.4 -0.4,0.6 -0.1,0.2 -0.3,0.4 -0.4,0.6 -0.1,0.2 -0.3,0.4 -0.4,0.6 -0.1,0.2 -0.3,0.4 -0.4,0.6 -5.3,6.6 -12.2,10.1 -20.6,11 -7.9,0.2 -14.9,-2 -21,-7 -5.4,-4.5 -9.1,-11.7 -9.7,-18.7 -0.7,-7.4 1.7,-15.4 6.5,-21.1 5.6,-6.3 13,-10 21.3,-10.7 z"
   id="path110" />
		<path
   class="st9"
   d="m 245.8,545.6 c 1.9,0 10.9,-0.6 12.1,0.3 0.2,0.7 0.1,1.2 0,1.9 -0.4,0.4 -0.8,0.3 -1.3,0.3 -3.3,-0.1 -6.6,0.1 -9.9,0.1 -0.7,0 -1.8,0.1 -2.4,-0.5 -0.2,-0.7 -0.2,-1.2 -0.2,-1.9 0.5,-0.3 1.1,-0.2 1.7,-0.2 z"
   id="path111" />
		<path
   class="st9"
   d="m 253.5,548.8 4.4,-0.1 c -0.7,1.5 -1.5,2.8 -2.9,3.7 -1.8,1.1 -3.9,1.1 -5.9,0.6 -2.2,-0.7 -3.5,-2.1 -4.5,-4.2 2.9,0.1 5.9,0.1 8.9,0 z"
   id="path112" />
		<path
   class="st2"
   d="m 250.4,513.2 c 1.9,-0.2 4.1,0.2 5.9,0.8 0.2,0.1 0.4,0.2 0.7,0.2 0.2,0.1 0.4,0.2 0.7,0.3 0.3,0.1 0.4,0.2 0.6,0.3 0.2,0.1 0.4,0.2 0.6,0.3 0.2,0.1 0.4,0.2 0.6,0.4 0.2,0.1 0.4,0.3 0.6,0.4 0.2,0.1 0.4,0.3 0.6,0.4 0.2,0.1 0.4,0.3 0.5,0.5 0.2,0.2 0.4,0.3 0.5,0.5 0.2,0.2 0.3,0.3 0.5,0.5 0.2,0.2 0.3,0.3 0.5,0.5 0.2,0.2 0.3,0.4 0.4,0.6 0.1,0.2 0.3,0.4 0.4,0.6 0.1,0.2 0.3,0.4 0.4,0.6 0.1,0.2 0.2,0.4 0.4,0.6 0.1,0.2 0.2,0.4 0.3,0.6 2.2,4.5 2,10.1 -0.9,14.3 -2.5,3.6 -4.5,4.8 -6,9.3 L 254,545 c 0.4,-3.4 1,-6.8 1.9,-10.1 0.3,-1 1.8,-4.1 1.5,-4.9 l -0.4,0.1 c -1.8,2.2 -2.9,8.3 -3.3,11.2 l -0.5,3.7 h -2.9 c -0.6,-3.5 -1.9,-7 -4.4,-9.6 h -0.4 c -0.3,1 2.6,4.5 3.1,5.7 0.5,1.2 0.7,2.5 0.8,3.8 h -4.7 c -1.5,-6.3 -6.8,-8.2 -7.8,-15.1 0,-0.2 -0.1,-0.5 -0.1,-0.7 0,-0.2 0,-0.5 -0.1,-0.7 0,-0.2 0,-0.5 0,-0.7 0,-0.2 0,-0.5 0,-0.7 0,-0.2 0,-0.5 0,-0.7 0,-0.2 0.1,-0.5 0.1,-0.7 0,-0.2 0.1,-0.5 0.1,-0.7 0,-0.2 0.1,-0.5 0.2,-0.7 0.1,-0.2 0.1,-0.5 0.2,-0.7 0.1,-0.2 0.1,-0.5 0.2,-0.7 0.1,-0.2 0.2,-0.4 0.3,-0.7 0.1,-0.2 0.2,-0.4 0.3,-0.7 0.1,-0.2 0.2,-0.4 0.3,-0.6 0.1,-0.2 0.2,-0.4 0.4,-0.6 0.1,-0.2 0.3,-0.4 0.4,-0.6 0.1,-0.2 0.3,-0.4 0.4,-0.6 2.7,-3.6 6.4,-5.2 10.8,-5.8 z"
   id="path113" />
		<path
   class="st21"
   d="m 431.2,508.1 c 7.8,-0.5 15,1.7 21,6.8 6.2,5.3 9.9,12.4 10.5,20.5 0.5,7.3 -2.2,14.8 -7,20.3 -5.2,5.9 -12.4,9.1 -20.2,9.6 0,0 -0.1,0 -0.1,0 -6.8,0.8 -14.3,-1.5 -19.8,-5.6 -5.7,-4.3 -9.9,-11.1 -10.9,-18.2 0,-0.2 -0.1,-0.5 -0.1,-0.7 0,-0.2 -0.1,-0.5 -0.1,-0.7 0,-0.2 0,-0.5 -0.1,-0.7 0,-0.2 0,-0.5 0,-0.7 0,-0.2 0,-0.5 0,-0.7 0,-0.2 0,-0.5 0,-0.7 0,-0.2 0,-0.5 0,-0.7 0,-0.2 0,-0.5 0,-0.7 0,-0.2 0,-0.5 0.1,-0.7 0,-0.2 0,-0.5 0.1,-0.7 0,-0.2 0.1,-0.5 0.1,-0.7 0,-0.2 0.1,-0.5 0.1,-0.7 0,-0.2 0.1,-0.5 0.1,-0.7 0,-0.2 0.1,-0.5 0.1,-0.7 0.1,-0.2 0.1,-0.5 0.2,-0.7 0.1,-0.2 0.1,-0.5 0.2,-0.7 0.1,-0.2 0.1,-0.5 0.2,-0.7 0.1,-0.2 0.1,-0.5 0.2,-0.7 0.1,-0.2 0.2,-0.5 0.2,-0.7 0,-0.2 0.2,-0.5 0.3,-0.7 0.1,-0.2 0.2,-0.5 0.3,-0.7 0.1,-0.2 0.2,-0.4 0.3,-0.7 0.1,-0.2 0.2,-0.4 0.3,-0.7 0.1,-0.2 0.2,-0.4 0.3,-0.7 0.1,-0.2 0.2,-0.4 0.3,-0.6 0.1,-0.2 0.2,-0.4 0.4,-0.6 0.1,-0.2 0.2,-0.4 0.4,-0.6 0.1,-0.2 0.3,-0.4 0.4,-0.6 0.1,-0.2 0.3,-0.4 0.4,-0.6 0.1,-0.2 0.3,-0.4 0.4,-0.6 0.1,-0.2 0.3,-0.4 0.4,-0.6 0.1,-0.2 0.3,-0.4 0.4,-0.6 5.1,-7 12.3,-10.8 20.6,-11.8 z"
   id="path114" />
		<path
   class="st2"
   d="m 430.6,508.9 c 0.3,0 0.6,0 0.9,-0.1 7.6,-0.5 14.6,1.8 20.4,6.8 5.8,5.1 9.5,12.1 10,19.8 0.4,7.1 -2,14.5 -6.8,19.8 -0.2,0.2 -0.3,0.3 -0.5,0.5 -0.2,0.2 -0.3,0.3 -0.5,0.5 -0.2,0.2 -0.3,0.3 -0.5,0.5 -0.2,0.2 -0.3,0.3 -0.5,0.5 -0.2,0.2 -0.3,0.3 -0.5,0.5 -0.2,0.2 -0.4,0.3 -0.5,0.4 -0.1,0.1 -0.4,0.3 -0.5,0.4 -0.2,0.1 -0.4,0.3 -0.5,0.4 -0.2,0.1 -0.4,0.3 -0.6,0.4 -0.2,0.1 -0.4,0.3 -0.6,0.4 -0.2,0.1 -0.4,0.3 -0.6,0.4 -0.2,0.1 -0.4,0.2 -0.6,0.4 -0.2,0.1 -0.4,0.2 -0.6,0.4 -0.2,0.1 -0.4,0.2 -0.6,0.3 -0.2,0.1 -0.4,0.2 -0.6,0.3 -0.2,0.1 -0.4,0.2 -0.6,0.3 -0.2,0.1 -0.4,0.2 -0.6,0.3 -0.2,0.1 -0.4,0.2 -0.6,0.3 -0.2,0.1 -0.4,0.2 -0.6,0.3 -0.2,0.1 -0.4,0.2 -0.6,0.2 -0.2,0.1 -0.4,0.2 -0.7,0.2 -0.2,0.1 -0.4,0.1 -0.7,0.2 -0.2,0.1 -0.4,0.1 -0.7,0.2 -0.2,0.1 -0.4,0.1 -0.7,0.2 -0.2,0.1 -0.4,0.1 -0.7,0.2 -0.3,0.1 -0.4,0.1 -0.7,0.2 -0.2,0 -0.5,0.1 -0.7,0.1 -0.2,0 -0.5,0.1 -0.7,0.1 -0.2,0 -0.5,0.1 -0.7,0.1 -0.2,0 -0.5,0.1 -0.7,0.1 -0.2,0 -0.5,0 -0.7,0.1 -0.2,0 -0.5,0 -0.7,0.1 -6.3,1 -13.9,-1.4 -19,-5 -0.2,-0.1 -0.4,-0.3 -0.5,-0.4 -0.2,-0.1 -0.4,-0.3 -0.5,-0.4 -0.2,-0.1 -0.3,-0.3 -0.5,-0.4 -0.2,-0.1 -0.3,-0.3 -0.5,-0.4 -0.2,-0.1 -0.3,-0.3 -0.5,-0.4 -0.2,-0.2 -0.3,-0.3 -0.5,-0.5 -0.2,-0.2 -0.3,-0.3 -0.5,-0.5 -0.2,-0.2 -0.3,-0.3 -0.5,-0.5 -0.2,-0.2 -0.3,-0.3 -0.5,-0.5 -0.2,-0.2 -0.3,-0.3 -0.4,-0.5 -0.1,-0.2 -0.3,-0.3 -0.4,-0.5 -0.1,-0.2 -0.3,-0.3 -0.4,-0.5 -0.1,-0.2 -0.3,-0.4 -0.4,-0.5 -0.1,-0.2 -0.3,-0.4 -0.4,-0.5 -0.1,-0.2 -0.3,-0.4 -0.4,-0.6 -0.1,-0.2 -0.2,-0.4 -0.4,-0.6 -0.1,-0.2 -0.2,-0.4 -0.4,-0.6 -0.1,-0.2 -0.2,-0.4 -0.3,-0.6 -0.1,-0.2 -0.2,-0.4 -0.3,-0.6 -0.1,-0.2 -0.2,-0.4 -0.3,-0.6 -0.1,-0.2 -0.2,-0.4 -0.3,-0.6 -0.1,-0.2 -0.2,-0.4 -0.3,-0.6 -0.1,-0.2 -0.2,-0.4 -0.3,-0.6 -0.1,-0.2 -0.2,-0.4 -0.2,-0.6 -0.1,-0.2 -0.2,-0.4 -0.2,-0.6 -0.1,-0.2 -0.1,-0.4 -0.2,-0.6 -0.1,-0.2 -0.1,-0.4 -0.2,-0.6 -0.1,-0.2 -0.1,-0.4 -0.2,-0.6 -0.1,-0.2 -0.1,-0.4 -0.2,-0.6 -0.1,-0.2 -0.1,-0.4 -0.2,-0.7 0,-0.2 -0.1,-0.4 -0.1,-0.7 0,-0.2 -0.1,-0.4 -0.1,-0.7 -1.3,-7.6 0.7,-15.1 5.2,-21.3 4.8,-6.8 12,-10.7 20,-11.9 z"
   id="path115" />
		<path
   class="st21"
   d="m 428.1,517.9 0.6,-0.1 c 2,0.7 23.5,12.5 24.3,13.4 0,0 0,0.1 0,0.1 -0.2,0.8 -2,2.4 -2.8,2.8 1.7,0.8 4.1,3.1 5.2,4.5 0.3,0.4 0.5,0.6 0.4,1.2 -0.6,0.7 -18.3,10.4 -20.1,11.1 -0.5,0.4 -1.2,0.7 -1.7,1.1 -1.3,0.9 -2.2,2.2 -3.6,2.9 -0.4,-1.2 -18.7,-16.5 -21.2,-19.1 2.9,-3.3 18,-16 18.9,-17.9 z"
   id="path116" />
		<path
   class="st2"
   d="m 453.3,537.9 c 0.6,0.3 1.3,0.7 1.5,1.4 0,0.1 0,0.1 0,0.2 -1.3,1.3 -17.5,10 -19.5,10.5 1.4,-0.8 2.6,-2.4 3.7,-3.5 2.4,-0.3 12.1,-6.8 14.3,-8.6 z"
   id="path117" />
		<path
   class="st9"
   d="m 449.9,534.4 c 0.9,0.7 3,2.4 3.3,3.5 -2.2,1.8 -11.9,8.3 -14.2,8.7 1.8,-2.5 10.5,-10.7 10.9,-12.2 z"
   id="path118" />
		<path
   class="st2"
   d="m 428.2,518.9 c 0.2,0 0.4,0 0.6,0 0.7,0 22.2,11.6 23.1,12.5 0,0 0,0.1 0,0.1 -0.2,0.6 -18.5,19.9 -19.5,20.5 -0.2,0.8 -1.2,1.4 -1.9,1.8 -0.2,-0.8 -18.1,-16.1 -20.1,-17.9 2.7,-3.1 16.8,-15.1 17.8,-17 z"
   id="path119" />
		<path
   class="st9"
   d="m 428.5,524.3 c 0.2,0 0.2,0 0.3,0 0.9,0 14,7.7 15,8.7 0,0.2 0,0.2 -0.1,0.4 -0.5,1 -5.6,6.4 -6.6,6.7 -0.9,-1.1 -13.3,-7.8 -15.3,-8.8 1,-0.6 6.2,-6 6.7,-7 z"
   id="path120" />
		<path
   class="st21"
   d="m 330.8,538.8 c -4.4,-4.7 -7.3,-10.7 -7,-17.2 0,-0.5 0.1,-1 0.1,-1.4 0.1,-0.5 0.1,-0.9 0.2,-1.4 0.1,-0.5 0.2,-0.9 0.3,-1.4 0.1,-0.5 0.3,-0.9 0.4,-1.4 1.5,-4 5.3,-9.9 8.5,-12.8 3.4,-3.1 8.6,-4.1 13.1,-3.8 8.8,0.6 16.6,7 22.2,13.4 4.8,5.5 2,7.9 4.3,13.3 3.1,7.2 12.4,9.3 11.6,19.7 -0.3,3.5 -1.5,8 -4.3,10.3 -0.3,0.3 -0.7,0.5 -1,0.7 4.2,7.2 10.4,14.8 8.1,23.6 -0.5,2 -1.4,3.8 -2.5,5.6 2.2,0.6 18.9,4.9 19.9,6.1 l -0.1,0.3 c -1,0.3 -5.1,-1.5 -6.3,-1.9 -4.6,-1.4 -9.4,-2.9 -14.2,-3.8 -2.8,3.3 -6.3,5.4 -10.6,6 0,2.2 0.4,10.2 -0.7,11.5 l -0.4,-0.1 -0.1,0.2 c -2.8,0.3 -5.7,0.2 -8.5,0.2 h -12.7 c -9,0 -18.1,0.3 -27,0 -0.8,0 -2.2,0 -2.8,-0.5 v 0.1 c -0.5,-0.4 -0.6,-0.9 -0.7,-1.6 -0.5,-3.1 -0.1,-6.6 -0.1,-9.7 -4.9,-0.5 -8.8,-2.2 -12,-6.1 -0.2,-0.2 -0.4,-0.5 -0.6,-0.7 -6,1.9 -12,3.3 -17.9,5.5 -25.1,9.3 -50.7,25.2 -63.5,49.6 -1.5,2.9 -2.8,5.9 -3.8,9 1.4,0.2 2.8,0.6 4.1,0.3 2.2,-0.4 6.7,-3.4 8.9,-4.5 2.7,-1.4 5.5,-2.7 8.2,-4.3 0.2,-1.4 0.3,-2.9 0.6,-4.3 8.8,-7.2 17.7,-14.3 26.6,-21.3 1.5,-1.2 5.9,-5.2 7.5,-5.7 0.6,0.1 0.6,0.1 1,0.5 0.1,3.3 -0.8,7.1 -1.3,10.3 l -3.5,22.4 c -3.3,2.5 -6.6,5.2 -9.9,7.8 4.9,0.5 7.8,1.2 11.7,4.3 3,-0.5 5.8,-0.4 8.5,1.4 2.2,1.5 3.5,3.8 3.9,6.4 0.6,3.6 -0.6,7.2 -2.7,10.1 -0.4,0.5 -0.7,0.9 -1.1,1.4 1,6 1,13.7 -2.6,18.8 -2.6,3.7 -6.4,5.1 -10.8,5.8 h -0.2 c 0,2.5 0,4.9 0.1,7.4 5.9,-0.8 11.9,0.3 16.7,3.9 1.1,0.9 2.2,2 3.5,2.7 0.7,-1.6 5.1,-10.8 6.1,-11.2 0.2,-0.1 0.5,-0.1 0.7,-0.1 0.7,-0.5 0.9,-1.4 1.3,-2.2 5.5,2.7 11,6.2 16.8,8.2 2.2,0.7 10.4,2.5 11.5,3.7 0.1,0.5 0,0.7 -0.2,1.1 l 0.2,0.3 c 0.8,0.4 2.3,0.5 2.8,1.4 -0.4,2.3 -3.1,6.4 -4.3,8.6 l -8.6,15.6 c -1.3,2.3 -2.6,4.6 -3.8,6.9 3.3,1.1 7,1.4 10.4,1.8 2.6,0.4 5.2,0.6 7.9,0.8 2.7,0.2 5.3,0.3 7.9,0.4 2.6,0.1 5.3,0 7.9,-0.1 2.6,-0.1 5.3,-0.3 7.9,-0.5 3.7,-0.3 7.4,-1.1 11.1,-1.4 1,-5.8 1.6,-11.7 2.4,-17.5 1.1,-8.2 1.8,-16.2 6.8,-23 5.5,-7.5 13.5,-9.9 22.2,-11.4 -0.5,-2.5 -1.2,-5 -2,-7.5 -0.5,0 -1,0 -1.5,0 -5.1,0.1 -10.2,-1.7 -13.9,-5.3 -5.8,-5.7 -7.8,-14.7 -7.9,-22.5 -2.3,-1.4 -4.3,-3.1 -5.4,-5.7 -0.8,-1.8 -1.1,-4.3 -0.3,-6.1 0.5,-1.1 1.4,-1.9 2.5,-2.4 2.2,-1 5.8,-0.5 8.5,-1.4 3.8,-1.3 7,-3.9 10.8,-5.3 6.8,-2.6 13.6,-2.5 20.3,0.6 L 407.9,621 c -0.4,-3.2 -0.9,-6.5 -1.1,-9.8 0,-0.6 -0.1,-1 0.2,-1.5 0.4,-0.1 0.5,-0.2 0.9,-0.1 1.4,0.5 34.1,24.6 34.9,26.2 0.1,0.1 0.2,0.3 0.3,0.5 0.8,2 1.2,9.6 1.5,12.1 0.8,6.6 2,13.1 2.5,19.8 0,0.4 0,0.7 -0.2,1 1.9,-0.4 6.6,-3.1 8.3,-4.2 -0.3,-0.9 -1.7,-1.3 -2.3,-1.9 -0.4,-0.3 -0.4,-0.7 -0.4,-1.1 0.4,-0.7 1.1,-0.8 1.7,-1.4 l -0.1,-0.2 c -0.3,-0.1 -0.6,-0.2 -0.9,-0.4 -0.5,-0.3 -0.8,-0.4 -1,-1 0.3,-0.9 1.2,-1.2 1.7,-2 -0.2,-0.4 -0.4,-0.7 -0.5,-1.1 0.6,-2.3 7.4,-3.9 9.6,-4.3 1.5,-0.3 3.3,-0.4 4.7,-0.9 0.5,-0.2 0.8,-0.5 1.2,-0.9 0.2,-0.4 0.1,-0.7 0.1,-1.1 0,-0.6 -0.1,-1.3 -0.6,-1.7 -3.4,1.2 -6.2,3.9 -9.5,5.3 -0.4,0.2 -0.3,0.1 -0.7,-0.1 l 0.3,0.2 -0.1,-0.5 c 2.5,-2.4 7.3,-3.7 9.7,-5.9 0.2,-0.2 0.1,-0.3 0.1,-0.6 -0.4,-0.8 -1.1,-1.5 -1.8,-2.1 -3,-2.6 -6.5,-4.8 -9.8,-7 -4.1,-2.8 -8.3,-5.8 -12.5,-8.5 -3.1,-2 -3.7,-2.1 -6.8,-0.1 -0.6,0.4 -1.1,0.7 -1.7,0.9 l -0.1,-0.2 c 0.3,-0.4 0.6,-0.8 1,-1.1 1.2,-0.9 3.1,-2.1 4.7,-1.8 1.5,0.3 21.5,13.7 22.5,15.1 0,-0.3 0,-0.6 -0.1,-0.9 -0.9,-2.4 -2.5,-4.7 -3.9,-6.8 -8.6,-13.3 -21.2,-23.5 -35,-31.1 -4,-2.1 -8,-4.1 -12,-6 -2.4,-1.1 -4.9,-2 -7.3,-3.2 v -0.3 c 0.3,-0.3 0.4,-0.5 0.8,-0.6 0.4,0.5 0.8,0.7 1.3,1 1.9,0.9 3.9,1.7 5.8,2.6 4.7,2.1 9.2,4.4 13.6,7 1.7,1 3.4,2 5.1,3.1 1.7,1.1 3.3,2.2 4.9,3.4 1.6,1.2 3.2,2.4 4.8,3.6 1.6,1.2 3.1,2.5 4.6,3.9 1.6,1.5 4.3,3.4 5.4,5.3 0,0.1 0.1,0.1 0.1,0.2 1.1,-0.9 2.2,-4.9 3,-6.4 0.4,-0.8 0.9,-1.6 1.4,-2.4 0.5,-0.8 1.1,-1.5 1.6,-2.2 4.6,-5.5 9.9,-4.9 16.4,-5.6 0.1,-0.1 0.1,-0.2 0.2,-0.3 0.4,-0.8 0.2,-2.1 -0.1,-2.9 1.1,1.6 -0.4,5.3 0.8,6.4 0.6,0.8 1.1,1.7 1.9,2.3 0.1,0.1 0.2,0.2 0.4,0.3 0.1,0.1 0.2,0.2 0.4,0.3 0.1,0.1 0.3,0.2 0.4,0.3 0.1,0.1 0.3,0.2 0.4,0.2 0.1,0.1 0.3,0.1 0.4,0.2 0.1,0.1 0.3,0.1 0.4,0.2 0.1,0.1 0.3,0.1 0.4,0.2 0.1,0.1 0.3,0.1 0.4,0.2 0.1,0 0.3,0.1 0.4,0.1 0.2,0 0.3,0.1 0.5,0.1 0.2,0 0.3,0.1 0.5,0.1 0.2,0 0.3,0 0.5,0.1 0.2,0 0.3,0 0.5,0 0.2,0 0.3,0 0.5,0 0.2,0 0.3,0 0.5,0 0.2,0 0.3,0 0.5,0 2.2,-0.2 4.4,-1.1 5.8,-2.9 0.5,-0.6 0.9,-1.2 0.8,-2 0.3,-0.1 0.6,-0.3 0.9,-0.5 0.2,-0.6 0.1,-0.8 -0.1,-1.3 4.7,0.3 11.9,4.1 15,7.5 1.5,1.6 2.8,3.6 3.6,5.6 3.4,8.1 4.2,23.9 3.7,32.8 -0.2,3.6 -1.2,9.7 -3.9,12.3 -0.1,0.1 -0.3,0.2 -0.4,0.3 1,1 1.2,3.7 1.2,5.1 0,1.7 -0.4,3.3 -0.4,5 -0.1,3.2 0.4,6.5 0.1,9.7 -0.2,1.5 -1.1,2.7 -1.2,4.2 -0.2,3.8 0,7.8 0,11.6 0,1.7 0.2,3.9 -0.6,5.5 -0.4,-0.4 -0.3,-2 -0.3,-2.6 0,-2.8 0.5,-11.7 -0.5,-13.8 -0.1,1.3 -2,2.7 -2.9,3.4 -0.4,0.4 -0.9,0.7 -1.4,0.9 0.6,1.6 0.5,14.5 0,16.4 l -0.2,0.3 c -1.2,-1.3 0.6,-13.8 -0.6,-16.3 -0.5,0.7 -1.5,1.1 -2.3,1.5 -5.2,2.7 -11.1,3.8 -16.9,4.6 -4.8,0.6 -9.4,0.7 -14.2,0.4 -1.9,4 -9.9,14.8 -13.6,16.8 0.7,0.8 7,20.6 6.9,21.4 0,0.1 0,0.1 0,0.2 -1.9,1.4 -7.9,4.1 -10.3,4.8 0.1,-0.4 0.1,-0.7 0.1,-1.2 -0.5,-2.7 -4.8,-18.9 -5.8,-20.8 -0.2,-0.3 -0.3,-0.5 -0.6,-0.6 -0.3,0.3 -0.3,0.4 -0.2,0.8 0,1.4 0.8,3.2 1.2,4.6 0.7,2.3 4.9,15.8 4.6,17.5 -1.7,1.3 -4.6,2 -6.6,2.8 -15.3,6 -34.1,11.5 -50.4,13.9 0.3,-3.5 -0.7,-9.9 -1,-13.6 -0.4,-4.8 -0.6,-9.8 -1.2,-14.6 0,-0.4 -0.2,-0.8 -0.4,-1.1 l -0.2,-0.1 c -0.3,0.4 -0.4,0.9 -0.4,1.4 0,2.3 0.5,4.8 0.6,7.1 l 1.1,14.2 c 0.2,2.2 0.5,4.4 0.7,6.7 -4,0.7 -7.9,1.3 -11.9,1.8 -2.7,0.3 -5.5,0.4 -8.1,1 -3.8,-2.8 -5.6,-6.3 -6.3,-10.9 0,-0.2 -0.1,-0.4 -0.1,-0.6 -3.8,0.4 -7.6,1.1 -11.5,1.4 -13.2,1.1 -30.9,0.7 -43.5,-2.9 l -1.4,2.5 c 4.3,-0.3 9.6,0.2 13,3 1.7,1.4 2.8,3.5 3,5.7 0.1,1 -0.1,2.1 -0.3,3.1 -7.1,-0.3 -15.6,-1.1 -22.6,-2.4 -7,-1.1 -13.9,-2.3 -20.9,-3.7 l -0.7,-0.2 c -3.2,-0.5 -6.5,-1.4 -9.7,-2.2 -2.1,-0.5 -4.2,-1.1 -6.3,-1.7 -2.1,-0.6 -4.2,-1.2 -6.3,-1.9 -2.1,-0.7 -4.2,-1.3 -6.2,-2 -2.1,-0.7 -4.1,-1.4 -6.2,-2.2 -2,-0.8 -4.1,-1.6 -6.1,-2.4 -2,-0.8 -4,-1.7 -6,-2.6 -2,-0.9 -4,-1.8 -6,-2.7 -2,-0.9 -3.9,-1.9 -5.9,-2.9 0.7,-2.9 1.6,-5.7 2.4,-8.5 1.4,-4.9 2.5,-9.9 4.8,-14.5 -4.1,-3.5 -8.6,-11.1 -11.4,-15.8 -0.1,0 -0.1,0 -0.2,0 -1.8,0.6 -4,0.4 -5.9,0.5 -10.2,0.3 -18.4,-1.3 -27.5,-5.6 -0.1,2.2 0.2,15.4 -0.4,16.3 l -0.4,-0.1 c -0.6,-2.2 -0.1,-13.7 -0.1,-16.8 -1.7,-1.2 -3.1,-2.5 -4.5,-4.1 0,2 0.2,14.9 -0.3,15.5 l -0.4,-0.1 c -0.1,-0.1 -0.1,-0.2 -0.2,-0.3 -0.4,-1.3 0.2,-13 0,-15.6 -0.2,-3.3 -1.8,-4.6 -1.1,-8.4 -0.1,-0.1 -0.3,-0.3 -0.4,-0.4 -2.8,-2.6 -4.1,-5.7 -4.2,-9.6 -0.1,-5.2 2.4,-9.5 5.9,-13.1 -2.2,-7.5 -2.5,-27.3 -0.5,-35 1,-3.7 3,-8.3 6.4,-10.3 1,-0.3 2,-1 3,-1.4 2.6,-1.4 6.1,-3.2 9.1,-3.5 -0.1,0.4 -0.3,0.9 -0.1,1.3 0.6,1.6 3.5,3.1 5,3.7 3.1,1.2 6.8,1.1 9.9,-0.2 1.6,-0.7 3.9,-2.1 4.5,-3.8 -0.1,-0.5 -0.2,-0.6 -0.5,-1 4.8,-1.2 9.4,-1.4 13.8,1.2 4.9,2.9 7.4,8.1 9.2,13.2 14.1,-14.4 32.4,-24.7 51.3,-31.5 5.5,-2 11.1,-3.5 16.6,-5.1 -0.9,-1.7 -1.6,-3.6 -2,-5.5 -0.1,-0.3 -0.1,-0.6 -0.2,-1 0,-0.3 -0.1,-0.6 -0.1,-1 0,-0.3 0,-0.6 0,-1 0,-0.3 0,-0.6 0,-1 0,-0.3 0,-0.6 0.1,-1 0,-0.3 0.1,-0.6 0.1,-1 0.1,-0.3 0.1,-0.6 0.2,-1 0.1,-0.3 0.2,-0.6 0.3,-0.9 1.3,-4.1 5.7,-10.9 7.9,-15 2.1,-3.7 3.9,-7.7 6.3,-11.2 2.5,-3.4 6.2,-5.8 10.6,-6.7 z"
   id="path121" />
		<path
   class="st2"
   d="m 431.6,640.2 c 0.3,0 0.7,0.1 1,0.3 1.1,0.6 2.4,2.6 2.7,3.8 0.2,0.7 0.1,0.8 -0.2,1.4 l -0.2,0.1 c -0.8,-0.2 -1.3,-0.6 -1.7,-1.2 -1.1,-1.3 -1.7,-2.8 -1.6,-4.4 z"
   id="path122" />
		<path
   class="st9"
   d="m 300.5,701 c 1.5,0.8 8.7,4.2 9.5,4.9 l -0.4,0.1 c -3.3,-1 -6.8,-1.8 -10,-3.3 z"
   id="path123" />
		<path
   class="st9"
   d="m 343.3,505.8 c 1.3,4.6 3.7,8 7.9,10.5 l -0.4,0.3 c -0.4,-0.6 -1.3,-0.8 -1.9,-1 -3.4,-1.3 -4.8,-3.8 -6.4,-6.9 0.1,-0.9 0.5,-1.9 0.8,-2.9 z"
   id="path124" />
		<path
   class="st2"
   d="m 344.5,584.8 c 1.1,0 2.3,-0.1 3.4,0 0.7,0.1 1.6,0.2 2,0.8 0.3,0.4 0.4,1 0.2,1.5 -0.1,0.5 -0.4,0.8 -0.9,1.1 -1.4,0.1 -4.5,0.5 -5.6,-0.5 -0.3,-0.3 -0.4,-0.6 -0.4,-0.9 0.2,-0.9 0.8,-1.5 1.3,-2 z"
   id="path125" />
		<path
   class="st2"
   d="m 473.9,684.9 0.2,0.2 c 0.1,3.4 -3.6,11.7 -5.3,14.8 -1.9,3.6 -9.6,15.2 -13.2,16.3 l -0.6,-0.4 c 0,-0.1 0,-0.1 0,-0.2 0.1,-0.7 -0.4,-1.5 -0.8,-2 0.1,0 0.2,-0.1 0.3,-0.2 1,-0.7 1.9,-1.8 2.8,-2.7 6,-6.2 11.2,-13.3 14.8,-21.2 0.7,-1.4 1.5,-3.1 1.8,-4.6 z"
   id="path126" />
		<path
   class="st2"
   d="m 216.4,685.6 c 3.7,9.9 9.8,18.4 16.9,26.1 -0.5,0.8 -1.4,2.1 -2.1,2.7 -2.2,-2.2 -4.1,-4.8 -5.9,-7.4 -5.2,-7.3 -7.8,-12.5 -8.9,-21.4 z"
   id="path127" />
		<path
   class="st2"
   d="m 243.9,642.6 c 0.3,0.4 -1.8,16.2 -2,18.3 -1.2,-3 -2.5,-5.4 -5.1,-7.4 -2.5,-1.5 -5,-2.3 -7.9,-3 1.7,-0.8 3.3,-1.8 5,-2.6 3.4,-1.7 6.8,-3.4 10,-5.3 z"
   id="path128" />
		<path
   class="st2"
   d="m 509.3,676.5 0.2,0.2 c 0.1,0.3 0.1,0.5 0.1,0.8 -0.1,3.4 -2.6,6.7 -4.9,8.9 -7.6,7.3 -22.6,9 -32.7,8.8 0,-1.1 0.8,-1.9 0.7,-3 9.4,0.7 19.7,-1.3 27.9,-6 3.5,-2 7.5,-5.6 8.7,-9.7 z"
   id="path129" />
		<path
   class="st9"
   d="m 328.4,713 0.2,0.3 c -0.1,0.2 -0.1,0.3 -0.1,0.4 -0.1,1.4 1.4,0.8 1.9,1.5 -1,3.1 -3.2,6.1 -4.8,9 -5.1,9.5 -11.1,19.3 -15.5,29.1 l -1.7,0.4 c -1.7,-1 -3.5,-1.5 -5.4,-2.1 -0.2,-1.1 -0.5,-2.2 -0.7,-3.3 2,0.5 4,1.4 5.9,2 4.3,-9.2 9.5,-18.2 14.4,-27.1 2,-3.2 3.5,-7.1 5.8,-10.2 z"
   id="path130" />
		<path
   class="st2"
   d="m 180.8,681.7 c 2.4,0.6 4.8,1.1 7.2,0.4 8.7,5.6 18.3,9.4 28.7,9.7 l 0.6,2.1 c -0.1,0 -0.1,0.1 -0.2,0.1 -1,0.4 -3,0.2 -4.1,0.2 -7.6,-0.1 -15.3,-0.8 -22.4,-3.8 -4.1,-1.7 -8.1,-4.4 -9.8,-8.7 z"
   id="path131" />
		<path
   class="st2"
   d="m 509.3,681.5 0.2,0.2 c 0.2,0.6 0.2,1.3 0.1,2 -0.2,3.2 -2.5,6.1 -4.8,8.1 -8.3,7.1 -24.2,8.9 -34.6,8.1 -0.6,-0.9 1,-2.7 1,-3.8 10,0 21.2,-0.8 30,-6 2.8,-1.7 7.3,-5.3 8.1,-8.6 z"
   id="path132" />
		<path
   class="st2"
   d="m 179.3,681.2 c 0.7,0.4 2.8,4.6 4.3,5.9 8.3,7.4 23.4,8.3 33.9,7.7 0.5,1.4 1.1,2.8 1.7,4.1 -3.6,0.1 -7.3,0.3 -10.9,0.2 -8.4,-0.3 -20,-2.3 -26,-8.8 -2.4,-2.7 -3.1,-5.6 -3,-9.1 z"
   id="path133" />
		<path
   class="st2"
   d="m 465.6,651.7 c 1.7,-0.1 4.8,0 6.1,1.3 0.9,0.8 1,2.3 1.1,3.4 0.1,2.7 -0.4,6.2 -2.3,8.3 -0.2,0 -0.3,0.1 -0.5,0.1 -1.8,0.2 -10.3,1.1 -11.4,0.2 1.8,-1 5,-0.5 6.6,-1.6 -1.6,-1.1 -8.1,1.5 -9.4,1 -0.2,-0.5 -0.2,-0.5 0,-1 1.2,-1.3 3.3,-0.8 4.8,-1.7 l 0.1,-0.3 -0.3,-0.3 -1.4,0.2 c -1.1,0.5 -3.6,1.4 -4.8,1.3 -0.4,0 -0.4,-0.2 -0.7,-0.4 l 0.1,-0.4 c 1.8,-1.8 4.1,-1.8 6.2,-2.8 v -0.3 c -1.1,-0.7 -3.3,0.5 -4.5,0.7 -0.7,0.1 -1.5,-0.1 -2.1,-0.5 0.5,-2.3 8.2,-2.8 9,-4.1 -2,-0.7 -5.5,1.3 -7.5,1.8 l -0.4,-0.3 c 0,-0.3 -0.1,-0.3 0.1,-0.6 1.6,-2 8.7,-3.6 11.2,-4 z"
   id="path134" />
		<path
   class="st2"
   d="m 314.5,746.4 c 2.9,1 6.2,1.3 9.2,1.7 14.5,2 29.5,2.2 43.9,-0.8 0,1 0.1,3.4 -0.5,4.1 -0.2,0.2 -0.5,0.2 -0.8,0.2 -18.3,3.1 -35.7,1.9 -53.9,-1.3 0.7,-1.3 1.4,-2.6 2.1,-3.9 z"
   id="path135" />
		<path
   class="st2"
   d="m 415,683.5 h 0.2 c 0.7,0.8 1.7,5.3 2.2,6.6 0.3,0.8 0.8,1.6 1.2,2.4 -1.1,2.7 -2.8,4.7 -5.5,5.9 -3.3,1.6 -7,1.4 -10.4,0.2 l -3.1,-1.8 c 0.4,-3.2 -0.7,-6.6 -1.7,-9.6 5.4,-1.9 11.6,-3.1 17.1,-3.7 z"
   id="path136" />
		<path
   class="st2"
   d="m 227,651.2 c 2.6,0.1 5.3,0.8 7.7,2 3.3,1.7 5.4,4.4 6.5,7.9 0.2,0.7 0.7,2.1 0.3,2.8 -1.5,-3 -3.5,-6.3 -6.5,-7.9 l -0.2,0.1 c 0.8,1.3 2,2.3 3,3.4 1.2,1.4 2,2.9 2.9,4.5 0.6,1.2 1.1,2.4 1.7,3.6 -0.3,1.3 -0.5,2.6 -0.7,3.9 -2.6,-1.3 -11.5,-6.3 -13.7,-6.6 -1.1,-0.2 -3.5,0.5 -4.2,0 -1.2,-0.9 -1.7,-2.5 -1.9,-3.9 -0.4,-2.6 0.1,-5.8 1.7,-7.9 0.8,-1.2 1.8,-1.7 3.4,-1.9 z"
   id="path137" />
		<path
   class="st21"
   d="m 232.9,659 c 0.3,0 0.5,0 0.8,0 1.4,0.3 5.7,5 6.5,6.6 0.2,0.5 0.3,0.7 0.1,1.2 -0.1,0 -0.1,0.1 -0.2,0.1 -1.4,0.5 -6,-2.7 -7.4,-3.5 -0.4,-0.2 -0.7,-0.4 -1,-0.7 l 0.1,-0.2 c 1.3,-0.2 6.4,3.2 8,4 -1.2,-2 -2.8,-3.6 -4.5,-5.2 -0.8,-0.8 -2,-1.3 -2.4,-2.3 z"
   id="path138" />
		<path
   class="st2"
   d="m 374.5,659.8 c 1.7,0.5 3.3,1 5.1,0.9 2.1,3.6 4.3,6.3 8.3,7.8 0,-0.4 0,-0.9 0.1,-1.3 0.1,-0.9 0.4,-1.6 1.1,-2.2 0.7,-0.5 1.5,-0.7 2.3,-0.6 1.4,0.2 2.6,1.2 3.3,2.3 0.9,1.3 1.3,3.1 0.9,4.6 -0.5,2 -2.8,2 -4.3,2.9 1,0.3 1.9,0.3 3,0.1 0.7,3.4 1.5,6.9 2.4,10.3 l 0.5,1.9 c -3.6,0 -6.6,-0.4 -9.9,-1.8 0.1,-0.8 0.2,-2.5 -0.1,-3.3 h -0.3 c -0.4,0.7 -0.4,2.2 -0.4,3 -1.8,-1.1 -3.3,-2.2 -4.7,-3.7 0,0 -0.2,-0.7 -0.6,-0.7 -4.8,-5.5 -6,-13.1 -6.7,-20.2 z"
   id="path139" />
		<path
   class="st21"
   d="m 379.3,670 c 0.4,0.2 0.6,0.3 0.9,0.6 0.2,0.6 0.1,1 0,1.6 -0.4,-0.1 -0.6,-0.2 -0.9,-0.5 -0.3,-0.5 -0.1,-1 0,-1.7 z"
   id="path140" />
		<path
   class="st2"
   d="m 284.6,675.6 c 0.2,0.1 0.3,0.3 0.3,0.5 0.3,0.9 0.2,2.2 0.2,3.1 0.2,4.6 0,9.5 -2.5,13.5 -1.9,3 -5.1,5 -8.5,5.7 -0.7,0.2 -1.4,0.3 -2.1,-0.1 V 698 c 0,-0.5 0.1,-1.3 -0.3,-1.7 l -0.2,0.1 c -0.8,1.3 -0.3,9.4 -0.3,11.4 -0.3,0.2 -0.6,0.3 -0.9,0.4 -5.6,2.3 -11.3,2 -16.8,-0.3 -0.6,-2 -0.1,-8.2 -0.1,-10.6 1.8,0.1 3.7,0.1 5.5,-0.1 7.3,-0.8 12.6,-4.6 17.1,-10.1 1.1,0.2 1.7,0.4 2.7,-0.3 v -0.3 c -1.1,-0.5 -2.6,0 -3.4,-1 -0.7,-0.8 -1,-2.8 -0.9,-3.9 0.5,-3.3 4.6,-3.4 7.1,-4.4 1.2,-0.3 2.1,-0.9 3.1,-1.6 z"
   id="path141" />
		<path
   class="st2"
   d="m 292.6,715 0.2,-0.2 c 2.2,-3.3 4.8,-7.9 5.5,-11.7 9.8,3.4 19.9,5.7 29.6,9 -4.3,7.7 -8.5,15.6 -12.6,23.4 -2.4,4.5 -4.6,9.5 -7.4,13.8 -1.9,-0.7 -3.8,-1.3 -5.6,-2 -0.6,-3.7 -1.4,-7.4 -2.1,-11.1 2.7,1 5.4,1.8 8.1,2.8 0.8,-1.5 1.6,-3.1 2.3,-4.6 -3.8,-1.4 -7.8,-2.5 -11.7,-3.7 -1.6,-4.1 -3.4,-12.6 -6.3,-15.7 z"
   id="path142" />
		<path
   class="st9"
   d="m 330.8,538.8 c -4.4,-4.7 -7.3,-10.7 -7,-17.2 0,-0.5 0.1,-1 0.1,-1.4 0.1,-0.5 0.1,-0.9 0.2,-1.4 0.1,-0.5 0.2,-0.9 0.3,-1.4 0.1,-0.5 0.3,-0.9 0.4,-1.4 1.5,-4 5.3,-9.9 8.5,-12.8 3.4,-3.1 8.6,-4.1 13.1,-3.8 8.8,0.6 16.6,7 22.2,13.4 4.8,5.5 2,7.9 4.3,13.3 3.1,7.2 12.4,9.3 11.6,19.7 -0.3,3.5 -1.5,8 -4.3,10.3 -0.3,0.3 -0.7,0.5 -1,0.7 -1.2,-1.9 -2.4,-3.8 -3.5,-5.8 1.1,-4.7 0.2,-10 -2.4,-14.1 -1.4,-2.2 -3,-4.4 -4,-6.8 -0.8,-2 -0.9,-4.3 -1.2,-6.4 -0.3,-2.2 -0.7,-4.6 -2.7,-6 -1.1,-0.8 -2.2,-0.9 -3.5,-0.6 h -0.2 c -0.6,-0.5 -0.2,-2.4 -0.5,-3.2 -0.7,-1.8 -2.5,-3.6 -3.9,-4.9 -0.8,-0.7 -1.8,-1.9 -3,-1.9 -0.1,0.4 0.3,0.7 0.6,0.9 2.3,1.7 4.2,3.5 5.5,6.1 0.4,0.8 0.8,1.5 0.5,2.5 -0.6,0.6 -1.9,0.7 -2.7,0.9 -0.5,0.1 -1.1,0 -1.6,0 -1.3,-0.6 -2.8,-0.6 -4.1,-1.1 -3.7,-1.3 -6.8,-5.3 -8.2,-8.8 -0.5,-1.3 -0.7,-4.2 -1.1,-4.8 H 343 c -0.4,1.4 -0.3,2.9 -0.7,4.2 -0.9,3.5 -4.7,7.1 -7.7,8.8 -1.2,0.7 -2.5,1.2 -3.9,1.2 -0.5,0 -1,-0.1 -1.5,0 -1.3,0.3 -2.5,2 -2.9,3.2 -0.4,1.5 -0.2,3.1 0.6,4.4 1,1.7 2.2,2.4 4.1,2.9 0.1,2.6 0.6,8.8 0.1,11.1 z"
   id="path143" />
		<path
   class="st2"
   d="m 342,509.4 c 1,2.1 2.1,3.9 3.8,5.4 1.3,1.1 3.1,2.1 4.9,1.9 l 0.4,-0.3 c 1.8,0.7 3.6,1.5 5.5,0.9 0.5,0 1.1,0.1 1.6,0 0.6,0 1.3,0 1.9,0.1 0.6,0.1 0.8,0.5 1.1,1 0.9,0 1.4,-0.7 2.2,-0.9 0.5,-0.1 1.1,0.1 1.5,0.4 1.2,0.8 1.8,2.1 2.1,3.5 0.2,1 0.1,2.1 -0.6,3 -1.2,1.6 -3.2,1.8 -5.1,2 -1.7,2 -2.1,4.9 -4.3,7.1 -0.9,0.9 -4.7,3.1 -5,3.9 0,1.9 1.4,1.9 2.3,3.3 0.9,1.3 1.3,3.2 0.9,4.8 -0.4,1.8 -1.6,3.3 -3.1,4.3 -2.2,1.5 -5.1,1.8 -7.7,1.3 -2.3,-0.5 -4.6,-1.9 -5.8,-3.9 -2.9,-4.6 2.1,-6.9 2.5,-9 0.1,-0.6 -0.3,-1.1 -0.8,-1.4 -0.9,-0.6 -1.8,-0.9 -2.6,-1.5 -2.9,-2.1 -4,-5.2 -5.8,-8 -0.6,-1 -2.5,-1.2 -3.5,-2 -0.9,-0.8 -1.3,-1.9 -1.4,-3 -0.1,-1.3 0.3,-2.6 1.2,-3.5 0.6,-0.6 1.4,-1.2 2.3,-1.2 1,0 1.2,0.7 1.9,1.3 0.4,0.3 0.5,0.4 1,0.4 l 0.1,-0.2 c -0.1,-0.6 -0.4,-0.8 -0.9,-1.2 l -0.2,-0.1 c 4.1,-1.9 7.2,-4.8 9.6,-8.4 z"
   id="path144" />
		<path
   class="st21"
   d="m 351.3,519.9 c 0.2,0 0.4,0 0.5,0.1 0.4,0.1 0.8,0.4 1,0.7 0.4,0.8 0.1,1.7 -0.1,2.4 -0.7,0 -1,-0.1 -1.5,-0.5 -0.5,-0.9 -0.2,-1.7 0.1,-2.7 z"
   id="path145" />
		<path
   class="st21"
   d="m 339.5,520.3 c 0.3,0.1 0.6,0.2 0.8,0.4 0.3,0.3 0.5,0.8 0.5,1.2 0,0.9 -0.3,1.4 -0.9,2 -0.3,-0.2 -0.6,-0.3 -0.9,-0.6 -0.3,-0.3 -0.5,-0.7 -0.5,-1.2 0,-0.7 0.5,-1.3 1,-1.8 z"
   id="path146" />
		<path
   class="st21"
   d="m 342.3,529.6 c 1.9,0 3.9,-0.2 5.8,-0.1 0.6,0 1.1,0.1 1.5,0.6 0.1,1.1 -0.5,1.7 -1.2,2.5 -0.3,0.2 -0.5,0.4 -0.8,0.6 -0.8,0.5 -1.8,0.4 -2.7,0.2 -1,-0.3 -2.2,-0.9 -2.6,-1.9 -0.1,-0.7 -0.2,-1.3 0,-1.9 z"
   id="path147" />
		<path
   class="st2"
   d="m 342.9,530.3 c 1.6,0 4.5,-0.6 5.8,0.2 0.1,0.6 -0.3,0.9 -0.6,1.4 -0.3,0.2 -0.5,0.3 -0.9,0.5 -0.1,0 -0.2,0.1 -0.3,0.1 -0.1,0 -0.2,0.1 -0.3,0.1 -0.1,0 -0.2,0 -0.4,0 -0.1,0 -0.2,0 -0.4,0 -0.2,0 -0.2,0 -0.4,0 -0.1,0 -0.2,0 -0.3,-0.1 -0.1,-0.1 -0.2,-0.1 -0.3,-0.1 -0.1,0 -0.2,-0.1 -0.3,-0.1 -0.9,-0.4 -1.3,-1.1 -1.6,-2 z"
   id="path148" />
		<path
   class="st2"
   d="m 278.8,611.1 c 0.1,0 0.1,0.1 0,0 0,0 0.2,0.4 0.2,0.4 0.2,1 -4.3,28.5 -4.8,31.5 -1.1,1.1 -2.5,2.1 -3.8,3 l -6.6,5.3 c -2.9,0.3 -5.7,0.6 -8.5,1.7 -6.6,2.6 -10.1,6.7 -12.8,13.1 l -0.2,-0.1 c -0.5,-2.9 2.2,-23.8 3,-28.3 1.4,-1.3 3.1,-2.5 4.6,-3.8 3.1,-2.6 6.2,-5.1 9.4,-7.6 6.7,-5 13,-10.1 19.5,-15.2 z"
   id="path149" />
		<path
   class="st21"
   d="m 256.8,644.8 c 0.5,0.3 1,0.7 1.3,1.2 0.2,0.7 0,0.7 -0.3,1.3 -0.2,0 -0.3,0 -0.5,0 -0.5,0 -0.6,-0.3 -0.9,-0.6 0,-0.7 0.2,-1.2 0.4,-1.9 z"
   id="path150" />
		<path
   class="st21"
   d="m 259.8,640.7 c 0.3,0 0.6,0.1 1,0.2 0.2,0.2 0.4,0.4 0.5,0.7 0.2,0.8 0,1.6 -0.4,2.2 -0.3,0.5 -0.7,0.7 -1.3,0.8 l -0.5,-0.4 c 0.3,-0.5 0.6,-1 0.8,-1.5 -0.5,-0.3 -1.2,0.5 -1.8,0.4 0,0 0,-0.1 0,-0.1 0.1,-1 1,-1.7 1.7,-2.3 z"
   id="path151" />
		<path
   class="st2"
   d="m 226.9,665.6 c 2.8,0.6 11.4,5.3 14.7,6.9 v 0.3 c 0.4,7.9 5.3,19.5 11.1,24.8 0.1,3.3 0,6.5 0,9.8 -2.3,-0.6 -4.6,-0.9 -7,-0.8 -1.1,0 -3.3,0 -4,0.8 -3,1.6 -4.7,1.4 -7.6,3.9 -3.2,-2.8 -5.8,-6.3 -8.2,-9.8 -7.4,-10.7 -10.7,-19.9 -11.9,-32.9 4.3,-0.9 8.5,-2 12.9,-3 z"
   id="path152" />
		<path
   class="st2"
   d="m 420.6,651.1 c 1.6,0.6 3.4,2.2 4.7,3.2 3.2,2.3 19,14.6 21.3,15.2 1.4,0.4 8.2,-3.4 9.9,-4.3 5.7,1.5 7.7,0 12.5,0.6 1.2,0.2 2.5,0.9 3.7,1.2 1,0.3 2.1,0.3 3,0.6 0.2,0.1 0.6,0.2 0.7,0.4 0.4,0.6 0.3,1.9 0.2,2.6 -1,9.7 -4.9,19.3 -10.1,27.5 -0.9,1.4 -1.9,3.2 -3.1,4.2 0,0 0,0.1 0,0.1 -0.3,1.4 -8.1,9.5 -9.4,10.3 0,-0.1 0,-0.3 0,-0.5 -0.2,-1.1 -0.8,-2.4 -1.3,-3.5 -2.3,-5.2 -5.4,-9.5 -10.1,-12.8 -7.2,-5 -15,-6 -23.5,-4.5 -1.5,-2.4 -2.1,-5.4 -2.9,-8.1 1.8,-0.4 6.3,-6.5 6.5,-9.3 0.5,-7.6 0.5,-15.5 -2.1,-22.9 z"
   id="path153" />
		<path
   class="st2"
   d="m 353.1,538.1 c 5,0.1 9.6,0.6 13.9,3.3 1.6,1 2.9,2.3 4.1,3.8 3.1,3.9 5.6,8.5 8.1,12.8 2.1,3.5 4.4,6.9 6.2,10.5 0.7,1.4 1.3,2.9 1.6,4.5 0.1,0.3 0.1,0.5 0.1,0.8 0,0.3 0.1,0.5 0.1,0.8 0,0.3 0.1,0.5 0.1,0.8 0,0.3 0,0.5 0,0.8 0,0.3 0,0.5 0,0.8 0,0.3 0,0.5 0,0.8 0,0.3 -0.1,0.5 -0.1,0.8 0,0.3 -0.1,0.5 -0.1,0.8 0,0.3 -0.1,0.5 -0.2,0.8 -0.1,0.3 -0.1,0.5 -0.2,0.8 -0.1,0.2 -0.2,0.5 -0.2,0.7 -0.1,0.2 -0.2,0.5 -0.3,0.7 -0.1,0.2 -0.2,0.5 -0.3,0.7 -0.1,0.2 -0.2,0.5 -0.4,0.7 -0.1,0.2 -0.3,0.5 -0.4,0.7 -0.1,0.2 -0.3,0.4 -0.4,0.7 -2.6,3.9 -6.3,6 -10.8,6.9 -0.2,-7 -0.3,-14.3 0,-21.3 0.2,-0.2 0.4,-0.5 0.6,-0.7 0.3,-0.4 0.3,-0.6 0.1,-1.1 -1.2,-1 -3.9,-0.5 -5.4,-0.5 -0.4,-1.8 -1.3,-5.8 -2.7,-7 l -0.2,0.1 c -0.3,1 0.8,3 1.2,4 0.3,0.9 0.6,1.9 0.9,2.8 l -43,0.1 c 0.8,-1.4 3.7,-5.5 3.6,-6.9 l -0.4,-0.1 c -0.8,0.4 -3.5,5.9 -4,6.9 -1.3,0 -2.9,-0.3 -4.2,-0.1 -0.5,0.1 -0.6,0.3 -0.9,0.7 0,0.8 0.6,1.4 1,2 0.6,6.9 0.2,14.2 0.2,21.1 -3.4,-0.3 -6.5,-1.3 -9.2,-3.6 -3.2,-2.7 -5,-6.4 -5.3,-10.5 0,-0.6 0,-1.1 0,-1.7 0,-0.6 0.1,-1.1 0.2,-1.7 0.1,-0.6 0.2,-1.1 0.3,-1.6 0.1,-0.5 0.3,-1.1 0.5,-1.6 1.5,-4 4.5,-8.4 6.6,-12.2 2.3,-4.2 5.6,-11.3 8.6,-14.8 4.1,-4.7 10.7,-5.7 16.6,-6.1 0.4,-0.1 0.6,-0.1 1.1,0 -0.3,1.5 -2.6,2.4 -2.8,5.5 -0.1,1.9 0.8,3.9 2.1,5.3 1.8,1.9 4.4,2.8 7,2.9 2.7,0.1 5.5,-0.8 7.5,-2.7 1.4,-1.3 2.3,-3.2 2.4,-5.2 0,-2.6 -1.4,-4.3 -3.2,-6 z"
   id="path154" />
		<path
   class="st22"
   d="m 241.6,707.3 c 3.1,6.3 6.9,12 13.8,14.4 5.4,1.8 10.9,1.2 15.9,-1.3 6.2,-3.1 12.3,-9 19.9,-6.5 0.6,0.2 1,0.6 1.4,1.1 2.5,2.7 4.2,9.5 5.6,13.9 0.2,0.6 3.4,14.7 4,18.4 0,1.8 0.5,3.6 0.6,5.5 1.5,0.3 3,0.7 4.5,1.2 -1.4,0.4 -2.7,0.8 -4.1,1.2 0.3,2.5 0.7,5 0.8,7.5 -7,-1.1 -13.9,-2.3 -20.9,-3.7 l -0.7,-0.2 c -3.2,-0.5 -6.5,-1.4 -9.7,-2.2 -2.1,-0.5 -4.2,-1.1 -6.3,-1.7 -2.1,-0.6 -4.2,-1.2 -6.3,-1.9 -2.1,-0.7 -4.2,-1.3 -6.2,-2 -2.1,-0.7 -4.1,-1.4 -6.2,-2.2 -2,-0.8 -4.1,-1.6 -6.1,-2.4 -2,-0.8 -4,-1.7 -6,-2.6 -2,-0.9 -4,-1.8 -6,-2.7 -2,-0.9 -3.9,-1.9 -5.9,-2.9 0.7,-2.9 1.6,-5.7 2.4,-8.5 1.4,-4.9 2.5,-9.9 4.8,-14.5 0.2,-0.3 0.2,-0.5 0.2,-0.9 0.8,-0.6 1.7,-1.9 2.1,-2.7 0.4,-0.1 0.5,-0.3 0.7,-0.6 3,-2.3 4.7,-2.1 7.7,-3.7 z"
   id="path155" />
		<path
   class="st21"
   d="m 282.4,758.8 c 0.5,-7.7 0.3,-15.4 0.8,-23 l -0.3,0.1 0.4,-0.5 c 0.3,0.7 0.4,1.6 0.4,2.4 0.1,2.2 -0.3,20.4 -0.6,21.1 0,0 0,0.1 -0.1,0.1 z"
   id="path156" />
		<path
   class="st2"
   d="m 299,731.8 c 3.5,0.5 7,2.1 10.5,2.9 l -1.1,2.2 c -0.1,0.3 -0.3,0.5 -0.5,0.7 -2.2,0.3 -5.8,-1.5 -7.9,-2.2 -0.5,-1.2 -0.8,-2.4 -1,-3.6 z"
   id="path157" />
		<path
   class="st9"
   d="m 216.8,607.4 c 4.8,-1.2 9.4,-1.4 13.8,1.2 4.9,2.9 7.4,8.1 9.2,13.2 -3.2,3.5 -6.1,7.1 -8.9,10.8 -0.4,-1.6 -1.9,-9 -2.9,-9.6 -0.3,2.1 1.6,8.3 2.2,10.6 -3.2,5.1 -6.4,10.5 -8.1,16.3 -1.2,0 -2.6,-0.2 -3.8,-0.1 h -0.2 c -6.1,-0.6 -12.9,0.6 -18.3,-3 -0.9,-2.9 -1.7,-5.8 -2.2,-8.9 -0.3,-1.7 -1.1,-12 -1.5,-12.6 l -0.3,0.1 c -0.2,1.4 0,2.9 0.1,4.2 0.2,3.8 0.7,7.8 1.6,11.6 0.4,2 1.1,3.9 1.5,5.9 4.4,3 10.6,3.4 15.8,3.2 3.1,0.1 6.5,0 9.6,0.6 -2.4,2.2 -3.6,4.6 -3.7,8 -0.1,2.3 0.4,4.6 2.1,6.4 0.1,0.1 0.3,0.3 0.4,0.4 -10.1,2.1 -27.7,7.1 -36.9,0.9 -3.3,-2.2 -5.2,-5.4 -6.3,-9.1 -2.2,-7.5 -2.5,-27.3 -0.5,-35 1,-3.7 3,-8.3 6.4,-10.3 1,-0.3 2,-1 3,-1.4 2.6,-1.4 6.1,-3.2 9.1,-3.5 -0.1,0.4 -0.3,0.9 -0.1,1.3 0.6,1.6 3.5,3.1 5,3.7 3.1,1.2 6.8,1.1 9.9,-0.2 1.6,-0.7 3.9,-2.1 4.5,-3.8 -0.1,-0.4 -0.2,-0.4 -0.5,-0.9 z"
   id="path158" />
		<path
   class="st22"
   d="m 474.5,602 c 1.1,1.6 -0.4,5.3 0.8,6.4 0.6,0.8 1.1,1.7 1.9,2.3 0.1,0.1 0.2,0.2 0.4,0.3 0.1,0.1 0.2,0.2 0.4,0.3 0.1,0.1 0.3,0.2 0.4,0.3 0.1,0.1 0.3,0.2 0.4,0.2 0.1,0.1 0.3,0.1 0.4,0.2 0.1,0.1 0.3,0.1 0.4,0.2 0.1,0.1 0.3,0.1 0.4,0.2 0.1,0.1 0.3,0.1 0.4,0.2 0.1,0 0.3,0.1 0.4,0.1 0.2,0 0.3,0.1 0.5,0.1 0.2,0 0.3,0.1 0.5,0.1 0.2,0 0.3,0 0.5,0.1 0.2,0 0.3,0 0.5,0 0.2,0 0.3,0 0.5,0 0.2,0 0.3,0 0.5,0 0.2,0 0.3,0 0.5,0 2.2,-0.2 4.4,-1.1 5.8,-2.9 0.5,-0.6 0.9,-1.2 0.8,-2 0.3,-0.1 0.6,-0.3 0.9,-0.5 0.2,-0.6 0.1,-0.8 -0.1,-1.3 4.7,0.3 11.9,4.1 15,7.5 1.5,1.6 2.8,3.6 3.6,5.6 3.4,8.1 4.2,23.9 3.7,32.8 -0.2,3.6 -1.2,9.7 -3.9,12.3 -0.1,0.1 -0.3,0.2 -0.4,0.3 -1.1,1.3 -2.3,2.4 -3.7,3.3 -2.3,1.4 -5.1,2.1 -7.8,2.2 -6.9,0.4 -20.6,-2.6 -27.5,-4.4 0.8,-0.6 1.4,-1.3 1.8,-2.1 1.3,-2.6 1.8,-6.8 0.8,-9.6 -0.6,-1.8 -1.6,-3 -3.2,-3.8 5.7,0 16.1,2.1 20.9,-0.2 1.8,-0.9 3.3,-2.3 4,-4.3 0.3,-0.9 0.4,-1.8 0.5,-2.8 0.1,-2.2 0.2,-15.3 -0.6,-16.9 -0.9,3.7 0,12.1 -0.2,16.3 -0.1,2.1 -0.6,4.2 -2.2,5.7 -1.2,1.1 -2.7,1.7 -4.3,2 -4.6,0.8 -13.4,-0.6 -18.6,-0.7 0.1,-0.4 0.1,-0.7 0.1,-1.1 -0.1,-1.2 -0.4,-2.7 -1,-3.8 -0.7,-1.3 -2.3,-1.9 -3.1,-3.1 -1.2,-1.7 -2.1,-3.8 -3.1,-5.6 -2.7,-4.7 -6.2,-10.3 -10.3,-13.9 1.1,-0.9 2.2,-4.9 3,-6.4 0.4,-0.8 0.9,-1.6 1.4,-2.4 0.5,-0.8 1.1,-1.5 1.6,-2.2 4.6,-5.5 9.9,-4.9 16.4,-5.6 0.1,-0.1 0.1,-0.2 0.2,-0.3 0.2,-1 0,-2.3 -0.3,-3.1 z"
   id="path159" />
	</g>
	<path
   class="st2"
   d="m 394.2,676.2 c 0,0 0.3,-0.3 0.8,2 0.5,2.3 3.9,5.9 6.7,6.2 2.8,0.3 3.7,0.3 5.4,0.3 1.8,0 -6.1,3.6 -6.1,3.6 0,0 -1.9,-0.7 -3.1,-1.2 -1.2,-0.5 -1.9,-1.2 -1.9,-1.2 z"
   id="path160" />
</g></g>











































































</svg>
