<?xml version="1.0" encoding="UTF-8" standalone="no"?>
<!-- Generator: Adobe Illustrator 22.0.1, SVG Export Plug-In . SVG Version: 6.00 Build 0)  -->

<svg
   version="1.1"
   id="Layer_1"
   x="0px"
   y="0px"
   viewBox="0 0 282.2114 362.09995"
   xml:space="preserve"
   width="282.2114"
   height="362.09995"
   xmlns="http://www.w3.org/2000/svg"
   xmlns:svg="http://www.w3.org/2000/svg"><defs
   id="defs746" />
<style
   type="text/css"
   id="style1">
	.st0{fill:#EAE2F0;}
	.st1{fill:#E1F4FD;}
	.st2{fill:#FFFFFF;}
	.st3{font-family:'Gantari-Bold';}
	.st4{font-size:30px;}
	.st5{fill:none;}
	.st6{font-family:'Gantari-Regular';}
	.st7{font-size:14px;}
	.st8{font-family:'Gantari-SemiBold';}
	.st9{fill:#782B90;}
	.st10{font-size:24px;}
	.st11{font-size:16px;}
	.st12{font-family:'Gantari-Medium';}
	.st13{font-family:'AlbertSans-MediumItalic';}
	.st14{font-size:16.8941px;}
	.st15{fill:url(#SVGID_1_);}
	.st16{fill:url(#SVGID_2_);}
	.st17{fill:url(#SVGID_3_);}
	.st18{fill:url(#SVGID_4_);}
	.st19{fill:#231F20;}
	.st20{font-family:'Gantari-BoldItalic';}
	.st21{fill:#10101A;}
	.st22{fill:#00AEEF;}
	.st23{font-size:11.4192px;}
	.st24{clip-path:url(#SVGID_6_);fill:#FFFFFF;}
	.st25{clip-path:url(#SVGID_6_);}
	.st26{fill:#020202;}
	.st27{fill:#EAEBF6;}
	.st28{clip-path:url(#SVGID_8_);}
	.st29{fill:#23A9E1;}
	.st30{font-size:18px;}
	.st31{fill:#BCBEC0;}
	.st32{font-size:12px;}
	.st33{font-size:13px;}
	.st34{fill:#FFFFFF;stroke:#000000;stroke-width:0.7148;stroke-miterlimit:10;}
	.st35{fill:#FFFFFF;stroke:#000000;stroke-width:0.6955;stroke-miterlimit:10;}
	.st36{fill:#010101;}
	.st37{fill:#FFFFFF;stroke:#000000;stroke-width:0.9307;stroke-miterlimit:10;}
	.st38{fill-rule:evenodd;clip-rule:evenodd;fill:#FFFFFF;stroke:#000000;stroke-miterlimit:10;}
	.st39{fill-rule:evenodd;clip-rule:evenodd;fill:#782B90;}
	.st40{fill:#FFFFFF;stroke:#000000;stroke-width:0.71;stroke-miterlimit:10;}
	.st41{fill:#FFFFFF;stroke:#000000;stroke-miterlimit:10;}
	.st42{fill:#FFFFFF;stroke:#000000;stroke-width:0.6956;stroke-miterlimit:10;}
	.st43{fill:none;stroke:#000000;stroke-miterlimit:10;}
	.st44{fill:#FFFFFF;stroke:#000000;stroke-width:1.2628;stroke-miterlimit:10;}
	.st45{fill:#FFFFFF;stroke:#000000;stroke-linecap:round;stroke-linejoin:round;stroke-miterlimit:10;}
	.st46{fill:none;stroke:#782B90;stroke-width:2;stroke-miterlimit:10;}
	.st47{fill:#FFFFFF;stroke:#000000;stroke-linejoin:round;stroke-miterlimit:10;}
	.st48{fill:#F7F6FB;}
	.st49{fill:#FFFFFF;stroke:#000000;stroke-width:0.2236;stroke-miterlimit:10;}
	.st50{fill:#FFFFFF;stroke:#000000;stroke-width:0.4473;stroke-miterlimit:10;}
</style>





















































<g
   id="g452"
   transform="translate(-175.48123,-1081.7)">
	<circle
   class="st1"
   cx="318.89999"
   cy="1227.6"
   r="115.4"
   id="circle378" />
	<g
   id="g401">
		<g
   id="g394">
			<polygon
   class="st34"
   points="198.4,1201.9 190.9,1156.3 230.5,1155 240.2,1199 "
   id="polygon378" />
			<path
   class="st35"
   d="m 222.5,1161.5 c 4.5,-0.4 4.3,-0.3 8.9,-0.6 0.1,-0.1 0.2,-0.2 0.3,-0.2 0.1,0 0.3,0.1 0.4,0.1 0.4,0.1 0.8,0 1.1,-0.1 2.1,-0.1 4.1,-0.2 6.2,-0.3 0.8,-0.1 1.7,-0.1 2.5,-0.1 l 10,27 2.3,6.1 c 0.6,1.6 1.2,3.3 1.9,4.9 0.3,0.7 0.5,1.4 0.7,2 0.6,1.5 1.1,3 1.7,4.4 -7.6,0.4 -15.2,0.9 -22.8,1.4 l -21.5,1.3 c -0.2,-1.2 -0.5,-2.4 -0.7,-3.6"
   id="path378" />
			<path
   class="st36"
   d="m 221.6,1180.4 c 3.6,-0.4 7.2,-0.5 10.8,-0.8 l 5.7,-0.4 c 1,-0.1 1.9,-0.2 2.9,-0.2 0.2,0 0.4,0 0.6,0.1 v 0.2 c -0.3,0.2 -17.9,1.3 -19.9,1.4 z"
   id="path379" />
			<path
   class="st36"
   d="m 222.5,1184.4 c 5.7,-0.3 11.4,-0.8 17,-1.2 0.6,0 2.7,-0.3 3.1,-0.2 0.1,0 0.1,0.1 0.1,0.1 v 0.1 c -0.2,0.1 -0.5,0.2 -0.7,0.2 -1.5,0.2 -3,0.2 -4.4,0.3 l -10.8,0.8 c -1.2,0.1 -3.1,0.1 -4.2,0.4 z"
   id="path380" />
			<path
   class="st36"
   d="m 222.1,1182.5 c 0.2,-0.2 0.3,-0.1 0.5,-0.2 4.6,-0.5 9.2,-0.7 13.8,-1 l 4.1,-0.3 c 0.4,0 0.9,-0.1 1.4,-0.1 0.1,0 0.2,0 0.2,0.1 v 0.2 c -0.2,0.1 -0.5,0.1 -0.8,0.2 -1.2,0.1 -2.4,0.1 -3.5,0.2 l -5.5,0.4 c -3.4,0.2 -6.8,0.6 -10.2,0.7 z"
   id="path381" />
			<path
   class="st36"
   d="m 226.7,1166.5 c 2.3,-0.1 4.7,-0.3 7,-0.4 1.2,-0.1 2.5,-0.2 3.7,-0.2 1.3,3.8 2.4,7.7 3.7,11.5 l -13.6,0.9 c -2,0.1 -4.2,0.4 -6.2,0.4 v -0.2 c 0,-0.1 0.1,-0.1 0.1,-0.2 0.8,-0.1 1.6,-0.1 2.3,-0.2 l 4.3,-0.3 12.6,-0.9 c -0.5,-1.8 -1.1,-3.5 -1.7,-5.3 -0.6,-1.8 -1,-3.7 -1.8,-5.5 -1.2,0.1 -2.5,0.1 -3.7,0.2 -2.1,0.1 -4.1,0.2 -6.2,0.3 0.8,3.1 1.8,6.1 2.5,9.2 -3,0.2 -6,0.3 -8.9,0.6 l -0.1,-0.4 c 2.8,-0.2 5.7,-0.5 8.5,-0.5 -0.5,-1.9 -1.1,-3.9 -1.6,-5.8 -0.2,-0.8 -0.5,-2 -0.9,-3.2 z"
   id="path382" />
			<path
   class="st9"
   d="m 227.3,1166.9 c 2.1,-0.1 4.1,-0.2 6.2,-0.3 1.2,-0.1 2.5,-0.1 3.7,-0.2 0.7,1.7 1.2,3.6 1.8,5.5 0.6,1.8 1.2,3.5 1.7,5.3 0,0 -7.5,0.3 -10.7,0.7 -0.8,-3.1 -1.9,-7.9 -2.7,-11 z"
   id="path383" />
			<path
   class="st2"
   d="m 236.6,1167.1 c 0.1,0 0.2,0 0.3,0.1 v 0.1 c -0.3,0.7 -2.3,3.3 -2.9,4 0.9,0.6 4.7,3.2 5.1,3.8 v 0.1 c 0,0 -0.1,0 -0.1,0 -0.1,0 -0.3,0 -0.4,-0.1 -0.5,-0.3 -0.9,-0.7 -1.4,-1.1 l -3.3,-2.4 c -1,1.3 -1.9,2.8 -2.8,4.2 -0.1,-0.1 -0.2,-0.1 -0.2,-0.3 0.6,-1.3 1.9,-2.9 2.7,-4.1 -1.2,-0.9 -2.5,-1.8 -3.7,-2.6 -0.4,-0.3 -1,-0.6 -1.4,-1 -0.1,-0.1 -0.1,-0.1 -0.1,-0.2 l 0.1,-0.1 c 0.9,0.3 4.4,2.9 5.3,3.6 0.9,-1.3 1.8,-2.7 2.8,-4 z"
   id="path384" />
			<polyline
   class="st34"
   points="179.7,1182.7 175.9,1159.6 215.6,1158.3 225.3,1202.4 183.4,1205.2 182.5,1199.4    "
   id="polyline384" />
			<path
   class="st36"
   d="m 184,1165.6 c 0.1,0 0.3,0 0.4,0 0.1,0 0.1,0.1 0.2,0.2 -0.3,0.3 -1.5,0.3 -2,0.3 -0.2,0 -0.4,0 -0.6,0 l -0.1,-0.1 v -0.2 c 0.7,-0.2 1.5,-0.2 2.1,-0.2 z"
   id="path385" />
			<path
   class="st36"
   d="m 209.2,1164.5 c 0.6,0 1.2,-0.1 1.8,0 l 0.1,0.1 c -0.2,0.1 -0.5,0.2 -0.7,0.2 -1.6,0.2 -3.3,0.1 -4.9,0.2 l -13.3,0.6 c -0.6,0 -1.4,0.2 -1.9,0 v -0.1 c 0.2,-0.1 0.4,-0.1 0.6,-0.2 0.6,-0.1 1.2,0 1.7,-0.1 1.9,-0.1 3.8,-0.2 5.7,-0.3 z"
   id="path386" />
			<path
   class="st36"
   d="m 210.6,1172.2 c 0.5,0 1.3,-0.2 1.7,0 v 0.2 c 0,0 -0.1,0.1 -0.1,0.1 -0.2,0.1 -3.9,0.2 -4.4,0.2 l -15.1,0.8 c -2.6,0.1 -5.2,0.2 -7.8,0.4 -0.5,0 -1,0.1 -1.5,0.1 l -0.1,-0.1 v -0.1 c 0.2,-0.1 0.4,-0.2 0.6,-0.2 0.9,-0.1 1.8,-0.1 2.7,-0.1 l 7.2,-0.4 c 5.6,-0.3 11.2,-0.7 16.8,-0.9 z"
   id="path387" />
			<path
   class="st36"
   d="m 209.5,1167.1 c 0.6,0 1.4,-0.1 2,0 0,0 0,0 0,0 -0.2,0.2 -0.6,0.2 -0.9,0.3 -0.8,0.1 -1.6,0.1 -2.4,0.1 l -5.9,0.3 -18.2,0.9 c -0.5,0 -1,0 -1.5,0.1 -0.1,-0.1 -0.1,-0.1 -0.2,-0.2 v -0.1 c 0.2,-0.1 0.4,-0.1 0.6,-0.1 3.2,-0.3 6.5,-0.3 9.8,-0.5 5.5,-0.3 11.1,-0.5 16.7,-0.8 z"
   id="path388" />
			<path
   class="st36"
   d="m 210.3,1169.7 c 0.5,0 1.1,-0.1 1.6,0 0.1,0.1 0,0.1 0,0.3 -0.2,0.1 -24.6,1.2 -27.3,1.4 -0.5,0 -1,0.1 -1.4,0.1 -0.2,0 -0.2,-0.1 -0.4,-0.2 l 0.1,-0.1 c 0.9,-0.2 2,-0.2 2.9,-0.2 l 4.7,-0.2 z"
   id="path389" />
			<path
   class="st9"
   d="m 205.8,1182.7 c 1.1,0 1.9,1.4 2.8,1.9 0.7,0 2.5,0 3,0.3 0.6,0.4 0.7,1.7 0.8,2.4 0.6,0.4 2,1 2.2,1.6 0.2,0.6 -0.7,2 -0.9,2.6 0.3,0.6 1.2,2.2 1,2.8 -0.2,0.6 -2,1.3 -2.5,1.5 -0.1,0.7 -0.3,2.1 -0.8,2.6 -0.1,0.1 -0.3,0.2 -0.5,0.2 -0.6,0.1 -2.5,-0.2 -3.2,-0.2 l -1.2,0.6 c -0.4,0.2 -0.8,0.4 -1.3,0.4 -1.2,0 -2.3,-1.7 -3,-2.5 -0.9,-0.2 -2.4,-0.3 -3,-0.9 -0.8,-0.7 -0.4,-3 -1,-4 -0.4,-0.7 -1.3,-1.7 -1.4,-2.6 0,-0.9 1.6,-1.8 2.1,-2.5 0.6,-0.8 0.4,-2.3 1.1,-3 0.4,-0.4 2.9,-0.1 3.6,-0.1 0.6,-0.3 1.4,-0.8 2.2,-1.1 z"
   id="path390" />
			<path
   class="st36"
   d="m 204.5,1185.1 c 1.7,-0.2 3.5,0.4 4.9,1.3 1.5,1 2.6,2.6 2.9,4.3 0.2,1.4 0,2.8 -0.8,4 -1,1.4 -2.5,2.1 -4.2,2.4 -2,0.1 -3.7,-0.3 -5.3,-1.5 -1.4,-1.1 -2.6,-2.7 -2.8,-4.6 -0.2,-1.4 0.3,-2.9 1.2,-4 1,-1.3 2.5,-1.7 4.1,-1.9 z"
   id="path391" />
			<path
   class="st2"
   d="m 204.5,1185.4 c 0.1,0 0.2,0 0.3,0 0.1,0 0.2,0 0.3,0 0.1,0 0.2,0 0.3,0 0.1,0 0.2,0 0.3,0 0.1,0 0.2,0 0.3,0 0.1,0 0.2,0 0.3,0 0.1,0 0.2,0 0.3,0.1 0.1,0.1 0.2,0 0.3,0.1 0.1,0 0.2,0.1 0.3,0.1 0.1,0 0.2,0.1 0.3,0.1 0.1,0 0.2,0.1 0.3,0.1 0.1,0 0.2,0.1 0.3,0.1 0.1,0 0.2,0.1 0.3,0.1 0.1,0 0.2,0.1 0.3,0.1 0.1,0 0.2,0.1 0.3,0.2 0.1,0.1 0.2,0.1 0.3,0.2 1.5,1 2.6,2.5 2.9,4.2 0.2,1.2 0,2.6 -0.7,3.6 -1,1.4 -2.4,2.1 -4.1,2.4 -1.9,0.1 -3.5,-0.3 -5,-1.5 -1.4,-1.1 -2.5,-2.6 -2.7,-4.3 -0.2,-1.3 0.2,-2.7 1.1,-3.7 0.8,-1.2 2.2,-1.7 3.7,-1.9 z"
   id="path392" />
			<path
   class="st36"
   d="m 205,1186.5 c 0.1,0 0.2,0 0.3,0 0.1,0 0.2,0 0.3,0 0.1,0 0.2,0 0.3,0 0.1,0 0.2,0 0.3,0 0.1,0 0.2,0 0.3,0 0.1,0 0.2,0 0.3,0.1 0.1,0 0.2,0 0.3,0.1 0.1,0 0.2,0 0.3,0.1 0.1,0 0.2,0.1 0.2,0.1 0.1,0 0.2,0.1 0.2,0.1 0.1,0 0.2,0.1 0.2,0.1 0.1,0 0.2,0.1 0.2,0.1 0.1,0 0.2,0.1 0.2,0.1 0.1,0 0.1,0.1 0.2,0.1 0.1,0 0.1,0.1 0.2,0.1 0.1,0.1 0.1,0.1 0.2,0.2 1.1,0.8 1.8,2.1 2,3.5 0.1,1 -0.2,2.1 -0.8,2.9 -0.8,1 -2,1.4 -3.2,1.5 -0.1,0 -0.2,0 -0.3,0 -0.1,0 -0.2,0 -0.3,0 -0.1,0 -0.2,0 -0.3,0 -0.1,0 -0.2,0 -0.3,0 -0.1,0 -0.2,0 -0.3,0 -0.1,0 -0.2,0 -0.3,-0.1 -0.1,0 -0.2,0 -0.3,-0.1 -0.1,0 -0.2,0 -0.3,-0.1 -0.1,0 -0.2,-0.1 -0.3,-0.1 -0.1,0 -0.2,-0.1 -0.2,-0.1 -0.1,0 -0.2,-0.1 -0.2,-0.1 -0.1,0 -0.2,-0.1 -0.2,-0.1 -0.1,0 -0.2,-0.1 -0.2,-0.1 -0.1,0 -0.2,-0.1 -0.2,-0.1 -0.1,0 -0.1,-0.1 -0.2,-0.2 -0.1,-0.1 -0.1,-0.1 -0.2,-0.2 -1.1,-0.8 -1.8,-2.2 -2,-3.5 0,-0.1 0,-0.1 0,-0.2 0,-0.1 0,-0.1 0,-0.2 0,-0.1 0,-0.1 0,-0.2 0,-0.1 0,-0.1 0,-0.2 0,-0.1 0,-0.1 0,-0.2 0,-0.1 0,-0.1 0,-0.2 0,-0.1 0,-0.1 0,-0.2 0,-0.1 0,-0.1 0.1,-0.2 0,-0.1 0,-0.1 0.1,-0.2 0,-0.1 0,-0.1 0.1,-0.2 0,-0.1 0.1,-0.1 0.1,-0.2 0,-0.1 0.1,-0.1 0.1,-0.2 0,-0.1 0.1,-0.1 0.1,-0.2 0,-0.1 0.1,-0.1 0.1,-0.2 0,-0.1 0.1,-0.1 0.1,-0.2 0,-0.1 0.1,-0.1 0.1,-0.2 0.7,-0.6 1.9,-1 3.2,-1.1 z"
   id="path393" />
			<path
   class="st2"
   d="m 204.4,1186.8 c 1.3,-0.1 2.5,0.1 3.6,0.8 1.2,0.7 2.1,1.9 2.4,3.2 0.2,1 0.1,2 -0.5,2.8 -0.6,1 -1.7,1.4 -2.8,1.7 -1.4,0.1 -2.6,-0.1 -3.8,-0.8 -1.1,-0.7 -2,-1.9 -2.3,-3.2 -0.2,-1 0,-2 0.5,-2.8 0.8,-1 1.9,-1.5 2.9,-1.7 z"
   id="path394" />
		</g>
		<g
   id="g400">
			<path
   class="st36"
   d="m 235.3,1185.8 c 0,0 0,0 0,0 -0.2,0.8 -0.6,1.4 -0.7,2.2 -0.5,2.4 0.6,5.2 1.7,7.3 1.5,2.9 4.6,5.9 7.8,6.8 1.2,0.4 2.3,0.4 3.5,0.2 v 0 c -0.2,0.5 -1.3,1.1 -1.8,1.3 -1.3,0.6 -2.9,0.3 -4.2,-0.2 -3.5,-1.3 -6.2,-4.2 -7.8,-7.5 -1.3,-2.8 -1.6,-5.7 -0.5,-8.6 0.6,-0.6 1.3,-1.1 2,-1.5 z"
   id="path395" />
			<path
   class="st36"
   d="m 254.3,1179.7 c 0.3,0.4 0.4,1 0.6,1.5 0.3,0.7 0.6,1.4 1,2.1 0.6,0.8 1.2,1.5 2,2.1 0.3,0.2 0.7,0.5 0.9,0.8 -0.1,0.1 -0.1,0.2 -0.2,0.2 -1.8,1.3 -3.7,2.5 -5.5,3.7 -0.7,0.5 -2.5,1.9 -3.1,2.1 -0.2,0.4 -4.9,3.8 -5.3,3.9 -0.3,-0.1 -0.5,-0.1 -0.8,-0.2 -0.3,-0.1 -0.5,-0.2 -0.7,-0.3 -1.1,-0.6 -2,-1.7 -2.3,-2.9 -0.2,-0.6 -0.3,-1.4 0,-2 0.5,-1.1 2.9,-2.4 3.9,-3.2 0.2,-0.2 0.6,-0.4 0.7,-0.6 0,0 0,0 0,-0.1 0.1,0 0.3,-0.1 0.4,-0.2 0.6,-0.4 8.3,-6.6 8.4,-6.9 0,0.1 0,0.1 0,0 z"
   id="path396" />
			<path
   class="st2"
   d="m 247.7,1187.3 c 0.1,0 0.5,0.6 0.6,0.6 l 0.1,0.1 c -0.2,0.4 -4.8,3.9 -5.2,4 -0.1,-0.1 -0.4,-0.6 -0.4,-0.7 0.3,-0.8 4.2,-3 4.9,-4 z"
   id="path397" />
			<path
   class="st37"
   d="m 235.3,1185.8 c 0.2,-0.2 0.4,-0.3 0.6,-0.5 1.4,-1 2.8,-1.3 4.5,-1 1.5,0.3 4,1.3 5,2.6 0,0 0,0 0,0.1 -0.1,0.2 -0.5,0.4 -0.7,0.6 -1,0.8 -3.4,2.1 -3.9,3.2 -0.3,0.6 -0.2,1.4 0,2 0.3,1.2 1.2,2.3 2.3,2.9 0.2,0.1 0.5,0.2 0.7,0.3 0.3,0.1 0.5,0.2 0.8,0.2 0.5,-0.1 5.1,-3.6 5.3,-3.9 1.1,1.6 1.5,3.8 1.1,5.6 -0.3,1.6 -1.2,2.8 -2.5,3.7 -0.3,0.2 -0.6,0.4 -0.9,0.5 v 0 c -1.2,0.2 -2.4,0.1 -3.5,-0.2 -3.1,-0.9 -6.3,-3.9 -7.8,-6.8 -1.1,-2.1 -2.1,-4.9 -1.7,-7.3 0.1,-0.6 0.4,-1.2 0.7,-2 z"
   id="path398" />
			<path
   class="st36"
   d="m 268.4,1166.2 c 0.3,0 0.7,0 1,0.1 2.3,0.4 4.3,2 5.6,3.9 1.3,1.9 1.9,4.3 1.5,6.5 -0.5,2.5 -2.4,4.2 -5,4.3 -0.9,0 -1.9,-0.2 -2.8,0.1 -1.6,0.4 -2.9,1.5 -4.3,2.4 0,0.1 0,0.1 0,0.2 0,0.6 -0.5,1.5 -1,1.9 -0.6,0.6 -1.4,0.9 -2.3,0.9 -1.6,-0.1 -3.2,-1.4 -4.2,-2.6 -0.3,-0.4 -0.6,-0.8 -1,-1.2 v 0 c 0,-0.2 -0.2,-0.5 -0.3,-0.7 -0.7,-1.4 -1.3,-2.8 -1,-4.4 0.1,-0.8 0.6,-1.6 1.3,-2.1 0.9,-0.6 1.9,-0.4 2.8,-0.3 0.5,-0.2 3.2,-2.4 3.3,-2.8 0.2,0.4 0,1.6 0.1,2.1 0.3,2 1.8,4.5 3.5,4.5 h 0.1 c -0.2,-0.7 -0.8,-1.3 -1.2,-2 -0.9,-1.5 -1.4,-3.3 -1.5,-5 -0.1,-1.5 0.2,-2.9 1.2,-4.1 1.1,-1.2 2.6,-1.6 4.2,-1.7 z"
   id="path399" />
			<path
   class="st2"
   d="m 264.2,1168 c 0,0 -1.8,3 -1,5.7 0.9,2.6 2.4,4 2.9,4.4 0.8,0.6 -0.2,1.3 -0.9,1 -0.7,-0.3 -1.8,-0.8 -2.5,-2.5 -0.7,-1.7 -0.9,-3.8 -0.6,-4.8 0.2,-1.1 1,-2.9 2.1,-3.8 z"
   id="path400" />
		</g>
	</g>
	<g
   id="g408">
		<path
   class="st38"
   d="m 299.8,1082.3 h -5.3 c -1,0 -1.9,0.8 -1.9,1.9 v 21.6 17 8.6 c 0,1 0.9,1.9 1.9,1.9 h 55.1 c 1,0 1.9,-0.8 1.9,-1.9 v -47.3 c 0,-1 -0.9,-1.9 -1.9,-1.9 h -34"
   id="path401" />
		<polygon
   class="st39"
   points="345.6,1098.1 298.4,1098.1 298.4,1087.8 345.6,1087.8 "
   id="polygon401" />
		<polygon
   class="st9"
   points="308,1121.5 319.9,1121.5 319.9,1110.2 319.9,1106.5 308,1106.5 "
   id="polygon402" />
		<polygon
   class="st9"
   points="338.7,1106.5 345.7,1106.5 345.7,1123.6 345.7,1125.1 338.7,1125.1 "
   id="polygon403" />
		<line
   class="st38"
   x1="344.89999"
   y1="1101.9"
   x2="298.5"
   y2="1101.9"
   id="line403" />
		<line
   class="st38"
   x1="304.20001"
   y1="1116.6"
   x2="298.5"
   y2="1116.6"
   id="line404" />
		<line
   class="st38"
   x1="336.10001"
   y1="1116.6"
   x2="323"
   y2="1116.6"
   id="line405" />
		<line
   class="st38"
   x1="304.20001"
   y1="1108.6"
   x2="298.5"
   y2="1108.6"
   id="line406" />
		<line
   class="st38"
   x1="336.10001"
   y1="1108.6"
   x2="323"
   y2="1108.6"
   id="line407" />
		<line
   class="st38"
   x1="336.10001"
   y1="1125.1"
   x2="298.5"
   y2="1125.1"
   id="line408" />
	</g>
	<path
   class="st2"
   d="m 255.6,1109.6 -1,5 c -0.9,-1 -2.3,-1.5 -4.1,-1.5 -1.8,0 -3.3,0.7 -4.4,2.1 -0.6,0.8 -1.1,1.8 -1.3,3 h 9.1 l -0.5,2.8 h -8.9 c 0,0.3 0,0.6 0,1.1 0,0.4 0,0.9 0,1.3 h 8.4 l -0.5,2.8 h -7.6 c 0.3,1.3 0.7,2.3 1.3,3 1.1,1.4 2.5,2.1 4.3,2.1 2.1,0 3.8,-0.7 5.1,-2.1 v 5.5 c -1.4,0.8 -3.1,1.2 -5,1.2 -3.2,0 -5.9,-1.2 -8,-3.6 -1.4,-1.6 -2.3,-3.7 -2.8,-6.1 h -2.5 l 0.5,-2.8 h 1.6 c 0,-0.3 0,-0.6 0,-0.9 0,-0.6 0,-1 0,-1.5 h -2.2 l 0.5,-2.8 h 2 c 0.5,-2.4 1.4,-4.4 2.8,-6 2.1,-2.4 4.8,-3.6 8.2,-3.6 2,-0.1 3.6,0.3 5,1 z"
   id="path408" />
	<g
   id="g409">
		<circle
   class="st40"
   cx="249.10001"
   cy="1122.9"
   r="26.1"
   id="circle408" />
		<path
   class="st41"
   d="m 250.9,1106.6 c 2.1,0 3.9,0.4 5.5,1.3 l -1.1,5.7 c -1.1,-1.2 -2.6,-1.7 -4.7,-1.7 -2,0 -3.7,0.8 -5,2.4 -0.7,0.9 -1.2,2 -1.5,3.4 h 10.4 l -0.6,3.2 h -10.1 c 0,0.3 0,0.7 0,1.2 0,0.5 0,1 0,1.5 h 9.6 l -0.6,3.2 h -8.6 c 0.3,1.5 0.8,2.6 1.5,3.4 1.3,1.6 2.9,2.4 4.9,2.4 2.4,0 4.3,-0.8 5.8,-2.4 v 6.3 c -1.6,0.9 -3.5,1.3 -5.7,1.3 -3.7,0 -6.7,-1.4 -9,-4.1 -1.6,-1.9 -2.7,-4.2 -3.2,-7 h -2.8 l 0.6,-3.2 h 1.8 c 0,-0.3 0,-0.7 0,-1 0,-0.6 0,-1.2 0,-1.7 h -2.5 l 0.6,-3.2 h 2.2 c 0.5,-2.7 1.6,-5 3.1,-6.8"
   id="path409" />
	</g>
	<g
   id="g411">
		<path
   class="st41"
   d="m 190.3,1276.5 h 40.1 -43.2 c -2.9,-0.2 -5.1,-2.6 -5.2,-5.3 -0.1,-1.1 0.1,-7.3 7.8,-7.1 7.4,0.2 40.6,-0.1 40.6,-0.1 l -7.2,-32.7 h -31.9 c -2.8,0 -4.3,1.7 -4.3,3.2 l -3.6,24"
   id="path410" />
		<line
   class="st41"
   x1="187.39999"
   y1="1268.1"
   x2="228.5"
   y2="1268.1"
   id="line410" />
		<line
   class="st41"
   x1="187.39999"
   y1="1271.8"
   x2="228.5"
   y2="1271.8"
   id="line411" />
		<path
   class="st9"
   d="m 200.5,1268.5 h 6.5 v 14.5 l -3.3,-4.7 -3.2,4.7 z"
   id="path411" />
	</g>
	<g
   id="g415">
		<path
   class="st41"
   d="m 328.4,1172.2 -19,8.6 15.4,33.9 8.3,-7 10.7,-1.6 z"
   id="path412" />
		<path
   class="st41"
   d="m 314.3,1172.5 19,8.6 -15.4,34 -8.3,-7.1 -10.8,-1.6 c 0.1,0.1 15.5,-33.9 15.5,-33.9 z"
   id="path413" />
		<path
   class="st41"
   d="m 311.7,1156.2 c 1.6,-0.8 2.4,-3.7 4.1,-4.1 1.7,-0.4 3.7,1.9 5.5,1.9 1.8,0 3.8,-2.3 5.5,-1.9 1.7,0.4 2.6,3.4 4.1,4.1 1.6,0.8 4.4,-0.4 5.7,0.7 1.4,1.1 0.9,4.2 2,5.6 1.1,1.4 4.1,1.6 4.9,3.2 0.7,1.6 -1,4.1 -0.6,5.9 0.5,1.7 3.1,3.3 3.1,5.1 0,1.8 -2.6,3.4 -3,5.1 -0.4,1.8 1.3,4.3 0.6,5.9 -0.8,1.6 -3.8,1.8 -4.9,3.2 -1.1,1.4 -0.6,4.4 -2,5.6 -1.4,1.1 -4.1,0 -5.7,0.7 -1.6,0.8 -2.4,3.7 -4.1,4.1 -1.7,0.4 -3.7,-1.9 -5.5,-1.9 -1.8,0 -3.8,2.3 -5.5,1.9 -1.7,-0.4 -2.6,-3.4 -4.1,-4.1 -1.6,-0.8 -4.4,0.4 -5.7,-0.7 -1.4,-1.1 -0.9,-4.2 -2,-5.6 -1.1,-1.4 -4.1,-1.6 -4.9,-3.2 -0.7,-1.6 1,-4.1 0.6,-5.9 -0.5,-1.7 -3.1,-3.3 -3.1,-5.1 0,-1.8 2.6,-3.4 3,-5.1 0.4,-1.8 -1.3,-4.3 -0.6,-5.9 0.8,-1.6 3.8,-1.8 4.9,-3.2"
   id="path414" />
		<path
   class="st9"
   d="m 321.4,1167.6 c -5,0 -9,4.1 -9,9 0,5 4.1,9 9,9 5,0 9,-4.1 9,-9 0,-4.9 -4,-9 -9,-9 z m 0,13.1 c -2.3,0 -4.1,-1.8 -4.1,-4.1 0,-2.3 1.8,-4.1 4.1,-4.1 2.3,0 4.1,1.8 4.1,4.1 0,2.3 -1.9,4.1 -4.1,4.1 z m 0,-20.3 c -9,0 -16.3,7.3 -16.3,16.3 0,9 7.3,16.3 16.3,16.3 9,0 16.3,-7.3 16.3,-16.3 -0.1,-9 -7.4,-16.3 -16.3,-16.3 z m 0,29.8 c -7.5,0 -13.5,-6.1 -13.5,-13.5 0,-7.5 6.1,-13.5 13.5,-13.5 7.4,0 13.5,6.1 13.5,13.5 0,7.5 -6.1,13.5 -13.5,13.5 z"
   id="path415" />
	</g>
	<circle
   class="st40"
   cx="391.89999"
   cy="1129.5"
   r="22.799999"
   id="circle415" />
	<g
   id="g416">
		<path
   class="st41"
   d="m 386.4,1119.2 c 0.4,7.1 0.2,13.7 0.1,20.5 0,0 1,-0.7 2.4,-1.8 4.1,-3.2 8.1,-6.3 11.2,-9.2 -1.9,-1.3 -6.8,-5.1 -8.6,-6.4"
   id="path416" />
	</g>
	<g
   id="g418">
		<circle
   class="st40"
   cx="274.5"
   cy="1254.3"
   r="25.5"
   id="circle416" />
		<path
   class="st41"
   d="m 285.3,1254.2 v 11.3 c 0,1 -0.8,1.8 -1.8,1.8 h -17.9 c -1,0 -1.8,-0.8 -1.8,-1.8 v -12.2 c 0,-1 0.8,-1.8 1.8,-1.8 l 8.9,-10 8.9,10 c 1,0 1.8,0.8 1.8,1.8"
   id="path417" />
		<rect
   x="270.70001"
   y="1256.5"
   class="st9"
   width="7.8000002"
   height="10.8"
   id="rect417" />
		<path
   class="st41"
   d="m 264.4,1248.2 -4.7,4.7 c -0.4,0.4 -0.4,1.2 0,1.6 l 1.1,1.1 c 0.4,0.4 1.2,0.4 1.6,0 l 12.1,-12.1 12.1,12.1 c 0.4,0.4 1.2,0.4 1.6,0 l 1.1,-1.1 c 0.4,-0.4 0.4,-1.2 0,-1.6 L 275.4,1239 c -0.2,-0.2 -0.5,-0.3 -0.8,-0.3 -0.3,0 -0.6,0.1 -0.8,0.3 l -2,2"
   id="path418" />
	</g>
	<g
   id="g421">
		<circle
   class="st42"
   cx="244.39999"
   cy="1317.7"
   r="24.200001"
   id="circle418" />
		<g
   id="g420">
			<path
   class="st41"
   d="m 239.5,1324.9 c -0.8,3 -1.1,5 -1.1,6.1 0,0.7 0.2,1.3 0.6,1.7 0.4,0.4 0.9,0.6 1.6,0.6 0.7,0 1.6,-0.3 2.6,-0.9 1,-0.6 2.6,-1.9 4.8,-3.9 0.1,-0.1 0.2,-0.4 0.1,-0.5 -0.1,-0.2 -0.3,-0.2 -0.5,-0.1 -2,0.9 -4.2,1.9 -4.6,2 0,0 0,0 -0.1,-0.1 -0.1,-0.1 -0.1,-0.2 -0.1,-0.3 0,-1.1 0.8,-4.5 2.5,-10 1.4,-4.6 1.5,-5.6 1.5,-5.9 0,-0.5 -0.2,-0.9 -0.5,-1.2 -0.3,-0.3 -0.8,-0.4 -1.4,-0.4 -1,0 -2.1,0.4 -3.5,1.1 -1.3,0.7 -2.8,2 -4.4,3.8 -0.1,0.1 -0.1,0.3 0,0.5 0.1,0.2 0.3,0.2 0.5,0.1 0.6,-0.2 3.4,-1.4 3.8,-1.6 0.3,-0.2 0.6,-0.3 0.9,-0.3 0,0 0,0 0,0 0,0 0,0 0,0.1 0,0.2 0,0.5 -0.1,0.9 -0.1,0.4 -0.9,2.9 -1,3.3"
   id="path419" />
			<path
   class="st9"
   d="m 249.2,1302.9 c -0.6,-0.6 -1.3,-0.9 -2.1,-0.9 -1,0 -2,0.4 -2.7,1.2 -0.7,0.8 -1.1,1.8 -1.1,2.9 0,0.9 0.3,1.6 0.8,2.2 0.6,0.6 1.2,0.9 2.1,0.9 1,0 1.9,-0.4 2.7,-1.3 0.8,-0.8 1.2,-1.8 1.2,-3 -0.1,-0.7 -0.3,-1.4 -0.9,-2 z"
   id="path420" />
		</g>
	</g>
	<g
   id="g426">
		<path
   class="st9"
   d="m 397,1321.5 c -0.2,0.1 -0.5,0.1 -0.7,0 l -23,-9.1 v 14.6 c 2.9,7.2 13.3,13 23.8,13.1 11.1,0.1 22.3,-5.7 25.9,-13.5 l -0.4,-15.2 z"
   id="path421" />
		<path
   class="st41"
   d="m 389.2,1288.9 4.7,-1.8 c 1.7,-0.6 3.6,-0.6 5.3,0 l 7.1,2.7 34.5,13 c 0.9,0.4 0.9,1.7 0,2 l -43.9,16.6 c -0.2,0.1 -0.5,0.1 -0.8,0 l -43.9,-16.6 c -0.9,-0.4 -0.9,-1.7 0,-2 l 23.3,-8.8"
   id="path422" />
		<path
   class="st9"
   d="m 364.5,1331 -2.5,15.4 c -0.1,0.2 1.3,0.6 2,0.1 0.9,0.6 2.1,0.4 2.4,-0.1 0.4,0.4 1.5,0.7 2.3,0 0.7,0.5 2.2,0.2 2.1,-0.3 l -2.1,-15.1 c -0.1,-0.1 -4.1,-0.2 -4.2,0 z"
   id="path423" />
		<g
   id="g425">
			<path
   class="st43"
   d="m 366.9,1331 c 0,0.3 -0.2,0.6 -0.5,0.6 -0.3,0 -0.5,-0.3 -0.5,-0.6 v -22.2 0 c 0,-0.3 0.2,-0.5 0.4,-0.6 l 26.3,-9.2"
   id="path424" />
			<path
   class="st41"
   d="m 366.4,1334.6 c 2.4,0 4.4,-1.8 4.4,-4 0,-2.2 -2,-4 -4.4,-4 -2.4,0 -4.4,1.8 -4.4,4 0,2.2 2,4 4.4,4 z"
   id="path425" />
		</g>
	</g>
	<g
   id="g428">
		<path
   class="st41"
   d="m 322.2,1245.6 v 12.9 c 0,3.1 2.5,5.6 5.6,5.6 h 6.6 v 9.9 l 10.1,-9.9 h 34 c 3.1,0 5.6,-2.5 5.6,-5.6 v -26.7 c 0,-3.1 -2.5,-5.6 -5.6,-5.6 h -50.8 c -3.1,0 -5.6,2.5 -5.6,5.6"
   id="path426" />
		<g
   id="g427">
			<rect
   x="329.20001"
   y="1233.9"
   class="st22"
   width="16"
   height="22.5"
   id="rect426" />
			<rect
   x="361.20001"
   y="1233.9"
   class="st9"
   width="16"
   height="22.5"
   id="rect427" />
		</g>
	</g>
	<circle
   class="st40"
   cx="429.29999"
   cy="1249.7"
   r="24.799999"
   id="circle428" />
	<path
   class="st9"
   d="m 441.2,1261.8 c 0.2,-0.3 0.2,-0.6 0.1,-0.9 -0.3,-0.7 -0.9,-2.1 -1.6,-3.5 -0.5,-1 -0.9,-2 -1.2,-2.7 -0.6,-1.6 -1.8,-1 -3.1,-1.2 H 434 l -1.5,2.2 4.1,0.1 1,2.2 c 0.2,0.9 0.4,1.1 0.9,2.3 -0.5,0 -0.9,0 -1.4,0 -4.9,-0.2 -7.3,0.1 -13,0 -0.4,0 -0.7,0 -1,0 -2,0 -2.5,0 -2.5,0 l 2.2,-4.7 h 3.9 l -0.9,-1.9 h -2.4 c -1.1,0.2 -2.2,-0.3 -3,1.4 -0.4,0.8 -0.8,2 -1.3,3.1 -0.3,0.8 -0.7,1.6 -1,2.4 -0.5,1.2 -0.2,2.1 1,2.1 0.9,0 2.1,0 3.4,0 0.4,0 0.9,0 1.4,0 5.2,-0.1 9.8,-0.1 14.8,-0.1 0.5,0 1.1,0 1.6,0 0.3,-0.2 0.6,-0.5 0.9,-0.8 z"
   id="path428" />
	<path
   class="st41"
   d="m 436.2,1244.5 c 0,0 0,-0.1 0.1,-0.1 l 0.2,-0.3 v 0 c 0.4,-0.9 0.7,-1.9 0.7,-3 0,-3.9 -3.2,-7.1 -7.1,-7.1 -3.9,0 -7.1,3.2 -7.1,7.1 0,1 0.2,2 0.6,2.8 v 0 l 0.1,0.1 c 0.1,0.2 0.2,0.3 0.2,0.5 l 6.1,12.3 3.8,-7.4 m -3.8,-4.8 c -1.9,0 -3.4,-1.5 -3.4,-3.4 0,-1.9 1.5,-3.4 3.4,-3.4 1.9,0 3.4,1.5 3.4,3.4 0,1.9 -1.5,3.4 -3.4,3.4 z"
   id="path429" />
	<g
   id="g443">
		<path
   class="st36"
   d="m 390.8,1171.4 c -2.1,0.3 -5.7,1.7 -5.7,2.7 0,5.3 0,37.4 0,37.4 h 31.7 c 1.1,0.9 2.7,1.4 4.5,1.4 1.8,0 3.4,-0.5 4.5,-1.4 h 13 17.9 c 0,0 0,-35.5 0,-37.4 0,-0.8 -2.6,-2.4 -4.4,-2.7 l -1.6,-0.6 -29.1,9.8 z"
   id="path430" />
		<path
   class="st41"
   d="m 410.2,1164.2 c 3.4,1 6.5,2.6 9.3,4.7 l 1.3,1.5 v 21.7 16.3 c -2.9,-1.1 -12.8,-4.4 -22.7,-4.4 -3.9,0 -7.4,0.5 -10.4,1.6 v -41 c 1.7,-0.5 6.4,-1.7 12.2,-1.7"
   id="path431" />
		<path
   class="st41"
   d="m 454.7,1205.5 c -3.2,-1.1 -6.8,-1.7 -10.9,-1.7 -9.9,0 -19.4,3.4 -22.2,4.5 V 1192 l -0.2,-21.9 1.5,-1.2 c 5.4,-4 11.9,-6.1 19.5,-6.1 5.8,0 10.5,1.2 12.2,1.7 v 41 z"
   id="path432" />
		<path
   class="st43"
   d="m 450.9,1170.6 c -12.4,-3 -23.3,2.3 -23.7,2.6"
   id="path433" />
		<path
   class="st43"
   d="m 450.9,1177.1 c -12.4,-3 -23.3,2.3 -23.7,2.6"
   id="path434" />
		<path
   class="st43"
   d="m 450.9,1183.6 c -12.4,-3 -23.3,2.3 -23.7,2.6"
   id="path435" />
		<path
   class="st43"
   d="m 450.9,1190.1 c -12.4,-3 -23.3,2.3 -23.7,2.6"
   id="path436" />
		<path
   class="st43"
   d="m 450.9,1196.7 c -12.4,-3 -23.3,2.3 -23.7,2.6"
   id="path437" />
		<path
   class="st43"
   d="m 392,1170.6 c 12.4,-3 23.3,2.3 23.7,2.6"
   id="path438" />
		<path
   class="st43"
   d="m 392,1177.1 c 12.4,-3 23.3,2.3 23.7,2.6"
   id="path439" />
		<path
   class="st43"
   d="m 392,1183.6 c 12.4,-3 23.3,2.3 23.7,2.6"
   id="path440" />
		<path
   class="st43"
   d="m 392,1190.1 c 12.4,-3 23.3,2.3 23.7,2.6"
   id="path441" />
		<path
   class="st43"
   d="m 392,1196.7 c 12.4,-3 23.3,2.3 23.7,2.6"
   id="path442" />
		<path
   class="st9"
   d="m 421.9,1194 1.9,1.3 v -25.1 c 0.1,0 0.1,-0.1 0.2,-0.1 v -2.6 c -0.9,0.4 -1.8,0.9 -2.7,1.3 -0.8,-0.5 -1.7,-0.9 -2.6,-1.3 v 2.7 c 0,0 0.1,0 0.1,0.1 v 25.1 l 2.5,-1.7 z"
   id="path443" />
	</g>
	<g
   id="g451">
		<ellipse
   class="st9"
   cx="309.89999"
   cy="1433.7"
   rx="48.900002"
   ry="10.1"
   id="ellipse443" />
		<path
   class="st36"
   d="m 324.1,1427 c -2.9,-1.4 -2.4,-2 -2.8,-3.1 5.3,-19.3 6.4,-45.3 6.3,-65.3 3.9,-2.6 5.4,-7.1 6.3,-11.5 2.3,-11.5 0.1,-24.3 -3,-35.5 -0.9,-3.4 -1.9,-7 -3.9,-10 -1.4,-2 -2.7,-3 -4.8,-4.1 -1.2,-0.8 -1.5,-1 -2.2,-1.3 -2.4,-1.2 -6,-0.6 -6,-1.7 0,-2 1.8,-2.6 2.5,-2.7 2.1,-0.2 4.6,-2.2 4.5,-6.1 0,-1.4 -0.8,-3.9 -1.2,-5.2 -0.3,-1 -0.1,-2.1 -1.7,-3.4 -0.9,-0.7 -1.5,-1.7 -2.6,-2.2 -1.1,-0.5 -1.9,-1.6 -4.3,-2 -1.5,-0.3 -8.1,2.8 -9.4,4.8 -0.4,0.7 -1.6,1.7 -1.9,2.7 -0.3,1.1 0.4,2.2 0.4,3.5 0,1.7 -0.6,3.4 -0.1,5.1 0.5,1.6 3.5,3.8 4.9,4 2.1,2.6 -1.3,2.8 -2.8,3.3 -0.7,0.2 -3.5,1.4 -4.3,2 -2,1.3 -4.3,2.1 -5.9,5.2 -5.2,10.3 -9.4,39.1 -3.9,49.4 1.1,2 2.3,3.3 4.3,4.5 -0.2,21.7 1.3,45.1 6.9,66.1 -2.3,2.7 -8.4,3.2 -9.2,9.1 -0.2,0.5 0.6,3.6 1.7,4 5.8,1.9 12.7,-1.5 19,-1.6 5.7,-0.1 13.3,3.1 18.4,1.5 1.3,-0.4 0,-7.1 -5.2,-9.5 z m -14.3,-11.7 c -0.5,-4.5 -0.4,-9.1 -0.5,-13.6 -0.3,-10.2 -0.1,-20.3 0.5,-30.4 1.7,5.8 0.4,36.2 0,44 z"
   id="path444" />
		<path
   class="st2"
   d="m 312.2,1425.4 c 3,1.1 5.3,0 6.4,0 0.9,0 0.8,-1 1.9,0.1 0.5,1.4 3.9,2.8 5.9,4.4 2,1.6 2.5,3.3 -1,3.8 -2.8,0.5 -6,-1.1 -12.8,-2.9 -2.9,-0.5 -1.9,-3.2 -1.6,-4.1 0.3,-0.7 0.1,-0.9 1.2,-1.3 z"
   id="path445" />
		<path
   class="st2"
   d="m 307.5,1425.4 c -3,1.1 -5.3,0 -6.4,0 -0.9,0 -0.8,-1 -1.9,0.1 -2,2.4 -9,3.1 -7.1,7.6 0.7,1 8.2,-0.6 15.1,-2.3 2.9,-0.5 1.9,-3.2 1.6,-4.1 -0.3,-0.7 -0.1,-0.9 -1.3,-1.3 z"
   id="path446" />
		<path
   class="st22"
   d="m 318.9,1296.8 c 0.6,0.3 4.8,2.3 5.4,2.7 6,4.7 9.2,25.9 9.8,33.2 0.6,8.2 0.2,18.4 -5.4,24.8 -0.3,-5.9 -1.8,-41.3 -3.7,-44 l -0.3,0.2 c -1.2,3.2 1.7,33.6 2.2,39.5 -3.5,0.6 -7.1,0.9 -10.7,1 -3.8,0.2 -20.5,0.5 -22.8,-1.6 0.3,-8.8 1.5,-17.6 2.4,-26.3 0.3,-3 0.9,-6.2 0.9,-9.2 0,-1.1 0,-2.2 -0.5,-3.3 l -0.5,-0.1 c -0.5,0.7 -0.7,1.3 -0.8,2.1 -0.6,3.6 -0.6,7.5 -1,11.2 -1,9.8 -1.9,19.6 -2.5,29.4 0,0 -0.1,-0.1 -0.1,-0.1 l -0.2,-0.2 c -2,-2.1 -3.1,-4.2 -3.8,-7 -2.7,-10.7 -0.1,-36.4 5.8,-45.9 1,-1.6 6.2,-5 8.1,-5.4 0.3,1.1 0.4,2.9 1.7,4 0.2,0.1 0.4,0.2 0.6,0.3 0.2,0.1 0.4,0.2 0.6,0.3 0.2,0.1 0.4,0.2 0.6,0.3 0.2,0.1 0.4,0.2 0.6,0.3 0.2,0.1 0.4,0.2 0.6,0.2 0.2,0.1 0.4,0.1 0.6,0.2 0.2,0.1 0.4,0.1 0.7,0.2 0.2,0.1 0.4,0.1 0.7,0.1 0.2,0 0.4,0.1 0.7,0.1 0.2,0 0.4,0.1 0.7,0.1 0.3,0 0.5,0 0.7,0 0.2,0 0.5,0 0.7,0 0.2,0 0.5,0 0.7,0 0.2,0 0.5,0 0.7,-0.1 0.2,0 0.2,0 0.5,-0.1 7.8,-1.5 5.7,-6.5 6.3,-6.9 z"
   id="path447" />
		<path
   class="st2"
   d="m 315.3,1281.8 -1.5,-2 c -0.4,-1.1 -1.2,-1.9 -2.2,-1.3 -0.7,0.4 -1.5,2.2 -2.7,2.5 -2.3,0.5 -4.7,0 -4.7,0 0,0 0.6,2.2 -0.6,2.8 -1.8,0.8 -1.1,1.9 -1.1,3.3 0,1.1 1.5,1.1 1.6,2.6 0.2,1.6 1.9,2.4 3.1,3.8 l -0.4,2.4 c 0,0 -2.5,0.6 -2.9,1.4 -0.3,0.6 -0.8,4.8 6.6,4.1 6.7,-0.6 6.5,-3.4 5.9,-4.3 -0.3,-0.5 -2.4,-0.9 -2.4,-0.9 0,0 -1,-1 -1.1,-2.8 2.2,-2.4 2.4,-2.1 2.9,-4.6 0.1,-0.7 2.1,-1.1 2.2,-2.8 0,-1.8 -1.9,-1.5 -2.1,-2.2 -0.3,-1.1 -0.6,-2 -0.6,-2 z"
   id="path448" />
		<path
   class="st26"
   d="m 307.8,1282.8 c -0.1,0 -0.3,-0.1 -0.4,-0.1 -0.3,0 -0.6,0.2 -0.7,0.4 -0.1,0.2 -0.2,0.4 -0.1,0.7 0.1,0.3 0.3,0.4 0.5,0.6 0.1,0.1 0.2,0.1 0.4,0.1 0.1,-0.1 0.2,-0.1 0.3,-0.3 0.2,-0.5 0.2,-0.9 0,-1.4 z"
   id="path449" />
		<path
   class="st26"
   d="m 308.3,1289.2 c 0.1,-0.2 0.1,-0.2 0.2,-0.3 0.8,-0.5 1.8,-0.4 2.6,-0.2 0.2,0.1 0.3,0.2 0.5,0.4 l -0.1,0.1"
   id="path450" />
		<path
   class="st26"
   d="m 311.5,1282.8 c 0.1,-0.1 0.3,-0.1 0.4,-0.1 0.3,0 0.6,0.2 0.8,0.4 0.2,0.2 0.2,0.4 0.2,0.7 0,0.3 -0.3,0.5 -0.5,0.6 -0.1,0.1 -0.2,0.1 -0.4,0.1 -0.1,-0.1 -0.2,-0.1 -0.3,-0.3 -0.2,-0.5 -0.3,-0.9 -0.2,-1.4 z"
   id="path451" />
	</g>
</g>








































</svg>
