<svg xmlns="http://www.w3.org/2000/svg" width="256" height="256" viewBox="0 0 100 100"><rect width="100" height="100" rx="50" fill="#04aae8"></rect><path fill="#fff" d="M66.16 33.13L66.16 43.84L53.74 43.84L53.74 64.34Q53.74 67.67 55.20 68.99Q56.67 70.30 59.29 70.30L59.29 70.30Q61.31 70.30 63.33 69.90Q65.35 69.49 66.46 68.79L66.46 68.79L68.69 78.99Q66.97 79.90 63.48 80.75Q60.00 81.61 56.06 81.61L56.06 81.61Q46.67 81.61 42.78 77.98Q38.89 74.34 38.89 66.97L38.89 66.97L38.89 43.84L31.31 43.84L31.31 33.13L38.89 33.13L38.89 18.39L53.74 18.39L53.74 33.13L66.16 33.13Z"></path></svg>